<svg viewBox="0 0 1024 707" xmlns="http://www.w3.org/2000/svg" xmlns:inkscape="http://www.inkscape.org/namespaces/inkscape" width="428mm" height="295mm">
  <g inkscape:groupmode="layer" id="layer1" inkscape:label="1 - black">
    <line style="stroke: black; stroke-width: 0.7" x1="812.0" y1="353.0" x2="221.11534819267513" y2="457.18890660015813"/>
    <line style="stroke: black; stroke-width: 0.7" x1="221.11534819267513" y1="457.18890660015813" x2="784.9309206642201" y2="251.976820604757"/>
    <line style="stroke: black; stroke-width: 0.7" x1="784.9309206642201" y1="251.976820604757" x2="265.3156783935568" y2="551.9768206047569"/>
    <line style="stroke: black; stroke-width: 0.7" x1="265.3156783935568" y1="551.9768206047569" x2="724.9423442649438" y2="166.3042547928335"/>
    <line style="stroke: black; stroke-width: 0.7" x1="724.9423442649438" y1="166.3042547928335" x2="339.2697784530209" y2="625.9309206642208"/>
    <line style="stroke: black; stroke-width: 0.7" x1="339.2697784530209" y1="625.9309206642208" x2="639.2697784530212" y2="106.31567839355785"/>
    <line style="stroke: black; stroke-width: 0.7" x1="639.2697784530212" y1="106.31567839355785" x2="434.05769245762167" y2="670.1312508651035"/>
    <line style="stroke: black; stroke-width: 0.7" x1="434.05769245762167" y1="670.1312508651035" x2="538.2465990577803" y2="79.24659905777878"/>
    <line style="stroke: black; stroke-width: 0.7" x1="538.2465990577803" y1="79.24659905777878" x2="538.246599057782" y2="679.2465990577788"/>
    <line style="stroke: black; stroke-width: 0.7" x1="538.246599057782" y1="679.2465990577788" x2="434.0576924576221" y2="88.36194725045425"/>
    <line style="stroke: black; stroke-width: 0.7" x1="434.0576924576221" y1="88.36194725045425" x2="639.2697784530228" y2="652.1775197219995"/>
    <line style="stroke: black; stroke-width: 0.7" x1="639.2697784530228" y1="652.1775197219995" x2="339.2697784530233" y2="132.56227745133594"/>
    <line style="stroke: black; stroke-width: 0.7" x1="339.2697784530233" y1="132.56227745133594" x2="724.9423442649465" y2="592.1889433227232"/>
    <line style="stroke: black; stroke-width: 0.7" x1="724.9423442649465" y1="592.1889433227232" x2="265.3156783935574" y2="206.51637751080227"/>
    <line style="stroke: black; stroke-width: 0.7" x1="265.3156783935574" y1="206.51637751080227" x2="784.9309206642203" y2="506.51637751080295"/>
    <line style="stroke: black; stroke-width: 0.7" x1="784.9309206642203" y1="506.51637751080295" x2="221.11534819267547" y2="301.30429151540096"/>
    <line style="stroke: black; stroke-width: 0.7" x1="221.11534819267547" y1="301.30429151540096" x2="812.0000000000009" y2="405.4931981155558"/>
    <line style="stroke: black; stroke-width: 0.7" x1="812.0000000000009" y1="405.4931981155558" x2="212.0000000000009" y2="405.49319811555915"/>
    <line style="stroke: black; stroke-width: 0.7" x1="212.0000000000009" y1="405.49319811555915" x2="802.8846518073252" y2="301.30429151539767"/>
    <line style="stroke: black; stroke-width: 0.7" x1="802.8846518073252" y1="301.30429151539767" x2="239.06907933578134" y2="506.516377510802"/>
    <line style="stroke: black; stroke-width: 0.7" x1="239.06907933578134" y1="506.516377510802" x2="758.684321606445" y2="206.5163775108029"/>
    <line style="stroke: black; stroke-width: 0.7" x1="758.684321606445" y1="206.5163775108029" x2="299.05765573505744" y2="592.1889433227257"/>
    <line style="stroke: black; stroke-width: 0.7" x1="299.05765573505744" y1="592.1889433227257" x2="684.7302215469786" y2="132.5622774513368"/>
    <line style="stroke: black; stroke-width: 0.7" x1="684.7302215469786" y1="132.5622774513368" x2="384.73022154697753" y2="652.1775197219995"/>
    <line style="stroke: black; stroke-width: 0.7" x1="384.73022154697753" y1="652.1775197219995" x2="589.9423075423759" y2="88.36194725045345"/>
    <line style="stroke: black; stroke-width: 0.7" x1="589.9423075423759" y1="88.36194725045345" x2="485.75340094221644" y2="679.2465990577781"/>
    <line style="stroke: black; stroke-width: 0.7" x1="485.75340094221644" y1="679.2465990577781" x2="485.7534009422135" y2="79.2465990577781"/>
    <line style="stroke: black; stroke-width: 0.7" x1="485.7534009422135" y1="79.2465990577781" x2="589.9423075423788" y2="670.1312508651017"/>
    <line style="stroke: black; stroke-width: 0.7" x1="589.9423075423788" y1="670.1312508651017" x2="384.73022154697486" y2="106.31567839355762"/>
    <line style="stroke: black; stroke-width: 0.7" x1="384.73022154697486" y1="106.31567839355762" x2="684.7302215469736" y2="625.9309206642216"/>
    <line style="stroke: black; stroke-width: 0.7" x1="684.7302215469736" y1="625.9309206642216" x2="299.05765573504783" y2="166.30425479283662"/>
    <line style="stroke: black; stroke-width: 0.7" x1="299.05765573504783" y1="166.30425479283662" x2="758.6843216064336" y2="551.9768206047614"/>
    <line style="stroke: black; stroke-width: 0.7" x1="758.6843216064336" y1="551.9768206047614" x2="239.06907933576485" y2="251.9768206047711"/>
    <line style="stroke: black; stroke-width: 0.7" x1="239.06907933576485" y1="251.9768206047711" x2="802.8846518073123" y2="457.18890660016586"/>
    <line style="stroke: black; stroke-width: 0.7" x1="802.8846518073123" y1="457.18890660016586" x2="211.9999999999884" y2="353.00000000000176"/>
    <line style="stroke: black; stroke-width: 0.7" x1="211.9999999999884" y1="353.00000000000176" x2="811.9999999999884" y2="352.999999999995"/>
  </g>
</svg>
