<svg viewBox="0 0 1024 707" xmlns="http://www.w3.org/2000/svg" xmlns:inkscape="http://www.inkscape.org/namespaces/inkscape" width="430mm" height="297mm">
  <g inkscape:groupmode="layer" id="layer1" inkscape:label="1 - red">
    <path d="M -100,0c 179.296875,180 0,300 -23.90625,354s 59.765625,180 0,354" fill="none" stroke="black" stroke-width="0.1"/>
    <path d="M -98,0c 178.7109375,180 0,300 -23.828125,354s 59.5703125,180 0,354" fill="none" stroke="black" stroke-width="0.1"/>
    <path d="M -96,0c 178.125,180 0,300 -23.75,354s 59.375,180 0,354" fill="none" stroke="black" stroke-width="0.1"/>
    <path d="M -94,0c 177.5390625,180 0,300 -23.671875,354s 59.1796875,180 0,354" fill="none" stroke="black" stroke-width="0.1"/>
    <path d="M -92,0c 176.953125,180 0,300 -23.59375,354s 58.984375,180 0,354" fill="none" stroke="black" stroke-width="0.1"/>
    <path d="M -90,0c 176.3671875,180 0,300 -23.515625,354s 58.7890625,180 0,354" fill="none" stroke="black" stroke-width="0.1"/>
    <path d="M -88,0c 175.78125,180 0,300 -23.4375,354s 58.59375,180 0,354" fill="none" stroke="black" stroke-width="0.1"/>
    <path d="M -86,0c 175.1953125,180 0,300 -23.359375,354s 58.3984375,180 0,354" fill="none" stroke="black" stroke-width="0.1"/>
    <path d="M -84,0c 174.609375,180 0,300 -23.28125,354s 58.203125,180 0,354" fill="none" stroke="black" stroke-width="0.1"/>
    <path d="M -82,0c 174.0234375,180 0,300 -23.203125,354s 58.0078125,180 0,354" fill="none" stroke="black" stroke-width="0.1"/>
    <path d="M -80,0c 173.4375,180 0,300 -23.125,354s 57.8125,180 0,354" fill="none" stroke="black" stroke-width="0.1"/>
    <path d="M -78,0c 172.8515625,180 0,300 -23.046875,354s 57.6171875,180 0,354" fill="none" stroke="black" stroke-width="0.1"/>
    <path d="M -76,0c 172.265625,180 0,300 -22.96875,354s 57.421875,180 0,354" fill="none" stroke="black" stroke-width="0.1"/>
    <path d="M -74,0c 171.6796875,180 0,300 -22.890625,354s 57.2265625,180 0,354" fill="none" stroke="black" stroke-width="0.1"/>
    <path d="M -72,0c 171.09375,180 0,300 -22.8125,354s 57.03125,180 0,354" fill="none" stroke="black" stroke-width="0.1"/>
    <path d="M -70,0c 170.5078125,180 0,300 -22.734375,354s 56.8359375,180 0,354" fill="none" stroke="black" stroke-width="0.1"/>
    <path d="M -68,0c 169.921875,180 0,300 -22.65625,354s 56.640625,180 0,354" fill="none" stroke="black" stroke-width="0.1"/>
    <path d="M -66,0c 169.3359375,180 0,300 -22.578125,354s 56.4453125,180 0,354" fill="none" stroke="black" stroke-width="0.1"/>
    <path d="M -64,0c 168.75,180 0,300 -22.5,354s 56.25,180 0,354" fill="none" stroke="black" stroke-width="0.1"/>
    <path d="M -62,0c 168.1640625,180 0,300 -22.421875,354s 56.0546875,180 0,354" fill="none" stroke="black" stroke-width="0.1"/>
    <path d="M -60,0c 167.578125,180 0,300 -22.34375,354s 55.859375,180 0,354" fill="none" stroke="black" stroke-width="0.1"/>
    <path d="M -58,0c 166.9921875,180 0,300 -22.265625,354s 55.6640625,180 0,354" fill="none" stroke="black" stroke-width="0.1"/>
    <path d="M -56,0c 166.40625,180 0,300 -22.1875,354s 55.46875,180 0,354" fill="none" stroke="black" stroke-width="0.1"/>
    <path d="M -54,0c 165.8203125,180 0,300 -22.109375,354s 55.2734375,180 0,354" fill="none" stroke="black" stroke-width="0.1"/>
    <path d="M -52,0c 165.234375,180 0,300 -22.03125,354s 55.078125,180 0,354" fill="none" stroke="black" stroke-width="0.1"/>
    <path d="M -50,0c 164.6484375,180 0,300 -21.953125,354s 54.8828125,180 0,354" fill="none" stroke="black" stroke-width="0.1"/>
    <path d="M -48,0c 164.0625,180 0,300 -21.875,354s 54.6875,180 0,354" fill="none" stroke="black" stroke-width="0.1"/>
    <path d="M -46,0c 163.4765625,180 0,300 -21.796875,354s 54.4921875,180 0,354" fill="none" stroke="black" stroke-width="0.1"/>
    <path d="M -44,0c 162.890625,180 0,300 -21.71875,354s 54.296875,180 0,354" fill="none" stroke="black" stroke-width="0.1"/>
    <path d="M -42,0c 162.3046875,180 0,300 -21.640625,354s 54.1015625,180 0,354" fill="none" stroke="black" stroke-width="0.1"/>
    <path d="M -40,0c 161.71875,180 0,300 -21.5625,354s 53.90625,180 0,354" fill="none" stroke="black" stroke-width="0.1"/>
    <path d="M -38,0c 161.1328125,180 0,300 -21.484375,354s 53.7109375,180 0,354" fill="none" stroke="black" stroke-width="0.1"/>
    <path d="M -36,0c 160.546875,180 0,300 -21.40625,354s 53.515625,180 0,354" fill="none" stroke="black" stroke-width="0.1"/>
    <path d="M -34,0c 159.9609375,180 0,300 -21.328125,354s 53.3203125,180 0,354" fill="none" stroke="black" stroke-width="0.1"/>
    <path d="M -32,0c 159.375,180 0,300 -21.25,354s 53.125,180 0,354" fill="none" stroke="black" stroke-width="0.1"/>
    <path d="M -30,0c 158.7890625,180 0,300 -21.171875,354s 52.9296875,180 0,354" fill="none" stroke="black" stroke-width="0.1"/>
    <path d="M -28,0c 158.203125,180 0,300 -21.09375,354s 52.734375,180 0,354" fill="none" stroke="black" stroke-width="0.1"/>
    <path d="M -26,0c 157.6171875,180 0,300 -21.015625,354s 52.5390625,180 0,354" fill="none" stroke="black" stroke-width="0.1"/>
    <path d="M -24,0c 157.03125,180 0,300 -20.9375,354s 52.34375,180 0,354" fill="none" stroke="black" stroke-width="0.1"/>
    <path d="M -22,0c 156.4453125,180 0,300 -20.859375,354s 52.1484375,180 0,354" fill="none" stroke="black" stroke-width="0.1"/>
    <path d="M -20,0c 155.859375,180 0,300 -20.78125,354s 51.953125,180 0,354" fill="none" stroke="black" stroke-width="0.1"/>
    <path d="M -18,0c 155.2734375,180 0,300 -20.703125,354s 51.7578125,180 0,354" fill="none" stroke="black" stroke-width="0.1"/>
    <path d="M -16,0c 154.6875,180 0,300 -20.625,354s 51.5625,180 0,354" fill="none" stroke="black" stroke-width="0.1"/>
    <path d="M -14,0c 154.1015625,180 0,300 -20.546875,354s 51.3671875,180 0,354" fill="none" stroke="black" stroke-width="0.1"/>
    <path d="M -12,0c 153.515625,180 0,300 -20.46875,354s 51.171875,180 0,354" fill="none" stroke="black" stroke-width="0.1"/>
    <path d="M -10,0c 152.9296875,180 0,300 -20.390625,354s 50.9765625,180 0,354" fill="none" stroke="black" stroke-width="0.1"/>
    <path d="M -8,0c 152.34375,180 0,300 -20.3125,354s 50.78125,180 0,354" fill="none" stroke="black" stroke-width="0.1"/>
    <path d="M -6,0c 151.7578125,180 0,300 -20.234375,354s 50.5859375,180 0,354" fill="none" stroke="black" stroke-width="0.1"/>
    <path d="M -4,0c 151.171875,180 0,300 -20.15625,354s 50.390625,180 0,354" fill="none" stroke="black" stroke-width="0.1"/>
    <path d="M -2,0c 150.5859375,180 0,300 -20.078125,354s 50.1953125,180 0,354" fill="none" stroke="black" stroke-width="0.1"/>
    <path d="M 0,0c 150.0,180 0,300 -20.0,354s 50.0,180 0,354" fill="none" stroke="black" stroke-width="0.1"/>
    <path d="M 2,0c 149.4140625,180 0,300 -19.921875,354s 49.8046875,180 0,354" fill="none" stroke="black" stroke-width="0.1"/>
    <path d="M 4,0c 148.828125,180 0,300 -19.84375,354s 49.609375,180 0,354" fill="none" stroke="black" stroke-width="0.1"/>
    <path d="M 6,0c 148.2421875,180 0,300 -19.765625,354s 49.4140625,180 0,354" fill="none" stroke="black" stroke-width="0.1"/>
    <path d="M 8,0c 147.65625,180 0,300 -19.6875,354s 49.21875,180 0,354" fill="none" stroke="black" stroke-width="0.1"/>
    <path d="M 10,0c 147.0703125,180 0,300 -19.609375,354s 49.0234375,180 0,354" fill="none" stroke="black" stroke-width="0.1"/>
    <path d="M 12,0c 146.484375,180 0,300 -19.53125,354s 48.828125,180 0,354" fill="none" stroke="black" stroke-width="0.1"/>
    <path d="M 14,0c 145.8984375,180 0,300 -19.453125,354s 48.6328125,180 0,354" fill="none" stroke="black" stroke-width="0.1"/>
    <path d="M 18,0c 144.7265625,180 0,300 -19.296875,354s 48.2421875,180 0,354" fill="none" stroke="black" stroke-width="0.1"/>
    <path d="M 22,0c 143.5546875,180 0,300 -19.140625,354s 47.8515625,180 0,354" fill="none" stroke="black" stroke-width="0.1"/>
    <path d="M 24,0c 142.96875,180 0,300 -19.0625,354s 47.65625,180 0,354" fill="none" stroke="black" stroke-width="0.1"/>
    <path d="M 26,0c 142.3828125,180 0,300 -18.984375,354s 47.4609375,180 0,354" fill="none" stroke="black" stroke-width="0.1"/>
    <path d="M 28,0c 141.796875,180 0,300 -18.90625,354s 47.265625,180 0,354" fill="none" stroke="black" stroke-width="0.1"/>
    <path d="M 30,0c 141.2109375,180 0,300 -18.828125,354s 47.0703125,180 0,354" fill="none" stroke="black" stroke-width="0.1"/>
    <path d="M 32,0c 140.625,180 0,300 -18.75,354s 46.875,180 0,354" fill="none" stroke="black" stroke-width="0.1"/>
    <path d="M 34,0c 140.0390625,180 0,300 -18.671875,354s 46.6796875,180 0,354" fill="none" stroke="black" stroke-width="0.1"/>
    <path d="M 36,0c 139.453125,180 0,300 -18.59375,354s 46.484375,180 0,354" fill="none" stroke="black" stroke-width="0.1"/>
    <path d="M 38,0c 138.8671875,180 0,300 -18.515625,354s 46.2890625,180 0,354" fill="none" stroke="black" stroke-width="0.1"/>
    <path d="M 40,0c 138.28125,180 0,300 -18.4375,354s 46.09375,180 0,354" fill="none" stroke="black" stroke-width="0.1"/>
    <path d="M 42,0c 137.6953125,180 0,300 -18.359375,354s 45.8984375,180 0,354" fill="none" stroke="black" stroke-width="0.1"/>
    <path d="M 46,0c 136.5234375,180 0,300 -18.203125,354s 45.5078125,180 0,354" fill="none" stroke="black" stroke-width="0.1"/>
    <path d="M 52,0c 134.765625,180 0,300 -17.96875,354s 44.921875,180 0,354" fill="none" stroke="black" stroke-width="0.1"/>
    <path d="M 54,0c 134.1796875,180 0,300 -17.890625,354s 44.7265625,180 0,354" fill="none" stroke="black" stroke-width="0.1"/>
    <path d="M 56,0c 133.59375,180 0,300 -17.8125,354s 44.53125,180 0,354" fill="none" stroke="black" stroke-width="0.1"/>
    <path d="M 60,0c 132.421875,180 0,300 -17.65625,354s 44.140625,180 0,354" fill="none" stroke="black" stroke-width="0.1"/>
    <path d="M 62,0c 131.8359375,180 0,300 -17.578125,354s 43.9453125,180 0,354" fill="none" stroke="black" stroke-width="0.1"/>
    <path d="M 64,0c 131.25,180 0,300 -17.5,354s 43.75,180 0,354" fill="none" stroke="black" stroke-width="0.1"/>
    <path d="M 66,0c 130.6640625,180 0,300 -17.421875,354s 43.5546875,180 0,354" fill="none" stroke="black" stroke-width="0.1"/>
    <path d="M 68,0c 130.078125,180 0,300 -17.34375,354s 43.359375,180 0,354" fill="none" stroke="black" stroke-width="0.1"/>
    <path d="M 70,0c 129.4921875,180 0,300 -17.265625,354s 43.1640625,180 0,354" fill="none" stroke="black" stroke-width="0.1"/>
    <path d="M 72,0c 128.90625,180 0,300 -17.1875,354s 42.96875,180 0,354" fill="none" stroke="black" stroke-width="0.1"/>
    <path d="M 74,0c 128.3203125,180 0,300 -17.109375,354s 42.7734375,180 0,354" fill="none" stroke="black" stroke-width="0.1"/>
    <path d="M 76,0c 127.734375,180 0,300 -17.03125,354s 42.578125,180 0,354" fill="none" stroke="black" stroke-width="0.1"/>
    <path d="M 84,0c 125.390625,180 0,300 -16.71875,354s 41.796875,180 0,354" fill="none" stroke="black" stroke-width="0.1"/>
    <path d="M 88,0c 124.21875,180 0,300 -16.5625,354s 41.40625,180 0,354" fill="none" stroke="black" stroke-width="0.1"/>
    <path d="M 94,0c 122.4609375,180 0,300 -16.328125,354s 40.8203125,180 0,354" fill="none" stroke="black" stroke-width="0.1"/>
    <path d="M 100,0c 120.703125,180 0,300 -16.09375,354s 40.234375,180 0,354" fill="none" stroke="black" stroke-width="0.1"/>
    <path d="M 102,0c 120.1171875,180 0,300 -16.015625,354s 40.0390625,180 0,354" fill="none" stroke="black" stroke-width="0.1"/>
    <path d="M 106,0c 118.9453125,180 0,300 -15.859375,354s 39.6484375,180 0,354" fill="none" stroke="black" stroke-width="0.1"/>
    <path d="M 110,0c 117.7734375,180 0,300 -15.703125,354s 39.2578125,180 0,354" fill="none" stroke="black" stroke-width="0.1"/>
    <path d="M 120,0c 114.84375,180 0,300 -15.3125,354s 38.28125,180 0,354" fill="none" stroke="black" stroke-width="0.1"/>
    <path d="M 122,0c 114.2578125,180 0,300 -15.234375,354s 38.0859375,180 0,354" fill="none" stroke="black" stroke-width="0.1"/>
    <path d="M 130,0c 111.9140625,180 0,300 -14.921875,354s 37.3046875,180 0,354" fill="none" stroke="black" stroke-width="0.1"/>
    <path d="M 140,0c 108.984375,180 0,300 -14.53125,354s 36.328125,180 0,354" fill="none" stroke="black" stroke-width="0.1"/>
    <path d="M 144,0c 107.8125,180 0,300 -14.375,354s 35.9375,180 0,354" fill="none" stroke="black" stroke-width="0.1"/>
    <path d="M 160,0c 103.125,180 0,300 -13.75,354s 34.375,180 0,354" fill="none" stroke="black" stroke-width="0.1"/>
  </g>
  <g inkscape:groupmode="layer" id="layer2" inkscape:label="2 - green">
    <path d="M 16,0c 145.3125,180 0,300 -19.375,354s 48.4375,180 0,354" fill="none" stroke="black" stroke-width="0.1"/>
    <path d="M 20,0c 144.140625,180 0,300 -19.21875,354s 48.046875,180 0,354" fill="none" stroke="black" stroke-width="0.1"/>
    <path d="M 44,0c 137.109375,180 0,300 -18.28125,354s 45.703125,180 0,354" fill="none" stroke="black" stroke-width="0.1"/>
    <path d="M 48,0c 135.9375,180 0,300 -18.125,354s 45.3125,180 0,354" fill="none" stroke="black" stroke-width="0.1"/>
    <path d="M 50,0c 135.3515625,180 0,300 -18.046875,354s 45.1171875,180 0,354" fill="none" stroke="black" stroke-width="0.1"/>
    <path d="M 58,0c 133.0078125,180 0,300 -17.734375,354s 44.3359375,180 0,354" fill="none" stroke="black" stroke-width="0.1"/>
    <path d="M 78,0c 127.1484375,180 0,300 -16.953125,354s 42.3828125,180 0,354" fill="none" stroke="black" stroke-width="0.1"/>
    <path d="M 80,0c 126.5625,180 0,300 -16.875,354s 42.1875,180 0,354" fill="none" stroke="black" stroke-width="0.1"/>
    <path d="M 82,0c 125.9765625,180 0,300 -16.796875,354s 41.9921875,180 0,354" fill="none" stroke="black" stroke-width="0.1"/>
    <path d="M 86,0c 124.8046875,180 0,300 -16.640625,354s 41.6015625,180 0,354" fill="none" stroke="black" stroke-width="0.1"/>
    <path d="M 90,0c 123.6328125,180 0,300 -16.484375,354s 41.2109375,180 0,354" fill="none" stroke="black" stroke-width="0.1"/>
    <path d="M 92,0c 123.046875,180 0,300 -16.40625,354s 41.015625,180 0,354" fill="none" stroke="black" stroke-width="0.1"/>
    <path d="M 96,0c 121.875,180 0,300 -16.25,354s 40.625,180 0,354" fill="none" stroke="black" stroke-width="0.1"/>
    <path d="M 98,0c 121.2890625,180 0,300 -16.171875,354s 40.4296875,180 0,354" fill="none" stroke="black" stroke-width="0.1"/>
    <path d="M 104,0c 119.53125,180 0,300 -15.9375,354s 39.84375,180 0,354" fill="none" stroke="black" stroke-width="0.1"/>
    <path d="M 108,0c 118.359375,180 0,300 -15.78125,354s 39.453125,180 0,354" fill="none" stroke="black" stroke-width="0.1"/>
    <path d="M 112,0c 117.1875,180 0,300 -15.625,354s 39.0625,180 0,354" fill="none" stroke="black" stroke-width="0.1"/>
    <path d="M 114,0c 116.6015625,180 0,300 -15.546875,354s 38.8671875,180 0,354" fill="none" stroke="black" stroke-width="0.1"/>
    <path d="M 116,0c 116.015625,180 0,300 -15.46875,354s 38.671875,180 0,354" fill="none" stroke="black" stroke-width="0.1"/>
    <path d="M 118,0c 115.4296875,180 0,300 -15.390625,354s 38.4765625,180 0,354" fill="none" stroke="black" stroke-width="0.1"/>
    <path d="M 124,0c 113.671875,180 0,300 -15.15625,354s 37.890625,180 0,354" fill="none" stroke="black" stroke-width="0.1"/>
    <path d="M 126,0c 113.0859375,180 0,300 -15.078125,354s 37.6953125,180 0,354" fill="none" stroke="black" stroke-width="0.1"/>
    <path d="M 128,0c 112.5,180 0,300 -15.0,354s 37.5,180 0,354" fill="none" stroke="black" stroke-width="0.1"/>
    <path d="M 132,0c 111.328125,180 0,300 -14.84375,354s 37.109375,180 0,354" fill="none" stroke="black" stroke-width="0.1"/>
    <path d="M 134,0c 110.7421875,180 0,300 -14.765625,354s 36.9140625,180 0,354" fill="none" stroke="black" stroke-width="0.1"/>
    <path d="M 136,0c 110.15625,180 0,300 -14.6875,354s 36.71875,180 0,354" fill="none" stroke="black" stroke-width="0.1"/>
    <path d="M 138,0c 109.5703125,180 0,300 -14.609375,354s 36.5234375,180 0,354" fill="none" stroke="black" stroke-width="0.1"/>
    <path d="M 142,0c 108.3984375,180 0,300 -14.453125,354s 36.1328125,180 0,354" fill="none" stroke="black" stroke-width="0.1"/>
    <path d="M 146,0c 107.2265625,180 0,300 -14.296875,354s 35.7421875,180 0,354" fill="none" stroke="black" stroke-width="0.1"/>
    <path d="M 150,0c 106.0546875,180 0,300 -14.140625,354s 35.3515625,180 0,354" fill="none" stroke="black" stroke-width="0.1"/>
    <path d="M 154,0c 104.8828125,180 0,300 -13.984375,354s 34.9609375,180 0,354" fill="none" stroke="black" stroke-width="0.1"/>
    <path d="M 158,0c 103.7109375,180 0,300 -13.828125,354s 34.5703125,180 0,354" fill="none" stroke="black" stroke-width="0.1"/>
    <path d="M 162,0c 102.5390625,180 0,300 -13.671875,354s 34.1796875,180 0,354" fill="none" stroke="black" stroke-width="0.1"/>
    <path d="M 164,0c 101.953125,180 0,300 -13.59375,354s 33.984375,180 0,354" fill="none" stroke="black" stroke-width="0.1"/>
    <path d="M 166,0c 101.3671875,180 0,300 -13.515625,354s 33.7890625,180 0,354" fill="none" stroke="black" stroke-width="0.1"/>
    <path d="M 176,0c 98.4375,180 0,300 -13.125,354s 32.8125,180 0,354" fill="none" stroke="black" stroke-width="0.1"/>
    <path d="M 180,0c 97.265625,180 0,300 -12.96875,354s 32.421875,180 0,354" fill="none" stroke="black" stroke-width="0.1"/>
    <path d="M 182,0c 96.6796875,180 0,300 -12.890625,354s 32.2265625,180 0,354" fill="none" stroke="black" stroke-width="0.1"/>
    <path d="M 188,0c 94.921875,180 0,300 -12.65625,354s 31.640625,180 0,354" fill="none" stroke="black" stroke-width="0.1"/>
    <path d="M 190,0c 94.3359375,180 0,300 -12.578125,354s 31.4453125,180 0,354" fill="none" stroke="black" stroke-width="0.1"/>
    <path d="M 192,0c 93.75,180 0,300 -12.5,354s 31.25,180 0,354" fill="none" stroke="black" stroke-width="0.1"/>
    <path d="M 196,0c 92.578125,180 0,300 -12.34375,354s 30.859375,180 0,354" fill="none" stroke="black" stroke-width="0.1"/>
    <path d="M 200,0c 91.40625,180 0,300 -12.1875,354s 30.46875,180 0,354" fill="none" stroke="black" stroke-width="0.1"/>
    <path d="M 202,0c 90.8203125,180 0,300 -12.109375,354s 30.2734375,180 0,354" fill="none" stroke="black" stroke-width="0.1"/>
    <path d="M 204,0c 90.234375,180 0,300 -12.03125,354s 30.078125,180 0,354" fill="none" stroke="black" stroke-width="0.1"/>
    <path d="M 206,0c 89.6484375,180 0,300 -11.953125,354s 29.8828125,180 0,354" fill="none" stroke="black" stroke-width="0.1"/>
    <path d="M 212,0c 87.890625,180 0,300 -11.71875,354s 29.296875,180 0,354" fill="none" stroke="black" stroke-width="0.1"/>
    <path d="M 214,0c 87.3046875,180 0,300 -11.640625,354s 29.1015625,180 0,354" fill="none" stroke="black" stroke-width="0.1"/>
    <path d="M 228,0c 83.203125,180 0,300 -11.09375,354s 27.734375,180 0,354" fill="none" stroke="black" stroke-width="0.1"/>
    <path d="M 234,0c 81.4453125,180 0,300 -10.859375,354s 27.1484375,180 0,354" fill="none" stroke="black" stroke-width="0.1"/>
    <path d="M 246,0c 77.9296875,180 0,300 -10.390625,354s 25.9765625,180 0,354" fill="none" stroke="black" stroke-width="0.1"/>
  </g>
  <g inkscape:groupmode="layer" id="layer3" inkscape:label="3 - blue">
    <path d="M 148,0c 106.640625,180 0,300 -14.21875,354s 35.546875,180 0,354" fill="none" stroke="black" stroke-width="0.1"/>
    <path d="M 152,0c 105.46875,180 0,300 -14.0625,354s 35.15625,180 0,354" fill="none" stroke="black" stroke-width="0.1"/>
    <path d="M 156,0c 104.296875,180 0,300 -13.90625,354s 34.765625,180 0,354" fill="none" stroke="black" stroke-width="0.1"/>
    <path d="M 168,0c 100.78125,180 0,300 -13.4375,354s 33.59375,180 0,354" fill="none" stroke="black" stroke-width="0.1"/>
    <path d="M 170,0c 100.1953125,180 0,300 -13.359375,354s 33.3984375,180 0,354" fill="none" stroke="black" stroke-width="0.1"/>
    <path d="M 172,0c 99.609375,180 0,300 -13.28125,354s 33.203125,180 0,354" fill="none" stroke="black" stroke-width="0.1"/>
    <path d="M 174,0c 99.0234375,180 0,300 -13.203125,354s 33.0078125,180 0,354" fill="none" stroke="black" stroke-width="0.1"/>
    <path d="M 178,0c 97.8515625,180 0,300 -13.046875,354s 32.6171875,180 0,354" fill="none" stroke="black" stroke-width="0.1"/>
    <path d="M 184,0c 96.09375,180 0,300 -12.8125,354s 32.03125,180 0,354" fill="none" stroke="black" stroke-width="0.1"/>
    <path d="M 186,0c 95.5078125,180 0,300 -12.734375,354s 31.8359375,180 0,354" fill="none" stroke="black" stroke-width="0.1"/>
    <path d="M 194,0c 93.1640625,180 0,300 -12.421875,354s 31.0546875,180 0,354" fill="none" stroke="black" stroke-width="0.1"/>
    <path d="M 208,0c 89.0625,180 0,300 -11.875,354s 29.6875,180 0,354" fill="none" stroke="black" stroke-width="0.1"/>
    <path d="M 210,0c 88.4765625,180 0,300 -11.796875,354s 29.4921875,180 0,354" fill="none" stroke="black" stroke-width="0.1"/>
    <path d="M 216,0c 86.71875,180 0,300 -11.5625,354s 28.90625,180 0,354" fill="none" stroke="black" stroke-width="0.1"/>
    <path d="M 218,0c 86.1328125,180 0,300 -11.484375,354s 28.7109375,180 0,354" fill="none" stroke="black" stroke-width="0.1"/>
    <path d="M 220,0c 85.546875,180 0,300 -11.40625,354s 28.515625,180 0,354" fill="none" stroke="black" stroke-width="0.1"/>
    <path d="M 222,0c 84.9609375,180 0,300 -11.328125,354s 28.3203125,180 0,354" fill="none" stroke="black" stroke-width="0.1"/>
    <path d="M 230,0c 82.6171875,180 0,300 -11.015625,354s 27.5390625,180 0,354" fill="none" stroke="black" stroke-width="0.1"/>
    <path d="M 232,0c 82.03125,180 0,300 -10.9375,354s 27.34375,180 0,354" fill="none" stroke="black" stroke-width="0.1"/>
    <path d="M 236,0c 80.859375,180 0,300 -10.78125,354s 26.953125,180 0,354" fill="none" stroke="black" stroke-width="0.1"/>
    <path d="M 242,0c 79.1015625,180 0,300 -10.546875,354s 26.3671875,180 0,354" fill="none" stroke="black" stroke-width="0.1"/>
    <path d="M 248,0c 77.34375,180 0,300 -10.3125,354s 25.78125,180 0,354" fill="none" stroke="black" stroke-width="0.1"/>
    <path d="M 250,0c 76.7578125,180 0,300 -10.234375,354s 25.5859375,180 0,354" fill="none" stroke="black" stroke-width="0.1"/>
    <path d="M 252,0c 76.171875,180 0,300 -10.15625,354s 25.390625,180 0,354" fill="none" stroke="black" stroke-width="0.1"/>
    <path d="M 254,0c 75.5859375,180 0,300 -10.078125,354s 25.1953125,180 0,354" fill="none" stroke="black" stroke-width="0.1"/>
    <path d="M 256,0c 75.0,180 0,300 -10.0,354s 25.0,180 0,354" fill="none" stroke="black" stroke-width="0.1"/>
    <path d="M 264,0c 72.65625,180 0,300 -9.6875,354s 24.21875,180 0,354" fill="none" stroke="black" stroke-width="0.1"/>
    <path d="M 274,0c 69.7265625,180 0,300 -9.296875,354s 23.2421875,180 0,354" fill="none" stroke="black" stroke-width="0.1"/>
    <path d="M 278,0c 68.5546875,180 0,300 -9.140625,354s 22.8515625,180 0,354" fill="none" stroke="black" stroke-width="0.1"/>
    <path d="M 284,0c 66.796875,180 0,300 -8.90625,354s 22.265625,180 0,354" fill="none" stroke="black" stroke-width="0.1"/>
    <path d="M 292,0c 64.453125,180 0,300 -8.59375,354s 21.484375,180 0,354" fill="none" stroke="black" stroke-width="0.1"/>
    <path d="M 294,0c 63.8671875,180 0,300 -8.515625,354s 21.2890625,180 0,354" fill="none" stroke="black" stroke-width="0.1"/>
    <path d="M 304,0c 60.9375,180 0,300 -8.125,354s 20.3125,180 0,354" fill="none" stroke="black" stroke-width="0.1"/>
    <path d="M 316,0c 57.421875,180 0,300 -7.65625,354s 19.140625,180 0,354" fill="none" stroke="black" stroke-width="0.1"/>
    <path d="M 322,0c 55.6640625,180 0,300 -7.421875,354s 18.5546875,180 0,354" fill="none" stroke="black" stroke-width="0.1"/>
    <path d="M 374,0c 40.4296875,180 0,300 -5.390625,354s 13.4765625,180 0,354" fill="none" stroke="black" stroke-width="0.1"/>
  </g>
  <g inkscape:groupmode="layer" id="layer4" inkscape:label="4 - yellow">
    <path d="M 198,0c 91.9921875,180 0,300 -12.265625,354s 30.6640625,180 0,354" fill="none" stroke="black" stroke-width="0.1"/>
    <path d="M 224,0c 84.375,180 0,300 -11.25,354s 28.125,180 0,354" fill="none" stroke="black" stroke-width="0.1"/>
    <path d="M 226,0c 83.7890625,180 0,300 -11.171875,354s 27.9296875,180 0,354" fill="none" stroke="black" stroke-width="0.1"/>
    <path d="M 238,0c 80.2734375,180 0,300 -10.703125,354s 26.7578125,180 0,354" fill="none" stroke="black" stroke-width="0.1"/>
    <path d="M 240,0c 79.6875,180 0,300 -10.625,354s 26.5625,180 0,354" fill="none" stroke="black" stroke-width="0.1"/>
    <path d="M 244,0c 78.515625,180 0,300 -10.46875,354s 26.171875,180 0,354" fill="none" stroke="black" stroke-width="0.1"/>
    <path d="M 258,0c 74.4140625,180 0,300 -9.921875,354s 24.8046875,180 0,354" fill="none" stroke="black" stroke-width="0.1"/>
    <path d="M 260,0c 73.828125,180 0,300 -9.84375,354s 24.609375,180 0,354" fill="none" stroke="black" stroke-width="0.1"/>
    <path d="M 262,0c 73.2421875,180 0,300 -9.765625,354s 24.4140625,180 0,354" fill="none" stroke="black" stroke-width="0.1"/>
    <path d="M 266,0c 72.0703125,180 0,300 -9.609375,354s 24.0234375,180 0,354" fill="none" stroke="black" stroke-width="0.1"/>
    <path d="M 268,0c 71.484375,180 0,300 -9.53125,354s 23.828125,180 0,354" fill="none" stroke="black" stroke-width="0.1"/>
    <path d="M 270,0c 70.8984375,180 0,300 -9.453125,354s 23.6328125,180 0,354" fill="none" stroke="black" stroke-width="0.1"/>
    <path d="M 272,0c 70.3125,180 0,300 -9.375,354s 23.4375,180 0,354" fill="none" stroke="black" stroke-width="0.1"/>
    <path d="M 276,0c 69.140625,180 0,300 -9.21875,354s 23.046875,180 0,354" fill="none" stroke="black" stroke-width="0.1"/>
    <path d="M 280,0c 67.96875,180 0,300 -9.0625,354s 22.65625,180 0,354" fill="none" stroke="black" stroke-width="0.1"/>
    <path d="M 282,0c 67.3828125,180 0,300 -8.984375,354s 22.4609375,180 0,354" fill="none" stroke="black" stroke-width="0.1"/>
    <path d="M 286,0c 66.2109375,180 0,300 -8.828125,354s 22.0703125,180 0,354" fill="none" stroke="black" stroke-width="0.1"/>
    <path d="M 288,0c 65.625,180 0,300 -8.75,354s 21.875,180 0,354" fill="none" stroke="black" stroke-width="0.1"/>
    <path d="M 290,0c 65.0390625,180 0,300 -8.671875,354s 21.6796875,180 0,354" fill="none" stroke="black" stroke-width="0.1"/>
    <path d="M 296,0c 63.28125,180 0,300 -8.4375,354s 21.09375,180 0,354" fill="none" stroke="black" stroke-width="0.1"/>
    <path d="M 298,0c 62.6953125,180 0,300 -8.359375,354s 20.8984375,180 0,354" fill="none" stroke="black" stroke-width="0.1"/>
    <path d="M 300,0c 62.109375,180 0,300 -8.28125,354s 20.703125,180 0,354" fill="none" stroke="black" stroke-width="0.1"/>
    <path d="M 302,0c 61.5234375,180 0,300 -8.203125,354s 20.5078125,180 0,354" fill="none" stroke="black" stroke-width="0.1"/>
    <path d="M 306,0c 60.3515625,180 0,300 -8.046875,354s 20.1171875,180 0,354" fill="none" stroke="black" stroke-width="0.1"/>
    <path d="M 308,0c 59.765625,180 0,300 -7.96875,354s 19.921875,180 0,354" fill="none" stroke="black" stroke-width="0.1"/>
    <path d="M 310,0c 59.1796875,180 0,300 -7.890625,354s 19.7265625,180 0,354" fill="none" stroke="black" stroke-width="0.1"/>
    <path d="M 312,0c 58.59375,180 0,300 -7.8125,354s 19.53125,180 0,354" fill="none" stroke="black" stroke-width="0.1"/>
    <path d="M 318,0c 56.8359375,180 0,300 -7.578125,354s 18.9453125,180 0,354" fill="none" stroke="black" stroke-width="0.1"/>
    <path d="M 324,0c 55.078125,180 0,300 -7.34375,354s 18.359375,180 0,354" fill="none" stroke="black" stroke-width="0.1"/>
    <path d="M 330,0c 53.3203125,180 0,300 -7.109375,354s 17.7734375,180 0,354" fill="none" stroke="black" stroke-width="0.1"/>
    <path d="M 332,0c 52.734375,180 0,300 -7.03125,354s 17.578125,180 0,354" fill="none" stroke="black" stroke-width="0.1"/>
    <path d="M 336,0c 51.5625,180 0,300 -6.875,354s 17.1875,180 0,354" fill="none" stroke="black" stroke-width="0.1"/>
    <path d="M 338,0c 50.9765625,180 0,300 -6.796875,354s 16.9921875,180 0,354" fill="none" stroke="black" stroke-width="0.1"/>
    <path d="M 342,0c 49.8046875,180 0,300 -6.640625,354s 16.6015625,180 0,354" fill="none" stroke="black" stroke-width="0.1"/>
    <path d="M 344,0c 49.21875,180 0,300 -6.5625,354s 16.40625,180 0,354" fill="none" stroke="black" stroke-width="0.1"/>
    <path d="M 346,0c 48.6328125,180 0,300 -6.484375,354s 16.2109375,180 0,354" fill="none" stroke="black" stroke-width="0.1"/>
    <path d="M 348,0c 48.046875,180 0,300 -6.40625,354s 16.015625,180 0,354" fill="none" stroke="black" stroke-width="0.1"/>
    <path d="M 350,0c 47.4609375,180 0,300 -6.328125,354s 15.8203125,180 0,354" fill="none" stroke="black" stroke-width="0.1"/>
    <path d="M 358,0c 45.1171875,180 0,300 -6.015625,354s 15.0390625,180 0,354" fill="none" stroke="black" stroke-width="0.1"/>
    <path d="M 360,0c 44.53125,180 0,300 -5.9375,354s 14.84375,180 0,354" fill="none" stroke="black" stroke-width="0.1"/>
    <path d="M 362,0c 43.9453125,180 0,300 -5.859375,354s 14.6484375,180 0,354" fill="none" stroke="black" stroke-width="0.1"/>
    <path d="M 364,0c 43.359375,180 0,300 -5.78125,354s 14.453125,180 0,354" fill="none" stroke="black" stroke-width="0.1"/>
    <path d="M 366,0c 42.7734375,180 0,300 -5.703125,354s 14.2578125,180 0,354" fill="none" stroke="black" stroke-width="0.1"/>
    <path d="M 368,0c 42.1875,180 0,300 -5.625,354s 14.0625,180 0,354" fill="none" stroke="black" stroke-width="0.1"/>
    <path d="M 370,0c 41.6015625,180 0,300 -5.546875,354s 13.8671875,180 0,354" fill="none" stroke="black" stroke-width="0.1"/>
    <path d="M 372,0c 41.015625,180 0,300 -5.46875,354s 13.671875,180 0,354" fill="none" stroke="black" stroke-width="0.1"/>
    <path d="M 378,0c 39.2578125,180 0,300 -5.234375,354s 13.0859375,180 0,354" fill="none" stroke="black" stroke-width="0.1"/>
    <path d="M 382,0c 38.0859375,180 0,300 -5.078125,354s 12.6953125,180 0,354" fill="none" stroke="black" stroke-width="0.1"/>
    <path d="M 388,0c 36.328125,180 0,300 -4.84375,354s 12.109375,180 0,354" fill="none" stroke="black" stroke-width="0.1"/>
    <path d="M 390,0c 35.7421875,180 0,300 -4.765625,354s 11.9140625,180 0,354" fill="none" stroke="black" stroke-width="0.1"/>
    <path d="M 398,0c 33.3984375,180 0,300 -4.453125,354s 11.1328125,180 0,354" fill="none" stroke="black" stroke-width="0.1"/>
    <path d="M 416,0c 28.125,180 0,300 -3.75,354s 9.375,180 0,354" fill="none" stroke="black" stroke-width="0.1"/>
    <path d="M 428,0c 24.609375,180 0,300 -3.28125,354s 8.203125,180 0,354" fill="none" stroke="black" stroke-width="0.1"/>
    <path d="M 436,0c 22.265625,180 0,300 -2.96875,354s 7.421875,180 0,354" fill="none" stroke="black" stroke-width="0.1"/>
    <path d="M 452,0c 17.578125,180 0,300 -2.34375,354s 5.859375,180 0,354" fill="none" stroke="black" stroke-width="0.1"/>
  </g>
  <g inkscape:groupmode="layer" id="layer5" inkscape:label="5 - black">
    <path d="M 314,0c 58.0078125,180 0,300 -7.734375,354s 19.3359375,180 0,354" fill="none" stroke="black" stroke-width="0.1"/>
    <path d="M 320,0c 56.25,180 0,300 -7.5,354s 18.75,180 0,354" fill="none" stroke="black" stroke-width="0.1"/>
    <path d="M 326,0c 54.4921875,180 0,300 -7.265625,354s 18.1640625,180 0,354" fill="none" stroke="black" stroke-width="0.1"/>
    <path d="M 328,0c 53.90625,180 0,300 -7.1875,354s 17.96875,180 0,354" fill="none" stroke="black" stroke-width="0.1"/>
    <path d="M 334,0c 52.1484375,180 0,300 -6.953125,354s 17.3828125,180 0,354" fill="none" stroke="black" stroke-width="0.1"/>
    <path d="M 340,0c 50.390625,180 0,300 -6.71875,354s 16.796875,180 0,354" fill="none" stroke="black" stroke-width="0.1"/>
    <path d="M 352,0c 46.875,180 0,300 -6.25,354s 15.625,180 0,354" fill="none" stroke="black" stroke-width="0.1"/>
    <path d="M 354,0c 46.2890625,180 0,300 -6.171875,354s 15.4296875,180 0,354" fill="none" stroke="black" stroke-width="0.1"/>
    <path d="M 356,0c 45.703125,180 0,300 -6.09375,354s 15.234375,180 0,354" fill="none" stroke="black" stroke-width="0.1"/>
    <path d="M 376,0c 39.84375,180 0,300 -5.3125,354s 13.28125,180 0,354" fill="none" stroke="black" stroke-width="0.1"/>
    <path d="M 380,0c 38.671875,180 0,300 -5.15625,354s 12.890625,180 0,354" fill="none" stroke="black" stroke-width="0.1"/>
    <path d="M 384,0c 37.5,180 0,300 -5.0,354s 12.5,180 0,354" fill="none" stroke="black" stroke-width="0.1"/>
    <path d="M 386,0c 36.9140625,180 0,300 -4.921875,354s 12.3046875,180 0,354" fill="none" stroke="black" stroke-width="0.1"/>
    <path d="M 392,0c 35.15625,180 0,300 -4.6875,354s 11.71875,180 0,354" fill="none" stroke="black" stroke-width="0.1"/>
    <path d="M 394,0c 34.5703125,180 0,300 -4.609375,354s 11.5234375,180 0,354" fill="none" stroke="black" stroke-width="0.1"/>
    <path d="M 396,0c 33.984375,180 0,300 -4.53125,354s 11.328125,180 0,354" fill="none" stroke="black" stroke-width="0.1"/>
    <path d="M 400,0c 32.8125,180 0,300 -4.375,354s 10.9375,180 0,354" fill="none" stroke="black" stroke-width="0.1"/>
    <path d="M 402,0c 32.2265625,180 0,300 -4.296875,354s 10.7421875,180 0,354" fill="none" stroke="black" stroke-width="0.1"/>
    <path d="M 404,0c 31.640625,180 0,300 -4.21875,354s 10.546875,180 0,354" fill="none" stroke="black" stroke-width="0.1"/>
    <path d="M 406,0c 31.0546875,180 0,300 -4.140625,354s 10.3515625,180 0,354" fill="none" stroke="black" stroke-width="0.1"/>
    <path d="M 408,0c 30.46875,180 0,300 -4.0625,354s 10.15625,180 0,354" fill="none" stroke="black" stroke-width="0.1"/>
    <path d="M 410,0c 29.8828125,180 0,300 -3.984375,354s 9.9609375,180 0,354" fill="none" stroke="black" stroke-width="0.1"/>
    <path d="M 412,0c 29.296875,180 0,300 -3.90625,354s 9.765625,180 0,354" fill="none" stroke="black" stroke-width="0.1"/>
    <path d="M 414,0c 28.7109375,180 0,300 -3.828125,354s 9.5703125,180 0,354" fill="none" stroke="black" stroke-width="0.1"/>
    <path d="M 418,0c 27.5390625,180 0,300 -3.671875,354s 9.1796875,180 0,354" fill="none" stroke="black" stroke-width="0.1"/>
    <path d="M 420,0c 26.953125,180 0,300 -3.59375,354s 8.984375,180 0,354" fill="none" stroke="black" stroke-width="0.1"/>
    <path d="M 422,0c 26.3671875,180 0,300 -3.515625,354s 8.7890625,180 0,354" fill="none" stroke="black" stroke-width="0.1"/>
    <path d="M 426,0c 25.1953125,180 0,300 -3.359375,354s 8.3984375,180 0,354" fill="none" stroke="black" stroke-width="0.1"/>
    <path d="M 430,0c 24.0234375,180 0,300 -3.203125,354s 8.0078125,180 0,354" fill="none" stroke="black" stroke-width="0.1"/>
    <path d="M 432,0c 23.4375,180 0,300 -3.125,354s 7.8125,180 0,354" fill="none" stroke="black" stroke-width="0.1"/>
    <path d="M 438,0c 21.6796875,180 0,300 -2.890625,354s 7.2265625,180 0,354" fill="none" stroke="black" stroke-width="0.1"/>
    <path d="M 440,0c 21.09375,180 0,300 -2.8125,354s 7.03125,180 0,354" fill="none" stroke="black" stroke-width="0.1"/>
    <path d="M 444,0c 19.921875,180 0,300 -2.65625,354s 6.640625,180 0,354" fill="none" stroke="black" stroke-width="0.1"/>
    <path d="M 446,0c 19.3359375,180 0,300 -2.578125,354s 6.4453125,180 0,354" fill="none" stroke="black" stroke-width="0.1"/>
    <path d="M 458,0c 15.8203125,180 0,300 -2.109375,354s 5.2734375,180 0,354" fill="none" stroke="black" stroke-width="0.1"/>
    <path d="M 460,0c 15.234375,180 0,300 -2.03125,354s 5.078125,180 0,354" fill="none" stroke="black" stroke-width="0.1"/>
    <path d="M 462,0c 14.6484375,180 0,300 -1.953125,354s 4.8828125,180 0,354" fill="none" stroke="black" stroke-width="0.1"/>
    <path d="M 466,0c 13.4765625,180 0,300 -1.796875,354s 4.4921875,180 0,354" fill="none" stroke="black" stroke-width="0.1"/>
    <path d="M 474,0c 11.1328125,180 0,300 -1.484375,354s 3.7109375,180 0,354" fill="none" stroke="black" stroke-width="0.1"/>
    <path d="M 478,0c 9.9609375,180 0,300 -1.328125,354s 3.3203125,180 0,354" fill="none" stroke="black" stroke-width="0.1"/>
    <path d="M 506,0c 1.7578125,180 0,300 -0.234375,354s 0.5859375,180 0,354" fill="none" stroke="black" stroke-width="0.1"/>
    <path d="M 538,0c -7.6171875,180 0,300 1.015625,354s -2.5390625,180 0,354" fill="none" stroke="black" stroke-width="0.1"/>
  </g>
  <g inkscape:groupmode="layer" id="layer6" inkscape:label="6 - purple">
    <path d="M 424,0c 25.78125,180 0,300 -3.4375,354s 8.59375,180 0,354" fill="none" stroke="black" stroke-width="0.1"/>
    <path d="M 434,0c 22.8515625,180 0,300 -3.046875,354s 7.6171875,180 0,354" fill="none" stroke="black" stroke-width="0.1"/>
    <path d="M 442,0c 20.5078125,180 0,300 -2.734375,354s 6.8359375,180 0,354" fill="none" stroke="black" stroke-width="0.1"/>
    <path d="M 448,0c 18.75,180 0,300 -2.5,354s 6.25,180 0,354" fill="none" stroke="black" stroke-width="0.1"/>
    <path d="M 450,0c 18.1640625,180 0,300 -2.421875,354s 6.0546875,180 0,354" fill="none" stroke="black" stroke-width="0.1"/>
    <path d="M 454,0c 16.9921875,180 0,300 -2.265625,354s 5.6640625,180 0,354" fill="none" stroke="black" stroke-width="0.1"/>
    <path d="M 456,0c 16.40625,180 0,300 -2.1875,354s 5.46875,180 0,354" fill="none" stroke="black" stroke-width="0.1"/>
    <path d="M 464,0c 14.0625,180 0,300 -1.875,354s 4.6875,180 0,354" fill="none" stroke="black" stroke-width="0.1"/>
    <path d="M 468,0c 12.890625,180 0,300 -1.71875,354s 4.296875,180 0,354" fill="none" stroke="black" stroke-width="0.1"/>
    <path d="M 470,0c 12.3046875,180 0,300 -1.640625,354s 4.1015625,180 0,354" fill="none" stroke="black" stroke-width="0.1"/>
    <path d="M 476,0c 10.546875,180 0,300 -1.40625,354s 3.515625,180 0,354" fill="none" stroke="black" stroke-width="0.1"/>
    <path d="M 480,0c 9.375,180 0,300 -1.25,354s 3.125,180 0,354" fill="none" stroke="black" stroke-width="0.1"/>
    <path d="M 482,0c 8.7890625,180 0,300 -1.171875,354s 2.9296875,180 0,354" fill="none" stroke="black" stroke-width="0.1"/>
    <path d="M 484,0c 8.203125,180 0,300 -1.09375,354s 2.734375,180 0,354" fill="none" stroke="black" stroke-width="0.1"/>
    <path d="M 486,0c 7.6171875,180 0,300 -1.015625,354s 2.5390625,180 0,354" fill="none" stroke="black" stroke-width="0.1"/>
    <path d="M 488,0c 7.03125,180 0,300 -0.9375,354s 2.34375,180 0,354" fill="none" stroke="black" stroke-width="0.1"/>
    <path d="M 490,0c 6.4453125,180 0,300 -0.859375,354s 2.1484375,180 0,354" fill="none" stroke="black" stroke-width="0.1"/>
    <path d="M 492,0c 5.859375,180 0,300 -0.78125,354s 1.953125,180 0,354" fill="none" stroke="black" stroke-width="0.1"/>
    <path d="M 494,0c 5.2734375,180 0,300 -0.703125,354s 1.7578125,180 0,354" fill="none" stroke="black" stroke-width="0.1"/>
    <path d="M 496,0c 4.6875,180 0,300 -0.625,354s 1.5625,180 0,354" fill="none" stroke="black" stroke-width="0.1"/>
    <path d="M 500,0c 3.515625,180 0,300 -0.46875,354s 1.171875,180 0,354" fill="none" stroke="black" stroke-width="0.1"/>
    <path d="M 502,0c 2.9296875,180 0,300 -0.390625,354s 0.9765625,180 0,354" fill="none" stroke="black" stroke-width="0.1"/>
    <path d="M 504,0c 2.34375,180 0,300 -0.3125,354s 0.78125,180 0,354" fill="none" stroke="black" stroke-width="0.1"/>
    <path d="M 508,0c 1.171875,180 0,300 -0.15625,354s 0.390625,180 0,354" fill="none" stroke="black" stroke-width="0.1"/>
    <path d="M 510,0c 0.5859375,180 0,300 -0.078125,354s 0.1953125,180 0,354" fill="none" stroke="black" stroke-width="0.1"/>
    <path d="M 512,0c -0.0,180 0,300 0.0,354s -0.0,180 0,354" fill="none" stroke="black" stroke-width="0.1"/>
    <path d="M 514,0c -0.5859375,180 0,300 0.078125,354s -0.1953125,180 0,354" fill="none" stroke="black" stroke-width="0.1"/>
    <path d="M 516,0c -1.171875,180 0,300 0.15625,354s -0.390625,180 0,354" fill="none" stroke="black" stroke-width="0.1"/>
    <path d="M 518,0c -1.7578125,180 0,300 0.234375,354s -0.5859375,180 0,354" fill="none" stroke="black" stroke-width="0.1"/>
    <path d="M 520,0c -2.34375,180 0,300 0.3125,354s -0.78125,180 0,354" fill="none" stroke="black" stroke-width="0.1"/>
    <path d="M 522,0c -2.9296875,180 0,300 0.390625,354s -0.9765625,180 0,354" fill="none" stroke="black" stroke-width="0.1"/>
    <path d="M 524,0c -3.515625,180 0,300 0.46875,354s -1.171875,180 0,354" fill="none" stroke="black" stroke-width="0.1"/>
    <path d="M 526,0c -4.1015625,180 0,300 0.546875,354s -1.3671875,180 0,354" fill="none" stroke="black" stroke-width="0.1"/>
    <path d="M 528,0c -4.6875,180 0,300 0.625,354s -1.5625,180 0,354" fill="none" stroke="black" stroke-width="0.1"/>
    <path d="M 530,0c -5.2734375,180 0,300 0.703125,354s -1.7578125,180 0,354" fill="none" stroke="black" stroke-width="0.1"/>
    <path d="M 536,0c -7.03125,180 0,300 0.9375,354s -2.34375,180 0,354" fill="none" stroke="black" stroke-width="0.1"/>
    <path d="M 546,0c -9.9609375,180 0,300 1.328125,354s -3.3203125,180 0,354" fill="none" stroke="black" stroke-width="0.1"/>
    <path d="M 548,0c -10.546875,180 0,300 1.40625,354s -3.515625,180 0,354" fill="none" stroke="black" stroke-width="0.1"/>
    <path d="M 552,0c -11.71875,180 0,300 1.5625,354s -3.90625,180 0,354" fill="none" stroke="black" stroke-width="0.1"/>
    <path d="M 554,0c -12.3046875,180 0,300 1.640625,354s -4.1015625,180 0,354" fill="none" stroke="black" stroke-width="0.1"/>
    <path d="M 556,0c -12.890625,180 0,300 1.71875,354s -4.296875,180 0,354" fill="none" stroke="black" stroke-width="0.1"/>
    <path d="M 558,0c -13.4765625,180 0,300 1.796875,354s -4.4921875,180 0,354" fill="none" stroke="black" stroke-width="0.1"/>
    <path d="M 562,0c -14.6484375,180 0,300 1.953125,354s -4.8828125,180 0,354" fill="none" stroke="black" stroke-width="0.1"/>
    <path d="M 580,0c -19.921875,180 0,300 2.65625,354s -6.640625,180 0,354" fill="none" stroke="black" stroke-width="0.1"/>
    <path d="M 582,0c -20.5078125,180 0,300 2.734375,354s -6.8359375,180 0,354" fill="none" stroke="black" stroke-width="0.1"/>
    <path d="M 584,0c -21.09375,180 0,300 2.8125,354s -7.03125,180 0,354" fill="none" stroke="black" stroke-width="0.1"/>
    <path d="M 588,0c -22.265625,180 0,300 2.96875,354s -7.421875,180 0,354" fill="none" stroke="black" stroke-width="0.1"/>
    <path d="M 600,0c -25.78125,180 0,300 3.4375,354s -8.59375,180 0,354" fill="none" stroke="black" stroke-width="0.1"/>
    <path d="M 640,0c -37.5,180 0,300 5.0,354s -12.5,180 0,354" fill="none" stroke="black" stroke-width="0.1"/>
  </g>
  <g inkscape:groupmode="layer" id="layer7" inkscape:label="7 - orange">
    <path d="M 472,0c 11.71875,180 0,300 -1.5625,354s 3.90625,180 0,354" fill="none" stroke="black" stroke-width="0.1"/>
    <path d="M 498,0c 4.1015625,180 0,300 -0.546875,354s 1.3671875,180 0,354" fill="none" stroke="black" stroke-width="0.1"/>
    <path d="M 532,0c -5.859375,180 0,300 0.78125,354s -1.953125,180 0,354" fill="none" stroke="black" stroke-width="0.1"/>
    <path d="M 534,0c -6.4453125,180 0,300 0.859375,354s -2.1484375,180 0,354" fill="none" stroke="black" stroke-width="0.1"/>
    <path d="M 540,0c -8.203125,180 0,300 1.09375,354s -2.734375,180 0,354" fill="none" stroke="black" stroke-width="0.1"/>
    <path d="M 542,0c -8.7890625,180 0,300 1.171875,354s -2.9296875,180 0,354" fill="none" stroke="black" stroke-width="0.1"/>
    <path d="M 544,0c -9.375,180 0,300 1.25,354s -3.125,180 0,354" fill="none" stroke="black" stroke-width="0.1"/>
    <path d="M 550,0c -11.1328125,180 0,300 1.484375,354s -3.7109375,180 0,354" fill="none" stroke="black" stroke-width="0.1"/>
    <path d="M 560,0c -14.0625,180 0,300 1.875,354s -4.6875,180 0,354" fill="none" stroke="black" stroke-width="0.1"/>
    <path d="M 564,0c -15.234375,180 0,300 2.03125,354s -5.078125,180 0,354" fill="none" stroke="black" stroke-width="0.1"/>
    <path d="M 566,0c -15.8203125,180 0,300 2.109375,354s -5.2734375,180 0,354" fill="none" stroke="black" stroke-width="0.1"/>
    <path d="M 568,0c -16.40625,180 0,300 2.1875,354s -5.46875,180 0,354" fill="none" stroke="black" stroke-width="0.1"/>
    <path d="M 570,0c -16.9921875,180 0,300 2.265625,354s -5.6640625,180 0,354" fill="none" stroke="black" stroke-width="0.1"/>
    <path d="M 572,0c -17.578125,180 0,300 2.34375,354s -5.859375,180 0,354" fill="none" stroke="black" stroke-width="0.1"/>
    <path d="M 574,0c -18.1640625,180 0,300 2.421875,354s -6.0546875,180 0,354" fill="none" stroke="black" stroke-width="0.1"/>
    <path d="M 576,0c -18.75,180 0,300 2.5,354s -6.25,180 0,354" fill="none" stroke="black" stroke-width="0.1"/>
    <path d="M 578,0c -19.3359375,180 0,300 2.578125,354s -6.4453125,180 0,354" fill="none" stroke="black" stroke-width="0.1"/>
    <path d="M 586,0c -21.6796875,180 0,300 2.890625,354s -7.2265625,180 0,354" fill="none" stroke="black" stroke-width="0.1"/>
    <path d="M 590,0c -22.8515625,180 0,300 3.046875,354s -7.6171875,180 0,354" fill="none" stroke="black" stroke-width="0.1"/>
    <path d="M 592,0c -23.4375,180 0,300 3.125,354s -7.8125,180 0,354" fill="none" stroke="black" stroke-width="0.1"/>
    <path d="M 594,0c -24.0234375,180 0,300 3.203125,354s -8.0078125,180 0,354" fill="none" stroke="black" stroke-width="0.1"/>
    <path d="M 598,0c -25.1953125,180 0,300 3.359375,354s -8.3984375,180 0,354" fill="none" stroke="black" stroke-width="0.1"/>
    <path d="M 604,0c -26.953125,180 0,300 3.59375,354s -8.984375,180 0,354" fill="none" stroke="black" stroke-width="0.1"/>
    <path d="M 606,0c -27.5390625,180 0,300 3.671875,354s -9.1796875,180 0,354" fill="none" stroke="black" stroke-width="0.1"/>
    <path d="M 610,0c -28.7109375,180 0,300 3.828125,354s -9.5703125,180 0,354" fill="none" stroke="black" stroke-width="0.1"/>
    <path d="M 612,0c -29.296875,180 0,300 3.90625,354s -9.765625,180 0,354" fill="none" stroke="black" stroke-width="0.1"/>
    <path d="M 614,0c -29.8828125,180 0,300 3.984375,354s -9.9609375,180 0,354" fill="none" stroke="black" stroke-width="0.1"/>
    <path d="M 616,0c -30.46875,180 0,300 4.0625,354s -10.15625,180 0,354" fill="none" stroke="black" stroke-width="0.1"/>
    <path d="M 622,0c -32.2265625,180 0,300 4.296875,354s -10.7421875,180 0,354" fill="none" stroke="black" stroke-width="0.1"/>
    <path d="M 624,0c -32.8125,180 0,300 4.375,354s -10.9375,180 0,354" fill="none" stroke="black" stroke-width="0.1"/>
    <path d="M 626,0c -33.3984375,180 0,300 4.453125,354s -11.1328125,180 0,354" fill="none" stroke="black" stroke-width="0.1"/>
    <path d="M 630,0c -34.5703125,180 0,300 4.609375,354s -11.5234375,180 0,354" fill="none" stroke="black" stroke-width="0.1"/>
    <path d="M 632,0c -35.15625,180 0,300 4.6875,354s -11.71875,180 0,354" fill="none" stroke="black" stroke-width="0.1"/>
    <path d="M 634,0c -35.7421875,180 0,300 4.765625,354s -11.9140625,180 0,354" fill="none" stroke="black" stroke-width="0.1"/>
    <path d="M 636,0c -36.328125,180 0,300 4.84375,354s -12.109375,180 0,354" fill="none" stroke="black" stroke-width="0.1"/>
    <path d="M 638,0c -36.9140625,180 0,300 4.921875,354s -12.3046875,180 0,354" fill="none" stroke="black" stroke-width="0.1"/>
    <path d="M 650,0c -40.4296875,180 0,300 5.390625,354s -13.4765625,180 0,354" fill="none" stroke="black" stroke-width="0.1"/>
    <path d="M 654,0c -41.6015625,180 0,300 5.546875,354s -13.8671875,180 0,354" fill="none" stroke="black" stroke-width="0.1"/>
    <path d="M 656,0c -42.1875,180 0,300 5.625,354s -14.0625,180 0,354" fill="none" stroke="black" stroke-width="0.1"/>
    <path d="M 658,0c -42.7734375,180 0,300 5.703125,354s -14.2578125,180 0,354" fill="none" stroke="black" stroke-width="0.1"/>
    <path d="M 660,0c -43.359375,180 0,300 5.78125,354s -14.453125,180 0,354" fill="none" stroke="black" stroke-width="0.1"/>
    <path d="M 662,0c -43.9453125,180 0,300 5.859375,354s -14.6484375,180 0,354" fill="none" stroke="black" stroke-width="0.1"/>
    <path d="M 664,0c -44.53125,180 0,300 5.9375,354s -14.84375,180 0,354" fill="none" stroke="black" stroke-width="0.1"/>
    <path d="M 674,0c -47.4609375,180 0,300 6.328125,354s -15.8203125,180 0,354" fill="none" stroke="black" stroke-width="0.1"/>
    <path d="M 684,0c -50.390625,180 0,300 6.71875,354s -16.796875,180 0,354" fill="none" stroke="black" stroke-width="0.1"/>
    <path d="M 692,0c -52.734375,180 0,300 7.03125,354s -17.578125,180 0,354" fill="none" stroke="black" stroke-width="0.1"/>
    <path d="M 710,0c -58.0078125,180 0,300 7.734375,354s -19.3359375,180 0,354" fill="none" stroke="black" stroke-width="0.1"/>
    <path d="M 734,0c -65.0390625,180 0,300 8.671875,354s -21.6796875,180 0,354" fill="none" stroke="black" stroke-width="0.1"/>
  </g>
  <g inkscape:groupmode="layer" id="layer8" inkscape:label="8 - violet">
    <path d="M 596,0c -24.609375,180 0,300 3.28125,354s -8.203125,180 0,354" fill="none" stroke="black" stroke-width="0.1"/>
    <path d="M 602,0c -26.3671875,180 0,300 3.515625,354s -8.7890625,180 0,354" fill="none" stroke="black" stroke-width="0.1"/>
    <path d="M 608,0c -28.125,180 0,300 3.75,354s -9.375,180 0,354" fill="none" stroke="black" stroke-width="0.1"/>
    <path d="M 618,0c -31.0546875,180 0,300 4.140625,354s -10.3515625,180 0,354" fill="none" stroke="black" stroke-width="0.1"/>
    <path d="M 620,0c -31.640625,180 0,300 4.21875,354s -10.546875,180 0,354" fill="none" stroke="black" stroke-width="0.1"/>
    <path d="M 628,0c -33.984375,180 0,300 4.53125,354s -11.328125,180 0,354" fill="none" stroke="black" stroke-width="0.1"/>
    <path d="M 642,0c -38.0859375,180 0,300 5.078125,354s -12.6953125,180 0,354" fill="none" stroke="black" stroke-width="0.1"/>
    <path d="M 644,0c -38.671875,180 0,300 5.15625,354s -12.890625,180 0,354" fill="none" stroke="black" stroke-width="0.1"/>
    <path d="M 646,0c -39.2578125,180 0,300 5.234375,354s -13.0859375,180 0,354" fill="none" stroke="black" stroke-width="0.1"/>
    <path d="M 648,0c -39.84375,180 0,300 5.3125,354s -13.28125,180 0,354" fill="none" stroke="black" stroke-width="0.1"/>
    <path d="M 652,0c -41.015625,180 0,300 5.46875,354s -13.671875,180 0,354" fill="none" stroke="black" stroke-width="0.1"/>
    <path d="M 666,0c -45.1171875,180 0,300 6.015625,354s -15.0390625,180 0,354" fill="none" stroke="black" stroke-width="0.1"/>
    <path d="M 670,0c -46.2890625,180 0,300 6.171875,354s -15.4296875,180 0,354" fill="none" stroke="black" stroke-width="0.1"/>
    <path d="M 672,0c -46.875,180 0,300 6.25,354s -15.625,180 0,354" fill="none" stroke="black" stroke-width="0.1"/>
    <path d="M 676,0c -48.046875,180 0,300 6.40625,354s -16.015625,180 0,354" fill="none" stroke="black" stroke-width="0.1"/>
    <path d="M 678,0c -48.6328125,180 0,300 6.484375,354s -16.2109375,180 0,354" fill="none" stroke="black" stroke-width="0.1"/>
    <path d="M 680,0c -49.21875,180 0,300 6.5625,354s -16.40625,180 0,354" fill="none" stroke="black" stroke-width="0.1"/>
    <path d="M 682,0c -49.8046875,180 0,300 6.640625,354s -16.6015625,180 0,354" fill="none" stroke="black" stroke-width="0.1"/>
    <path d="M 686,0c -50.9765625,180 0,300 6.796875,354s -16.9921875,180 0,354" fill="none" stroke="black" stroke-width="0.1"/>
    <path d="M 688,0c -51.5625,180 0,300 6.875,354s -17.1875,180 0,354" fill="none" stroke="black" stroke-width="0.1"/>
    <path d="M 694,0c -53.3203125,180 0,300 7.109375,354s -17.7734375,180 0,354" fill="none" stroke="black" stroke-width="0.1"/>
    <path d="M 702,0c -55.6640625,180 0,300 7.421875,354s -18.5546875,180 0,354" fill="none" stroke="black" stroke-width="0.1"/>
    <path d="M 704,0c -56.25,180 0,300 7.5,354s -18.75,180 0,354" fill="none" stroke="black" stroke-width="0.1"/>
    <path d="M 706,0c -56.8359375,180 0,300 7.578125,354s -18.9453125,180 0,354" fill="none" stroke="black" stroke-width="0.1"/>
    <path d="M 708,0c -57.421875,180 0,300 7.65625,354s -19.140625,180 0,354" fill="none" stroke="black" stroke-width="0.1"/>
    <path d="M 714,0c -59.1796875,180 0,300 7.890625,354s -19.7265625,180 0,354" fill="none" stroke="black" stroke-width="0.1"/>
    <path d="M 716,0c -59.765625,180 0,300 7.96875,354s -19.921875,180 0,354" fill="none" stroke="black" stroke-width="0.1"/>
    <path d="M 718,0c -60.3515625,180 0,300 8.046875,354s -20.1171875,180 0,354" fill="none" stroke="black" stroke-width="0.1"/>
    <path d="M 720,0c -60.9375,180 0,300 8.125,354s -20.3125,180 0,354" fill="none" stroke="black" stroke-width="0.1"/>
    <path d="M 726,0c -62.6953125,180 0,300 8.359375,354s -20.8984375,180 0,354" fill="none" stroke="black" stroke-width="0.1"/>
    <path d="M 728,0c -63.28125,180 0,300 8.4375,354s -21.09375,180 0,354" fill="none" stroke="black" stroke-width="0.1"/>
    <path d="M 740,0c -66.796875,180 0,300 8.90625,354s -22.265625,180 0,354" fill="none" stroke="black" stroke-width="0.1"/>
    <path d="M 744,0c -67.96875,180 0,300 9.0625,354s -22.65625,180 0,354" fill="none" stroke="black" stroke-width="0.1"/>
    <path d="M 746,0c -68.5546875,180 0,300 9.140625,354s -22.8515625,180 0,354" fill="none" stroke="black" stroke-width="0.1"/>
    <path d="M 748,0c -69.140625,180 0,300 9.21875,354s -23.046875,180 0,354" fill="none" stroke="black" stroke-width="0.1"/>
    <path d="M 754,0c -70.8984375,180 0,300 9.453125,354s -23.6328125,180 0,354" fill="none" stroke="black" stroke-width="0.1"/>
    <path d="M 756,0c -71.484375,180 0,300 9.53125,354s -23.828125,180 0,354" fill="none" stroke="black" stroke-width="0.1"/>
    <path d="M 768,0c -75.0,180 0,300 10.0,354s -25.0,180 0,354" fill="none" stroke="black" stroke-width="0.1"/>
    <path d="M 772,0c -76.171875,180 0,300 10.15625,354s -25.390625,180 0,354" fill="none" stroke="black" stroke-width="0.1"/>
    <path d="M 778,0c -77.9296875,180 0,300 10.390625,354s -25.9765625,180 0,354" fill="none" stroke="black" stroke-width="0.1"/>
    <path d="M 788,0c -80.859375,180 0,300 10.78125,354s -26.953125,180 0,354" fill="none" stroke="black" stroke-width="0.1"/>
    <path d="M 806,0c -86.1328125,180 0,300 11.484375,354s -28.7109375,180 0,354" fill="none" stroke="black" stroke-width="0.1"/>
    <path d="M 834,0c -94.3359375,180 0,300 12.578125,354s -31.4453125,180 0,354" fill="none" stroke="black" stroke-width="0.1"/>
  </g>
  <g inkscape:groupmode="layer" id="layer9" inkscape:label="9 - polkadot">
    <path d="M 668,0c -45.703125,180 0,300 6.09375,354s -15.234375,180 0,354" fill="none" stroke="black" stroke-width="0.1"/>
    <path d="M 690,0c -52.1484375,180 0,300 6.953125,354s -17.3828125,180 0,354" fill="none" stroke="black" stroke-width="0.1"/>
    <path d="M 696,0c -53.90625,180 0,300 7.1875,354s -17.96875,180 0,354" fill="none" stroke="black" stroke-width="0.1"/>
    <path d="M 698,0c -54.4921875,180 0,300 7.265625,354s -18.1640625,180 0,354" fill="none" stroke="black" stroke-width="0.1"/>
    <path d="M 700,0c -55.078125,180 0,300 7.34375,354s -18.359375,180 0,354" fill="none" stroke="black" stroke-width="0.1"/>
    <path d="M 712,0c -58.59375,180 0,300 7.8125,354s -19.53125,180 0,354" fill="none" stroke="black" stroke-width="0.1"/>
    <path d="M 722,0c -61.5234375,180 0,300 8.203125,354s -20.5078125,180 0,354" fill="none" stroke="black" stroke-width="0.1"/>
    <path d="M 724,0c -62.109375,180 0,300 8.28125,354s -20.703125,180 0,354" fill="none" stroke="black" stroke-width="0.1"/>
    <path d="M 730,0c -63.8671875,180 0,300 8.515625,354s -21.2890625,180 0,354" fill="none" stroke="black" stroke-width="0.1"/>
    <path d="M 732,0c -64.453125,180 0,300 8.59375,354s -21.484375,180 0,354" fill="none" stroke="black" stroke-width="0.1"/>
    <path d="M 736,0c -65.625,180 0,300 8.75,354s -21.875,180 0,354" fill="none" stroke="black" stroke-width="0.1"/>
    <path d="M 738,0c -66.2109375,180 0,300 8.828125,354s -22.0703125,180 0,354" fill="none" stroke="black" stroke-width="0.1"/>
    <path d="M 742,0c -67.3828125,180 0,300 8.984375,354s -22.4609375,180 0,354" fill="none" stroke="black" stroke-width="0.1"/>
    <path d="M 750,0c -69.7265625,180 0,300 9.296875,354s -23.2421875,180 0,354" fill="none" stroke="black" stroke-width="0.1"/>
    <path d="M 752,0c -70.3125,180 0,300 9.375,354s -23.4375,180 0,354" fill="none" stroke="black" stroke-width="0.1"/>
    <path d="M 758,0c -72.0703125,180 0,300 9.609375,354s -24.0234375,180 0,354" fill="none" stroke="black" stroke-width="0.1"/>
    <path d="M 760,0c -72.65625,180 0,300 9.6875,354s -24.21875,180 0,354" fill="none" stroke="black" stroke-width="0.1"/>
    <path d="M 762,0c -73.2421875,180 0,300 9.765625,354s -24.4140625,180 0,354" fill="none" stroke="black" stroke-width="0.1"/>
    <path d="M 764,0c -73.828125,180 0,300 9.84375,354s -24.609375,180 0,354" fill="none" stroke="black" stroke-width="0.1"/>
    <path d="M 766,0c -74.4140625,180 0,300 9.921875,354s -24.8046875,180 0,354" fill="none" stroke="black" stroke-width="0.1"/>
    <path d="M 770,0c -75.5859375,180 0,300 10.078125,354s -25.1953125,180 0,354" fill="none" stroke="black" stroke-width="0.1"/>
    <path d="M 774,0c -76.7578125,180 0,300 10.234375,354s -25.5859375,180 0,354" fill="none" stroke="black" stroke-width="0.1"/>
    <path d="M 776,0c -77.34375,180 0,300 10.3125,354s -25.78125,180 0,354" fill="none" stroke="black" stroke-width="0.1"/>
    <path d="M 780,0c -78.515625,180 0,300 10.46875,354s -26.171875,180 0,354" fill="none" stroke="black" stroke-width="0.1"/>
    <path d="M 784,0c -79.6875,180 0,300 10.625,354s -26.5625,180 0,354" fill="none" stroke="black" stroke-width="0.1"/>
    <path d="M 786,0c -80.2734375,180 0,300 10.703125,354s -26.7578125,180 0,354" fill="none" stroke="black" stroke-width="0.1"/>
    <path d="M 790,0c -81.4453125,180 0,300 10.859375,354s -27.1484375,180 0,354" fill="none" stroke="black" stroke-width="0.1"/>
    <path d="M 792,0c -82.03125,180 0,300 10.9375,354s -27.34375,180 0,354" fill="none" stroke="black" stroke-width="0.1"/>
    <path d="M 794,0c -82.6171875,180 0,300 11.015625,354s -27.5390625,180 0,354" fill="none" stroke="black" stroke-width="0.1"/>
    <path d="M 796,0c -83.203125,180 0,300 11.09375,354s -27.734375,180 0,354" fill="none" stroke="black" stroke-width="0.1"/>
    <path d="M 798,0c -83.7890625,180 0,300 11.171875,354s -27.9296875,180 0,354" fill="none" stroke="black" stroke-width="0.1"/>
    <path d="M 800,0c -84.375,180 0,300 11.25,354s -28.125,180 0,354" fill="none" stroke="black" stroke-width="0.1"/>
    <path d="M 802,0c -84.9609375,180 0,300 11.328125,354s -28.3203125,180 0,354" fill="none" stroke="black" stroke-width="0.1"/>
    <path d="M 804,0c -85.546875,180 0,300 11.40625,354s -28.515625,180 0,354" fill="none" stroke="black" stroke-width="0.1"/>
    <path d="M 810,0c -87.3046875,180 0,300 11.640625,354s -29.1015625,180 0,354" fill="none" stroke="black" stroke-width="0.1"/>
    <path d="M 814,0c -88.4765625,180 0,300 11.796875,354s -29.4921875,180 0,354" fill="none" stroke="black" stroke-width="0.1"/>
    <path d="M 816,0c -89.0625,180 0,300 11.875,354s -29.6875,180 0,354" fill="none" stroke="black" stroke-width="0.1"/>
    <path d="M 818,0c -89.6484375,180 0,300 11.953125,354s -29.8828125,180 0,354" fill="none" stroke="black" stroke-width="0.1"/>
    <path d="M 822,0c -90.8203125,180 0,300 12.109375,354s -30.2734375,180 0,354" fill="none" stroke="black" stroke-width="0.1"/>
    <path d="M 830,0c -93.1640625,180 0,300 12.421875,354s -31.0546875,180 0,354" fill="none" stroke="black" stroke-width="0.1"/>
    <path d="M 832,0c -93.75,180 0,300 12.5,354s -31.25,180 0,354" fill="none" stroke="black" stroke-width="0.1"/>
    <path d="M 836,0c -94.921875,180 0,300 12.65625,354s -31.640625,180 0,354" fill="none" stroke="black" stroke-width="0.1"/>
    <path d="M 846,0c -97.8515625,180 0,300 13.046875,354s -32.6171875,180 0,354" fill="none" stroke="black" stroke-width="0.1"/>
    <path d="M 854,0c -100.1953125,180 0,300 13.359375,354s -33.3984375,180 0,354" fill="none" stroke="black" stroke-width="0.1"/>
    <path d="M 874,0c -106.0546875,180 0,300 14.140625,354s -35.3515625,180 0,354" fill="none" stroke="black" stroke-width="0.1"/>
    <path d="M 882,0c -108.3984375,180 0,300 14.453125,354s -36.1328125,180 0,354" fill="none" stroke="black" stroke-width="0.1"/>
    <path d="M 890,0c -110.7421875,180 0,300 14.765625,354s -36.9140625,180 0,354" fill="none" stroke="black" stroke-width="0.1"/>
  </g>
  <g inkscape:groupmode="layer" id="layer10" inkscape:label="10 - cyan">
    <path d="M 782,0c -79.1015625,180 0,300 10.546875,354s -26.3671875,180 0,354" fill="none" stroke="black" stroke-width="0.1"/>
    <path d="M 808,0c -86.71875,180 0,300 11.5625,354s -28.90625,180 0,354" fill="none" stroke="black" stroke-width="0.1"/>
    <path d="M 812,0c -87.890625,180 0,300 11.71875,354s -29.296875,180 0,354" fill="none" stroke="black" stroke-width="0.1"/>
    <path d="M 820,0c -90.234375,180 0,300 12.03125,354s -30.078125,180 0,354" fill="none" stroke="black" stroke-width="0.1"/>
    <path d="M 824,0c -91.40625,180 0,300 12.1875,354s -30.46875,180 0,354" fill="none" stroke="black" stroke-width="0.1"/>
    <path d="M 828,0c -92.578125,180 0,300 12.34375,354s -30.859375,180 0,354" fill="none" stroke="black" stroke-width="0.1"/>
    <path d="M 838,0c -95.5078125,180 0,300 12.734375,354s -31.8359375,180 0,354" fill="none" stroke="black" stroke-width="0.1"/>
    <path d="M 840,0c -96.09375,180 0,300 12.8125,354s -32.03125,180 0,354" fill="none" stroke="black" stroke-width="0.1"/>
    <path d="M 842,0c -96.6796875,180 0,300 12.890625,354s -32.2265625,180 0,354" fill="none" stroke="black" stroke-width="0.1"/>
    <path d="M 844,0c -97.265625,180 0,300 12.96875,354s -32.421875,180 0,354" fill="none" stroke="black" stroke-width="0.1"/>
    <path d="M 848,0c -98.4375,180 0,300 13.125,354s -32.8125,180 0,354" fill="none" stroke="black" stroke-width="0.1"/>
    <path d="M 850,0c -99.0234375,180 0,300 13.203125,354s -33.0078125,180 0,354" fill="none" stroke="black" stroke-width="0.1"/>
    <path d="M 852,0c -99.609375,180 0,300 13.28125,354s -33.203125,180 0,354" fill="none" stroke="black" stroke-width="0.1"/>
    <path d="M 856,0c -100.78125,180 0,300 13.4375,354s -33.59375,180 0,354" fill="none" stroke="black" stroke-width="0.1"/>
    <path d="M 858,0c -101.3671875,180 0,300 13.515625,354s -33.7890625,180 0,354" fill="none" stroke="black" stroke-width="0.1"/>
    <path d="M 860,0c -101.953125,180 0,300 13.59375,354s -33.984375,180 0,354" fill="none" stroke="black" stroke-width="0.1"/>
    <path d="M 864,0c -103.125,180 0,300 13.75,354s -34.375,180 0,354" fill="none" stroke="black" stroke-width="0.1"/>
    <path d="M 866,0c -103.7109375,180 0,300 13.828125,354s -34.5703125,180 0,354" fill="none" stroke="black" stroke-width="0.1"/>
    <path d="M 868,0c -104.296875,180 0,300 13.90625,354s -34.765625,180 0,354" fill="none" stroke="black" stroke-width="0.1"/>
    <path d="M 870,0c -104.8828125,180 0,300 13.984375,354s -34.9609375,180 0,354" fill="none" stroke="black" stroke-width="0.1"/>
    <path d="M 876,0c -106.640625,180 0,300 14.21875,354s -35.546875,180 0,354" fill="none" stroke="black" stroke-width="0.1"/>
    <path d="M 878,0c -107.2265625,180 0,300 14.296875,354s -35.7421875,180 0,354" fill="none" stroke="black" stroke-width="0.1"/>
    <path d="M 880,0c -107.8125,180 0,300 14.375,354s -35.9375,180 0,354" fill="none" stroke="black" stroke-width="0.1"/>
    <path d="M 884,0c -108.984375,180 0,300 14.53125,354s -36.328125,180 0,354" fill="none" stroke="black" stroke-width="0.1"/>
    <path d="M 886,0c -109.5703125,180 0,300 14.609375,354s -36.5234375,180 0,354" fill="none" stroke="black" stroke-width="0.1"/>
    <path d="M 888,0c -110.15625,180 0,300 14.6875,354s -36.71875,180 0,354" fill="none" stroke="black" stroke-width="0.1"/>
    <path d="M 892,0c -111.328125,180 0,300 14.84375,354s -37.109375,180 0,354" fill="none" stroke="black" stroke-width="0.1"/>
    <path d="M 894,0c -111.9140625,180 0,300 14.921875,354s -37.3046875,180 0,354" fill="none" stroke="black" stroke-width="0.1"/>
    <path d="M 896,0c -112.5,180 0,300 15.0,354s -37.5,180 0,354" fill="none" stroke="black" stroke-width="0.1"/>
    <path d="M 902,0c -114.2578125,180 0,300 15.234375,354s -38.0859375,180 0,354" fill="none" stroke="black" stroke-width="0.1"/>
    <path d="M 904,0c -114.84375,180 0,300 15.3125,354s -38.28125,180 0,354" fill="none" stroke="black" stroke-width="0.1"/>
    <path d="M 906,0c -115.4296875,180 0,300 15.390625,354s -38.4765625,180 0,354" fill="none" stroke="black" stroke-width="0.1"/>
    <path d="M 908,0c -116.015625,180 0,300 15.46875,354s -38.671875,180 0,354" fill="none" stroke="black" stroke-width="0.1"/>
    <path d="M 912,0c -117.1875,180 0,300 15.625,354s -39.0625,180 0,354" fill="none" stroke="black" stroke-width="0.1"/>
    <path d="M 914,0c -117.7734375,180 0,300 15.703125,354s -39.2578125,180 0,354" fill="none" stroke="black" stroke-width="0.1"/>
    <path d="M 916,0c -118.359375,180 0,300 15.78125,354s -39.453125,180 0,354" fill="none" stroke="black" stroke-width="0.1"/>
    <path d="M 920,0c -119.53125,180 0,300 15.9375,354s -39.84375,180 0,354" fill="none" stroke="black" stroke-width="0.1"/>
    <path d="M 922,0c -120.1171875,180 0,300 16.015625,354s -40.0390625,180 0,354" fill="none" stroke="black" stroke-width="0.1"/>
    <path d="M 924,0c -120.703125,180 0,300 16.09375,354s -40.234375,180 0,354" fill="none" stroke="black" stroke-width="0.1"/>
    <path d="M 926,0c -121.2890625,180 0,300 16.171875,354s -40.4296875,180 0,354" fill="none" stroke="black" stroke-width="0.1"/>
    <path d="M 932,0c -123.046875,180 0,300 16.40625,354s -41.015625,180 0,354" fill="none" stroke="black" stroke-width="0.1"/>
    <path d="M 936,0c -124.21875,180 0,300 16.5625,354s -41.40625,180 0,354" fill="none" stroke="black" stroke-width="0.1"/>
    <path d="M 942,0c -125.9765625,180 0,300 16.796875,354s -41.9921875,180 0,354" fill="none" stroke="black" stroke-width="0.1"/>
    <path d="M 954,0c -129.4921875,180 0,300 17.265625,354s -43.1640625,180 0,354" fill="none" stroke="black" stroke-width="0.1"/>
    <path d="M 960,0c -131.25,180 0,300 17.5,354s -43.75,180 0,354" fill="none" stroke="black" stroke-width="0.1"/>
    <path d="M 1010,0c -145.8984375,180 0,300 19.453125,354s -48.6328125,180 0,354" fill="none" stroke="black" stroke-width="0.1"/>
    <path d="M 1018,0c -148.2421875,180 0,300 19.765625,354s -49.4140625,180 0,354" fill="none" stroke="black" stroke-width="0.1"/>
  </g>
  <g inkscape:groupmode="layer" id="layer11" inkscape:label="11 - cerise">
    <path d="M 826,0c -91.9921875,180 0,300 12.265625,354s -30.6640625,180 0,354" fill="none" stroke="black" stroke-width="0.1"/>
    <path d="M 862,0c -102.5390625,180 0,300 13.671875,354s -34.1796875,180 0,354" fill="none" stroke="black" stroke-width="0.1"/>
    <path d="M 872,0c -105.46875,180 0,300 14.0625,354s -35.15625,180 0,354" fill="none" stroke="black" stroke-width="0.1"/>
    <path d="M 898,0c -113.0859375,180 0,300 15.078125,354s -37.6953125,180 0,354" fill="none" stroke="black" stroke-width="0.1"/>
    <path d="M 900,0c -113.671875,180 0,300 15.15625,354s -37.890625,180 0,354" fill="none" stroke="black" stroke-width="0.1"/>
    <path d="M 910,0c -116.6015625,180 0,300 15.546875,354s -38.8671875,180 0,354" fill="none" stroke="black" stroke-width="0.1"/>
    <path d="M 918,0c -118.9453125,180 0,300 15.859375,354s -39.6484375,180 0,354" fill="none" stroke="black" stroke-width="0.1"/>
    <path d="M 928,0c -121.875,180 0,300 16.25,354s -40.625,180 0,354" fill="none" stroke="black" stroke-width="0.1"/>
    <path d="M 930,0c -122.4609375,180 0,300 16.328125,354s -40.8203125,180 0,354" fill="none" stroke="black" stroke-width="0.1"/>
    <path d="M 934,0c -123.6328125,180 0,300 16.484375,354s -41.2109375,180 0,354" fill="none" stroke="black" stroke-width="0.1"/>
    <path d="M 938,0c -124.8046875,180 0,300 16.640625,354s -41.6015625,180 0,354" fill="none" stroke="black" stroke-width="0.1"/>
    <path d="M 940,0c -125.390625,180 0,300 16.71875,354s -41.796875,180 0,354" fill="none" stroke="black" stroke-width="0.1"/>
    <path d="M 944,0c -126.5625,180 0,300 16.875,354s -42.1875,180 0,354" fill="none" stroke="black" stroke-width="0.1"/>
    <path d="M 946,0c -127.1484375,180 0,300 16.953125,354s -42.3828125,180 0,354" fill="none" stroke="black" stroke-width="0.1"/>
    <path d="M 948,0c -127.734375,180 0,300 17.03125,354s -42.578125,180 0,354" fill="none" stroke="black" stroke-width="0.1"/>
    <path d="M 950,0c -128.3203125,180 0,300 17.109375,354s -42.7734375,180 0,354" fill="none" stroke="black" stroke-width="0.1"/>
    <path d="M 952,0c -128.90625,180 0,300 17.1875,354s -42.96875,180 0,354" fill="none" stroke="black" stroke-width="0.1"/>
    <path d="M 956,0c -130.078125,180 0,300 17.34375,354s -43.359375,180 0,354" fill="none" stroke="black" stroke-width="0.1"/>
    <path d="M 958,0c -130.6640625,180 0,300 17.421875,354s -43.5546875,180 0,354" fill="none" stroke="black" stroke-width="0.1"/>
    <path d="M 962,0c -131.8359375,180 0,300 17.578125,354s -43.9453125,180 0,354" fill="none" stroke="black" stroke-width="0.1"/>
    <path d="M 964,0c -132.421875,180 0,300 17.65625,354s -44.140625,180 0,354" fill="none" stroke="black" stroke-width="0.1"/>
    <path d="M 966,0c -133.0078125,180 0,300 17.734375,354s -44.3359375,180 0,354" fill="none" stroke="black" stroke-width="0.1"/>
    <path d="M 968,0c -133.59375,180 0,300 17.8125,354s -44.53125,180 0,354" fill="none" stroke="black" stroke-width="0.1"/>
    <path d="M 970,0c -134.1796875,180 0,300 17.890625,354s -44.7265625,180 0,354" fill="none" stroke="black" stroke-width="0.1"/>
    <path d="M 972,0c -134.765625,180 0,300 17.96875,354s -44.921875,180 0,354" fill="none" stroke="black" stroke-width="0.1"/>
    <path d="M 974,0c -135.3515625,180 0,300 18.046875,354s -45.1171875,180 0,354" fill="none" stroke="black" stroke-width="0.1"/>
    <path d="M 976,0c -135.9375,180 0,300 18.125,354s -45.3125,180 0,354" fill="none" stroke="black" stroke-width="0.1"/>
    <path d="M 978,0c -136.5234375,180 0,300 18.203125,354s -45.5078125,180 0,354" fill="none" stroke="black" stroke-width="0.1"/>
    <path d="M 980,0c -137.109375,180 0,300 18.28125,354s -45.703125,180 0,354" fill="none" stroke="black" stroke-width="0.1"/>
    <path d="M 982,0c -137.6953125,180 0,300 18.359375,354s -45.8984375,180 0,354" fill="none" stroke="black" stroke-width="0.1"/>
    <path d="M 984,0c -138.28125,180 0,300 18.4375,354s -46.09375,180 0,354" fill="none" stroke="black" stroke-width="0.1"/>
    <path d="M 986,0c -138.8671875,180 0,300 18.515625,354s -46.2890625,180 0,354" fill="none" stroke="black" stroke-width="0.1"/>
    <path d="M 988,0c -139.453125,180 0,300 18.59375,354s -46.484375,180 0,354" fill="none" stroke="black" stroke-width="0.1"/>
    <path d="M 990,0c -140.0390625,180 0,300 18.671875,354s -46.6796875,180 0,354" fill="none" stroke="black" stroke-width="0.1"/>
    <path d="M 992,0c -140.625,180 0,300 18.75,354s -46.875,180 0,354" fill="none" stroke="black" stroke-width="0.1"/>
    <path d="M 994,0c -141.2109375,180 0,300 18.828125,354s -47.0703125,180 0,354" fill="none" stroke="black" stroke-width="0.1"/>
    <path d="M 996,0c -141.796875,180 0,300 18.90625,354s -47.265625,180 0,354" fill="none" stroke="black" stroke-width="0.1"/>
    <path d="M 998,0c -142.3828125,180 0,300 18.984375,354s -47.4609375,180 0,354" fill="none" stroke="black" stroke-width="0.1"/>
    <path d="M 1000,0c -142.96875,180 0,300 19.0625,354s -47.65625,180 0,354" fill="none" stroke="black" stroke-width="0.1"/>
    <path d="M 1002,0c -143.5546875,180 0,300 19.140625,354s -47.8515625,180 0,354" fill="none" stroke="black" stroke-width="0.1"/>
    <path d="M 1004,0c -144.140625,180 0,300 19.21875,354s -48.046875,180 0,354" fill="none" stroke="black" stroke-width="0.1"/>
    <path d="M 1006,0c -144.7265625,180 0,300 19.296875,354s -48.2421875,180 0,354" fill="none" stroke="black" stroke-width="0.1"/>
    <path d="M 1008,0c -145.3125,180 0,300 19.375,354s -48.4375,180 0,354" fill="none" stroke="black" stroke-width="0.1"/>
    <path d="M 1012,0c -146.484375,180 0,300 19.53125,354s -48.828125,180 0,354" fill="none" stroke="black" stroke-width="0.1"/>
    <path d="M 1014,0c -147.0703125,180 0,300 19.609375,354s -49.0234375,180 0,354" fill="none" stroke="black" stroke-width="0.1"/>
    <path d="M 1016,0c -147.65625,180 0,300 19.6875,354s -49.21875,180 0,354" fill="none" stroke="black" stroke-width="0.1"/>
    <path d="M 1020,0c -148.828125,180 0,300 19.84375,354s -49.609375,180 0,354" fill="none" stroke="black" stroke-width="0.1"/>
    <path d="M 1022,0c -149.4140625,180 0,300 19.921875,354s -49.8046875,180 0,354" fill="none" stroke="black" stroke-width="0.1"/>
    <path d="M 1024,0c -150.0,180 0,300 20.0,354s -50.0,180 0,354" fill="none" stroke="black" stroke-width="0.1"/>
    <path d="M 1026,0c -150.5859375,180 0,300 20.078125,354s -50.1953125,180 0,354" fill="none" stroke="black" stroke-width="0.1"/>
    <path d="M 1028,0c -151.171875,180 0,300 20.15625,354s -50.390625,180 0,354" fill="none" stroke="black" stroke-width="0.1"/>
    <path d="M 1030,0c -151.7578125,180 0,300 20.234375,354s -50.5859375,180 0,354" fill="none" stroke="black" stroke-width="0.1"/>
    <path d="M 1032,0c -152.34375,180 0,300 20.3125,354s -50.78125,180 0,354" fill="none" stroke="black" stroke-width="0.1"/>
    <path d="M 1034,0c -152.9296875,180 0,300 20.390625,354s -50.9765625,180 0,354" fill="none" stroke="black" stroke-width="0.1"/>
    <path d="M 1036,0c -153.515625,180 0,300 20.46875,354s -51.171875,180 0,354" fill="none" stroke="black" stroke-width="0.1"/>
    <path d="M 1038,0c -154.1015625,180 0,300 20.546875,354s -51.3671875,180 0,354" fill="none" stroke="black" stroke-width="0.1"/>
    <path d="M 1040,0c -154.6875,180 0,300 20.625,354s -51.5625,180 0,354" fill="none" stroke="black" stroke-width="0.1"/>
    <path d="M 1042,0c -155.2734375,180 0,300 20.703125,354s -51.7578125,180 0,354" fill="none" stroke="black" stroke-width="0.1"/>
    <path d="M 1044,0c -155.859375,180 0,300 20.78125,354s -51.953125,180 0,354" fill="none" stroke="black" stroke-width="0.1"/>
    <path d="M 1046,0c -156.4453125,180 0,300 20.859375,354s -52.1484375,180 0,354" fill="none" stroke="black" stroke-width="0.1"/>
    <path d="M 1048,0c -157.03125,180 0,300 20.9375,354s -52.34375,180 0,354" fill="none" stroke="black" stroke-width="0.1"/>
    <path d="M 1050,0c -157.6171875,180 0,300 21.015625,354s -52.5390625,180 0,354" fill="none" stroke="black" stroke-width="0.1"/>
    <path d="M 1052,0c -158.203125,180 0,300 21.09375,354s -52.734375,180 0,354" fill="none" stroke="black" stroke-width="0.1"/>
    <path d="M 1054,0c -158.7890625,180 0,300 21.171875,354s -52.9296875,180 0,354" fill="none" stroke="black" stroke-width="0.1"/>
    <path d="M 1056,0c -159.375,180 0,300 21.25,354s -53.125,180 0,354" fill="none" stroke="black" stroke-width="0.1"/>
    <path d="M 1058,0c -159.9609375,180 0,300 21.328125,354s -53.3203125,180 0,354" fill="none" stroke="black" stroke-width="0.1"/>
    <path d="M 1060,0c -160.546875,180 0,300 21.40625,354s -53.515625,180 0,354" fill="none" stroke="black" stroke-width="0.1"/>
    <path d="M 1062,0c -161.1328125,180 0,300 21.484375,354s -53.7109375,180 0,354" fill="none" stroke="black" stroke-width="0.1"/>
    <path d="M 1064,0c -161.71875,180 0,300 21.5625,354s -53.90625,180 0,354" fill="none" stroke="black" stroke-width="0.1"/>
    <path d="M 1066,0c -162.3046875,180 0,300 21.640625,354s -54.1015625,180 0,354" fill="none" stroke="black" stroke-width="0.1"/>
    <path d="M 1068,0c -162.890625,180 0,300 21.71875,354s -54.296875,180 0,354" fill="none" stroke="black" stroke-width="0.1"/>
    <path d="M 1070,0c -163.4765625,180 0,300 21.796875,354s -54.4921875,180 0,354" fill="none" stroke="black" stroke-width="0.1"/>
    <path d="M 1072,0c -164.0625,180 0,300 21.875,354s -54.6875,180 0,354" fill="none" stroke="black" stroke-width="0.1"/>
    <path d="M 1074,0c -164.6484375,180 0,300 21.953125,354s -54.8828125,180 0,354" fill="none" stroke="black" stroke-width="0.1"/>
    <path d="M 1076,0c -165.234375,180 0,300 22.03125,354s -55.078125,180 0,354" fill="none" stroke="black" stroke-width="0.1"/>
    <path d="M 1078,0c -165.8203125,180 0,300 22.109375,354s -55.2734375,180 0,354" fill="none" stroke="black" stroke-width="0.1"/>
    <path d="M 1080,0c -166.40625,180 0,300 22.1875,354s -55.46875,180 0,354" fill="none" stroke="black" stroke-width="0.1"/>
    <path d="M 1082,0c -166.9921875,180 0,300 22.265625,354s -55.6640625,180 0,354" fill="none" stroke="black" stroke-width="0.1"/>
    <path d="M 1084,0c -167.578125,180 0,300 22.34375,354s -55.859375,180 0,354" fill="none" stroke="black" stroke-width="0.1"/>
    <path d="M 1086,0c -168.1640625,180 0,300 22.421875,354s -56.0546875,180 0,354" fill="none" stroke="black" stroke-width="0.1"/>
    <path d="M 1088,0c -168.75,180 0,300 22.5,354s -56.25,180 0,354" fill="none" stroke="black" stroke-width="0.1"/>
    <path d="M 1090,0c -169.3359375,180 0,300 22.578125,354s -56.4453125,180 0,354" fill="none" stroke="black" stroke-width="0.1"/>
    <path d="M 1092,0c -169.921875,180 0,300 22.65625,354s -56.640625,180 0,354" fill="none" stroke="black" stroke-width="0.1"/>
    <path d="M 1094,0c -170.5078125,180 0,300 22.734375,354s -56.8359375,180 0,354" fill="none" stroke="black" stroke-width="0.1"/>
    <path d="M 1096,0c -171.09375,180 0,300 22.8125,354s -57.03125,180 0,354" fill="none" stroke="black" stroke-width="0.1"/>
    <path d="M 1098,0c -171.6796875,180 0,300 22.890625,354s -57.2265625,180 0,354" fill="none" stroke="black" stroke-width="0.1"/>
    <path d="M 1100,0c -172.265625,180 0,300 22.96875,354s -57.421875,180 0,354" fill="none" stroke="black" stroke-width="0.1"/>
  </g>
</svg>
