<svg viewBox="0 0 1024 656" xmlns="http://www.w3.org/2000/svg" xmlns:inkscape="http://www.inkscape.org/namespaces/inkscape" width="420mm" height="295mm">
  <g inkscape:groupmode="layer" id="layer1" inkscape:label="1 - red,">
    <path d="M 0 0 V 656" fill="transparent" stroke="black" stroke-width="0.1"/>
    <path d="M 2 0 V 656" fill="transparent" stroke="black" stroke-width="0.1"/>
    <path d="M 4 0 V 656" fill="transparent" stroke="black" stroke-width="0.1"/>
    <path d="M 6 0 V 656" fill="transparent" stroke="black" stroke-width="0.1"/>
    <path d="M 8 0 V 656" fill="transparent" stroke="black" stroke-width="0.1"/>
    <path d="M 10 0 V 656" fill="transparent" stroke="black" stroke-width="0.1"/>
    <path d="M 12 0 V 656" fill="transparent" stroke="black" stroke-width="0.1"/>
    <path d="M 14 0 V 656" fill="transparent" stroke="black" stroke-width="0.1"/>
    <path d="M 16 0 V 656" fill="transparent" stroke="black" stroke-width="0.1"/>
    <path d="M 18 0 V 656" fill="transparent" stroke="black" stroke-width="0.1"/>
    <path d="M 20 0 V 656" fill="transparent" stroke="black" stroke-width="0.1"/>
    <path d="M 22 0 V 656" fill="transparent" stroke="black" stroke-width="0.1"/>
    <path d="M 24 0 V 656" fill="transparent" stroke="black" stroke-width="0.1"/>
    <path d="M 26 0 V 656" fill="transparent" stroke="black" stroke-width="0.1"/>
    <path d="M 28 0 V 656" fill="transparent" stroke="black" stroke-width="0.1"/>
    <path d="M 30 0 V 656" fill="transparent" stroke="black" stroke-width="0.1"/>
    <path d="M 32 0 V 656" fill="transparent" stroke="black" stroke-width="0.1"/>
    <path d="M 34 0 V 656" fill="transparent" stroke="black" stroke-width="0.1"/>
    <path d="M 36 0 V 656" fill="transparent" stroke="black" stroke-width="0.1"/>
    <path d="M 38 0 V 656" fill="transparent" stroke="black" stroke-width="0.1"/>
    <path d="M 40 0 V 656" fill="transparent" stroke="black" stroke-width="0.1"/>
    <path d="M 42 0 V 656" fill="transparent" stroke="black" stroke-width="0.1"/>
    <path d="M 44 0 V 656" fill="transparent" stroke="black" stroke-width="0.1"/>
    <path d="M 46 0 V 656" fill="transparent" stroke="black" stroke-width="0.1"/>
    <path d="M 48 0 V 656" fill="transparent" stroke="black" stroke-width="0.1"/>
    <path d="M 50 0 V 656" fill="transparent" stroke="black" stroke-width="0.1"/>
    <path d="M 52 0 V 656" fill="transparent" stroke="black" stroke-width="0.1"/>
    <path d="M 54 0 V 656" fill="transparent" stroke="black" stroke-width="0.1"/>
    <path d="M 56 0 V 656" fill="transparent" stroke="black" stroke-width="0.1"/>
    <path d="M 58 0 V 656" fill="transparent" stroke="black" stroke-width="0.1"/>
    <path d="M 60 0 V 656" fill="transparent" stroke="black" stroke-width="0.1"/>
    <path d="M 62 0 V 656" fill="transparent" stroke="black" stroke-width="0.1"/>
    <path d="M 64 0 V 656" fill="transparent" stroke="black" stroke-width="0.1"/>
    <path d="M 66 0 V 656" fill="transparent" stroke="black" stroke-width="0.1"/>
    <path d="M 68 0 V 656" fill="transparent" stroke="black" stroke-width="0.1"/>
    <path d="M 70 0 V 656" fill="transparent" stroke="black" stroke-width="0.1"/>
    <path d="M 72 0 V 656" fill="transparent" stroke="black" stroke-width="0.1"/>
    <path d="M 74 0 V 656" fill="transparent" stroke="black" stroke-width="0.1"/>
    <path d="M 76 0 V 656" fill="transparent" stroke="black" stroke-width="0.1"/>
    <path d="M 78 0 V 656" fill="transparent" stroke="black" stroke-width="0.1"/>
    <path d="M 80 0 V 656" fill="transparent" stroke="black" stroke-width="0.1"/>
    <path d="M 82 0 V 656" fill="transparent" stroke="black" stroke-width="0.1"/>
    <path d="M 84 0 V 656" fill="transparent" stroke="black" stroke-width="0.1"/>
    <path d="M 86 0 V 656" fill="transparent" stroke="black" stroke-width="0.1"/>
    <path d="M 88 0 V 656" fill="transparent" stroke="black" stroke-width="0.1"/>
    <path d="M 90 0 V 656" fill="transparent" stroke="black" stroke-width="0.1"/>
    <path d="M 92 0 V 656" fill="transparent" stroke="black" stroke-width="0.1"/>
    <path d="M 94 0 V 656" fill="transparent" stroke="black" stroke-width="0.1"/>
    <path d="M 96 0 V 656" fill="transparent" stroke="black" stroke-width="0.1"/>
    <path d="M 98 0 V 656" fill="transparent" stroke="black" stroke-width="0.1"/>
    <path d="M 100 0 V 656" fill="transparent" stroke="black" stroke-width="0.1"/>
    <path d="M 102 0 V 656" fill="transparent" stroke="black" stroke-width="0.1"/>
    <path d="M 104 0 V 656" fill="transparent" stroke="black" stroke-width="0.1"/>
    <path d="M 106 0 V 656" fill="transparent" stroke="black" stroke-width="0.1"/>
    <path d="M 108 0 V 656" fill="transparent" stroke="black" stroke-width="0.1"/>
    <path d="M 110 0 V 656" fill="transparent" stroke="black" stroke-width="0.1"/>
    <path d="M 112 0 V 656" fill="transparent" stroke="black" stroke-width="0.1"/>
    <path d="M 114 0 V 656" fill="transparent" stroke="black" stroke-width="0.1"/>
    <path d="M 116 0 V 656" fill="transparent" stroke="black" stroke-width="0.1"/>
    <path d="M 118 0 V 656" fill="transparent" stroke="black" stroke-width="0.1"/>
    <path d="M 120 0 V 656" fill="transparent" stroke="black" stroke-width="0.1"/>
    <path d="M 124 0 V 656" fill="transparent" stroke="black" stroke-width="0.1"/>
    <path d="M 126 0 V 656" fill="transparent" stroke="black" stroke-width="0.1"/>
    <path d="M 130 0 V 656" fill="transparent" stroke="black" stroke-width="0.1"/>
    <path d="M 132 0 V 656" fill="transparent" stroke="black" stroke-width="0.1"/>
    <path d="M 136 0 V 656" fill="transparent" stroke="black" stroke-width="0.1"/>
    <path d="M 140 0 V 656" fill="transparent" stroke="black" stroke-width="0.1"/>
    <path d="M 146 0 V 656" fill="transparent" stroke="black" stroke-width="0.1"/>
    <path d="M 152 0 V 656" fill="transparent" stroke="black" stroke-width="0.1"/>
    <path d="M 172 0 V 656" fill="transparent" stroke="black" stroke-width="0.1"/>
    <path d="M 184 0 V 656" fill="transparent" stroke="black" stroke-width="0.1"/>
  </g>
  <g inkscape:groupmode="layer" id="layer2" inkscape:label="2 - green,">
    <path d="M 122 0 V 656" fill="transparent" stroke="black" stroke-width="0.1"/>
    <path d="M 128 0 V 656" fill="transparent" stroke="black" stroke-width="0.1"/>
    <path d="M 134 0 V 656" fill="transparent" stroke="black" stroke-width="0.1"/>
    <path d="M 138 0 V 656" fill="transparent" stroke="black" stroke-width="0.1"/>
    <path d="M 142 0 V 656" fill="transparent" stroke="black" stroke-width="0.1"/>
    <path d="M 144 0 V 656" fill="transparent" stroke="black" stroke-width="0.1"/>
    <path d="M 148 0 V 656" fill="transparent" stroke="black" stroke-width="0.1"/>
    <path d="M 150 0 V 656" fill="transparent" stroke="black" stroke-width="0.1"/>
    <path d="M 154 0 V 656" fill="transparent" stroke="black" stroke-width="0.1"/>
    <path d="M 156 0 V 656" fill="transparent" stroke="black" stroke-width="0.1"/>
    <path d="M 158 0 V 656" fill="transparent" stroke="black" stroke-width="0.1"/>
    <path d="M 160 0 V 656" fill="transparent" stroke="black" stroke-width="0.1"/>
    <path d="M 162 0 V 656" fill="transparent" stroke="black" stroke-width="0.1"/>
    <path d="M 164 0 V 656" fill="transparent" stroke="black" stroke-width="0.1"/>
    <path d="M 166 0 V 656" fill="transparent" stroke="black" stroke-width="0.1"/>
    <path d="M 168 0 V 656" fill="transparent" stroke="black" stroke-width="0.1"/>
    <path d="M 170 0 V 656" fill="transparent" stroke="black" stroke-width="0.1"/>
    <path d="M 174 0 V 656" fill="transparent" stroke="black" stroke-width="0.1"/>
    <path d="M 176 0 V 656" fill="transparent" stroke="black" stroke-width="0.1"/>
    <path d="M 178 0 V 656" fill="transparent" stroke="black" stroke-width="0.1"/>
    <path d="M 180 0 V 656" fill="transparent" stroke="black" stroke-width="0.1"/>
    <path d="M 182 0 V 656" fill="transparent" stroke="black" stroke-width="0.1"/>
    <path d="M 186 0 V 656" fill="transparent" stroke="black" stroke-width="0.1"/>
    <path d="M 188 0 V 656" fill="transparent" stroke="black" stroke-width="0.1"/>
    <path d="M 190 0 V 656" fill="transparent" stroke="black" stroke-width="0.1"/>
    <path d="M 192 0 V 656" fill="transparent" stroke="black" stroke-width="0.1"/>
    <path d="M 194 0 V 656" fill="transparent" stroke="black" stroke-width="0.1"/>
    <path d="M 196 0 V 656" fill="transparent" stroke="black" stroke-width="0.1"/>
    <path d="M 198 0 V 656" fill="transparent" stroke="black" stroke-width="0.1"/>
    <path d="M 200 0 V 656" fill="transparent" stroke="black" stroke-width="0.1"/>
    <path d="M 202 0 V 656" fill="transparent" stroke="black" stroke-width="0.1"/>
    <path d="M 204 0 V 656" fill="transparent" stroke="black" stroke-width="0.1"/>
    <path d="M 206 0 V 656" fill="transparent" stroke="black" stroke-width="0.1"/>
    <path d="M 208 0 V 656" fill="transparent" stroke="black" stroke-width="0.1"/>
    <path d="M 210 0 V 656" fill="transparent" stroke="black" stroke-width="0.1"/>
    <path d="M 212 0 V 656" fill="transparent" stroke="black" stroke-width="0.1"/>
    <path d="M 214 0 V 656" fill="transparent" stroke="black" stroke-width="0.1"/>
    <path d="M 216 0 V 656" fill="transparent" stroke="black" stroke-width="0.1"/>
    <path d="M 218 0 V 656" fill="transparent" stroke="black" stroke-width="0.1"/>
    <path d="M 220 0 V 656" fill="transparent" stroke="black" stroke-width="0.1"/>
    <path d="M 222 0 V 656" fill="transparent" stroke="black" stroke-width="0.1"/>
    <path d="M 224 0 V 656" fill="transparent" stroke="black" stroke-width="0.1"/>
    <path d="M 226 0 V 656" fill="transparent" stroke="black" stroke-width="0.1"/>
    <path d="M 228 0 V 656" fill="transparent" stroke="black" stroke-width="0.1"/>
    <path d="M 230 0 V 656" fill="transparent" stroke="black" stroke-width="0.1"/>
    <path d="M 232 0 V 656" fill="transparent" stroke="black" stroke-width="0.1"/>
    <path d="M 234 0 V 656" fill="transparent" stroke="black" stroke-width="0.1"/>
    <path d="M 236 0 V 656" fill="transparent" stroke="black" stroke-width="0.1"/>
    <path d="M 238 0 V 656" fill="transparent" stroke="black" stroke-width="0.1"/>
    <path d="M 240 0 V 656" fill="transparent" stroke="black" stroke-width="0.1"/>
    <path d="M 242 0 V 656" fill="transparent" stroke="black" stroke-width="0.1"/>
    <path d="M 244 0 V 656" fill="transparent" stroke="black" stroke-width="0.1"/>
    <path d="M 246 0 V 656" fill="transparent" stroke="black" stroke-width="0.1"/>
    <path d="M 248 0 V 656" fill="transparent" stroke="black" stroke-width="0.1"/>
    <path d="M 250 0 V 656" fill="transparent" stroke="black" stroke-width="0.1"/>
    <path d="M 252 0 V 656" fill="transparent" stroke="black" stroke-width="0.1"/>
    <path d="M 254 0 V 656" fill="transparent" stroke="black" stroke-width="0.1"/>
    <path d="M 256 0 V 656" fill="transparent" stroke="black" stroke-width="0.1"/>
    <path d="M 258 0 V 656" fill="transparent" stroke="black" stroke-width="0.1"/>
    <path d="M 260 0 V 656" fill="transparent" stroke="black" stroke-width="0.1"/>
    <path d="M 262 0 V 656" fill="transparent" stroke="black" stroke-width="0.1"/>
    <path d="M 266 0 V 656" fill="transparent" stroke="black" stroke-width="0.1"/>
    <path d="M 270 0 V 656" fill="transparent" stroke="black" stroke-width="0.1"/>
    <path d="M 272 0 V 656" fill="transparent" stroke="black" stroke-width="0.1"/>
    <path d="M 274 0 V 656" fill="transparent" stroke="black" stroke-width="0.1"/>
    <path d="M 278 0 V 656" fill="transparent" stroke="black" stroke-width="0.1"/>
    <path d="M 282 0 V 656" fill="transparent" stroke="black" stroke-width="0.1"/>
    <path d="M 286 0 V 656" fill="transparent" stroke="black" stroke-width="0.1"/>
    <path d="M 288 0 V 656" fill="transparent" stroke="black" stroke-width="0.1"/>
    <path d="M 292 0 V 656" fill="transparent" stroke="black" stroke-width="0.1"/>
    <path d="M 294 0 V 656" fill="transparent" stroke="black" stroke-width="0.1"/>
    <path d="M 302 0 V 656" fill="transparent" stroke="black" stroke-width="0.1"/>
    <path d="M 304 0 V 656" fill="transparent" stroke="black" stroke-width="0.1"/>
    <path d="M 306 0 V 656" fill="transparent" stroke="black" stroke-width="0.1"/>
    <path d="M 310 0 V 656" fill="transparent" stroke="black" stroke-width="0.1"/>
    <path d="M 312 0 V 656" fill="transparent" stroke="black" stroke-width="0.1"/>
    <path d="M 322 0 V 656" fill="transparent" stroke="black" stroke-width="0.1"/>
    <path d="M 332 0 V 656" fill="transparent" stroke="black" stroke-width="0.1"/>
    <path d="M 334 0 V 656" fill="transparent" stroke="black" stroke-width="0.1"/>
    <path d="M 362 0 V 656" fill="transparent" stroke="black" stroke-width="0.1"/>
  </g>
  <g inkscape:groupmode="layer" id="layer3" inkscape:label="3 - blue,">
    <path d="M 264 0 V 656" fill="transparent" stroke="black" stroke-width="0.1"/>
    <path d="M 268 0 V 656" fill="transparent" stroke="black" stroke-width="0.1"/>
    <path d="M 276 0 V 656" fill="transparent" stroke="black" stroke-width="0.1"/>
    <path d="M 280 0 V 656" fill="transparent" stroke="black" stroke-width="0.1"/>
    <path d="M 284 0 V 656" fill="transparent" stroke="black" stroke-width="0.1"/>
    <path d="M 290 0 V 656" fill="transparent" stroke="black" stroke-width="0.1"/>
    <path d="M 296 0 V 656" fill="transparent" stroke="black" stroke-width="0.1"/>
    <path d="M 298 0 V 656" fill="transparent" stroke="black" stroke-width="0.1"/>
    <path d="M 300 0 V 656" fill="transparent" stroke="black" stroke-width="0.1"/>
    <path d="M 308 0 V 656" fill="transparent" stroke="black" stroke-width="0.1"/>
    <path d="M 314 0 V 656" fill="transparent" stroke="black" stroke-width="0.1"/>
    <path d="M 316 0 V 656" fill="transparent" stroke="black" stroke-width="0.1"/>
    <path d="M 318 0 V 656" fill="transparent" stroke="black" stroke-width="0.1"/>
    <path d="M 320 0 V 656" fill="transparent" stroke="black" stroke-width="0.1"/>
    <path d="M 324 0 V 656" fill="transparent" stroke="black" stroke-width="0.1"/>
    <path d="M 326 0 V 656" fill="transparent" stroke="black" stroke-width="0.1"/>
    <path d="M 328 0 V 656" fill="transparent" stroke="black" stroke-width="0.1"/>
    <path d="M 330 0 V 656" fill="transparent" stroke="black" stroke-width="0.1"/>
    <path d="M 336 0 V 656" fill="transparent" stroke="black" stroke-width="0.1"/>
    <path d="M 338 0 V 656" fill="transparent" stroke="black" stroke-width="0.1"/>
    <path d="M 340 0 V 656" fill="transparent" stroke="black" stroke-width="0.1"/>
    <path d="M 342 0 V 656" fill="transparent" stroke="black" stroke-width="0.1"/>
    <path d="M 344 0 V 656" fill="transparent" stroke="black" stroke-width="0.1"/>
    <path d="M 346 0 V 656" fill="transparent" stroke="black" stroke-width="0.1"/>
    <path d="M 348 0 V 656" fill="transparent" stroke="black" stroke-width="0.1"/>
    <path d="M 350 0 V 656" fill="transparent" stroke="black" stroke-width="0.1"/>
    <path d="M 352 0 V 656" fill="transparent" stroke="black" stroke-width="0.1"/>
    <path d="M 354 0 V 656" fill="transparent" stroke="black" stroke-width="0.1"/>
    <path d="M 356 0 V 656" fill="transparent" stroke="black" stroke-width="0.1"/>
    <path d="M 358 0 V 656" fill="transparent" stroke="black" stroke-width="0.1"/>
    <path d="M 360 0 V 656" fill="transparent" stroke="black" stroke-width="0.1"/>
    <path d="M 364 0 V 656" fill="transparent" stroke="black" stroke-width="0.1"/>
    <path d="M 366 0 V 656" fill="transparent" stroke="black" stroke-width="0.1"/>
    <path d="M 368 0 V 656" fill="transparent" stroke="black" stroke-width="0.1"/>
    <path d="M 370 0 V 656" fill="transparent" stroke="black" stroke-width="0.1"/>
    <path d="M 372 0 V 656" fill="transparent" stroke="black" stroke-width="0.1"/>
    <path d="M 374 0 V 656" fill="transparent" stroke="black" stroke-width="0.1"/>
    <path d="M 376 0 V 656" fill="transparent" stroke="black" stroke-width="0.1"/>
    <path d="M 378 0 V 656" fill="transparent" stroke="black" stroke-width="0.1"/>
    <path d="M 380 0 V 656" fill="transparent" stroke="black" stroke-width="0.1"/>
    <path d="M 382 0 V 656" fill="transparent" stroke="black" stroke-width="0.1"/>
    <path d="M 384 0 V 656" fill="transparent" stroke="black" stroke-width="0.1"/>
    <path d="M 386 0 V 656" fill="transparent" stroke="black" stroke-width="0.1"/>
    <path d="M 388 0 V 656" fill="transparent" stroke="black" stroke-width="0.1"/>
    <path d="M 390 0 V 656" fill="transparent" stroke="black" stroke-width="0.1"/>
    <path d="M 392 0 V 656" fill="transparent" stroke="black" stroke-width="0.1"/>
    <path d="M 394 0 V 656" fill="transparent" stroke="black" stroke-width="0.1"/>
    <path d="M 396 0 V 656" fill="transparent" stroke="black" stroke-width="0.1"/>
    <path d="M 398 0 V 656" fill="transparent" stroke="black" stroke-width="0.1"/>
    <path d="M 400 0 V 656" fill="transparent" stroke="black" stroke-width="0.1"/>
    <path d="M 402 0 V 656" fill="transparent" stroke="black" stroke-width="0.1"/>
    <path d="M 406 0 V 656" fill="transparent" stroke="black" stroke-width="0.1"/>
    <path d="M 408 0 V 656" fill="transparent" stroke="black" stroke-width="0.1"/>
    <path d="M 410 0 V 656" fill="transparent" stroke="black" stroke-width="0.1"/>
    <path d="M 412 0 V 656" fill="transparent" stroke="black" stroke-width="0.1"/>
    <path d="M 414 0 V 656" fill="transparent" stroke="black" stroke-width="0.1"/>
    <path d="M 416 0 V 656" fill="transparent" stroke="black" stroke-width="0.1"/>
    <path d="M 418 0 V 656" fill="transparent" stroke="black" stroke-width="0.1"/>
    <path d="M 422 0 V 656" fill="transparent" stroke="black" stroke-width="0.1"/>
    <path d="M 424 0 V 656" fill="transparent" stroke="black" stroke-width="0.1"/>
    <path d="M 430 0 V 656" fill="transparent" stroke="black" stroke-width="0.1"/>
    <path d="M 438 0 V 656" fill="transparent" stroke="black" stroke-width="0.1"/>
    <path d="M 442 0 V 656" fill="transparent" stroke="black" stroke-width="0.1"/>
    <path d="M 446 0 V 656" fill="transparent" stroke="black" stroke-width="0.1"/>
    <path d="M 450 0 V 656" fill="transparent" stroke="black" stroke-width="0.1"/>
    <path d="M 452 0 V 656" fill="transparent" stroke="black" stroke-width="0.1"/>
    <path d="M 456 0 V 656" fill="transparent" stroke="black" stroke-width="0.1"/>
    <path d="M 460 0 V 656" fill="transparent" stroke="black" stroke-width="0.1"/>
    <path d="M 468 0 V 656" fill="transparent" stroke="black" stroke-width="0.1"/>
    <path d="M 504 0 V 656" fill="transparent" stroke="black" stroke-width="0.1"/>
  </g>
  <g inkscape:groupmode="layer" id="layer4" inkscape:label="4 - yellow,">
    <path d="M 404 0 V 656" fill="transparent" stroke="black" stroke-width="0.1"/>
    <path d="M 420 0 V 656" fill="transparent" stroke="black" stroke-width="0.1"/>
    <path d="M 426 0 V 656" fill="transparent" stroke="black" stroke-width="0.1"/>
    <path d="M 428 0 V 656" fill="transparent" stroke="black" stroke-width="0.1"/>
    <path d="M 432 0 V 656" fill="transparent" stroke="black" stroke-width="0.1"/>
    <path d="M 434 0 V 656" fill="transparent" stroke="black" stroke-width="0.1"/>
    <path d="M 436 0 V 656" fill="transparent" stroke="black" stroke-width="0.1"/>
    <path d="M 440 0 V 656" fill="transparent" stroke="black" stroke-width="0.1"/>
    <path d="M 444 0 V 656" fill="transparent" stroke="black" stroke-width="0.1"/>
    <path d="M 448 0 V 656" fill="transparent" stroke="black" stroke-width="0.1"/>
    <path d="M 454 0 V 656" fill="transparent" stroke="black" stroke-width="0.1"/>
    <path d="M 458 0 V 656" fill="transparent" stroke="black" stroke-width="0.1"/>
    <path d="M 462 0 V 656" fill="transparent" stroke="black" stroke-width="0.1"/>
    <path d="M 464 0 V 656" fill="transparent" stroke="black" stroke-width="0.1"/>
    <path d="M 466 0 V 656" fill="transparent" stroke="black" stroke-width="0.1"/>
    <path d="M 470 0 V 656" fill="transparent" stroke="black" stroke-width="0.1"/>
    <path d="M 472 0 V 656" fill="transparent" stroke="black" stroke-width="0.1"/>
    <path d="M 474 0 V 656" fill="transparent" stroke="black" stroke-width="0.1"/>
    <path d="M 476 0 V 656" fill="transparent" stroke="black" stroke-width="0.1"/>
    <path d="M 478 0 V 656" fill="transparent" stroke="black" stroke-width="0.1"/>
    <path d="M 480 0 V 656" fill="transparent" stroke="black" stroke-width="0.1"/>
    <path d="M 482 0 V 656" fill="transparent" stroke="black" stroke-width="0.1"/>
    <path d="M 484 0 V 656" fill="transparent" stroke="black" stroke-width="0.1"/>
    <path d="M 486 0 V 656" fill="transparent" stroke="black" stroke-width="0.1"/>
    <path d="M 488 0 V 656" fill="transparent" stroke="black" stroke-width="0.1"/>
    <path d="M 490 0 V 656" fill="transparent" stroke="black" stroke-width="0.1"/>
    <path d="M 492 0 V 656" fill="transparent" stroke="black" stroke-width="0.1"/>
    <path d="M 494 0 V 656" fill="transparent" stroke="black" stroke-width="0.1"/>
    <path d="M 496 0 V 656" fill="transparent" stroke="black" stroke-width="0.1"/>
    <path d="M 498 0 V 656" fill="transparent" stroke="black" stroke-width="0.1"/>
    <path d="M 500 0 V 656" fill="transparent" stroke="black" stroke-width="0.1"/>
    <path d="M 502 0 V 656" fill="transparent" stroke="black" stroke-width="0.1"/>
    <path d="M 506 0 V 656" fill="transparent" stroke="black" stroke-width="0.1"/>
    <path d="M 508 0 V 656" fill="transparent" stroke="black" stroke-width="0.1"/>
    <path d="M 510 0 V 656" fill="transparent" stroke="black" stroke-width="0.1"/>
    <path d="M 512 0 V 656" fill="transparent" stroke="black" stroke-width="0.1"/>
    <path d="M 514 0 V 656" fill="transparent" stroke="black" stroke-width="0.1"/>
    <path d="M 516 0 V 656" fill="transparent" stroke="black" stroke-width="0.1"/>
    <path d="M 518 0 V 656" fill="transparent" stroke="black" stroke-width="0.1"/>
    <path d="M 520 0 V 656" fill="transparent" stroke="black" stroke-width="0.1"/>
    <path d="M 522 0 V 656" fill="transparent" stroke="black" stroke-width="0.1"/>
    <path d="M 524 0 V 656" fill="transparent" stroke="black" stroke-width="0.1"/>
    <path d="M 526 0 V 656" fill="transparent" stroke="black" stroke-width="0.1"/>
    <path d="M 528 0 V 656" fill="transparent" stroke="black" stroke-width="0.1"/>
    <path d="M 530 0 V 656" fill="transparent" stroke="black" stroke-width="0.1"/>
    <path d="M 532 0 V 656" fill="transparent" stroke="black" stroke-width="0.1"/>
    <path d="M 534 0 V 656" fill="transparent" stroke="black" stroke-width="0.1"/>
    <path d="M 536 0 V 656" fill="transparent" stroke="black" stroke-width="0.1"/>
    <path d="M 538 0 V 656" fill="transparent" stroke="black" stroke-width="0.1"/>
    <path d="M 540 0 V 656" fill="transparent" stroke="black" stroke-width="0.1"/>
    <path d="M 542 0 V 656" fill="transparent" stroke="black" stroke-width="0.1"/>
    <path d="M 544 0 V 656" fill="transparent" stroke="black" stroke-width="0.1"/>
    <path d="M 546 0 V 656" fill="transparent" stroke="black" stroke-width="0.1"/>
    <path d="M 548 0 V 656" fill="transparent" stroke="black" stroke-width="0.1"/>
    <path d="M 550 0 V 656" fill="transparent" stroke="black" stroke-width="0.1"/>
    <path d="M 552 0 V 656" fill="transparent" stroke="black" stroke-width="0.1"/>
    <path d="M 554 0 V 656" fill="transparent" stroke="black" stroke-width="0.1"/>
    <path d="M 556 0 V 656" fill="transparent" stroke="black" stroke-width="0.1"/>
    <path d="M 558 0 V 656" fill="transparent" stroke="black" stroke-width="0.1"/>
    <path d="M 560 0 V 656" fill="transparent" stroke="black" stroke-width="0.1"/>
    <path d="M 562 0 V 656" fill="transparent" stroke="black" stroke-width="0.1"/>
    <path d="M 566 0 V 656" fill="transparent" stroke="black" stroke-width="0.1"/>
    <path d="M 568 0 V 656" fill="transparent" stroke="black" stroke-width="0.1"/>
    <path d="M 572 0 V 656" fill="transparent" stroke="black" stroke-width="0.1"/>
    <path d="M 574 0 V 656" fill="transparent" stroke="black" stroke-width="0.1"/>
    <path d="M 582 0 V 656" fill="transparent" stroke="black" stroke-width="0.1"/>
    <path d="M 588 0 V 656" fill="transparent" stroke="black" stroke-width="0.1"/>
    <path d="M 594 0 V 656" fill="transparent" stroke="black" stroke-width="0.1"/>
    <path d="M 596 0 V 656" fill="transparent" stroke="black" stroke-width="0.1"/>
    <path d="M 600 0 V 656" fill="transparent" stroke="black" stroke-width="0.1"/>
    <path d="M 612 0 V 656" fill="transparent" stroke="black" stroke-width="0.1"/>
    <path d="M 626 0 V 656" fill="transparent" stroke="black" stroke-width="0.1"/>
    <path d="M 636 0 V 656" fill="transparent" stroke="black" stroke-width="0.1"/>
    <path d="M 642 0 V 656" fill="transparent" stroke="black" stroke-width="0.1"/>
  </g>
  <g inkscape:groupmode="layer" id="layer5" inkscape:label="5 - black,">
    <path d="M 564 0 V 656" fill="transparent" stroke="black" stroke-width="0.1"/>
    <path d="M 570 0 V 656" fill="transparent" stroke="black" stroke-width="0.1"/>
    <path d="M 576 0 V 656" fill="transparent" stroke="black" stroke-width="0.1"/>
    <path d="M 578 0 V 656" fill="transparent" stroke="black" stroke-width="0.1"/>
    <path d="M 580 0 V 656" fill="transparent" stroke="black" stroke-width="0.1"/>
    <path d="M 584 0 V 656" fill="transparent" stroke="black" stroke-width="0.1"/>
    <path d="M 586 0 V 656" fill="transparent" stroke="black" stroke-width="0.1"/>
    <path d="M 590 0 V 656" fill="transparent" stroke="black" stroke-width="0.1"/>
    <path d="M 592 0 V 656" fill="transparent" stroke="black" stroke-width="0.1"/>
    <path d="M 598 0 V 656" fill="transparent" stroke="black" stroke-width="0.1"/>
    <path d="M 602 0 V 656" fill="transparent" stroke="black" stroke-width="0.1"/>
    <path d="M 604 0 V 656" fill="transparent" stroke="black" stroke-width="0.1"/>
    <path d="M 606 0 V 656" fill="transparent" stroke="black" stroke-width="0.1"/>
    <path d="M 608 0 V 656" fill="transparent" stroke="black" stroke-width="0.1"/>
    <path d="M 610 0 V 656" fill="transparent" stroke="black" stroke-width="0.1"/>
    <path d="M 614 0 V 656" fill="transparent" stroke="black" stroke-width="0.1"/>
    <path d="M 616 0 V 656" fill="transparent" stroke="black" stroke-width="0.1"/>
    <path d="M 618 0 V 656" fill="transparent" stroke="black" stroke-width="0.1"/>
    <path d="M 620 0 V 656" fill="transparent" stroke="black" stroke-width="0.1"/>
    <path d="M 622 0 V 656" fill="transparent" stroke="black" stroke-width="0.1"/>
    <path d="M 624 0 V 656" fill="transparent" stroke="black" stroke-width="0.1"/>
    <path d="M 628 0 V 656" fill="transparent" stroke="black" stroke-width="0.1"/>
    <path d="M 630 0 V 656" fill="transparent" stroke="black" stroke-width="0.1"/>
    <path d="M 632 0 V 656" fill="transparent" stroke="black" stroke-width="0.1"/>
    <path d="M 634 0 V 656" fill="transparent" stroke="black" stroke-width="0.1"/>
    <path d="M 638 0 V 656" fill="transparent" stroke="black" stroke-width="0.1"/>
    <path d="M 640 0 V 656" fill="transparent" stroke="black" stroke-width="0.1"/>
    <path d="M 644 0 V 656" fill="transparent" stroke="black" stroke-width="0.1"/>
    <path d="M 646 0 V 656" fill="transparent" stroke="black" stroke-width="0.1"/>
    <path d="M 648 0 V 656" fill="transparent" stroke="black" stroke-width="0.1"/>
    <path d="M 650 0 V 656" fill="transparent" stroke="black" stroke-width="0.1"/>
    <path d="M 652 0 V 656" fill="transparent" stroke="black" stroke-width="0.1"/>
    <path d="M 654 0 V 656" fill="transparent" stroke="black" stroke-width="0.1"/>
    <path d="M 656 0 V 656" fill="transparent" stroke="black" stroke-width="0.1"/>
    <path d="M 658 0 V 656" fill="transparent" stroke="black" stroke-width="0.1"/>
    <path d="M 660 0 V 656" fill="transparent" stroke="black" stroke-width="0.1"/>
    <path d="M 662 0 V 656" fill="transparent" stroke="black" stroke-width="0.1"/>
    <path d="M 664 0 V 656" fill="transparent" stroke="black" stroke-width="0.1"/>
    <path d="M 666 0 V 656" fill="transparent" stroke="black" stroke-width="0.1"/>
    <path d="M 668 0 V 656" fill="transparent" stroke="black" stroke-width="0.1"/>
    <path d="M 670 0 V 656" fill="transparent" stroke="black" stroke-width="0.1"/>
    <path d="M 672 0 V 656" fill="transparent" stroke="black" stroke-width="0.1"/>
    <path d="M 674 0 V 656" fill="transparent" stroke="black" stroke-width="0.1"/>
    <path d="M 676 0 V 656" fill="transparent" stroke="black" stroke-width="0.1"/>
    <path d="M 678 0 V 656" fill="transparent" stroke="black" stroke-width="0.1"/>
    <path d="M 680 0 V 656" fill="transparent" stroke="black" stroke-width="0.1"/>
    <path d="M 682 0 V 656" fill="transparent" stroke="black" stroke-width="0.1"/>
    <path d="M 684 0 V 656" fill="transparent" stroke="black" stroke-width="0.1"/>
    <path d="M 686 0 V 656" fill="transparent" stroke="black" stroke-width="0.1"/>
    <path d="M 688 0 V 656" fill="transparent" stroke="black" stroke-width="0.1"/>
    <path d="M 692 0 V 656" fill="transparent" stroke="black" stroke-width="0.1"/>
    <path d="M 694 0 V 656" fill="transparent" stroke="black" stroke-width="0.1"/>
    <path d="M 696 0 V 656" fill="transparent" stroke="black" stroke-width="0.1"/>
    <path d="M 698 0 V 656" fill="transparent" stroke="black" stroke-width="0.1"/>
    <path d="M 702 0 V 656" fill="transparent" stroke="black" stroke-width="0.1"/>
    <path d="M 704 0 V 656" fill="transparent" stroke="black" stroke-width="0.1"/>
    <path d="M 706 0 V 656" fill="transparent" stroke="black" stroke-width="0.1"/>
    <path d="M 708 0 V 656" fill="transparent" stroke="black" stroke-width="0.1"/>
    <path d="M 710 0 V 656" fill="transparent" stroke="black" stroke-width="0.1"/>
    <path d="M 712 0 V 656" fill="transparent" stroke="black" stroke-width="0.1"/>
    <path d="M 714 0 V 656" fill="transparent" stroke="black" stroke-width="0.1"/>
    <path d="M 716 0 V 656" fill="transparent" stroke="black" stroke-width="0.1"/>
    <path d="M 718 0 V 656" fill="transparent" stroke="black" stroke-width="0.1"/>
    <path d="M 720 0 V 656" fill="transparent" stroke="black" stroke-width="0.1"/>
    <path d="M 722 0 V 656" fill="transparent" stroke="black" stroke-width="0.1"/>
    <path d="M 724 0 V 656" fill="transparent" stroke="black" stroke-width="0.1"/>
    <path d="M 726 0 V 656" fill="transparent" stroke="black" stroke-width="0.1"/>
    <path d="M 730 0 V 656" fill="transparent" stroke="black" stroke-width="0.1"/>
    <path d="M 732 0 V 656" fill="transparent" stroke="black" stroke-width="0.1"/>
    <path d="M 734 0 V 656" fill="transparent" stroke="black" stroke-width="0.1"/>
    <path d="M 740 0 V 656" fill="transparent" stroke="black" stroke-width="0.1"/>
    <path d="M 744 0 V 656" fill="transparent" stroke="black" stroke-width="0.1"/>
    <path d="M 748 0 V 656" fill="transparent" stroke="black" stroke-width="0.1"/>
    <path d="M 750 0 V 656" fill="transparent" stroke="black" stroke-width="0.1"/>
    <path d="M 754 0 V 656" fill="transparent" stroke="black" stroke-width="0.1"/>
    <path d="M 756 0 V 656" fill="transparent" stroke="black" stroke-width="0.1"/>
    <path d="M 766 0 V 656" fill="transparent" stroke="black" stroke-width="0.1"/>
    <path d="M 776 0 V 656" fill="transparent" stroke="black" stroke-width="0.1"/>
    <path d="M 782 0 V 656" fill="transparent" stroke="black" stroke-width="0.1"/>
  </g>
  <g inkscape:groupmode="layer" id="layer6" inkscape:label="6 - purple,">
    <path d="M 690 0 V 656" fill="transparent" stroke="black" stroke-width="0.1"/>
    <path d="M 700 0 V 656" fill="transparent" stroke="black" stroke-width="0.1"/>
    <path d="M 728 0 V 656" fill="transparent" stroke="black" stroke-width="0.1"/>
    <path d="M 736 0 V 656" fill="transparent" stroke="black" stroke-width="0.1"/>
    <path d="M 738 0 V 656" fill="transparent" stroke="black" stroke-width="0.1"/>
    <path d="M 742 0 V 656" fill="transparent" stroke="black" stroke-width="0.1"/>
    <path d="M 746 0 V 656" fill="transparent" stroke="black" stroke-width="0.1"/>
    <path d="M 752 0 V 656" fill="transparent" stroke="black" stroke-width="0.1"/>
    <path d="M 758 0 V 656" fill="transparent" stroke="black" stroke-width="0.1"/>
    <path d="M 760 0 V 656" fill="transparent" stroke="black" stroke-width="0.1"/>
    <path d="M 762 0 V 656" fill="transparent" stroke="black" stroke-width="0.1"/>
    <path d="M 764 0 V 656" fill="transparent" stroke="black" stroke-width="0.1"/>
    <path d="M 768 0 V 656" fill="transparent" stroke="black" stroke-width="0.1"/>
    <path d="M 770 0 V 656" fill="transparent" stroke="black" stroke-width="0.1"/>
    <path d="M 772 0 V 656" fill="transparent" stroke="black" stroke-width="0.1"/>
    <path d="M 774 0 V 656" fill="transparent" stroke="black" stroke-width="0.1"/>
    <path d="M 778 0 V 656" fill="transparent" stroke="black" stroke-width="0.1"/>
    <path d="M 780 0 V 656" fill="transparent" stroke="black" stroke-width="0.1"/>
    <path d="M 784 0 V 656" fill="transparent" stroke="black" stroke-width="0.1"/>
    <path d="M 786 0 V 656" fill="transparent" stroke="black" stroke-width="0.1"/>
    <path d="M 788 0 V 656" fill="transparent" stroke="black" stroke-width="0.1"/>
    <path d="M 790 0 V 656" fill="transparent" stroke="black" stroke-width="0.1"/>
    <path d="M 792 0 V 656" fill="transparent" stroke="black" stroke-width="0.1"/>
    <path d="M 794 0 V 656" fill="transparent" stroke="black" stroke-width="0.1"/>
    <path d="M 796 0 V 656" fill="transparent" stroke="black" stroke-width="0.1"/>
    <path d="M 798 0 V 656" fill="transparent" stroke="black" stroke-width="0.1"/>
    <path d="M 800 0 V 656" fill="transparent" stroke="black" stroke-width="0.1"/>
    <path d="M 802 0 V 656" fill="transparent" stroke="black" stroke-width="0.1"/>
    <path d="M 804 0 V 656" fill="transparent" stroke="black" stroke-width="0.1"/>
    <path d="M 806 0 V 656" fill="transparent" stroke="black" stroke-width="0.1"/>
    <path d="M 808 0 V 656" fill="transparent" stroke="black" stroke-width="0.1"/>
    <path d="M 810 0 V 656" fill="transparent" stroke="black" stroke-width="0.1"/>
    <path d="M 812 0 V 656" fill="transparent" stroke="black" stroke-width="0.1"/>
    <path d="M 814 0 V 656" fill="transparent" stroke="black" stroke-width="0.1"/>
    <path d="M 816 0 V 656" fill="transparent" stroke="black" stroke-width="0.1"/>
    <path d="M 818 0 V 656" fill="transparent" stroke="black" stroke-width="0.1"/>
    <path d="M 820 0 V 656" fill="transparent" stroke="black" stroke-width="0.1"/>
    <path d="M 822 0 V 656" fill="transparent" stroke="black" stroke-width="0.1"/>
    <path d="M 824 0 V 656" fill="transparent" stroke="black" stroke-width="0.1"/>
    <path d="M 826 0 V 656" fill="transparent" stroke="black" stroke-width="0.1"/>
    <path d="M 828 0 V 656" fill="transparent" stroke="black" stroke-width="0.1"/>
    <path d="M 830 0 V 656" fill="transparent" stroke="black" stroke-width="0.1"/>
    <path d="M 832 0 V 656" fill="transparent" stroke="black" stroke-width="0.1"/>
    <path d="M 834 0 V 656" fill="transparent" stroke="black" stroke-width="0.1"/>
    <path d="M 838 0 V 656" fill="transparent" stroke="black" stroke-width="0.1"/>
    <path d="M 840 0 V 656" fill="transparent" stroke="black" stroke-width="0.1"/>
    <path d="M 842 0 V 656" fill="transparent" stroke="black" stroke-width="0.1"/>
    <path d="M 844 0 V 656" fill="transparent" stroke="black" stroke-width="0.1"/>
    <path d="M 846 0 V 656" fill="transparent" stroke="black" stroke-width="0.1"/>
    <path d="M 850 0 V 656" fill="transparent" stroke="black" stroke-width="0.1"/>
    <path d="M 852 0 V 656" fill="transparent" stroke="black" stroke-width="0.1"/>
    <path d="M 854 0 V 656" fill="transparent" stroke="black" stroke-width="0.1"/>
    <path d="M 858 0 V 656" fill="transparent" stroke="black" stroke-width="0.1"/>
    <path d="M 860 0 V 656" fill="transparent" stroke="black" stroke-width="0.1"/>
    <path d="M 862 0 V 656" fill="transparent" stroke="black" stroke-width="0.1"/>
    <path d="M 864 0 V 656" fill="transparent" stroke="black" stroke-width="0.1"/>
    <path d="M 866 0 V 656" fill="transparent" stroke="black" stroke-width="0.1"/>
    <path d="M 870 0 V 656" fill="transparent" stroke="black" stroke-width="0.1"/>
    <path d="M 872 0 V 656" fill="transparent" stroke="black" stroke-width="0.1"/>
    <path d="M 876 0 V 656" fill="transparent" stroke="black" stroke-width="0.1"/>
    <path d="M 878 0 V 656" fill="transparent" stroke="black" stroke-width="0.1"/>
    <path d="M 884 0 V 656" fill="transparent" stroke="black" stroke-width="0.1"/>
    <path d="M 888 0 V 656" fill="transparent" stroke="black" stroke-width="0.1"/>
    <path d="M 908 0 V 656" fill="transparent" stroke="black" stroke-width="0.1"/>
  </g>
  <g inkscape:groupmode="layer" id="layer7" inkscape:label="7 - orange">
    <path d="M 836 0 V 656" fill="transparent" stroke="black" stroke-width="0.1"/>
    <path d="M 848 0 V 656" fill="transparent" stroke="black" stroke-width="0.1"/>
    <path d="M 856 0 V 656" fill="transparent" stroke="black" stroke-width="0.1"/>
    <path d="M 868 0 V 656" fill="transparent" stroke="black" stroke-width="0.1"/>
    <path d="M 874 0 V 656" fill="transparent" stroke="black" stroke-width="0.1"/>
    <path d="M 880 0 V 656" fill="transparent" stroke="black" stroke-width="0.1"/>
    <path d="M 882 0 V 656" fill="transparent" stroke="black" stroke-width="0.1"/>
    <path d="M 886 0 V 656" fill="transparent" stroke="black" stroke-width="0.1"/>
    <path d="M 890 0 V 656" fill="transparent" stroke="black" stroke-width="0.1"/>
    <path d="M 892 0 V 656" fill="transparent" stroke="black" stroke-width="0.1"/>
    <path d="M 894 0 V 656" fill="transparent" stroke="black" stroke-width="0.1"/>
    <path d="M 896 0 V 656" fill="transparent" stroke="black" stroke-width="0.1"/>
    <path d="M 898 0 V 656" fill="transparent" stroke="black" stroke-width="0.1"/>
    <path d="M 900 0 V 656" fill="transparent" stroke="black" stroke-width="0.1"/>
    <path d="M 902 0 V 656" fill="transparent" stroke="black" stroke-width="0.1"/>
    <path d="M 904 0 V 656" fill="transparent" stroke="black" stroke-width="0.1"/>
    <path d="M 906 0 V 656" fill="transparent" stroke="black" stroke-width="0.1"/>
    <path d="M 910 0 V 656" fill="transparent" stroke="black" stroke-width="0.1"/>
    <path d="M 912 0 V 656" fill="transparent" stroke="black" stroke-width="0.1"/>
    <path d="M 914 0 V 656" fill="transparent" stroke="black" stroke-width="0.1"/>
    <path d="M 916 0 V 656" fill="transparent" stroke="black" stroke-width="0.1"/>
    <path d="M 918 0 V 656" fill="transparent" stroke="black" stroke-width="0.1"/>
    <path d="M 920 0 V 656" fill="transparent" stroke="black" stroke-width="0.1"/>
    <path d="M 922 0 V 656" fill="transparent" stroke="black" stroke-width="0.1"/>
    <path d="M 924 0 V 656" fill="transparent" stroke="black" stroke-width="0.1"/>
    <path d="M 926 0 V 656" fill="transparent" stroke="black" stroke-width="0.1"/>
    <path d="M 928 0 V 656" fill="transparent" stroke="black" stroke-width="0.1"/>
    <path d="M 930 0 V 656" fill="transparent" stroke="black" stroke-width="0.1"/>
    <path d="M 932 0 V 656" fill="transparent" stroke="black" stroke-width="0.1"/>
    <path d="M 934 0 V 656" fill="transparent" stroke="black" stroke-width="0.1"/>
    <path d="M 936 0 V 656" fill="transparent" stroke="black" stroke-width="0.1"/>
    <path d="M 938 0 V 656" fill="transparent" stroke="black" stroke-width="0.1"/>
    <path d="M 940 0 V 656" fill="transparent" stroke="black" stroke-width="0.1"/>
    <path d="M 942 0 V 656" fill="transparent" stroke="black" stroke-width="0.1"/>
    <path d="M 944 0 V 656" fill="transparent" stroke="black" stroke-width="0.1"/>
    <path d="M 946 0 V 656" fill="transparent" stroke="black" stroke-width="0.1"/>
    <path d="M 948 0 V 656" fill="transparent" stroke="black" stroke-width="0.1"/>
    <path d="M 950 0 V 656" fill="transparent" stroke="black" stroke-width="0.1"/>
    <path d="M 952 0 V 656" fill="transparent" stroke="black" stroke-width="0.1"/>
    <path d="M 954 0 V 656" fill="transparent" stroke="black" stroke-width="0.1"/>
    <path d="M 956 0 V 656" fill="transparent" stroke="black" stroke-width="0.1"/>
    <path d="M 958 0 V 656" fill="transparent" stroke="black" stroke-width="0.1"/>
    <path d="M 960 0 V 656" fill="transparent" stroke="black" stroke-width="0.1"/>
    <path d="M 962 0 V 656" fill="transparent" stroke="black" stroke-width="0.1"/>
    <path d="M 964 0 V 656" fill="transparent" stroke="black" stroke-width="0.1"/>
    <path d="M 966 0 V 656" fill="transparent" stroke="black" stroke-width="0.1"/>
    <path d="M 968 0 V 656" fill="transparent" stroke="black" stroke-width="0.1"/>
    <path d="M 970 0 V 656" fill="transparent" stroke="black" stroke-width="0.1"/>
    <path d="M 972 0 V 656" fill="transparent" stroke="black" stroke-width="0.1"/>
    <path d="M 974 0 V 656" fill="transparent" stroke="black" stroke-width="0.1"/>
    <path d="M 976 0 V 656" fill="transparent" stroke="black" stroke-width="0.1"/>
    <path d="M 978 0 V 656" fill="transparent" stroke="black" stroke-width="0.1"/>
    <path d="M 980 0 V 656" fill="transparent" stroke="black" stroke-width="0.1"/>
    <path d="M 982 0 V 656" fill="transparent" stroke="black" stroke-width="0.1"/>
    <path d="M 984 0 V 656" fill="transparent" stroke="black" stroke-width="0.1"/>
    <path d="M 986 0 V 656" fill="transparent" stroke="black" stroke-width="0.1"/>
    <path d="M 988 0 V 656" fill="transparent" stroke="black" stroke-width="0.1"/>
    <path d="M 990 0 V 656" fill="transparent" stroke="black" stroke-width="0.1"/>
    <path d="M 992 0 V 656" fill="transparent" stroke="black" stroke-width="0.1"/>
    <path d="M 994 0 V 656" fill="transparent" stroke="black" stroke-width="0.1"/>
    <path d="M 996 0 V 656" fill="transparent" stroke="black" stroke-width="0.1"/>
    <path d="M 998 0 V 656" fill="transparent" stroke="black" stroke-width="0.1"/>
    <path d="M 1000 0 V 656" fill="transparent" stroke="black" stroke-width="0.1"/>
    <path d="M 1002 0 V 656" fill="transparent" stroke="black" stroke-width="0.1"/>
    <path d="M 1004 0 V 656" fill="transparent" stroke="black" stroke-width="0.1"/>
    <path d="M 1006 0 V 656" fill="transparent" stroke="black" stroke-width="0.1"/>
    <path d="M 1008 0 V 656" fill="transparent" stroke="black" stroke-width="0.1"/>
    <path d="M 1010 0 V 656" fill="transparent" stroke="black" stroke-width="0.1"/>
    <path d="M 1012 0 V 656" fill="transparent" stroke="black" stroke-width="0.1"/>
    <path d="M 1014 0 V 656" fill="transparent" stroke="black" stroke-width="0.1"/>
    <path d="M 1016 0 V 656" fill="transparent" stroke="black" stroke-width="0.1"/>
    <path d="M 1018 0 V 656" fill="transparent" stroke="black" stroke-width="0.1"/>
    <path d="M 1020 0 V 656" fill="transparent" stroke="black" stroke-width="0.1"/>
    <path d="M 1022 0 V 656" fill="transparent" stroke="black" stroke-width="0.1"/>
    <path d="M 1024 0 V 656" fill="transparent" stroke="black" stroke-width="0.1"/>
  </g>
</svg>
