<svg viewBox="0 0 1024 656" xmlns="http://www.w3.org/2000/svg" xmlns:inkscape="http://www.inkscape.org/namespaces/inkscape" width="420mm" height="295mm">
  <g inkscape:groupmode="layer" id="layer1" inkscape:label="1 - red,">
    <path d="M 0 0 L 0 656" fill="transparent" stroke="black" stroke-width="0.1"/>
    <path d="M 2 0 L 2 656" fill="transparent" stroke="black" stroke-width="0.1"/>
    <path d="M 4 0 L 4 656" fill="transparent" stroke="black" stroke-width="0.1"/>
    <path d="M 6 0 L 6 656" fill="transparent" stroke="black" stroke-width="0.1"/>
    <path d="M 8 0 L 8 656" fill="transparent" stroke="black" stroke-width="0.1"/>
    <path d="M 10 0 L 10 656" fill="transparent" stroke="black" stroke-width="0.1"/>
    <path d="M 12 0 L 12 656" fill="transparent" stroke="black" stroke-width="0.1"/>
    <path d="M 14 0 L 14 656" fill="transparent" stroke="black" stroke-width="0.1"/>
    <path d="M 16 0 L 16 656" fill="transparent" stroke="black" stroke-width="0.1"/>
    <path d="M 18 0 L 18 656" fill="transparent" stroke="black" stroke-width="0.1"/>
    <path d="M 20 0 L 20 656" fill="transparent" stroke="black" stroke-width="0.1"/>
    <path d="M 22 0 L 22 656" fill="transparent" stroke="black" stroke-width="0.1"/>
    <path d="M 24 0 L 24 656" fill="transparent" stroke="black" stroke-width="0.1"/>
    <path d="M 26 0 L 26 656" fill="transparent" stroke="black" stroke-width="0.1"/>
    <path d="M 28 0 L 28 656" fill="transparent" stroke="black" stroke-width="0.1"/>
    <path d="M 30 0 L 30 656" fill="transparent" stroke="black" stroke-width="0.1"/>
    <path d="M 32 0 L 32 656" fill="transparent" stroke="black" stroke-width="0.1"/>
    <path d="M 34 0 L 34 656" fill="transparent" stroke="black" stroke-width="0.1"/>
    <path d="M 36 0 L 36 656" fill="transparent" stroke="black" stroke-width="0.1"/>
    <path d="M 38 0 L 38 656" fill="transparent" stroke="black" stroke-width="0.1"/>
    <path d="M 40 0 L 40 656" fill="transparent" stroke="black" stroke-width="0.1"/>
    <path d="M 42 0 L 42 656" fill="transparent" stroke="black" stroke-width="0.1"/>
    <path d="M 44 0 L 44 656" fill="transparent" stroke="black" stroke-width="0.1"/>
    <path d="M 46 0 L 46 656" fill="transparent" stroke="black" stroke-width="0.1"/>
    <path d="M 48 0 L 48 656" fill="transparent" stroke="black" stroke-width="0.1"/>
    <path d="M 50 0 L 50 656" fill="transparent" stroke="black" stroke-width="0.1"/>
    <path d="M 52 0 L 52 656" fill="transparent" stroke="black" stroke-width="0.1"/>
    <path d="M 54 0 L 54 656" fill="transparent" stroke="black" stroke-width="0.1"/>
    <path d="M 56 0 L 56 656" fill="transparent" stroke="black" stroke-width="0.1"/>
    <path d="M 58 0 L 58 656" fill="transparent" stroke="black" stroke-width="0.1"/>
    <path d="M 60 0 L 60 656" fill="transparent" stroke="black" stroke-width="0.1"/>
    <path d="M 62 0 L 62 656" fill="transparent" stroke="black" stroke-width="0.1"/>
    <path d="M 64 0 L 64 656" fill="transparent" stroke="black" stroke-width="0.1"/>
    <path d="M 66 0 L 66 656" fill="transparent" stroke="black" stroke-width="0.1"/>
    <path d="M 68 0 L 68 656" fill="transparent" stroke="black" stroke-width="0.1"/>
    <path d="M 70 0 L 70 656" fill="transparent" stroke="black" stroke-width="0.1"/>
    <path d="M 72 0 L 72 656" fill="transparent" stroke="black" stroke-width="0.1"/>
    <path d="M 74 0 L 74 656" fill="transparent" stroke="black" stroke-width="0.1"/>
    <path d="M 78 0 L 78 656" fill="transparent" stroke="black" stroke-width="0.1"/>
    <path d="M 80 0 L 80 656" fill="transparent" stroke="black" stroke-width="0.1"/>
    <path d="M 82 0 L 82 656" fill="transparent" stroke="black" stroke-width="0.1"/>
    <path d="M 84 0 L 84 656" fill="transparent" stroke="black" stroke-width="0.1"/>
    <path d="M 86 0 L 86 656" fill="transparent" stroke="black" stroke-width="0.1"/>
    <path d="M 88 0 L 88 656" fill="transparent" stroke="black" stroke-width="0.1"/>
    <path d="M 90 0 L 90 656" fill="transparent" stroke="black" stroke-width="0.1"/>
    <path d="M 92 0 L 92 656" fill="transparent" stroke="black" stroke-width="0.1"/>
    <path d="M 94 0 L 94 656" fill="transparent" stroke="black" stroke-width="0.1"/>
    <path d="M 96 0 L 96 656" fill="transparent" stroke="black" stroke-width="0.1"/>
    <path d="M 98 0 L 98 656" fill="transparent" stroke="black" stroke-width="0.1"/>
    <path d="M 100 0 L 100 656" fill="transparent" stroke="black" stroke-width="0.1"/>
    <path d="M 102 0 L 102 656" fill="transparent" stroke="black" stroke-width="0.1"/>
    <path d="M 104 0 L 104 656" fill="transparent" stroke="black" stroke-width="0.1"/>
    <path d="M 106 0 L 106 656" fill="transparent" stroke="black" stroke-width="0.1"/>
    <path d="M 108 0 L 108 656" fill="transparent" stroke="black" stroke-width="0.1"/>
    <path d="M 110 0 L 110 656" fill="transparent" stroke="black" stroke-width="0.1"/>
    <path d="M 114 0 L 114 656" fill="transparent" stroke="black" stroke-width="0.1"/>
    <path d="M 118 0 L 118 656" fill="transparent" stroke="black" stroke-width="0.1"/>
    <path d="M 120 0 L 120 656" fill="transparent" stroke="black" stroke-width="0.1"/>
    <path d="M 122 0 L 122 656" fill="transparent" stroke="black" stroke-width="0.1"/>
    <path d="M 126 0 L 126 656" fill="transparent" stroke="black" stroke-width="0.1"/>
    <path d="M 128 0 L 128 656" fill="transparent" stroke="black" stroke-width="0.1"/>
    <path d="M 130 0 L 130 656" fill="transparent" stroke="black" stroke-width="0.1"/>
    <path d="M 132 0 L 132 656" fill="transparent" stroke="black" stroke-width="0.1"/>
    <path d="M 134 0 L 134 656" fill="transparent" stroke="black" stroke-width="0.1"/>
    <path d="M 138 0 L 138 656" fill="transparent" stroke="black" stroke-width="0.1"/>
    <path d="M 140 0 L 140 656" fill="transparent" stroke="black" stroke-width="0.1"/>
    <path d="M 150 0 L 150 656" fill="transparent" stroke="black" stroke-width="0.1"/>
    <path d="M 156 0 L 156 656" fill="transparent" stroke="black" stroke-width="0.1"/>
    <path d="M 160 0 L 160 656" fill="transparent" stroke="black" stroke-width="0.1"/>
    <path d="M 164 0 L 164 656" fill="transparent" stroke="black" stroke-width="0.1"/>
    <path d="M 172 0 L 172 656" fill="transparent" stroke="black" stroke-width="0.1"/>
    <path d="M 178 0 L 178 656" fill="transparent" stroke="black" stroke-width="0.1"/>
    <path d="M 236 0 L 236 656" fill="transparent" stroke="black" stroke-width="0.1"/>
  </g>
  <g inkscape:groupmode="layer" id="layer2" inkscape:label="2 - green,">
    <path d="M 76 0 L 76 656" fill="transparent" stroke="black" stroke-width="0.1"/>
    <path d="M 112 0 L 112 656" fill="transparent" stroke="black" stroke-width="0.1"/>
    <path d="M 116 0 L 116 656" fill="transparent" stroke="black" stroke-width="0.1"/>
    <path d="M 124 0 L 124 656" fill="transparent" stroke="black" stroke-width="0.1"/>
    <path d="M 136 0 L 136 656" fill="transparent" stroke="black" stroke-width="0.1"/>
    <path d="M 142 0 L 142 656" fill="transparent" stroke="black" stroke-width="0.1"/>
    <path d="M 144 0 L 144 656" fill="transparent" stroke="black" stroke-width="0.1"/>
    <path d="M 146 0 L 146 656" fill="transparent" stroke="black" stroke-width="0.1"/>
    <path d="M 148 0 L 148 656" fill="transparent" stroke="black" stroke-width="0.1"/>
    <path d="M 152 0 L 152 656" fill="transparent" stroke="black" stroke-width="0.1"/>
    <path d="M 154 0 L 154 656" fill="transparent" stroke="black" stroke-width="0.1"/>
    <path d="M 158 0 L 158 656" fill="transparent" stroke="black" stroke-width="0.1"/>
    <path d="M 162 0 L 162 656" fill="transparent" stroke="black" stroke-width="0.1"/>
    <path d="M 166 0 L 166 656" fill="transparent" stroke="black" stroke-width="0.1"/>
    <path d="M 168 0 L 168 656" fill="transparent" stroke="black" stroke-width="0.1"/>
    <path d="M 170 0 L 170 656" fill="transparent" stroke="black" stroke-width="0.1"/>
    <path d="M 174 0 L 174 656" fill="transparent" stroke="black" stroke-width="0.1"/>
    <path d="M 176 0 L 176 656" fill="transparent" stroke="black" stroke-width="0.1"/>
    <path d="M 180 0 L 180 656" fill="transparent" stroke="black" stroke-width="0.1"/>
    <path d="M 182 0 L 182 656" fill="transparent" stroke="black" stroke-width="0.1"/>
    <path d="M 184 0 L 184 656" fill="transparent" stroke="black" stroke-width="0.1"/>
    <path d="M 186 0 L 186 656" fill="transparent" stroke="black" stroke-width="0.1"/>
    <path d="M 188 0 L 188 656" fill="transparent" stroke="black" stroke-width="0.1"/>
    <path d="M 190 0 L 190 656" fill="transparent" stroke="black" stroke-width="0.1"/>
    <path d="M 192 0 L 192 656" fill="transparent" stroke="black" stroke-width="0.1"/>
    <path d="M 194 0 L 194 656" fill="transparent" stroke="black" stroke-width="0.1"/>
    <path d="M 196 0 L 196 656" fill="transparent" stroke="black" stroke-width="0.1"/>
    <path d="M 198 0 L 198 656" fill="transparent" stroke="black" stroke-width="0.1"/>
    <path d="M 200 0 L 200 656" fill="transparent" stroke="black" stroke-width="0.1"/>
    <path d="M 202 0 L 202 656" fill="transparent" stroke="black" stroke-width="0.1"/>
    <path d="M 204 0 L 204 656" fill="transparent" stroke="black" stroke-width="0.1"/>
    <path d="M 206 0 L 206 656" fill="transparent" stroke="black" stroke-width="0.1"/>
    <path d="M 208 0 L 208 656" fill="transparent" stroke="black" stroke-width="0.1"/>
    <path d="M 210 0 L 210 656" fill="transparent" stroke="black" stroke-width="0.1"/>
    <path d="M 212 0 L 212 656" fill="transparent" stroke="black" stroke-width="0.1"/>
    <path d="M 214 0 L 214 656" fill="transparent" stroke="black" stroke-width="0.1"/>
    <path d="M 216 0 L 216 656" fill="transparent" stroke="black" stroke-width="0.1"/>
    <path d="M 218 0 L 218 656" fill="transparent" stroke="black" stroke-width="0.1"/>
    <path d="M 220 0 L 220 656" fill="transparent" stroke="black" stroke-width="0.1"/>
    <path d="M 222 0 L 222 656" fill="transparent" stroke="black" stroke-width="0.1"/>
    <path d="M 224 0 L 224 656" fill="transparent" stroke="black" stroke-width="0.1"/>
    <path d="M 226 0 L 226 656" fill="transparent" stroke="black" stroke-width="0.1"/>
    <path d="M 228 0 L 228 656" fill="transparent" stroke="black" stroke-width="0.1"/>
    <path d="M 230 0 L 230 656" fill="transparent" stroke="black" stroke-width="0.1"/>
    <path d="M 232 0 L 232 656" fill="transparent" stroke="black" stroke-width="0.1"/>
    <path d="M 234 0 L 234 656" fill="transparent" stroke="black" stroke-width="0.1"/>
    <path d="M 238 0 L 238 656" fill="transparent" stroke="black" stroke-width="0.1"/>
    <path d="M 240 0 L 240 656" fill="transparent" stroke="black" stroke-width="0.1"/>
    <path d="M 242 0 L 242 656" fill="transparent" stroke="black" stroke-width="0.1"/>
    <path d="M 244 0 L 244 656" fill="transparent" stroke="black" stroke-width="0.1"/>
    <path d="M 246 0 L 246 656" fill="transparent" stroke="black" stroke-width="0.1"/>
    <path d="M 248 0 L 248 656" fill="transparent" stroke="black" stroke-width="0.1"/>
    <path d="M 250 0 L 250 656" fill="transparent" stroke="black" stroke-width="0.1"/>
    <path d="M 252 0 L 252 656" fill="transparent" stroke="black" stroke-width="0.1"/>
    <path d="M 254 0 L 254 656" fill="transparent" stroke="black" stroke-width="0.1"/>
    <path d="M 256 0 L 256 656" fill="transparent" stroke="black" stroke-width="0.1"/>
    <path d="M 258 0 L 258 656" fill="transparent" stroke="black" stroke-width="0.1"/>
    <path d="M 260 0 L 260 656" fill="transparent" stroke="black" stroke-width="0.1"/>
    <path d="M 262 0 L 262 656" fill="transparent" stroke="black" stroke-width="0.1"/>
    <path d="M 264 0 L 264 656" fill="transparent" stroke="black" stroke-width="0.1"/>
    <path d="M 268 0 L 268 656" fill="transparent" stroke="black" stroke-width="0.1"/>
    <path d="M 272 0 L 272 656" fill="transparent" stroke="black" stroke-width="0.1"/>
    <path d="M 274 0 L 274 656" fill="transparent" stroke="black" stroke-width="0.1"/>
    <path d="M 276 0 L 276 656" fill="transparent" stroke="black" stroke-width="0.1"/>
    <path d="M 280 0 L 280 656" fill="transparent" stroke="black" stroke-width="0.1"/>
    <path d="M 282 0 L 282 656" fill="transparent" stroke="black" stroke-width="0.1"/>
    <path d="M 284 0 L 284 656" fill="transparent" stroke="black" stroke-width="0.1"/>
    <path d="M 290 0 L 290 656" fill="transparent" stroke="black" stroke-width="0.1"/>
    <path d="M 294 0 L 294 656" fill="transparent" stroke="black" stroke-width="0.1"/>
    <path d="M 300 0 L 300 656" fill="transparent" stroke="black" stroke-width="0.1"/>
    <path d="M 308 0 L 308 656" fill="transparent" stroke="black" stroke-width="0.1"/>
    <path d="M 312 0 L 312 656" fill="transparent" stroke="black" stroke-width="0.1"/>
    <path d="M 314 0 L 314 656" fill="transparent" stroke="black" stroke-width="0.1"/>
    <path d="M 340 0 L 340 656" fill="transparent" stroke="black" stroke-width="0.1"/>
    <path d="M 346 0 L 346 656" fill="transparent" stroke="black" stroke-width="0.1"/>
  </g>
  <g inkscape:groupmode="layer" id="layer3" inkscape:label="3 - blue,">
    <path d="M 266 0 L 266 656" fill="transparent" stroke="black" stroke-width="0.1"/>
    <path d="M 270 0 L 270 656" fill="transparent" stroke="black" stroke-width="0.1"/>
    <path d="M 278 0 L 278 656" fill="transparent" stroke="black" stroke-width="0.1"/>
    <path d="M 286 0 L 286 656" fill="transparent" stroke="black" stroke-width="0.1"/>
    <path d="M 288 0 L 288 656" fill="transparent" stroke="black" stroke-width="0.1"/>
    <path d="M 292 0 L 292 656" fill="transparent" stroke="black" stroke-width="0.1"/>
    <path d="M 296 0 L 296 656" fill="transparent" stroke="black" stroke-width="0.1"/>
    <path d="M 298 0 L 298 656" fill="transparent" stroke="black" stroke-width="0.1"/>
    <path d="M 302 0 L 302 656" fill="transparent" stroke="black" stroke-width="0.1"/>
    <path d="M 304 0 L 304 656" fill="transparent" stroke="black" stroke-width="0.1"/>
    <path d="M 306 0 L 306 656" fill="transparent" stroke="black" stroke-width="0.1"/>
    <path d="M 310 0 L 310 656" fill="transparent" stroke="black" stroke-width="0.1"/>
    <path d="M 316 0 L 316 656" fill="transparent" stroke="black" stroke-width="0.1"/>
    <path d="M 318 0 L 318 656" fill="transparent" stroke="black" stroke-width="0.1"/>
    <path d="M 320 0 L 320 656" fill="transparent" stroke="black" stroke-width="0.1"/>
    <path d="M 322 0 L 322 656" fill="transparent" stroke="black" stroke-width="0.1"/>
    <path d="M 324 0 L 324 656" fill="transparent" stroke="black" stroke-width="0.1"/>
    <path d="M 326 0 L 326 656" fill="transparent" stroke="black" stroke-width="0.1"/>
    <path d="M 328 0 L 328 656" fill="transparent" stroke="black" stroke-width="0.1"/>
    <path d="M 330 0 L 330 656" fill="transparent" stroke="black" stroke-width="0.1"/>
    <path d="M 332 0 L 332 656" fill="transparent" stroke="black" stroke-width="0.1"/>
    <path d="M 334 0 L 334 656" fill="transparent" stroke="black" stroke-width="0.1"/>
    <path d="M 336 0 L 336 656" fill="transparent" stroke="black" stroke-width="0.1"/>
    <path d="M 338 0 L 338 656" fill="transparent" stroke="black" stroke-width="0.1"/>
    <path d="M 342 0 L 342 656" fill="transparent" stroke="black" stroke-width="0.1"/>
    <path d="M 344 0 L 344 656" fill="transparent" stroke="black" stroke-width="0.1"/>
    <path d="M 348 0 L 348 656" fill="transparent" stroke="black" stroke-width="0.1"/>
    <path d="M 350 0 L 350 656" fill="transparent" stroke="black" stroke-width="0.1"/>
    <path d="M 352 0 L 352 656" fill="transparent" stroke="black" stroke-width="0.1"/>
    <path d="M 354 0 L 354 656" fill="transparent" stroke="black" stroke-width="0.1"/>
    <path d="M 356 0 L 356 656" fill="transparent" stroke="black" stroke-width="0.1"/>
    <path d="M 358 0 L 358 656" fill="transparent" stroke="black" stroke-width="0.1"/>
    <path d="M 360 0 L 360 656" fill="transparent" stroke="black" stroke-width="0.1"/>
    <path d="M 362 0 L 362 656" fill="transparent" stroke="black" stroke-width="0.1"/>
    <path d="M 364 0 L 364 656" fill="transparent" stroke="black" stroke-width="0.1"/>
    <path d="M 366 0 L 366 656" fill="transparent" stroke="black" stroke-width="0.1"/>
    <path d="M 368 0 L 368 656" fill="transparent" stroke="black" stroke-width="0.1"/>
    <path d="M 370 0 L 370 656" fill="transparent" stroke="black" stroke-width="0.1"/>
    <path d="M 372 0 L 372 656" fill="transparent" stroke="black" stroke-width="0.1"/>
    <path d="M 374 0 L 374 656" fill="transparent" stroke="black" stroke-width="0.1"/>
    <path d="M 376 0 L 376 656" fill="transparent" stroke="black" stroke-width="0.1"/>
    <path d="M 378 0 L 378 656" fill="transparent" stroke="black" stroke-width="0.1"/>
    <path d="M 380 0 L 380 656" fill="transparent" stroke="black" stroke-width="0.1"/>
    <path d="M 382 0 L 382 656" fill="transparent" stroke="black" stroke-width="0.1"/>
    <path d="M 384 0 L 384 656" fill="transparent" stroke="black" stroke-width="0.1"/>
    <path d="M 386 0 L 386 656" fill="transparent" stroke="black" stroke-width="0.1"/>
    <path d="M 388 0 L 388 656" fill="transparent" stroke="black" stroke-width="0.1"/>
    <path d="M 390 0 L 390 656" fill="transparent" stroke="black" stroke-width="0.1"/>
    <path d="M 392 0 L 392 656" fill="transparent" stroke="black" stroke-width="0.1"/>
    <path d="M 394 0 L 394 656" fill="transparent" stroke="black" stroke-width="0.1"/>
    <path d="M 396 0 L 396 656" fill="transparent" stroke="black" stroke-width="0.1"/>
    <path d="M 398 0 L 398 656" fill="transparent" stroke="black" stroke-width="0.1"/>
    <path d="M 400 0 L 400 656" fill="transparent" stroke="black" stroke-width="0.1"/>
    <path d="M 402 0 L 402 656" fill="transparent" stroke="black" stroke-width="0.1"/>
    <path d="M 406 0 L 406 656" fill="transparent" stroke="black" stroke-width="0.1"/>
    <path d="M 408 0 L 408 656" fill="transparent" stroke="black" stroke-width="0.1"/>
    <path d="M 412 0 L 412 656" fill="transparent" stroke="black" stroke-width="0.1"/>
    <path d="M 416 0 L 416 656" fill="transparent" stroke="black" stroke-width="0.1"/>
    <path d="M 418 0 L 418 656" fill="transparent" stroke="black" stroke-width="0.1"/>
    <path d="M 420 0 L 420 656" fill="transparent" stroke="black" stroke-width="0.1"/>
    <path d="M 426 0 L 426 656" fill="transparent" stroke="black" stroke-width="0.1"/>
    <path d="M 428 0 L 428 656" fill="transparent" stroke="black" stroke-width="0.1"/>
    <path d="M 432 0 L 432 656" fill="transparent" stroke="black" stroke-width="0.1"/>
    <path d="M 436 0 L 436 656" fill="transparent" stroke="black" stroke-width="0.1"/>
    <path d="M 438 0 L 438 656" fill="transparent" stroke="black" stroke-width="0.1"/>
    <path d="M 446 0 L 446 656" fill="transparent" stroke="black" stroke-width="0.1"/>
    <path d="M 454 0 L 454 656" fill="transparent" stroke="black" stroke-width="0.1"/>
    <path d="M 456 0 L 456 656" fill="transparent" stroke="black" stroke-width="0.1"/>
    <path d="M 462 0 L 462 656" fill="transparent" stroke="black" stroke-width="0.1"/>
    <path d="M 482 0 L 482 656" fill="transparent" stroke="black" stroke-width="0.1"/>
  </g>
  <g inkscape:groupmode="layer" id="layer4" inkscape:label="4 - yellow,">
    <path d="M 404 0 L 404 656" fill="transparent" stroke="black" stroke-width="0.1"/>
    <path d="M 410 0 L 410 656" fill="transparent" stroke="black" stroke-width="0.1"/>
    <path d="M 414 0 L 414 656" fill="transparent" stroke="black" stroke-width="0.1"/>
    <path d="M 422 0 L 422 656" fill="transparent" stroke="black" stroke-width="0.1"/>
    <path d="M 424 0 L 424 656" fill="transparent" stroke="black" stroke-width="0.1"/>
    <path d="M 430 0 L 430 656" fill="transparent" stroke="black" stroke-width="0.1"/>
    <path d="M 434 0 L 434 656" fill="transparent" stroke="black" stroke-width="0.1"/>
    <path d="M 440 0 L 440 656" fill="transparent" stroke="black" stroke-width="0.1"/>
    <path d="M 442 0 L 442 656" fill="transparent" stroke="black" stroke-width="0.1"/>
    <path d="M 444 0 L 444 656" fill="transparent" stroke="black" stroke-width="0.1"/>
    <path d="M 448 0 L 448 656" fill="transparent" stroke="black" stroke-width="0.1"/>
    <path d="M 450 0 L 450 656" fill="transparent" stroke="black" stroke-width="0.1"/>
    <path d="M 452 0 L 452 656" fill="transparent" stroke="black" stroke-width="0.1"/>
    <path d="M 458 0 L 458 656" fill="transparent" stroke="black" stroke-width="0.1"/>
    <path d="M 460 0 L 460 656" fill="transparent" stroke="black" stroke-width="0.1"/>
    <path d="M 464 0 L 464 656" fill="transparent" stroke="black" stroke-width="0.1"/>
    <path d="M 466 0 L 466 656" fill="transparent" stroke="black" stroke-width="0.1"/>
    <path d="M 468 0 L 468 656" fill="transparent" stroke="black" stroke-width="0.1"/>
    <path d="M 470 0 L 470 656" fill="transparent" stroke="black" stroke-width="0.1"/>
    <path d="M 472 0 L 472 656" fill="transparent" stroke="black" stroke-width="0.1"/>
    <path d="M 474 0 L 474 656" fill="transparent" stroke="black" stroke-width="0.1"/>
    <path d="M 476 0 L 476 656" fill="transparent" stroke="black" stroke-width="0.1"/>
    <path d="M 478 0 L 478 656" fill="transparent" stroke="black" stroke-width="0.1"/>
    <path d="M 480 0 L 480 656" fill="transparent" stroke="black" stroke-width="0.1"/>
    <path d="M 484 0 L 484 656" fill="transparent" stroke="black" stroke-width="0.1"/>
    <path d="M 486 0 L 486 656" fill="transparent" stroke="black" stroke-width="0.1"/>
    <path d="M 488 0 L 488 656" fill="transparent" stroke="black" stroke-width="0.1"/>
    <path d="M 490 0 L 490 656" fill="transparent" stroke="black" stroke-width="0.1"/>
    <path d="M 492 0 L 492 656" fill="transparent" stroke="black" stroke-width="0.1"/>
    <path d="M 494 0 L 494 656" fill="transparent" stroke="black" stroke-width="0.1"/>
    <path d="M 496 0 L 496 656" fill="transparent" stroke="black" stroke-width="0.1"/>
    <path d="M 498 0 L 498 656" fill="transparent" stroke="black" stroke-width="0.1"/>
    <path d="M 500 0 L 500 656" fill="transparent" stroke="black" stroke-width="0.1"/>
    <path d="M 502 0 L 502 656" fill="transparent" stroke="black" stroke-width="0.1"/>
    <path d="M 504 0 L 504 656" fill="transparent" stroke="black" stroke-width="0.1"/>
    <path d="M 506 0 L 506 656" fill="transparent" stroke="black" stroke-width="0.1"/>
    <path d="M 508 0 L 508 656" fill="transparent" stroke="black" stroke-width="0.1"/>
    <path d="M 510 0 L 510 656" fill="transparent" stroke="black" stroke-width="0.1"/>
    <path d="M 512 0 L 512 656" fill="transparent" stroke="black" stroke-width="0.1"/>
    <path d="M 514 0 L 514 656" fill="transparent" stroke="black" stroke-width="0.1"/>
    <path d="M 516 0 L 516 656" fill="transparent" stroke="black" stroke-width="0.1"/>
    <path d="M 518 0 L 518 656" fill="transparent" stroke="black" stroke-width="0.1"/>
    <path d="M 520 0 L 520 656" fill="transparent" stroke="black" stroke-width="0.1"/>
    <path d="M 522 0 L 522 656" fill="transparent" stroke="black" stroke-width="0.1"/>
    <path d="M 524 0 L 524 656" fill="transparent" stroke="black" stroke-width="0.1"/>
    <path d="M 526 0 L 526 656" fill="transparent" stroke="black" stroke-width="0.1"/>
    <path d="M 528 0 L 528 656" fill="transparent" stroke="black" stroke-width="0.1"/>
    <path d="M 530 0 L 530 656" fill="transparent" stroke="black" stroke-width="0.1"/>
    <path d="M 532 0 L 532 656" fill="transparent" stroke="black" stroke-width="0.1"/>
    <path d="M 534 0 L 534 656" fill="transparent" stroke="black" stroke-width="0.1"/>
    <path d="M 536 0 L 536 656" fill="transparent" stroke="black" stroke-width="0.1"/>
    <path d="M 538 0 L 538 656" fill="transparent" stroke="black" stroke-width="0.1"/>
    <path d="M 540 0 L 540 656" fill="transparent" stroke="black" stroke-width="0.1"/>
    <path d="M 542 0 L 542 656" fill="transparent" stroke="black" stroke-width="0.1"/>
    <path d="M 546 0 L 546 656" fill="transparent" stroke="black" stroke-width="0.1"/>
    <path d="M 548 0 L 548 656" fill="transparent" stroke="black" stroke-width="0.1"/>
    <path d="M 550 0 L 550 656" fill="transparent" stroke="black" stroke-width="0.1"/>
    <path d="M 552 0 L 552 656" fill="transparent" stroke="black" stroke-width="0.1"/>
    <path d="M 554 0 L 554 656" fill="transparent" stroke="black" stroke-width="0.1"/>
    <path d="M 556 0 L 556 656" fill="transparent" stroke="black" stroke-width="0.1"/>
    <path d="M 558 0 L 558 656" fill="transparent" stroke="black" stroke-width="0.1"/>
    <path d="M 566 0 L 566 656" fill="transparent" stroke="black" stroke-width="0.1"/>
    <path d="M 572 0 L 572 656" fill="transparent" stroke="black" stroke-width="0.1"/>
    <path d="M 574 0 L 574 656" fill="transparent" stroke="black" stroke-width="0.1"/>
    <path d="M 576 0 L 576 656" fill="transparent" stroke="black" stroke-width="0.1"/>
    <path d="M 580 0 L 580 656" fill="transparent" stroke="black" stroke-width="0.1"/>
    <path d="M 588 0 L 588 656" fill="transparent" stroke="black" stroke-width="0.1"/>
    <path d="M 590 0 L 590 656" fill="transparent" stroke="black" stroke-width="0.1"/>
    <path d="M 596 0 L 596 656" fill="transparent" stroke="black" stroke-width="0.1"/>
    <path d="M 598 0 L 598 656" fill="transparent" stroke="black" stroke-width="0.1"/>
    <path d="M 600 0 L 600 656" fill="transparent" stroke="black" stroke-width="0.1"/>
    <path d="M 604 0 L 604 656" fill="transparent" stroke="black" stroke-width="0.1"/>
    <path d="M 606 0 L 606 656" fill="transparent" stroke="black" stroke-width="0.1"/>
    <path d="M 608 0 L 608 656" fill="transparent" stroke="black" stroke-width="0.1"/>
    <path d="M 610 0 L 610 656" fill="transparent" stroke="black" stroke-width="0.1"/>
    <path d="M 620 0 L 620 656" fill="transparent" stroke="black" stroke-width="0.1"/>
    <path d="M 634 0 L 634 656" fill="transparent" stroke="black" stroke-width="0.1"/>
  </g>
  <g inkscape:groupmode="layer" id="layer5" inkscape:label="5 - black,">
    <path d="M 544 0 L 544 656" fill="transparent" stroke="black" stroke-width="0.1"/>
    <path d="M 560 0 L 560 656" fill="transparent" stroke="black" stroke-width="0.1"/>
    <path d="M 562 0 L 562 656" fill="transparent" stroke="black" stroke-width="0.1"/>
    <path d="M 564 0 L 564 656" fill="transparent" stroke="black" stroke-width="0.1"/>
    <path d="M 568 0 L 568 656" fill="transparent" stroke="black" stroke-width="0.1"/>
    <path d="M 570 0 L 570 656" fill="transparent" stroke="black" stroke-width="0.1"/>
    <path d="M 578 0 L 578 656" fill="transparent" stroke="black" stroke-width="0.1"/>
    <path d="M 582 0 L 582 656" fill="transparent" stroke="black" stroke-width="0.1"/>
    <path d="M 584 0 L 584 656" fill="transparent" stroke="black" stroke-width="0.1"/>
    <path d="M 586 0 L 586 656" fill="transparent" stroke="black" stroke-width="0.1"/>
    <path d="M 592 0 L 592 656" fill="transparent" stroke="black" stroke-width="0.1"/>
    <path d="M 594 0 L 594 656" fill="transparent" stroke="black" stroke-width="0.1"/>
    <path d="M 602 0 L 602 656" fill="transparent" stroke="black" stroke-width="0.1"/>
    <path d="M 612 0 L 612 656" fill="transparent" stroke="black" stroke-width="0.1"/>
    <path d="M 614 0 L 614 656" fill="transparent" stroke="black" stroke-width="0.1"/>
    <path d="M 616 0 L 616 656" fill="transparent" stroke="black" stroke-width="0.1"/>
    <path d="M 618 0 L 618 656" fill="transparent" stroke="black" stroke-width="0.1"/>
    <path d="M 622 0 L 622 656" fill="transparent" stroke="black" stroke-width="0.1"/>
    <path d="M 624 0 L 624 656" fill="transparent" stroke="black" stroke-width="0.1"/>
    <path d="M 626 0 L 626 656" fill="transparent" stroke="black" stroke-width="0.1"/>
    <path d="M 628 0 L 628 656" fill="transparent" stroke="black" stroke-width="0.1"/>
    <path d="M 630 0 L 630 656" fill="transparent" stroke="black" stroke-width="0.1"/>
    <path d="M 632 0 L 632 656" fill="transparent" stroke="black" stroke-width="0.1"/>
    <path d="M 636 0 L 636 656" fill="transparent" stroke="black" stroke-width="0.1"/>
    <path d="M 638 0 L 638 656" fill="transparent" stroke="black" stroke-width="0.1"/>
    <path d="M 640 0 L 640 656" fill="transparent" stroke="black" stroke-width="0.1"/>
    <path d="M 642 0 L 642 656" fill="transparent" stroke="black" stroke-width="0.1"/>
    <path d="M 644 0 L 644 656" fill="transparent" stroke="black" stroke-width="0.1"/>
    <path d="M 646 0 L 646 656" fill="transparent" stroke="black" stroke-width="0.1"/>
    <path d="M 648 0 L 648 656" fill="transparent" stroke="black" stroke-width="0.1"/>
    <path d="M 650 0 L 650 656" fill="transparent" stroke="black" stroke-width="0.1"/>
    <path d="M 652 0 L 652 656" fill="transparent" stroke="black" stroke-width="0.1"/>
    <path d="M 654 0 L 654 656" fill="transparent" stroke="black" stroke-width="0.1"/>
    <path d="M 656 0 L 656 656" fill="transparent" stroke="black" stroke-width="0.1"/>
    <path d="M 658 0 L 658 656" fill="transparent" stroke="black" stroke-width="0.1"/>
    <path d="M 660 0 L 660 656" fill="transparent" stroke="black" stroke-width="0.1"/>
    <path d="M 662 0 L 662 656" fill="transparent" stroke="black" stroke-width="0.1"/>
    <path d="M 664 0 L 664 656" fill="transparent" stroke="black" stroke-width="0.1"/>
    <path d="M 666 0 L 666 656" fill="transparent" stroke="black" stroke-width="0.1"/>
    <path d="M 668 0 L 668 656" fill="transparent" stroke="black" stroke-width="0.1"/>
    <path d="M 670 0 L 670 656" fill="transparent" stroke="black" stroke-width="0.1"/>
    <path d="M 672 0 L 672 656" fill="transparent" stroke="black" stroke-width="0.1"/>
    <path d="M 674 0 L 674 656" fill="transparent" stroke="black" stroke-width="0.1"/>
    <path d="M 676 0 L 676 656" fill="transparent" stroke="black" stroke-width="0.1"/>
    <path d="M 678 0 L 678 656" fill="transparent" stroke="black" stroke-width="0.1"/>
    <path d="M 680 0 L 680 656" fill="transparent" stroke="black" stroke-width="0.1"/>
    <path d="M 682 0 L 682 656" fill="transparent" stroke="black" stroke-width="0.1"/>
    <path d="M 684 0 L 684 656" fill="transparent" stroke="black" stroke-width="0.1"/>
    <path d="M 686 0 L 686 656" fill="transparent" stroke="black" stroke-width="0.1"/>
    <path d="M 688 0 L 688 656" fill="transparent" stroke="black" stroke-width="0.1"/>
    <path d="M 690 0 L 690 656" fill="transparent" stroke="black" stroke-width="0.1"/>
    <path d="M 692 0 L 692 656" fill="transparent" stroke="black" stroke-width="0.1"/>
    <path d="M 696 0 L 696 656" fill="transparent" stroke="black" stroke-width="0.1"/>
    <path d="M 700 0 L 700 656" fill="transparent" stroke="black" stroke-width="0.1"/>
    <path d="M 702 0 L 702 656" fill="transparent" stroke="black" stroke-width="0.1"/>
    <path d="M 704 0 L 704 656" fill="transparent" stroke="black" stroke-width="0.1"/>
    <path d="M 706 0 L 706 656" fill="transparent" stroke="black" stroke-width="0.1"/>
    <path d="M 708 0 L 708 656" fill="transparent" stroke="black" stroke-width="0.1"/>
    <path d="M 712 0 L 712 656" fill="transparent" stroke="black" stroke-width="0.1"/>
    <path d="M 716 0 L 716 656" fill="transparent" stroke="black" stroke-width="0.1"/>
    <path d="M 718 0 L 718 656" fill="transparent" stroke="black" stroke-width="0.1"/>
    <path d="M 720 0 L 720 656" fill="transparent" stroke="black" stroke-width="0.1"/>
    <path d="M 722 0 L 722 656" fill="transparent" stroke="black" stroke-width="0.1"/>
    <path d="M 726 0 L 726 656" fill="transparent" stroke="black" stroke-width="0.1"/>
    <path d="M 732 0 L 732 656" fill="transparent" stroke="black" stroke-width="0.1"/>
    <path d="M 736 0 L 736 656" fill="transparent" stroke="black" stroke-width="0.1"/>
    <path d="M 738 0 L 738 656" fill="transparent" stroke="black" stroke-width="0.1"/>
    <path d="M 742 0 L 742 656" fill="transparent" stroke="black" stroke-width="0.1"/>
    <path d="M 756 0 L 756 656" fill="transparent" stroke="black" stroke-width="0.1"/>
    <path d="M 770 0 L 770 656" fill="transparent" stroke="black" stroke-width="0.1"/>
    <path d="M 772 0 L 772 656" fill="transparent" stroke="black" stroke-width="0.1"/>
    <path d="M 786 0 L 786 656" fill="transparent" stroke="black" stroke-width="0.1"/>
    <path d="M 806 0 L 806 656" fill="transparent" stroke="black" stroke-width="0.1"/>
  </g>
  <g inkscape:groupmode="layer" id="layer6" inkscape:label="6 - purple,">
    <path d="M 694 0 L 694 656" fill="transparent" stroke="black" stroke-width="0.1"/>
    <path d="M 698 0 L 698 656" fill="transparent" stroke="black" stroke-width="0.1"/>
    <path d="M 710 0 L 710 656" fill="transparent" stroke="black" stroke-width="0.1"/>
    <path d="M 714 0 L 714 656" fill="transparent" stroke="black" stroke-width="0.1"/>
    <path d="M 724 0 L 724 656" fill="transparent" stroke="black" stroke-width="0.1"/>
    <path d="M 728 0 L 728 656" fill="transparent" stroke="black" stroke-width="0.1"/>
    <path d="M 730 0 L 730 656" fill="transparent" stroke="black" stroke-width="0.1"/>
    <path d="M 734 0 L 734 656" fill="transparent" stroke="black" stroke-width="0.1"/>
    <path d="M 740 0 L 740 656" fill="transparent" stroke="black" stroke-width="0.1"/>
    <path d="M 744 0 L 744 656" fill="transparent" stroke="black" stroke-width="0.1"/>
    <path d="M 746 0 L 746 656" fill="transparent" stroke="black" stroke-width="0.1"/>
    <path d="M 748 0 L 748 656" fill="transparent" stroke="black" stroke-width="0.1"/>
    <path d="M 750 0 L 750 656" fill="transparent" stroke="black" stroke-width="0.1"/>
    <path d="M 752 0 L 752 656" fill="transparent" stroke="black" stroke-width="0.1"/>
    <path d="M 754 0 L 754 656" fill="transparent" stroke="black" stroke-width="0.1"/>
    <path d="M 758 0 L 758 656" fill="transparent" stroke="black" stroke-width="0.1"/>
    <path d="M 760 0 L 760 656" fill="transparent" stroke="black" stroke-width="0.1"/>
    <path d="M 762 0 L 762 656" fill="transparent" stroke="black" stroke-width="0.1"/>
    <path d="M 764 0 L 764 656" fill="transparent" stroke="black" stroke-width="0.1"/>
    <path d="M 766 0 L 766 656" fill="transparent" stroke="black" stroke-width="0.1"/>
    <path d="M 768 0 L 768 656" fill="transparent" stroke="black" stroke-width="0.1"/>
    <path d="M 774 0 L 774 656" fill="transparent" stroke="black" stroke-width="0.1"/>
    <path d="M 776 0 L 776 656" fill="transparent" stroke="black" stroke-width="0.1"/>
    <path d="M 778 0 L 778 656" fill="transparent" stroke="black" stroke-width="0.1"/>
    <path d="M 780 0 L 780 656" fill="transparent" stroke="black" stroke-width="0.1"/>
    <path d="M 782 0 L 782 656" fill="transparent" stroke="black" stroke-width="0.1"/>
    <path d="M 784 0 L 784 656" fill="transparent" stroke="black" stroke-width="0.1"/>
    <path d="M 788 0 L 788 656" fill="transparent" stroke="black" stroke-width="0.1"/>
    <path d="M 790 0 L 790 656" fill="transparent" stroke="black" stroke-width="0.1"/>
    <path d="M 792 0 L 792 656" fill="transparent" stroke="black" stroke-width="0.1"/>
    <path d="M 794 0 L 794 656" fill="transparent" stroke="black" stroke-width="0.1"/>
    <path d="M 796 0 L 796 656" fill="transparent" stroke="black" stroke-width="0.1"/>
    <path d="M 798 0 L 798 656" fill="transparent" stroke="black" stroke-width="0.1"/>
    <path d="M 800 0 L 800 656" fill="transparent" stroke="black" stroke-width="0.1"/>
    <path d="M 802 0 L 802 656" fill="transparent" stroke="black" stroke-width="0.1"/>
    <path d="M 804 0 L 804 656" fill="transparent" stroke="black" stroke-width="0.1"/>
    <path d="M 808 0 L 808 656" fill="transparent" stroke="black" stroke-width="0.1"/>
    <path d="M 810 0 L 810 656" fill="transparent" stroke="black" stroke-width="0.1"/>
    <path d="M 812 0 L 812 656" fill="transparent" stroke="black" stroke-width="0.1"/>
    <path d="M 814 0 L 814 656" fill="transparent" stroke="black" stroke-width="0.1"/>
    <path d="M 816 0 L 816 656" fill="transparent" stroke="black" stroke-width="0.1"/>
    <path d="M 818 0 L 818 656" fill="transparent" stroke="black" stroke-width="0.1"/>
    <path d="M 820 0 L 820 656" fill="transparent" stroke="black" stroke-width="0.1"/>
    <path d="M 822 0 L 822 656" fill="transparent" stroke="black" stroke-width="0.1"/>
    <path d="M 824 0 L 824 656" fill="transparent" stroke="black" stroke-width="0.1"/>
    <path d="M 826 0 L 826 656" fill="transparent" stroke="black" stroke-width="0.1"/>
    <path d="M 828 0 L 828 656" fill="transparent" stroke="black" stroke-width="0.1"/>
    <path d="M 830 0 L 830 656" fill="transparent" stroke="black" stroke-width="0.1"/>
    <path d="M 832 0 L 832 656" fill="transparent" stroke="black" stroke-width="0.1"/>
    <path d="M 836 0 L 836 656" fill="transparent" stroke="black" stroke-width="0.1"/>
    <path d="M 838 0 L 838 656" fill="transparent" stroke="black" stroke-width="0.1"/>
    <path d="M 840 0 L 840 656" fill="transparent" stroke="black" stroke-width="0.1"/>
    <path d="M 842 0 L 842 656" fill="transparent" stroke="black" stroke-width="0.1"/>
    <path d="M 848 0 L 848 656" fill="transparent" stroke="black" stroke-width="0.1"/>
    <path d="M 850 0 L 850 656" fill="transparent" stroke="black" stroke-width="0.1"/>
    <path d="M 852 0 L 852 656" fill="transparent" stroke="black" stroke-width="0.1"/>
    <path d="M 854 0 L 854 656" fill="transparent" stroke="black" stroke-width="0.1"/>
    <path d="M 856 0 L 856 656" fill="transparent" stroke="black" stroke-width="0.1"/>
    <path d="M 858 0 L 858 656" fill="transparent" stroke="black" stroke-width="0.1"/>
    <path d="M 860 0 L 860 656" fill="transparent" stroke="black" stroke-width="0.1"/>
    <path d="M 862 0 L 862 656" fill="transparent" stroke="black" stroke-width="0.1"/>
    <path d="M 864 0 L 864 656" fill="transparent" stroke="black" stroke-width="0.1"/>
    <path d="M 868 0 L 868 656" fill="transparent" stroke="black" stroke-width="0.1"/>
    <path d="M 872 0 L 872 656" fill="transparent" stroke="black" stroke-width="0.1"/>
    <path d="M 876 0 L 876 656" fill="transparent" stroke="black" stroke-width="0.1"/>
    <path d="M 878 0 L 878 656" fill="transparent" stroke="black" stroke-width="0.1"/>
    <path d="M 880 0 L 880 656" fill="transparent" stroke="black" stroke-width="0.1"/>
    <path d="M 894 0 L 894 656" fill="transparent" stroke="black" stroke-width="0.1"/>
    <path d="M 916 0 L 916 656" fill="transparent" stroke="black" stroke-width="0.1"/>
  </g>
  <g inkscape:groupmode="layer" id="layer7" inkscape:label="7 - orange">
    <path d="M 834 0 L 834 656" fill="transparent" stroke="black" stroke-width="0.1"/>
    <path d="M 844 0 L 844 656" fill="transparent" stroke="black" stroke-width="0.1"/>
    <path d="M 846 0 L 846 656" fill="transparent" stroke="black" stroke-width="0.1"/>
    <path d="M 866 0 L 866 656" fill="transparent" stroke="black" stroke-width="0.1"/>
    <path d="M 870 0 L 870 656" fill="transparent" stroke="black" stroke-width="0.1"/>
    <path d="M 874 0 L 874 656" fill="transparent" stroke="black" stroke-width="0.1"/>
    <path d="M 882 0 L 882 656" fill="transparent" stroke="black" stroke-width="0.1"/>
    <path d="M 884 0 L 884 656" fill="transparent" stroke="black" stroke-width="0.1"/>
    <path d="M 886 0 L 886 656" fill="transparent" stroke="black" stroke-width="0.1"/>
    <path d="M 888 0 L 888 656" fill="transparent" stroke="black" stroke-width="0.1"/>
    <path d="M 890 0 L 890 656" fill="transparent" stroke="black" stroke-width="0.1"/>
    <path d="M 892 0 L 892 656" fill="transparent" stroke="black" stroke-width="0.1"/>
    <path d="M 896 0 L 896 656" fill="transparent" stroke="black" stroke-width="0.1"/>
    <path d="M 898 0 L 898 656" fill="transparent" stroke="black" stroke-width="0.1"/>
    <path d="M 900 0 L 900 656" fill="transparent" stroke="black" stroke-width="0.1"/>
    <path d="M 902 0 L 902 656" fill="transparent" stroke="black" stroke-width="0.1"/>
    <path d="M 904 0 L 904 656" fill="transparent" stroke="black" stroke-width="0.1"/>
    <path d="M 906 0 L 906 656" fill="transparent" stroke="black" stroke-width="0.1"/>
    <path d="M 908 0 L 908 656" fill="transparent" stroke="black" stroke-width="0.1"/>
    <path d="M 910 0 L 910 656" fill="transparent" stroke="black" stroke-width="0.1"/>
    <path d="M 912 0 L 912 656" fill="transparent" stroke="black" stroke-width="0.1"/>
    <path d="M 914 0 L 914 656" fill="transparent" stroke="black" stroke-width="0.1"/>
    <path d="M 918 0 L 918 656" fill="transparent" stroke="black" stroke-width="0.1"/>
    <path d="M 920 0 L 920 656" fill="transparent" stroke="black" stroke-width="0.1"/>
    <path d="M 922 0 L 922 656" fill="transparent" stroke="black" stroke-width="0.1"/>
    <path d="M 924 0 L 924 656" fill="transparent" stroke="black" stroke-width="0.1"/>
    <path d="M 926 0 L 926 656" fill="transparent" stroke="black" stroke-width="0.1"/>
    <path d="M 928 0 L 928 656" fill="transparent" stroke="black" stroke-width="0.1"/>
    <path d="M 930 0 L 930 656" fill="transparent" stroke="black" stroke-width="0.1"/>
    <path d="M 932 0 L 932 656" fill="transparent" stroke="black" stroke-width="0.1"/>
    <path d="M 934 0 L 934 656" fill="transparent" stroke="black" stroke-width="0.1"/>
    <path d="M 936 0 L 936 656" fill="transparent" stroke="black" stroke-width="0.1"/>
    <path d="M 938 0 L 938 656" fill="transparent" stroke="black" stroke-width="0.1"/>
    <path d="M 940 0 L 940 656" fill="transparent" stroke="black" stroke-width="0.1"/>
    <path d="M 942 0 L 942 656" fill="transparent" stroke="black" stroke-width="0.1"/>
    <path d="M 944 0 L 944 656" fill="transparent" stroke="black" stroke-width="0.1"/>
    <path d="M 946 0 L 946 656" fill="transparent" stroke="black" stroke-width="0.1"/>
    <path d="M 948 0 L 948 656" fill="transparent" stroke="black" stroke-width="0.1"/>
    <path d="M 950 0 L 950 656" fill="transparent" stroke="black" stroke-width="0.1"/>
    <path d="M 952 0 L 952 656" fill="transparent" stroke="black" stroke-width="0.1"/>
    <path d="M 954 0 L 954 656" fill="transparent" stroke="black" stroke-width="0.1"/>
    <path d="M 956 0 L 956 656" fill="transparent" stroke="black" stroke-width="0.1"/>
    <path d="M 958 0 L 958 656" fill="transparent" stroke="black" stroke-width="0.1"/>
    <path d="M 960 0 L 960 656" fill="transparent" stroke="black" stroke-width="0.1"/>
    <path d="M 962 0 L 962 656" fill="transparent" stroke="black" stroke-width="0.1"/>
    <path d="M 964 0 L 964 656" fill="transparent" stroke="black" stroke-width="0.1"/>
    <path d="M 966 0 L 966 656" fill="transparent" stroke="black" stroke-width="0.1"/>
    <path d="M 968 0 L 968 656" fill="transparent" stroke="black" stroke-width="0.1"/>
    <path d="M 970 0 L 970 656" fill="transparent" stroke="black" stroke-width="0.1"/>
    <path d="M 972 0 L 972 656" fill="transparent" stroke="black" stroke-width="0.1"/>
    <path d="M 974 0 L 974 656" fill="transparent" stroke="black" stroke-width="0.1"/>
    <path d="M 976 0 L 976 656" fill="transparent" stroke="black" stroke-width="0.1"/>
    <path d="M 978 0 L 978 656" fill="transparent" stroke="black" stroke-width="0.1"/>
    <path d="M 980 0 L 980 656" fill="transparent" stroke="black" stroke-width="0.1"/>
    <path d="M 982 0 L 982 656" fill="transparent" stroke="black" stroke-width="0.1"/>
    <path d="M 984 0 L 984 656" fill="transparent" stroke="black" stroke-width="0.1"/>
    <path d="M 986 0 L 986 656" fill="transparent" stroke="black" stroke-width="0.1"/>
    <path d="M 988 0 L 988 656" fill="transparent" stroke="black" stroke-width="0.1"/>
    <path d="M 990 0 L 990 656" fill="transparent" stroke="black" stroke-width="0.1"/>
    <path d="M 992 0 L 992 656" fill="transparent" stroke="black" stroke-width="0.1"/>
    <path d="M 994 0 L 994 656" fill="transparent" stroke="black" stroke-width="0.1"/>
    <path d="M 996 0 L 996 656" fill="transparent" stroke="black" stroke-width="0.1"/>
    <path d="M 998 0 L 998 656" fill="transparent" stroke="black" stroke-width="0.1"/>
    <path d="M 1000 0 L 1000 656" fill="transparent" stroke="black" stroke-width="0.1"/>
    <path d="M 1002 0 L 1002 656" fill="transparent" stroke="black" stroke-width="0.1"/>
    <path d="M 1004 0 L 1004 656" fill="transparent" stroke="black" stroke-width="0.1"/>
    <path d="M 1006 0 L 1006 656" fill="transparent" stroke="black" stroke-width="0.1"/>
    <path d="M 1008 0 L 1008 656" fill="transparent" stroke="black" stroke-width="0.1"/>
    <path d="M 1010 0 L 1010 656" fill="transparent" stroke="black" stroke-width="0.1"/>
    <path d="M 1012 0 L 1012 656" fill="transparent" stroke="black" stroke-width="0.1"/>
    <path d="M 1014 0 L 1014 656" fill="transparent" stroke="black" stroke-width="0.1"/>
    <path d="M 1016 0 L 1016 656" fill="transparent" stroke="black" stroke-width="0.1"/>
    <path d="M 1018 0 L 1018 656" fill="transparent" stroke="black" stroke-width="0.1"/>
    <path d="M 1020 0 L 1020 656" fill="transparent" stroke="black" stroke-width="0.1"/>
    <path d="M 1022 0 L 1022 656" fill="transparent" stroke="black" stroke-width="0.1"/>
    <path d="M 1024 0 L 1024 656" fill="transparent" stroke="black" stroke-width="0.1"/>
  </g>
</svg>
