<svg viewBox="0 0 1024 656" xmlns="http://www.w3.org/2000/svg" xmlns:inkscape="http://www.inkscape.org/namespaces/inkscape" width="420mm" height="295mm">
  <g inkscape:groupmode="layer" id="layer1" inkscape:label="1 - red,">
    <path d="M0 0H656" fill="transparent" stroke="black" stroke-width="0.1"/>
    <path d="M2 0H656" fill="transparent" stroke="black" stroke-width="0.1"/>
    <path d="M4 0H656" fill="transparent" stroke="black" stroke-width="0.1"/>
    <path d="M6 0H656" fill="transparent" stroke="black" stroke-width="0.1"/>
    <path d="M8 0H656" fill="transparent" stroke="black" stroke-width="0.1"/>
    <path d="M10 0H656" fill="transparent" stroke="black" stroke-width="0.1"/>
    <path d="M12 0H656" fill="transparent" stroke="black" stroke-width="0.1"/>
    <path d="M14 0H656" fill="transparent" stroke="black" stroke-width="0.1"/>
    <path d="M16 0H656" fill="transparent" stroke="black" stroke-width="0.1"/>
    <path d="M18 0H656" fill="transparent" stroke="black" stroke-width="0.1"/>
    <path d="M20 0H656" fill="transparent" stroke="black" stroke-width="0.1"/>
    <path d="M22 0H656" fill="transparent" stroke="black" stroke-width="0.1"/>
    <path d="M24 0H656" fill="transparent" stroke="black" stroke-width="0.1"/>
    <path d="M26 0H656" fill="transparent" stroke="black" stroke-width="0.1"/>
    <path d="M28 0H656" fill="transparent" stroke="black" stroke-width="0.1"/>
    <path d="M30 0H656" fill="transparent" stroke="black" stroke-width="0.1"/>
    <path d="M32 0H656" fill="transparent" stroke="black" stroke-width="0.1"/>
    <path d="M34 0H656" fill="transparent" stroke="black" stroke-width="0.1"/>
    <path d="M36 0H656" fill="transparent" stroke="black" stroke-width="0.1"/>
    <path d="M38 0H656" fill="transparent" stroke="black" stroke-width="0.1"/>
    <path d="M40 0H656" fill="transparent" stroke="black" stroke-width="0.1"/>
    <path d="M42 0H656" fill="transparent" stroke="black" stroke-width="0.1"/>
    <path d="M44 0H656" fill="transparent" stroke="black" stroke-width="0.1"/>
    <path d="M46 0H656" fill="transparent" stroke="black" stroke-width="0.1"/>
    <path d="M48 0H656" fill="transparent" stroke="black" stroke-width="0.1"/>
    <path d="M50 0H656" fill="transparent" stroke="black" stroke-width="0.1"/>
    <path d="M52 0H656" fill="transparent" stroke="black" stroke-width="0.1"/>
    <path d="M54 0H656" fill="transparent" stroke="black" stroke-width="0.1"/>
    <path d="M56 0H656" fill="transparent" stroke="black" stroke-width="0.1"/>
    <path d="M58 0H656" fill="transparent" stroke="black" stroke-width="0.1"/>
    <path d="M60 0H656" fill="transparent" stroke="black" stroke-width="0.1"/>
    <path d="M62 0H656" fill="transparent" stroke="black" stroke-width="0.1"/>
    <path d="M64 0H656" fill="transparent" stroke="black" stroke-width="0.1"/>
    <path d="M66 0H656" fill="transparent" stroke="black" stroke-width="0.1"/>
    <path d="M68 0H656" fill="transparent" stroke="black" stroke-width="0.1"/>
    <path d="M70 0H656" fill="transparent" stroke="black" stroke-width="0.1"/>
    <path d="M72 0H656" fill="transparent" stroke="black" stroke-width="0.1"/>
    <path d="M74 0H656" fill="transparent" stroke="black" stroke-width="0.1"/>
    <path d="M76 0H656" fill="transparent" stroke="black" stroke-width="0.1"/>
    <path d="M78 0H656" fill="transparent" stroke="black" stroke-width="0.1"/>
    <path d="M80 0H656" fill="transparent" stroke="black" stroke-width="0.1"/>
    <path d="M82 0H656" fill="transparent" stroke="black" stroke-width="0.1"/>
    <path d="M84 0H656" fill="transparent" stroke="black" stroke-width="0.1"/>
    <path d="M86 0H656" fill="transparent" stroke="black" stroke-width="0.1"/>
    <path d="M88 0H656" fill="transparent" stroke="black" stroke-width="0.1"/>
    <path d="M90 0H656" fill="transparent" stroke="black" stroke-width="0.1"/>
    <path d="M92 0H656" fill="transparent" stroke="black" stroke-width="0.1"/>
    <path d="M94 0H656" fill="transparent" stroke="black" stroke-width="0.1"/>
    <path d="M96 0H656" fill="transparent" stroke="black" stroke-width="0.1"/>
    <path d="M98 0H656" fill="transparent" stroke="black" stroke-width="0.1"/>
    <path d="M100 0H656" fill="transparent" stroke="black" stroke-width="0.1"/>
    <path d="M102 0H656" fill="transparent" stroke="black" stroke-width="0.1"/>
    <path d="M104 0H656" fill="transparent" stroke="black" stroke-width="0.1"/>
    <path d="M106 0H656" fill="transparent" stroke="black" stroke-width="0.1"/>
    <path d="M108 0H656" fill="transparent" stroke="black" stroke-width="0.1"/>
    <path d="M110 0H656" fill="transparent" stroke="black" stroke-width="0.1"/>
    <path d="M112 0H656" fill="transparent" stroke="black" stroke-width="0.1"/>
    <path d="M114 0H656" fill="transparent" stroke="black" stroke-width="0.1"/>
    <path d="M116 0H656" fill="transparent" stroke="black" stroke-width="0.1"/>
    <path d="M118 0H656" fill="transparent" stroke="black" stroke-width="0.1"/>
    <path d="M120 0H656" fill="transparent" stroke="black" stroke-width="0.1"/>
    <path d="M124 0H656" fill="transparent" stroke="black" stroke-width="0.1"/>
    <path d="M128 0H656" fill="transparent" stroke="black" stroke-width="0.1"/>
    <path d="M130 0H656" fill="transparent" stroke="black" stroke-width="0.1"/>
    <path d="M134 0H656" fill="transparent" stroke="black" stroke-width="0.1"/>
    <path d="M136 0H656" fill="transparent" stroke="black" stroke-width="0.1"/>
    <path d="M138 0H656" fill="transparent" stroke="black" stroke-width="0.1"/>
    <path d="M142 0H656" fill="transparent" stroke="black" stroke-width="0.1"/>
    <path d="M144 0H656" fill="transparent" stroke="black" stroke-width="0.1"/>
    <path d="M148 0H656" fill="transparent" stroke="black" stroke-width="0.1"/>
    <path d="M150 0H656" fill="transparent" stroke="black" stroke-width="0.1"/>
    <path d="M154 0H656" fill="transparent" stroke="black" stroke-width="0.1"/>
    <path d="M170 0H656" fill="transparent" stroke="black" stroke-width="0.1"/>
    <path d="M176 0H656" fill="transparent" stroke="black" stroke-width="0.1"/>
  </g>
  <g inkscape:groupmode="layer" id="layer2" inkscape:label="2 - green,">
    <path d="M122 0H656" fill="transparent" stroke="black" stroke-width="0.1"/>
    <path d="M126 0H656" fill="transparent" stroke="black" stroke-width="0.1"/>
    <path d="M132 0H656" fill="transparent" stroke="black" stroke-width="0.1"/>
    <path d="M140 0H656" fill="transparent" stroke="black" stroke-width="0.1"/>
    <path d="M146 0H656" fill="transparent" stroke="black" stroke-width="0.1"/>
    <path d="M152 0H656" fill="transparent" stroke="black" stroke-width="0.1"/>
    <path d="M156 0H656" fill="transparent" stroke="black" stroke-width="0.1"/>
    <path d="M158 0H656" fill="transparent" stroke="black" stroke-width="0.1"/>
    <path d="M160 0H656" fill="transparent" stroke="black" stroke-width="0.1"/>
    <path d="M162 0H656" fill="transparent" stroke="black" stroke-width="0.1"/>
    <path d="M164 0H656" fill="transparent" stroke="black" stroke-width="0.1"/>
    <path d="M166 0H656" fill="transparent" stroke="black" stroke-width="0.1"/>
    <path d="M168 0H656" fill="transparent" stroke="black" stroke-width="0.1"/>
    <path d="M172 0H656" fill="transparent" stroke="black" stroke-width="0.1"/>
    <path d="M174 0H656" fill="transparent" stroke="black" stroke-width="0.1"/>
    <path d="M178 0H656" fill="transparent" stroke="black" stroke-width="0.1"/>
    <path d="M180 0H656" fill="transparent" stroke="black" stroke-width="0.1"/>
    <path d="M182 0H656" fill="transparent" stroke="black" stroke-width="0.1"/>
    <path d="M184 0H656" fill="transparent" stroke="black" stroke-width="0.1"/>
    <path d="M186 0H656" fill="transparent" stroke="black" stroke-width="0.1"/>
    <path d="M188 0H656" fill="transparent" stroke="black" stroke-width="0.1"/>
    <path d="M190 0H656" fill="transparent" stroke="black" stroke-width="0.1"/>
    <path d="M192 0H656" fill="transparent" stroke="black" stroke-width="0.1"/>
    <path d="M194 0H656" fill="transparent" stroke="black" stroke-width="0.1"/>
    <path d="M196 0H656" fill="transparent" stroke="black" stroke-width="0.1"/>
    <path d="M198 0H656" fill="transparent" stroke="black" stroke-width="0.1"/>
    <path d="M200 0H656" fill="transparent" stroke="black" stroke-width="0.1"/>
    <path d="M202 0H656" fill="transparent" stroke="black" stroke-width="0.1"/>
    <path d="M204 0H656" fill="transparent" stroke="black" stroke-width="0.1"/>
    <path d="M206 0H656" fill="transparent" stroke="black" stroke-width="0.1"/>
    <path d="M208 0H656" fill="transparent" stroke="black" stroke-width="0.1"/>
    <path d="M210 0H656" fill="transparent" stroke="black" stroke-width="0.1"/>
    <path d="M212 0H656" fill="transparent" stroke="black" stroke-width="0.1"/>
    <path d="M214 0H656" fill="transparent" stroke="black" stroke-width="0.1"/>
    <path d="M216 0H656" fill="transparent" stroke="black" stroke-width="0.1"/>
    <path d="M218 0H656" fill="transparent" stroke="black" stroke-width="0.1"/>
    <path d="M220 0H656" fill="transparent" stroke="black" stroke-width="0.1"/>
    <path d="M222 0H656" fill="transparent" stroke="black" stroke-width="0.1"/>
    <path d="M224 0H656" fill="transparent" stroke="black" stroke-width="0.1"/>
    <path d="M226 0H656" fill="transparent" stroke="black" stroke-width="0.1"/>
    <path d="M228 0H656" fill="transparent" stroke="black" stroke-width="0.1"/>
    <path d="M230 0H656" fill="transparent" stroke="black" stroke-width="0.1"/>
    <path d="M232 0H656" fill="transparent" stroke="black" stroke-width="0.1"/>
    <path d="M234 0H656" fill="transparent" stroke="black" stroke-width="0.1"/>
    <path d="M236 0H656" fill="transparent" stroke="black" stroke-width="0.1"/>
    <path d="M238 0H656" fill="transparent" stroke="black" stroke-width="0.1"/>
    <path d="M240 0H656" fill="transparent" stroke="black" stroke-width="0.1"/>
    <path d="M242 0H656" fill="transparent" stroke="black" stroke-width="0.1"/>
    <path d="M244 0H656" fill="transparent" stroke="black" stroke-width="0.1"/>
    <path d="M246 0H656" fill="transparent" stroke="black" stroke-width="0.1"/>
    <path d="M248 0H656" fill="transparent" stroke="black" stroke-width="0.1"/>
    <path d="M250 0H656" fill="transparent" stroke="black" stroke-width="0.1"/>
    <path d="M252 0H656" fill="transparent" stroke="black" stroke-width="0.1"/>
    <path d="M254 0H656" fill="transparent" stroke="black" stroke-width="0.1"/>
    <path d="M256 0H656" fill="transparent" stroke="black" stroke-width="0.1"/>
    <path d="M264 0H656" fill="transparent" stroke="black" stroke-width="0.1"/>
    <path d="M268 0H656" fill="transparent" stroke="black" stroke-width="0.1"/>
    <path d="M274 0H656" fill="transparent" stroke="black" stroke-width="0.1"/>
    <path d="M284 0H656" fill="transparent" stroke="black" stroke-width="0.1"/>
    <path d="M286 0H656" fill="transparent" stroke="black" stroke-width="0.1"/>
    <path d="M288 0H656" fill="transparent" stroke="black" stroke-width="0.1"/>
    <path d="M292 0H656" fill="transparent" stroke="black" stroke-width="0.1"/>
    <path d="M298 0H656" fill="transparent" stroke="black" stroke-width="0.1"/>
    <path d="M300 0H656" fill="transparent" stroke="black" stroke-width="0.1"/>
    <path d="M310 0H656" fill="transparent" stroke="black" stroke-width="0.1"/>
    <path d="M320 0H656" fill="transparent" stroke="black" stroke-width="0.1"/>
  </g>
  <g inkscape:groupmode="layer" id="layer3" inkscape:label="3 - blue,">
    <path d="M258 0H656" fill="transparent" stroke="black" stroke-width="0.1"/>
    <path d="M260 0H656" fill="transparent" stroke="black" stroke-width="0.1"/>
    <path d="M262 0H656" fill="transparent" stroke="black" stroke-width="0.1"/>
    <path d="M266 0H656" fill="transparent" stroke="black" stroke-width="0.1"/>
    <path d="M270 0H656" fill="transparent" stroke="black" stroke-width="0.1"/>
    <path d="M272 0H656" fill="transparent" stroke="black" stroke-width="0.1"/>
    <path d="M276 0H656" fill="transparent" stroke="black" stroke-width="0.1"/>
    <path d="M278 0H656" fill="transparent" stroke="black" stroke-width="0.1"/>
    <path d="M280 0H656" fill="transparent" stroke="black" stroke-width="0.1"/>
    <path d="M282 0H656" fill="transparent" stroke="black" stroke-width="0.1"/>
    <path d="M290 0H656" fill="transparent" stroke="black" stroke-width="0.1"/>
    <path d="M294 0H656" fill="transparent" stroke="black" stroke-width="0.1"/>
    <path d="M296 0H656" fill="transparent" stroke="black" stroke-width="0.1"/>
    <path d="M302 0H656" fill="transparent" stroke="black" stroke-width="0.1"/>
    <path d="M304 0H656" fill="transparent" stroke="black" stroke-width="0.1"/>
    <path d="M306 0H656" fill="transparent" stroke="black" stroke-width="0.1"/>
    <path d="M308 0H656" fill="transparent" stroke="black" stroke-width="0.1"/>
    <path d="M312 0H656" fill="transparent" stroke="black" stroke-width="0.1"/>
    <path d="M314 0H656" fill="transparent" stroke="black" stroke-width="0.1"/>
    <path d="M316 0H656" fill="transparent" stroke="black" stroke-width="0.1"/>
    <path d="M318 0H656" fill="transparent" stroke="black" stroke-width="0.1"/>
    <path d="M322 0H656" fill="transparent" stroke="black" stroke-width="0.1"/>
    <path d="M324 0H656" fill="transparent" stroke="black" stroke-width="0.1"/>
    <path d="M326 0H656" fill="transparent" stroke="black" stroke-width="0.1"/>
    <path d="M328 0H656" fill="transparent" stroke="black" stroke-width="0.1"/>
    <path d="M330 0H656" fill="transparent" stroke="black" stroke-width="0.1"/>
    <path d="M332 0H656" fill="transparent" stroke="black" stroke-width="0.1"/>
    <path d="M334 0H656" fill="transparent" stroke="black" stroke-width="0.1"/>
    <path d="M336 0H656" fill="transparent" stroke="black" stroke-width="0.1"/>
    <path d="M338 0H656" fill="transparent" stroke="black" stroke-width="0.1"/>
    <path d="M340 0H656" fill="transparent" stroke="black" stroke-width="0.1"/>
    <path d="M342 0H656" fill="transparent" stroke="black" stroke-width="0.1"/>
    <path d="M344 0H656" fill="transparent" stroke="black" stroke-width="0.1"/>
    <path d="M346 0H656" fill="transparent" stroke="black" stroke-width="0.1"/>
    <path d="M348 0H656" fill="transparent" stroke="black" stroke-width="0.1"/>
    <path d="M350 0H656" fill="transparent" stroke="black" stroke-width="0.1"/>
    <path d="M352 0H656" fill="transparent" stroke="black" stroke-width="0.1"/>
    <path d="M354 0H656" fill="transparent" stroke="black" stroke-width="0.1"/>
    <path d="M356 0H656" fill="transparent" stroke="black" stroke-width="0.1"/>
    <path d="M358 0H656" fill="transparent" stroke="black" stroke-width="0.1"/>
    <path d="M360 0H656" fill="transparent" stroke="black" stroke-width="0.1"/>
    <path d="M362 0H656" fill="transparent" stroke="black" stroke-width="0.1"/>
    <path d="M364 0H656" fill="transparent" stroke="black" stroke-width="0.1"/>
    <path d="M366 0H656" fill="transparent" stroke="black" stroke-width="0.1"/>
    <path d="M368 0H656" fill="transparent" stroke="black" stroke-width="0.1"/>
    <path d="M370 0H656" fill="transparent" stroke="black" stroke-width="0.1"/>
    <path d="M372 0H656" fill="transparent" stroke="black" stroke-width="0.1"/>
    <path d="M374 0H656" fill="transparent" stroke="black" stroke-width="0.1"/>
    <path d="M376 0H656" fill="transparent" stroke="black" stroke-width="0.1"/>
    <path d="M378 0H656" fill="transparent" stroke="black" stroke-width="0.1"/>
    <path d="M380 0H656" fill="transparent" stroke="black" stroke-width="0.1"/>
    <path d="M382 0H656" fill="transparent" stroke="black" stroke-width="0.1"/>
    <path d="M384 0H656" fill="transparent" stroke="black" stroke-width="0.1"/>
    <path d="M386 0H656" fill="transparent" stroke="black" stroke-width="0.1"/>
    <path d="M388 0H656" fill="transparent" stroke="black" stroke-width="0.1"/>
    <path d="M390 0H656" fill="transparent" stroke="black" stroke-width="0.1"/>
    <path d="M392 0H656" fill="transparent" stroke="black" stroke-width="0.1"/>
    <path d="M394 0H656" fill="transparent" stroke="black" stroke-width="0.1"/>
    <path d="M396 0H656" fill="transparent" stroke="black" stroke-width="0.1"/>
    <path d="M398 0H656" fill="transparent" stroke="black" stroke-width="0.1"/>
    <path d="M402 0H656" fill="transparent" stroke="black" stroke-width="0.1"/>
    <path d="M406 0H656" fill="transparent" stroke="black" stroke-width="0.1"/>
    <path d="M408 0H656" fill="transparent" stroke="black" stroke-width="0.1"/>
    <path d="M410 0H656" fill="transparent" stroke="black" stroke-width="0.1"/>
    <path d="M412 0H656" fill="transparent" stroke="black" stroke-width="0.1"/>
    <path d="M414 0H656" fill="transparent" stroke="black" stroke-width="0.1"/>
    <path d="M416 0H656" fill="transparent" stroke="black" stroke-width="0.1"/>
    <path d="M422 0H656" fill="transparent" stroke="black" stroke-width="0.1"/>
    <path d="M426 0H656" fill="transparent" stroke="black" stroke-width="0.1"/>
    <path d="M428 0H656" fill="transparent" stroke="black" stroke-width="0.1"/>
    <path d="M436 0H656" fill="transparent" stroke="black" stroke-width="0.1"/>
    <path d="M442 0H656" fill="transparent" stroke="black" stroke-width="0.1"/>
    <path d="M448 0H656" fill="transparent" stroke="black" stroke-width="0.1"/>
    <path d="M454 0H656" fill="transparent" stroke="black" stroke-width="0.1"/>
    <path d="M460 0H656" fill="transparent" stroke="black" stroke-width="0.1"/>
    <path d="M462 0H656" fill="transparent" stroke="black" stroke-width="0.1"/>
    <path d="M468 0H656" fill="transparent" stroke="black" stroke-width="0.1"/>
    <path d="M470 0H656" fill="transparent" stroke="black" stroke-width="0.1"/>
    <path d="M472 0H656" fill="transparent" stroke="black" stroke-width="0.1"/>
    <path d="M478 0H656" fill="transparent" stroke="black" stroke-width="0.1"/>
    <path d="M484 0H656" fill="transparent" stroke="black" stroke-width="0.1"/>
    <path d="M500 0H656" fill="transparent" stroke="black" stroke-width="0.1"/>
  </g>
  <g inkscape:groupmode="layer" id="layer4" inkscape:label="4 - yellow,">
    <path d="M400 0H656" fill="transparent" stroke="black" stroke-width="0.1"/>
    <path d="M404 0H656" fill="transparent" stroke="black" stroke-width="0.1"/>
    <path d="M418 0H656" fill="transparent" stroke="black" stroke-width="0.1"/>
    <path d="M420 0H656" fill="transparent" stroke="black" stroke-width="0.1"/>
    <path d="M424 0H656" fill="transparent" stroke="black" stroke-width="0.1"/>
    <path d="M430 0H656" fill="transparent" stroke="black" stroke-width="0.1"/>
    <path d="M432 0H656" fill="transparent" stroke="black" stroke-width="0.1"/>
    <path d="M434 0H656" fill="transparent" stroke="black" stroke-width="0.1"/>
    <path d="M438 0H656" fill="transparent" stroke="black" stroke-width="0.1"/>
    <path d="M440 0H656" fill="transparent" stroke="black" stroke-width="0.1"/>
    <path d="M444 0H656" fill="transparent" stroke="black" stroke-width="0.1"/>
    <path d="M446 0H656" fill="transparent" stroke="black" stroke-width="0.1"/>
    <path d="M450 0H656" fill="transparent" stroke="black" stroke-width="0.1"/>
    <path d="M452 0H656" fill="transparent" stroke="black" stroke-width="0.1"/>
    <path d="M456 0H656" fill="transparent" stroke="black" stroke-width="0.1"/>
    <path d="M458 0H656" fill="transparent" stroke="black" stroke-width="0.1"/>
    <path d="M464 0H656" fill="transparent" stroke="black" stroke-width="0.1"/>
    <path d="M466 0H656" fill="transparent" stroke="black" stroke-width="0.1"/>
    <path d="M474 0H656" fill="transparent" stroke="black" stroke-width="0.1"/>
    <path d="M476 0H656" fill="transparent" stroke="black" stroke-width="0.1"/>
    <path d="M480 0H656" fill="transparent" stroke="black" stroke-width="0.1"/>
    <path d="M482 0H656" fill="transparent" stroke="black" stroke-width="0.1"/>
    <path d="M486 0H656" fill="transparent" stroke="black" stroke-width="0.1"/>
    <path d="M488 0H656" fill="transparent" stroke="black" stroke-width="0.1"/>
    <path d="M490 0H656" fill="transparent" stroke="black" stroke-width="0.1"/>
    <path d="M492 0H656" fill="transparent" stroke="black" stroke-width="0.1"/>
    <path d="M494 0H656" fill="transparent" stroke="black" stroke-width="0.1"/>
    <path d="M496 0H656" fill="transparent" stroke="black" stroke-width="0.1"/>
    <path d="M498 0H656" fill="transparent" stroke="black" stroke-width="0.1"/>
    <path d="M502 0H656" fill="transparent" stroke="black" stroke-width="0.1"/>
    <path d="M504 0H656" fill="transparent" stroke="black" stroke-width="0.1"/>
    <path d="M506 0H656" fill="transparent" stroke="black" stroke-width="0.1"/>
    <path d="M508 0H656" fill="transparent" stroke="black" stroke-width="0.1"/>
    <path d="M510 0H656" fill="transparent" stroke="black" stroke-width="0.1"/>
    <path d="M512 0H656" fill="transparent" stroke="black" stroke-width="0.1"/>
    <path d="M514 0H656" fill="transparent" stroke="black" stroke-width="0.1"/>
    <path d="M516 0H656" fill="transparent" stroke="black" stroke-width="0.1"/>
    <path d="M518 0H656" fill="transparent" stroke="black" stroke-width="0.1"/>
    <path d="M520 0H656" fill="transparent" stroke="black" stroke-width="0.1"/>
    <path d="M522 0H656" fill="transparent" stroke="black" stroke-width="0.1"/>
    <path d="M524 0H656" fill="transparent" stroke="black" stroke-width="0.1"/>
    <path d="M526 0H656" fill="transparent" stroke="black" stroke-width="0.1"/>
    <path d="M528 0H656" fill="transparent" stroke="black" stroke-width="0.1"/>
    <path d="M530 0H656" fill="transparent" stroke="black" stroke-width="0.1"/>
    <path d="M532 0H656" fill="transparent" stroke="black" stroke-width="0.1"/>
    <path d="M534 0H656" fill="transparent" stroke="black" stroke-width="0.1"/>
    <path d="M536 0H656" fill="transparent" stroke="black" stroke-width="0.1"/>
    <path d="M538 0H656" fill="transparent" stroke="black" stroke-width="0.1"/>
    <path d="M540 0H656" fill="transparent" stroke="black" stroke-width="0.1"/>
    <path d="M542 0H656" fill="transparent" stroke="black" stroke-width="0.1"/>
    <path d="M544 0H656" fill="transparent" stroke="black" stroke-width="0.1"/>
    <path d="M546 0H656" fill="transparent" stroke="black" stroke-width="0.1"/>
    <path d="M550 0H656" fill="transparent" stroke="black" stroke-width="0.1"/>
    <path d="M552 0H656" fill="transparent" stroke="black" stroke-width="0.1"/>
    <path d="M554 0H656" fill="transparent" stroke="black" stroke-width="0.1"/>
    <path d="M558 0H656" fill="transparent" stroke="black" stroke-width="0.1"/>
    <path d="M560 0H656" fill="transparent" stroke="black" stroke-width="0.1"/>
    <path d="M562 0H656" fill="transparent" stroke="black" stroke-width="0.1"/>
    <path d="M564 0H656" fill="transparent" stroke="black" stroke-width="0.1"/>
    <path d="M568 0H656" fill="transparent" stroke="black" stroke-width="0.1"/>
    <path d="M572 0H656" fill="transparent" stroke="black" stroke-width="0.1"/>
    <path d="M574 0H656" fill="transparent" stroke="black" stroke-width="0.1"/>
    <path d="M576 0H656" fill="transparent" stroke="black" stroke-width="0.1"/>
    <path d="M578 0H656" fill="transparent" stroke="black" stroke-width="0.1"/>
    <path d="M580 0H656" fill="transparent" stroke="black" stroke-width="0.1"/>
    <path d="M590 0H656" fill="transparent" stroke="black" stroke-width="0.1"/>
    <path d="M592 0H656" fill="transparent" stroke="black" stroke-width="0.1"/>
    <path d="M594 0H656" fill="transparent" stroke="black" stroke-width="0.1"/>
    <path d="M596 0H656" fill="transparent" stroke="black" stroke-width="0.1"/>
    <path d="M598 0H656" fill="transparent" stroke="black" stroke-width="0.1"/>
    <path d="M612 0H656" fill="transparent" stroke="black" stroke-width="0.1"/>
    <path d="M618 0H656" fill="transparent" stroke="black" stroke-width="0.1"/>
    <path d="M620 0H656" fill="transparent" stroke="black" stroke-width="0.1"/>
    <path d="M628 0H656" fill="transparent" stroke="black" stroke-width="0.1"/>
    <path d="M658 0H656" fill="transparent" stroke="black" stroke-width="0.1"/>
    <path d="M678 0H656" fill="transparent" stroke="black" stroke-width="0.1"/>
  </g>
  <g inkscape:groupmode="layer" id="layer5" inkscape:label="5 - black,">
    <path d="M548 0H656" fill="transparent" stroke="black" stroke-width="0.1"/>
    <path d="M556 0H656" fill="transparent" stroke="black" stroke-width="0.1"/>
    <path d="M566 0H656" fill="transparent" stroke="black" stroke-width="0.1"/>
    <path d="M570 0H656" fill="transparent" stroke="black" stroke-width="0.1"/>
    <path d="M582 0H656" fill="transparent" stroke="black" stroke-width="0.1"/>
    <path d="M584 0H656" fill="transparent" stroke="black" stroke-width="0.1"/>
    <path d="M586 0H656" fill="transparent" stroke="black" stroke-width="0.1"/>
    <path d="M588 0H656" fill="transparent" stroke="black" stroke-width="0.1"/>
    <path d="M600 0H656" fill="transparent" stroke="black" stroke-width="0.1"/>
    <path d="M602 0H656" fill="transparent" stroke="black" stroke-width="0.1"/>
    <path d="M604 0H656" fill="transparent" stroke="black" stroke-width="0.1"/>
    <path d="M606 0H656" fill="transparent" stroke="black" stroke-width="0.1"/>
    <path d="M608 0H656" fill="transparent" stroke="black" stroke-width="0.1"/>
    <path d="M610 0H656" fill="transparent" stroke="black" stroke-width="0.1"/>
    <path d="M614 0H656" fill="transparent" stroke="black" stroke-width="0.1"/>
    <path d="M616 0H656" fill="transparent" stroke="black" stroke-width="0.1"/>
    <path d="M622 0H656" fill="transparent" stroke="black" stroke-width="0.1"/>
    <path d="M624 0H656" fill="transparent" stroke="black" stroke-width="0.1"/>
    <path d="M626 0H656" fill="transparent" stroke="black" stroke-width="0.1"/>
    <path d="M630 0H656" fill="transparent" stroke="black" stroke-width="0.1"/>
    <path d="M632 0H656" fill="transparent" stroke="black" stroke-width="0.1"/>
    <path d="M634 0H656" fill="transparent" stroke="black" stroke-width="0.1"/>
    <path d="M636 0H656" fill="transparent" stroke="black" stroke-width="0.1"/>
    <path d="M638 0H656" fill="transparent" stroke="black" stroke-width="0.1"/>
    <path d="M640 0H656" fill="transparent" stroke="black" stroke-width="0.1"/>
    <path d="M642 0H656" fill="transparent" stroke="black" stroke-width="0.1"/>
    <path d="M644 0H656" fill="transparent" stroke="black" stroke-width="0.1"/>
    <path d="M646 0H656" fill="transparent" stroke="black" stroke-width="0.1"/>
    <path d="M648 0H656" fill="transparent" stroke="black" stroke-width="0.1"/>
    <path d="M650 0H656" fill="transparent" stroke="black" stroke-width="0.1"/>
    <path d="M652 0H656" fill="transparent" stroke="black" stroke-width="0.1"/>
    <path d="M654 0H656" fill="transparent" stroke="black" stroke-width="0.1"/>
    <path d="M656 0H656" fill="transparent" stroke="black" stroke-width="0.1"/>
    <path d="M660 0H656" fill="transparent" stroke="black" stroke-width="0.1"/>
    <path d="M662 0H656" fill="transparent" stroke="black" stroke-width="0.1"/>
    <path d="M664 0H656" fill="transparent" stroke="black" stroke-width="0.1"/>
    <path d="M666 0H656" fill="transparent" stroke="black" stroke-width="0.1"/>
    <path d="M668 0H656" fill="transparent" stroke="black" stroke-width="0.1"/>
    <path d="M670 0H656" fill="transparent" stroke="black" stroke-width="0.1"/>
    <path d="M672 0H656" fill="transparent" stroke="black" stroke-width="0.1"/>
    <path d="M674 0H656" fill="transparent" stroke="black" stroke-width="0.1"/>
    <path d="M676 0H656" fill="transparent" stroke="black" stroke-width="0.1"/>
    <path d="M680 0H656" fill="transparent" stroke="black" stroke-width="0.1"/>
    <path d="M682 0H656" fill="transparent" stroke="black" stroke-width="0.1"/>
    <path d="M686 0H656" fill="transparent" stroke="black" stroke-width="0.1"/>
    <path d="M688 0H656" fill="transparent" stroke="black" stroke-width="0.1"/>
    <path d="M690 0H656" fill="transparent" stroke="black" stroke-width="0.1"/>
    <path d="M692 0H656" fill="transparent" stroke="black" stroke-width="0.1"/>
    <path d="M694 0H656" fill="transparent" stroke="black" stroke-width="0.1"/>
    <path d="M696 0H656" fill="transparent" stroke="black" stroke-width="0.1"/>
    <path d="M698 0H656" fill="transparent" stroke="black" stroke-width="0.1"/>
    <path d="M702 0H656" fill="transparent" stroke="black" stroke-width="0.1"/>
    <path d="M704 0H656" fill="transparent" stroke="black" stroke-width="0.1"/>
    <path d="M706 0H656" fill="transparent" stroke="black" stroke-width="0.1"/>
    <path d="M708 0H656" fill="transparent" stroke="black" stroke-width="0.1"/>
    <path d="M714 0H656" fill="transparent" stroke="black" stroke-width="0.1"/>
    <path d="M716 0H656" fill="transparent" stroke="black" stroke-width="0.1"/>
    <path d="M718 0H656" fill="transparent" stroke="black" stroke-width="0.1"/>
    <path d="M720 0H656" fill="transparent" stroke="black" stroke-width="0.1"/>
    <path d="M722 0H656" fill="transparent" stroke="black" stroke-width="0.1"/>
    <path d="M726 0H656" fill="transparent" stroke="black" stroke-width="0.1"/>
    <path d="M732 0H656" fill="transparent" stroke="black" stroke-width="0.1"/>
    <path d="M734 0H656" fill="transparent" stroke="black" stroke-width="0.1"/>
    <path d="M736 0H656" fill="transparent" stroke="black" stroke-width="0.1"/>
    <path d="M738 0H656" fill="transparent" stroke="black" stroke-width="0.1"/>
    <path d="M740 0H656" fill="transparent" stroke="black" stroke-width="0.1"/>
    <path d="M742 0H656" fill="transparent" stroke="black" stroke-width="0.1"/>
    <path d="M748 0H656" fill="transparent" stroke="black" stroke-width="0.1"/>
    <path d="M752 0H656" fill="transparent" stroke="black" stroke-width="0.1"/>
    <path d="M760 0H656" fill="transparent" stroke="black" stroke-width="0.1"/>
    <path d="M772 0H656" fill="transparent" stroke="black" stroke-width="0.1"/>
  </g>
  <g inkscape:groupmode="layer" id="layer6" inkscape:label="6 - purple,">
    <path d="M684 0H656" fill="transparent" stroke="black" stroke-width="0.1"/>
    <path d="M700 0H656" fill="transparent" stroke="black" stroke-width="0.1"/>
    <path d="M710 0H656" fill="transparent" stroke="black" stroke-width="0.1"/>
    <path d="M712 0H656" fill="transparent" stroke="black" stroke-width="0.1"/>
    <path d="M724 0H656" fill="transparent" stroke="black" stroke-width="0.1"/>
    <path d="M728 0H656" fill="transparent" stroke="black" stroke-width="0.1"/>
    <path d="M730 0H656" fill="transparent" stroke="black" stroke-width="0.1"/>
    <path d="M744 0H656" fill="transparent" stroke="black" stroke-width="0.1"/>
    <path d="M746 0H656" fill="transparent" stroke="black" stroke-width="0.1"/>
    <path d="M750 0H656" fill="transparent" stroke="black" stroke-width="0.1"/>
    <path d="M754 0H656" fill="transparent" stroke="black" stroke-width="0.1"/>
    <path d="M756 0H656" fill="transparent" stroke="black" stroke-width="0.1"/>
    <path d="M758 0H656" fill="transparent" stroke="black" stroke-width="0.1"/>
    <path d="M762 0H656" fill="transparent" stroke="black" stroke-width="0.1"/>
    <path d="M764 0H656" fill="transparent" stroke="black" stroke-width="0.1"/>
    <path d="M766 0H656" fill="transparent" stroke="black" stroke-width="0.1"/>
    <path d="M768 0H656" fill="transparent" stroke="black" stroke-width="0.1"/>
    <path d="M770 0H656" fill="transparent" stroke="black" stroke-width="0.1"/>
    <path d="M774 0H656" fill="transparent" stroke="black" stroke-width="0.1"/>
    <path d="M776 0H656" fill="transparent" stroke="black" stroke-width="0.1"/>
    <path d="M778 0H656" fill="transparent" stroke="black" stroke-width="0.1"/>
    <path d="M780 0H656" fill="transparent" stroke="black" stroke-width="0.1"/>
    <path d="M782 0H656" fill="transparent" stroke="black" stroke-width="0.1"/>
    <path d="M784 0H656" fill="transparent" stroke="black" stroke-width="0.1"/>
    <path d="M786 0H656" fill="transparent" stroke="black" stroke-width="0.1"/>
    <path d="M788 0H656" fill="transparent" stroke="black" stroke-width="0.1"/>
    <path d="M790 0H656" fill="transparent" stroke="black" stroke-width="0.1"/>
    <path d="M792 0H656" fill="transparent" stroke="black" stroke-width="0.1"/>
    <path d="M794 0H656" fill="transparent" stroke="black" stroke-width="0.1"/>
    <path d="M796 0H656" fill="transparent" stroke="black" stroke-width="0.1"/>
    <path d="M798 0H656" fill="transparent" stroke="black" stroke-width="0.1"/>
    <path d="M800 0H656" fill="transparent" stroke="black" stroke-width="0.1"/>
    <path d="M802 0H656" fill="transparent" stroke="black" stroke-width="0.1"/>
    <path d="M804 0H656" fill="transparent" stroke="black" stroke-width="0.1"/>
    <path d="M806 0H656" fill="transparent" stroke="black" stroke-width="0.1"/>
    <path d="M808 0H656" fill="transparent" stroke="black" stroke-width="0.1"/>
    <path d="M810 0H656" fill="transparent" stroke="black" stroke-width="0.1"/>
    <path d="M812 0H656" fill="transparent" stroke="black" stroke-width="0.1"/>
    <path d="M814 0H656" fill="transparent" stroke="black" stroke-width="0.1"/>
    <path d="M816 0H656" fill="transparent" stroke="black" stroke-width="0.1"/>
    <path d="M818 0H656" fill="transparent" stroke="black" stroke-width="0.1"/>
    <path d="M820 0H656" fill="transparent" stroke="black" stroke-width="0.1"/>
    <path d="M822 0H656" fill="transparent" stroke="black" stroke-width="0.1"/>
    <path d="M824 0H656" fill="transparent" stroke="black" stroke-width="0.1"/>
    <path d="M826 0H656" fill="transparent" stroke="black" stroke-width="0.1"/>
    <path d="M828 0H656" fill="transparent" stroke="black" stroke-width="0.1"/>
    <path d="M832 0H656" fill="transparent" stroke="black" stroke-width="0.1"/>
    <path d="M834 0H656" fill="transparent" stroke="black" stroke-width="0.1"/>
    <path d="M836 0H656" fill="transparent" stroke="black" stroke-width="0.1"/>
    <path d="M838 0H656" fill="transparent" stroke="black" stroke-width="0.1"/>
    <path d="M840 0H656" fill="transparent" stroke="black" stroke-width="0.1"/>
    <path d="M842 0H656" fill="transparent" stroke="black" stroke-width="0.1"/>
    <path d="M846 0H656" fill="transparent" stroke="black" stroke-width="0.1"/>
    <path d="M848 0H656" fill="transparent" stroke="black" stroke-width="0.1"/>
    <path d="M850 0H656" fill="transparent" stroke="black" stroke-width="0.1"/>
    <path d="M852 0H656" fill="transparent" stroke="black" stroke-width="0.1"/>
    <path d="M854 0H656" fill="transparent" stroke="black" stroke-width="0.1"/>
    <path d="M856 0H656" fill="transparent" stroke="black" stroke-width="0.1"/>
    <path d="M858 0H656" fill="transparent" stroke="black" stroke-width="0.1"/>
    <path d="M874 0H656" fill="transparent" stroke="black" stroke-width="0.1"/>
    <path d="M876 0H656" fill="transparent" stroke="black" stroke-width="0.1"/>
    <path d="M882 0H656" fill="transparent" stroke="black" stroke-width="0.1"/>
    <path d="M888 0H656" fill="transparent" stroke="black" stroke-width="0.1"/>
    <path d="M902 0H656" fill="transparent" stroke="black" stroke-width="0.1"/>
    <path d="M908 0H656" fill="transparent" stroke="black" stroke-width="0.1"/>
  </g>
  <g inkscape:groupmode="layer" id="layer7" inkscape:label="7 - orange">
    <path d="M830 0H656" fill="transparent" stroke="black" stroke-width="0.1"/>
    <path d="M844 0H656" fill="transparent" stroke="black" stroke-width="0.1"/>
    <path d="M860 0H656" fill="transparent" stroke="black" stroke-width="0.1"/>
    <path d="M862 0H656" fill="transparent" stroke="black" stroke-width="0.1"/>
    <path d="M864 0H656" fill="transparent" stroke="black" stroke-width="0.1"/>
    <path d="M866 0H656" fill="transparent" stroke="black" stroke-width="0.1"/>
    <path d="M868 0H656" fill="transparent" stroke="black" stroke-width="0.1"/>
    <path d="M870 0H656" fill="transparent" stroke="black" stroke-width="0.1"/>
    <path d="M872 0H656" fill="transparent" stroke="black" stroke-width="0.1"/>
    <path d="M878 0H656" fill="transparent" stroke="black" stroke-width="0.1"/>
    <path d="M880 0H656" fill="transparent" stroke="black" stroke-width="0.1"/>
    <path d="M884 0H656" fill="transparent" stroke="black" stroke-width="0.1"/>
    <path d="M886 0H656" fill="transparent" stroke="black" stroke-width="0.1"/>
    <path d="M890 0H656" fill="transparent" stroke="black" stroke-width="0.1"/>
    <path d="M892 0H656" fill="transparent" stroke="black" stroke-width="0.1"/>
    <path d="M894 0H656" fill="transparent" stroke="black" stroke-width="0.1"/>
    <path d="M896 0H656" fill="transparent" stroke="black" stroke-width="0.1"/>
    <path d="M898 0H656" fill="transparent" stroke="black" stroke-width="0.1"/>
    <path d="M900 0H656" fill="transparent" stroke="black" stroke-width="0.1"/>
    <path d="M904 0H656" fill="transparent" stroke="black" stroke-width="0.1"/>
    <path d="M906 0H656" fill="transparent" stroke="black" stroke-width="0.1"/>
    <path d="M910 0H656" fill="transparent" stroke="black" stroke-width="0.1"/>
    <path d="M912 0H656" fill="transparent" stroke="black" stroke-width="0.1"/>
    <path d="M914 0H656" fill="transparent" stroke="black" stroke-width="0.1"/>
    <path d="M916 0H656" fill="transparent" stroke="black" stroke-width="0.1"/>
    <path d="M918 0H656" fill="transparent" stroke="black" stroke-width="0.1"/>
    <path d="M920 0H656" fill="transparent" stroke="black" stroke-width="0.1"/>
    <path d="M922 0H656" fill="transparent" stroke="black" stroke-width="0.1"/>
    <path d="M924 0H656" fill="transparent" stroke="black" stroke-width="0.1"/>
    <path d="M926 0H656" fill="transparent" stroke="black" stroke-width="0.1"/>
    <path d="M928 0H656" fill="transparent" stroke="black" stroke-width="0.1"/>
    <path d="M930 0H656" fill="transparent" stroke="black" stroke-width="0.1"/>
    <path d="M932 0H656" fill="transparent" stroke="black" stroke-width="0.1"/>
    <path d="M934 0H656" fill="transparent" stroke="black" stroke-width="0.1"/>
    <path d="M936 0H656" fill="transparent" stroke="black" stroke-width="0.1"/>
    <path d="M938 0H656" fill="transparent" stroke="black" stroke-width="0.1"/>
    <path d="M940 0H656" fill="transparent" stroke="black" stroke-width="0.1"/>
    <path d="M942 0H656" fill="transparent" stroke="black" stroke-width="0.1"/>
    <path d="M944 0H656" fill="transparent" stroke="black" stroke-width="0.1"/>
    <path d="M946 0H656" fill="transparent" stroke="black" stroke-width="0.1"/>
    <path d="M948 0H656" fill="transparent" stroke="black" stroke-width="0.1"/>
    <path d="M950 0H656" fill="transparent" stroke="black" stroke-width="0.1"/>
    <path d="M952 0H656" fill="transparent" stroke="black" stroke-width="0.1"/>
    <path d="M954 0H656" fill="transparent" stroke="black" stroke-width="0.1"/>
    <path d="M956 0H656" fill="transparent" stroke="black" stroke-width="0.1"/>
    <path d="M958 0H656" fill="transparent" stroke="black" stroke-width="0.1"/>
    <path d="M960 0H656" fill="transparent" stroke="black" stroke-width="0.1"/>
    <path d="M962 0H656" fill="transparent" stroke="black" stroke-width="0.1"/>
    <path d="M964 0H656" fill="transparent" stroke="black" stroke-width="0.1"/>
    <path d="M966 0H656" fill="transparent" stroke="black" stroke-width="0.1"/>
    <path d="M968 0H656" fill="transparent" stroke="black" stroke-width="0.1"/>
    <path d="M970 0H656" fill="transparent" stroke="black" stroke-width="0.1"/>
    <path d="M972 0H656" fill="transparent" stroke="black" stroke-width="0.1"/>
    <path d="M974 0H656" fill="transparent" stroke="black" stroke-width="0.1"/>
    <path d="M976 0H656" fill="transparent" stroke="black" stroke-width="0.1"/>
    <path d="M978 0H656" fill="transparent" stroke="black" stroke-width="0.1"/>
    <path d="M980 0H656" fill="transparent" stroke="black" stroke-width="0.1"/>
    <path d="M982 0H656" fill="transparent" stroke="black" stroke-width="0.1"/>
    <path d="M984 0H656" fill="transparent" stroke="black" stroke-width="0.1"/>
    <path d="M986 0H656" fill="transparent" stroke="black" stroke-width="0.1"/>
    <path d="M988 0H656" fill="transparent" stroke="black" stroke-width="0.1"/>
    <path d="M990 0H656" fill="transparent" stroke="black" stroke-width="0.1"/>
    <path d="M992 0H656" fill="transparent" stroke="black" stroke-width="0.1"/>
    <path d="M994 0H656" fill="transparent" stroke="black" stroke-width="0.1"/>
    <path d="M996 0H656" fill="transparent" stroke="black" stroke-width="0.1"/>
    <path d="M998 0H656" fill="transparent" stroke="black" stroke-width="0.1"/>
    <path d="M1000 0H656" fill="transparent" stroke="black" stroke-width="0.1"/>
    <path d="M1002 0H656" fill="transparent" stroke="black" stroke-width="0.1"/>
    <path d="M1004 0H656" fill="transparent" stroke="black" stroke-width="0.1"/>
    <path d="M1006 0H656" fill="transparent" stroke="black" stroke-width="0.1"/>
    <path d="M1008 0H656" fill="transparent" stroke="black" stroke-width="0.1"/>
    <path d="M1010 0H656" fill="transparent" stroke="black" stroke-width="0.1"/>
    <path d="M1012 0H656" fill="transparent" stroke="black" stroke-width="0.1"/>
    <path d="M1014 0H656" fill="transparent" stroke="black" stroke-width="0.1"/>
    <path d="M1016 0H656" fill="transparent" stroke="black" stroke-width="0.1"/>
    <path d="M1018 0H656" fill="transparent" stroke="black" stroke-width="0.1"/>
    <path d="M1020 0H656" fill="transparent" stroke="black" stroke-width="0.1"/>
    <path d="M1022 0H656" fill="transparent" stroke="black" stroke-width="0.1"/>
    <path d="M1024 0H656" fill="transparent" stroke="black" stroke-width="0.1"/>
  </g>
</svg>
