<svg xmlns="http://www.w3.org/2000/svg" version="1.1" width="1024" height="656">
<rect x="0" y="0" width="1024" height="656" fill="#000000" />
<g transform="scale(4.000000) translate(0.5 0.5)">
<path stroke="#323232" stroke-opacity="0.501961" fill="none" d="M 72.509202 74.347196 Q 82.296010 45.532333, 82.660605 40.324632" stroke-width="0.500000" />
<path stroke="#1f1f1f" stroke-opacity="0.501961" fill="none" d="M 51.565588 79.387769 Q 72.441387 75.098710, 94.075033 69.391320" stroke-width="0.500000" />
<path stroke="#282828" stroke-opacity="0.501961" fill="none" d="M 78.920659 55.634363 Q 69.754997 72.539332, 84.040316 74.148628" stroke-width="0.500000" />
<path stroke="#2c2c2c" stroke-opacity="0.501961" fill="none" d="M 81.508588 46.950590 Q 73.540286 68.662786, 75.422690 74.900924" stroke-width="0.500000" />
<path stroke="#272727" stroke-opacity="0.501961" fill="none" d="M 76.685032 75.673369 Q 70.431039 72.749211, 84.102796 43.537075" stroke-width="0.500000" />
<path stroke="#202020" stroke-opacity="0.501961" fill="none" d="M 59.492870 78.679096 Q 78.754233 74.023363, 82.624188 42.836467" stroke-width="0.500000" />
<path stroke="#2c2c2c" stroke-opacity="0.501961" fill="none" d="M 176.665186 61.225048 Q 176.065855 58.594613, 161.185534 59.662848" stroke-width="0.500000" />
<path stroke="#222222" stroke-opacity="0.501961" fill="none" d="M 166.893015 34.666722 Q 165.843470 31.369267, 165.406972 22.125736" stroke-width="0.500000" />
<path stroke="#252525" stroke-opacity="0.501961" fill="none" d="M 65.401284 73.696219 Q 77.741926 72.996470, 83.923903 72.925439" stroke-width="0.500000" />
<path stroke="#2c2c2c" stroke-opacity="0.501961" fill="none" d="M 31.234859 55.884416 Q 27.020236 62.419760, 24.204528 61.294435" stroke-width="0.500000" />
<path stroke="#171717" stroke-opacity="0.501961" fill="none" d="M 46.021724 89.283576 Q 31.003855 78.289123, 25.152505 91.272287" stroke-width="0.500000" />
<path stroke="#262626" stroke-opacity="0.501961" fill="none" d="M 90.962216 69.083340 Q 84.926790 70.891077, 75.430730 74.425023" stroke-width="0.500000" />
<path stroke="#252525" stroke-opacity="0.501961" fill="none" d="M 80.192717 61.435743 Q 81.797121 73.696931, 73.893893 74.509919" stroke-width="0.500000" />
<path stroke="#1d1d1d" stroke-opacity="0.501961" fill="none" d="M 25.182027 97.415746 Q 22.332964 90.408844, 31.132347 83.968102" stroke-width="0.500000" />
<path stroke="#141414" stroke-opacity="0.501961" fill="none" d="M 165.758090 44.402019 Q 165.163348 9.987678, 165.765721 4.843950" stroke-width="0.500000" />
<path stroke="#2f2f2f" stroke-opacity="0.501961" fill="none" d="M 77.821642 73.111600 Q 78.786302 70.347606, 84.047541 73.030467" stroke-width="0.500000" />
<path stroke="#292929" stroke-opacity="0.501961" fill="none" d="M 77.686554 56.998977 Q 76.497210 73.776856, 60.915474 77.811849" stroke-width="0.500000" />
<path stroke="#434343" stroke-opacity="0.501961" fill="none" d="M 163.140873 58.938783 Q 165.287528 60.344686, 171.013951 58.499339" stroke-width="0.500000" />
<path stroke="#181818" stroke-opacity="0.501961" fill="none" d="M 177.407087 38.197184 Q 161.928662 38.531177, 165.124909 17.037068" stroke-width="0.500000" />
<path stroke="#202020" stroke-opacity="0.501961" fill="none" d="M 167.910587 19.275964 Q 164.411751 22.550694, 164.955107 32.484249" stroke-width="0.500000" />
<path stroke="#252525" stroke-opacity="0.501961" fill="none" d="M 89.290760 72.450892 Q 74.791118 70.526460, 75.089569 76.659393" stroke-width="0.500000" />
<path stroke="#1c1c1c" stroke-opacity="0.501961" fill="none" d="M 175.888489 37.730193 Q 165.512082 37.004283, 165.367919 32.098834" stroke-width="0.500000" />
<path stroke="#3b3b3b" stroke-opacity="0.501961" fill="none" d="M 27.917705 57.030428 Q 28.756981 60.869680, 26.397418 61.021869" stroke-width="0.500000" />
<path stroke="#4d4d4d" stroke-opacity="0.501961" fill="none" d="M 161.642467 59.552693 Q 166.354168 59.396094, 167.677742 59.525182" stroke-width="0.500000" />
<path stroke="#141414" stroke-opacity="0.501961" fill="none" d="M 189.893549 45.729919 Q 189.867673 37.557513, 198.455086 38.194739" stroke-width="0.500000" />
<path stroke="#0e0e0e" stroke-opacity="0.501961" fill="none" d="M 96.580487 25.482072 Q 94.490825 28.934986, 101.685937 44.569443" stroke-width="0.500000" />
<path stroke="#161616" stroke-opacity="0.501961" fill="none" d="M 42.300775 87.780356 Q 26.358544 78.154289, 24.026576 94.561367" stroke-width="0.500000" />
<path stroke="#1b1b1b" stroke-opacity="0.501961" fill="none" d="M 175.972820 38.498874 Q 161.756414 38.135471, 166.394919 20.889898" stroke-width="0.500000" />
<path stroke="#1e1e1e" stroke-opacity="0.501961" fill="none" d="M 167.860591 36.313619 Q 170.612884 35.335983, 175.789172 39.151653" stroke-width="0.500000" />
<path stroke="#2d2d2d" stroke-opacity="0.501961" fill="none" d="M 27.398796 55.110485 Q 28.284312 55.719110, 28.961264 58.786412" stroke-width="0.500000" />
<path stroke="#242424" stroke-opacity="0.501961" fill="none" d="M 61.715765 77.918589 Q 77.390881 70.913971, 79.056833 53.529570" stroke-width="0.500000" />
<path stroke="#282828" stroke-opacity="0.501961" fill="none" d="M 80.873548 56.313988 Q 77.121283 58.035097, 74.047521 70.828044" stroke-width="0.500000" />
<path stroke="#1f1f1f" stroke-opacity="0.501961" fill="none" d="M 67.633089 75.985480 Q 84.115039 72.721009, 84.421709 69.292797" stroke-width="0.500000" />
<path stroke="#0a0a0a" stroke-opacity="0.501961" fill="none" d="M 70.541934 77.021110 Q 87.573989 58.589281, 91.843094 30.070146" stroke-width="0.500000" />
<path stroke="#1a1a1a" stroke-opacity="0.501961" fill="none" d="M 89.661321 40.050866 Q 89.684592 36.649087, 92.981594 29.299677" stroke-width="0.500000" />
<path stroke="#0a0a0a" stroke-opacity="0.501961" fill="none" d="M 123.350421 10.745612 Q 101.718182 20.199638, 97.058264 -4.908067" stroke-width="0.500000" />
<path stroke="#1f1f1f" stroke-opacity="0.501961" fill="none" d="M 164.187194 17.316254 Q 166.732264 26.919855, 164.456363 27.988290" stroke-width="0.500000" />
<path stroke="#000000" stroke-opacity="0.501961" fill="none" d="M 131.299008 78.567706 Q 113.031084 62.185344, 62.068071 74.154782" stroke-width="0.500000" />
<path stroke="#000000" stroke-opacity="0.501961" fill="none" d="M 152.518556 89.652777 Q 71.858223 85.268394, 78.511393 33.057801" stroke-width="0.500000" />
<path stroke="#252525" stroke-opacity="0.501961" fill="none" d="M 80.587175 66.366137 Q 77.359652 63.549226, 75.486313 64.587736" stroke-width="0.500000" />
<path stroke="#161616" stroke-opacity="0.501961" fill="none" d="M 168.938283 59.219221 Q 157.613808 56.189519, 156.478896 58.175419" stroke-width="0.500000" />
<path stroke="#252525" stroke-opacity="0.501961" fill="none" d="M 200.817417 68.418420 Q 199.116822 68.624661, 198.760774 66.631408" stroke-width="0.500000" />
<path stroke="#232323" stroke-opacity="0.501961" fill="none" d="M 83.752502 40.742449 Q 78.197909 57.433469, 74.934365 66.414453" stroke-width="0.500000" />
<path stroke="#000000" stroke-opacity="0.501961" fill="none" d="M 82.298562 57.624594 Q 67.448230 32.906766, 86.841443 29.561364" stroke-width="0.500000" />
<path stroke="#0d0d0d" stroke-opacity="0.501961" fill="none" d="M 125.074401 14.429092 Q 124.485907 16.918202, 101.029902 10.256484" stroke-width="0.500000" />
<path stroke="#0e0e0e" stroke-opacity="0.501961" fill="none" d="M 94.103348 5.626331 Q 96.625850 8.485677, 117.353333 14.948399" stroke-width="0.500000" />
<path stroke="#1c1c1c" stroke-opacity="0.501961" fill="none" d="M 23.196098 93.714406 Q 26.192618 91.246488, 28.717309 84.029497" stroke-width="0.500000" />
<path stroke="#1c1c1c" stroke-opacity="0.501961" fill="none" d="M 253.695561 117.837071 Q 267.706190 113.546711, 271.000000 121.664428" stroke-width="0.500000" />
<path stroke="#000000" stroke-opacity="0.501961" fill="none" d="M 63.064480 81.169629 Q 150.035266 14.191154, 197.860419 14.574956" stroke-width="0.500000" />
<path stroke="#151515" stroke-opacity="0.501961" fill="none" d="M 85.041973 59.605996 Q 73.928390 70.161214, 80.223520 76.588478" stroke-width="0.500000" />
<path stroke="#090909" stroke-opacity="0.501961" fill="none" d="M 5.854769 146.897950 Q 16.543347 154.470158, 19.782019 150.364756" stroke-width="0.500000" />
<path stroke="#262626" stroke-opacity="0.501961" fill="none" d="M 29.778638 56.579508 Q 26.282077 62.277901, 26.666637 66.414048" stroke-width="0.500000" />
<path stroke="#323232" stroke-opacity="0.501961" fill="none" d="M 27.163127 87.429281 Q 25.144883 89.335860, 24.615746 91.499508" stroke-width="0.500000" />
<path stroke="#1e1e1e" stroke-opacity="0.501961" fill="none" d="M 108.854605 11.311521 Q 112.992729 12.816685, 113.875626 13.160289" stroke-width="0.500000" />
<path stroke="#232323" stroke-opacity="0.501961" fill="none" d="M 173.508285 54.320964 Q 172.774414 60.536747, 161.350589 58.643087" stroke-width="0.500000" />
<path stroke="#101010" stroke-opacity="0.501961" fill="none" d="M 199.043156 66.923223 Q 203.808418 73.172520, 200.616054 80.280742" stroke-width="0.500000" />
<path stroke="#010101" stroke-opacity="0.501961" fill="none" d="M 130.196508 22.462572 Q 80.011718 35.965153, 65.030852 78.165044" stroke-width="0.500000" />
<path stroke="#212121" stroke-opacity="0.501961" fill="none" d="M 76.996359 61.530121 Q 79.917486 53.337546, 82.916749 44.490465" stroke-width="0.500000" />
<path stroke="#000000" stroke-opacity="0.501961" fill="none" d="M 62.044532 81.412804 Q 92.618412 72.098344, 71.219172 8.682003" stroke-width="0.500000" />
<path stroke="#101010" stroke-opacity="0.501961" fill="none" d="M 31.211406 83.511582 Q 30.544991 86.944371, 44.496368 87.724752" stroke-width="0.500000" />
<path stroke="#131313" stroke-opacity="0.501961" fill="none" d="M 186.947247 44.492764 Q 186.838554 39.566922, 195.767673 38.293316" stroke-width="0.500000" />
<path stroke="#1a1a1a" stroke-opacity="0.501961" fill="none" d="M 165.180788 33.825054 Q 166.324380 12.915841, 163.626301 10.671517" stroke-width="0.500000" />
<path stroke="#000000" stroke-opacity="0.501961" fill="none" d="M 220.682549 55.554595 Q 194.150966 42.001645, 153.309863 27.159104" stroke-width="0.500000" />
<path stroke="#242424" stroke-opacity="0.501961" fill="none" d="M 80.557075 61.594504 Q 80.314427 74.328705, 76.079091 74.349129" stroke-width="0.500000" />
<path stroke="#151515" stroke-opacity="0.501961" fill="none" d="M 16.686882 151.521984 Q 18.766512 151.774917, 22.847878 150.493112" stroke-width="0.500000" />
<path stroke="#252525" stroke-opacity="0.501961" fill="none" d="M 24.171904 64.586160 Q 29.390936 57.923537, 28.768795 55.430395" stroke-width="0.500000" />
<path stroke="#000000" stroke-opacity="0.501961" fill="none" d="M 88.239747 76.671947 Q 92.926365 59.530453, 74.944774 24.570621" stroke-width="0.500000" />
<path stroke="#000000" stroke-opacity="0.501961" fill="none" d="M 271.000000 52.399655 Q 264.630993 50.603061, 47.842282 74.049291" stroke-width="0.500000" />
<path stroke="#0b0b0b" stroke-opacity="0.501961" fill="none" d="M 83.534646 24.825703 Q 97.601514 20.339054, 101.324459 44.782180" stroke-width="0.500000" />
<path stroke="#151515" stroke-opacity="0.501961" fill="none" d="M 126.213740 92.767540 Q 124.574230 92.867140, 124.423956 91.425407" stroke-width="0.500000" />
<path stroke="#000000" stroke-opacity="0.501961" fill="none" d="M 69.408690 83.741317 Q 75.737580 32.795297, 116.725174 1.618827" stroke-width="0.500000" />
<path stroke="#000000" stroke-opacity="0.501961" fill="none" d="M 24.386566 55.300421 Q 57.978608 60.153348, 82.630904 56.851132" stroke-width="0.500000" />
<path stroke="#0e0e0e" stroke-opacity="0.501961" fill="none" d="M 39.590881 115.193162 Q 44.287851 117.325049, 45.349955 113.915837" stroke-width="0.500000" />
<path stroke="#161616" stroke-opacity="0.501961" fill="none" d="M 193.318060 37.691914 Q 198.284262 39.483862, 199.558278 39.457702" stroke-width="0.500000" />
<path stroke="#111111" stroke-opacity="0.501961" fill="none" d="M 19.922543 118.515805 Q 16.113244 116.573273, 14.768961 119.522421" stroke-width="0.500000" />
<path stroke="#0b0b0b" stroke-opacity="0.501961" fill="none" d="M 97.195800 28.809956 Q 97.852950 35.578532, 102.915998 50.097738" stroke-width="0.500000" />
<path stroke="#000000" stroke-opacity="0.501961" fill="none" d="M 83.770474 51.718153 Q 74.806105 52.149918, 4.864918 111.001256" stroke-width="0.500000" />
<path stroke="#111111" stroke-opacity="0.501961" fill="none" d="M 165.966553 10.579793 Q 162.242603 14.096954, 166.547216 18.168784" stroke-width="0.500000" />
<path stroke="#010101" stroke-opacity="0.501961" fill="none" d="M 172.019806 67.930677 Q 181.693601 6.593927, 90.558147 6.231757" stroke-width="0.500000" />
<path stroke="#121212" stroke-opacity="0.501961" fill="none" d="M 99.339810 6.914856 Q 109.914281 13.976984, 115.230353 13.409789" stroke-width="0.500000" />
<path stroke="#121212" stroke-opacity="0.501961" fill="none" d="M 39.401551 84.433188 Q 35.631165 87.584530, 31.225286 83.968291" stroke-width="0.500000" />
<path stroke="#171717" stroke-opacity="0.501961" fill="none" d="M 89.891059 37.837436 Q 90.372642 28.380784, 98.617449 30.428566" stroke-width="0.500000" />
<path stroke="#000000" stroke-opacity="0.501961" fill="none" d="M 34.774697 86.212694 Q 228.121998 38.993899, 237.323647 15.515772" stroke-width="0.500000" />
<path stroke="#000000" stroke-opacity="0.501961" fill="none" d="M 164.063373 0.580874 Q 170.044227 35.521003, 177.748209 74.049314" stroke-width="0.500000" />
<path stroke="#0f0f0f" stroke-opacity="0.501961" fill="none" d="M 208.032841 37.277192 Q 203.396566 34.184544, 190.298801 40.670078" stroke-width="0.500000" />
<path stroke="#000000" stroke-opacity="0.501961" fill="none" d="M 211.467396 -16.000000 Q 84.314347 86.883998, 63.352106 69.186540" stroke-width="0.500000" />
<path stroke="#0f0f0f" stroke-opacity="0.501961" fill="none" d="M 87.405082 47.515790 Q 87.339299 44.081534, 92.668949 31.461846" stroke-width="0.500000" />
<path stroke="#191919" stroke-opacity="0.501961" fill="none" d="M 28.423327 161.053852 Q 26.415694 167.626770, 45.855135 179.000000" stroke-width="0.500000" />
<path stroke="#000000" stroke-opacity="0.501961" fill="none" d="M 77.859613 65.073401 Q 87.280975 52.201259, 178.552796 15.454440" stroke-width="0.500000" />
<path stroke="#000000" stroke-opacity="0.501961" fill="none" d="M -16.000000 30.457746 Q 94.204472 100.251700, 8.455719 160.875168" stroke-width="0.500000" />
<path stroke="#313131" stroke-opacity="0.501961" fill="none" d="M 85.519009 73.023115 Q 76.391350 71.018595, 75.120655 74.524579" stroke-width="0.500000" />
<path stroke="#000000" stroke-opacity="0.501961" fill="none" d="M 68.496045 57.786781 Q 67.306485 106.118130, 27.357965 85.759277" stroke-width="0.500000" />
<path stroke="#000000" stroke-opacity="0.501961" fill="none" d="M 167.549817 15.198459 Q 144.959558 63.820314, 179.292873 72.237911" stroke-width="0.500000" />
<path stroke="#0e0e0e" stroke-opacity="0.501961" fill="none" d="M 100.452257 10.309182 Q 112.916802 10.324065, 118.338492 19.597188" stroke-width="0.500000" />
<path stroke="#1e1e1e" stroke-opacity="0.501961" fill="none" d="M 197.148365 39.716253 Q 194.270696 39.229531, 194.336512 36.790631" stroke-width="0.500000" />
<path stroke="#000000" stroke-opacity="0.501961" fill="none" d="M 166.111411 63.779589 Q 115.019125 20.750673, 78.802576 53.902716" stroke-width="0.500000" />
<path stroke="#0f0f0f" stroke-opacity="0.501961" fill="none" d="M 73.267571 69.381669 Q 66.647194 82.520167, 48.129905 77.449700" stroke-width="0.500000" />
<path stroke="#0e0e0e" stroke-opacity="0.501961" fill="none" d="M 20.751906 90.223772 Q 31.950355 83.286751, 36.388233 85.925375" stroke-width="0.500000" />
<path stroke="#000000" stroke-opacity="0.501961" fill="none" d="M 165.774480 18.570311 Q 100.774753 155.305834, -16.000000 46.386458" stroke-width="0.500000" />
<path stroke="#000000" stroke-opacity="0.501961" fill="none" d="M 85.098678 39.170944 Q 40.660626 92.619910, 131.653981 168.986990" stroke-width="0.500000" />
</g>
</svg>