<svg xmlns="http://www.w3.org/2000/svg" version="1.1" width="1024" height="656">
<rect x="0" y="0" width="1024" height="656" fill="#010101" />
<g transform="scale(4.000000) translate(0.5 0.5)">
<path stroke="#5e5e5e" stroke-opacity="0.501961" fill="none" d="M 253.876222 100.504634 Q 234.274259 81.969259, 245.924967 73.069297" stroke-width="0.500000" />
<path stroke="#373737" stroke-opacity="0.501961" fill="none" d="M 243.348733 66.939731 Q 255.500515 111.553812, 253.276221 161.510424" stroke-width="0.500000" />
<path stroke="#5e5e5e" stroke-opacity="0.501961" fill="none" d="M 238.769955 77.793222 Q 243.885647 101.190093, 255.414367 100.012435" stroke-width="0.500000" />
<path stroke="#5a5a5a" stroke-opacity="0.501961" fill="none" d="M 250.473931 100.715271 Q 240.442645 85.308861, 271.000000 55.751934" stroke-width="0.500000" />
<path stroke="#5e5e5e" stroke-opacity="0.501961" fill="none" d="M 240.327221 79.328359 Q 244.784990 100.679619, 271.000000 114.218646" stroke-width="0.500000" />
<path stroke="#606060" stroke-opacity="0.501961" fill="none" d="M 247.463467 71.846586 Q 255.136746 87.407330, 244.815682 95.114003" stroke-width="0.500000" />
<path stroke="#525252" stroke-opacity="0.501961" fill="none" d="M 243.289218 97.667074 Q 255.290409 91.741201, 249.531680 73.945894" stroke-width="0.500000" />
<path stroke="#545454" stroke-opacity="0.501961" fill="none" d="M 247.891813 74.411731 Q 237.528359 101.033617, 268.340005 98.453121" stroke-width="0.500000" />
<path stroke="#505050" stroke-opacity="0.501961" fill="none" d="M 246.510340 97.432908 Q 244.111261 94.647097, 251.892289 72.090535" stroke-width="0.500000" />
<path stroke="#404040" stroke-opacity="0.501961" fill="none" d="M 37.028118 58.625279 Q 33.232241 71.559141, 49.712844 77.224243" stroke-width="0.500000" />
<path stroke="#525252" stroke-opacity="0.501961" fill="none" d="M 246.239019 73.370779 Q 238.894913 92.886416, 251.411010 99.243406" stroke-width="0.500000" />
<path stroke="#2f2f2f" stroke-opacity="0.501961" fill="none" d="M 251.722487 77.301626 Q 254.480987 91.780443, 252.871401 157.558939" stroke-width="0.500000" />
<path stroke="#3f3f3f" stroke-opacity="0.501961" fill="none" d="M 251.035833 70.871939 Q 235.881908 94.641756, 271.000000 101.947272" stroke-width="0.500000" />
<path stroke="#4b4b4b" stroke-opacity="0.501961" fill="none" d="M 271.000000 98.830655 Q 242.018078 101.423826, 239.522572 84.062726" stroke-width="0.500000" />
<path stroke="#535353" stroke-opacity="0.501961" fill="none" d="M 242.375589 74.769158 Q 265.580514 91.177440, 271.000000 86.345934" stroke-width="0.500000" />
<path stroke="#3d3d3d" stroke-opacity="0.501961" fill="none" d="M 34.368333 73.068719 Q 30.541029 67.252299, 44.017270 49.232403" stroke-width="0.500000" />
<path stroke="#333333" stroke-opacity="0.501961" fill="none" d="M -16.000000 63.591619 Q 31.521167 69.279782, 40.416926 72.992443" stroke-width="0.500000" />
<path stroke="#444444" stroke-opacity="0.501961" fill="none" d="M 250.857447 99.869825 Q 243.669810 73.379957, 271.000000 62.388842" stroke-width="0.500000" />
<path stroke="#4e4e4e" stroke-opacity="0.501961" fill="none" d="M 242.267327 78.977354 Q 241.198634 100.101360, 253.014339 99.051794" stroke-width="0.500000" />
<path stroke="#303030" stroke-opacity="0.501961" fill="none" d="M 32.587597 56.189285 Q 32.769637 71.876568, 46.443526 80.481916" stroke-width="0.500000" />
<path stroke="#2e2e2e" stroke-opacity="0.501961" fill="none" d="M 252.958479 147.397474 Q 253.961224 102.538236, 239.773600 78.144624" stroke-width="0.500000" />
<path stroke="#252525" stroke-opacity="0.501961" fill="none" d="M 2.614714 63.611245 Q 39.303096 79.082066, 51.271671 49.642987" stroke-width="0.500000" />
<path stroke="#464646" stroke-opacity="0.501961" fill="none" d="M 250.772777 100.699087 Q 245.666864 94.479165, 261.821133 66.453273" stroke-width="0.500000" />
<path stroke="#424242" stroke-opacity="0.501961" fill="none" d="M 241.689169 75.337444 Q 236.197918 98.387663, 256.544544 96.464701" stroke-width="0.500000" />
<path stroke="#3d3d3d" stroke-opacity="0.501961" fill="none" d="M 92.563932 9.370585 Q 96.175091 25.194596, 95.271070 25.951599" stroke-width="0.500000" />
<path stroke="#494949" stroke-opacity="0.501961" fill="none" d="M 248.352996 90.841350 Q 259.548467 81.144446, 248.330336 75.718964" stroke-width="0.500000" />
<path stroke="#404040" stroke-opacity="0.501961" fill="none" d="M 244.108796 73.772003 Q 243.852257 89.716069, 271.000000 115.595478" stroke-width="0.500000" />
<path stroke="#454545" stroke-opacity="0.501961" fill="none" d="M 246.842368 98.367890 Q 246.421359 91.926222, 251.858876 72.517954" stroke-width="0.500000" />
<path stroke="#2f2f2f" stroke-opacity="0.501961" fill="none" d="M 39.643096 45.248841 Q 45.803745 53.433931, 33.306231 69.563493" stroke-width="0.500000" />
<path stroke="#2b2b2b" stroke-opacity="0.501961" fill="none" d="M -16.000000 67.053136 Q 39.392383 65.448918, 46.596456 77.158362" stroke-width="0.500000" />
<path stroke="#4d4d4d" stroke-opacity="0.501961" fill="none" d="M 237.986290 80.214397 Q 243.959906 73.296741, 253.413752 77.782928" stroke-width="0.500000" />
<path stroke="#353535" stroke-opacity="0.501961" fill="none" d="M 93.977853 11.145200 Q 95.790365 6.911463, 112.295206 13.653496" stroke-width="0.500000" />
<path stroke="#292929" stroke-opacity="0.501961" fill="none" d="M 29.695076 47.122403 Q 32.151414 74.990770, 53.453796 76.449917" stroke-width="0.500000" />
<path stroke="#4b4b4b" stroke-opacity="0.501961" fill="none" d="M 32.261621 58.350158 Q 40.411402 59.865758, 33.528649 70.448924" stroke-width="0.500000" />
<path stroke="#2b2b2b" stroke-opacity="0.501961" fill="none" d="M 41.826303 51.397169 Q 51.300885 57.765528, 36.735300 76.822316" stroke-width="0.500000" />
<path stroke="#454545" stroke-opacity="0.501961" fill="none" d="M 254.709608 101.282153 Q 238.196082 89.342866, 241.267354 77.614559" stroke-width="0.500000" />
<path stroke="#1f1f1f" stroke-opacity="0.501961" fill="none" d="M -9.053063 69.363383 Q 1.151935 78.533368, 65.505851 56.070804" stroke-width="0.500000" />
<path stroke="#2e2e2e" stroke-opacity="0.501961" fill="none" d="M 249.716564 100.733682 Q 231.228951 54.398969, 211.688537 56.356167" stroke-width="0.500000" />
<path stroke="#3c3c3c" stroke-opacity="0.501961" fill="none" d="M 237.075453 78.717457 Q 263.291091 111.854817, 271.000000 108.442588" stroke-width="0.500000" />
<path stroke="#292929" stroke-opacity="0.501961" fill="none" d="M 252.460192 146.588641 Q 259.269165 80.995795, 242.572243 71.367201" stroke-width="0.500000" />
<path stroke="#1e1e1e" stroke-opacity="0.501961" fill="none" d="M 72.261174 32.229932 Q 36.777041 21.877239, 34.005774 71.521059" stroke-width="0.500000" />
<path stroke="#444444" stroke-opacity="0.501961" fill="none" d="M 238.494826 79.285929 Q 256.580456 73.753309, 261.299316 96.437781" stroke-width="0.500000" />
<path stroke="#303030" stroke-opacity="0.501961" fill="none" d="M 189.657897 37.319805 Q 180.173824 37.104579, 173.880738 24.929899" stroke-width="0.500000" />
<path stroke="#454545" stroke-opacity="0.501961" fill="none" d="M 243.580467 95.517218 Q 255.733712 84.188011, 250.956557 75.467457" stroke-width="0.500000" />
<path stroke="#232323" stroke-opacity="0.501961" fill="none" d="M 40.792967 43.280189 Q 44.178071 58.330901, 46.512370 80.602725" stroke-width="0.500000" />
<path stroke="#323232" stroke-opacity="0.501961" fill="none" d="M 253.255788 147.404598 Q 248.430051 121.044052, 266.874816 103.384390" stroke-width="0.500000" />
<path stroke="#323232" stroke-opacity="0.501961" fill="none" d="M 3.829445 74.111171 Q -3.072467 48.288195, -16.000000 37.319226" stroke-width="0.500000" />
<path stroke="#1a1a1a" stroke-opacity="0.501961" fill="none" d="M 76.268477 33.664964 Q 47.062365 16.934640, 33.876462 51.755618" stroke-width="0.500000" />
<path stroke="#353535" stroke-opacity="0.501961" fill="none" d="M 34.180756 72.634230 Q 32.349199 64.070744, 48.576890 59.085420" stroke-width="0.500000" />
<path stroke="#2a2a2a" stroke-opacity="0.501961" fill="none" d="M 96.395674 30.131729 Q 90.624339 11.424066, 98.421562 8.968985" stroke-width="0.500000" />
<path stroke="#262626" stroke-opacity="0.501961" fill="none" d="M 45.649461 73.311896 Q 21.947023 68.738423, -3.525319 66.103047" stroke-width="0.500000" />
<path stroke="#333333" stroke-opacity="0.501961" fill="none" d="M 100.926315 9.240422 Q 107.500538 13.573464, 114.470042 9.525100" stroke-width="0.500000" />
<path stroke="#1d1d1d" stroke-opacity="0.501961" fill="none" d="M 18.315956 76.083173 Q 37.139011 33.893537, 53.760159 32.193824" stroke-width="0.500000" />
<path stroke="#3d3d3d" stroke-opacity="0.501961" fill="none" d="M 265.485795 70.323784 Q 232.974321 74.713944, 250.117627 100.246638" stroke-width="0.500000" />
<path stroke="#565656" stroke-opacity="0.501961" fill="none" d="M 260.703431 28.292188 Q 271.000000 90.389991, 248.270729 100.776313" stroke-width="0.500000" />
<path stroke="#3d3d3d" stroke-opacity="0.501961" fill="none" d="M 265.893418 66.951883 Q 239.167298 90.533184, 246.033544 97.174644" stroke-width="0.500000" />
<path stroke="#202020" stroke-opacity="0.501961" fill="none" d="M -4.199429 74.514858 Q 30.432396 72.675653, 46.012780 51.753710" stroke-width="0.500000" />
<path stroke="#2b2b2b" stroke-opacity="0.501961" fill="none" d="M 188.892538 33.521273 Q 182.847450 38.266962, 177.289168 27.985071" stroke-width="0.500000" />
<path stroke="#424242" stroke-opacity="0.501961" fill="none" d="M 251.844150 99.403516 Q 241.895079 100.910478, 241.544339 75.845777" stroke-width="0.500000" />
<path stroke="#2e2e2e" stroke-opacity="0.501961" fill="none" d="M 36.600021 58.188981 Q 33.354497 80.501818, 47.976462 79.723897" stroke-width="0.500000" />
<path stroke="#303030" stroke-opacity="0.501961" fill="none" d="M 49.595592 61.070785 Q 48.434007 51.276371, 39.047972 51.242293" stroke-width="0.500000" />
<path stroke="#1a1a1a" stroke-opacity="0.501961" fill="none" d="M 220.493618 48.904295 Q 238.762883 66.236056, 259.627947 54.191745" stroke-width="0.500000" />
<path stroke="#333333" stroke-opacity="0.501961" fill="none" d="M 253.668862 149.306807 Q 253.289165 141.295748, 253.166850 118.465288" stroke-width="0.500000" />
<path stroke="#404040" stroke-opacity="0.501961" fill="none" d="M 239.146808 81.631395 Q 264.077977 73.447397, 271.000000 73.745746" stroke-width="0.500000" />
<path stroke="#282828" stroke-opacity="0.501961" fill="none" d="M 173.126792 35.149660 Q 175.614577 34.331121, 175.098068 21.832368" stroke-width="0.500000" />
<path stroke="#181818" stroke-opacity="0.501961" fill="none" d="M 34.862938 38.200195 Q 72.228897 38.108807, 74.716592 28.082638" stroke-width="0.500000" />
<path stroke="#303030" stroke-opacity="0.501961" fill="none" d="M 218.971828 60.148721 Q 225.865231 58.239445, 226.544331 52.800126" stroke-width="0.500000" />
<path stroke="#393939" stroke-opacity="0.501961" fill="none" d="M 240.939994 76.504974 Q 268.787743 64.205073, 271.000000 99.181957" stroke-width="0.500000" />
<path stroke="#303030" stroke-opacity="0.501961" fill="none" d="M 182.611502 25.291275 Q 172.424392 32.020098, 174.458454 34.547401" stroke-width="0.500000" />
<path stroke="#3b3b3b" stroke-opacity="0.501961" fill="none" d="M 238.944846 86.441938 Q 255.932206 86.542780, 254.525437 100.086752" stroke-width="0.500000" />
<path stroke="#181818" stroke-opacity="0.501961" fill="none" d="M 42.359859 74.987270 Q 16.208444 46.454578, 69.129174 23.952392" stroke-width="0.500000" />
<path stroke="#232323" stroke-opacity="0.501961" fill="none" d="M 62.636816 68.487592 Q 55.049416 76.485887, 43.712982 60.325698" stroke-width="0.500000" />
<path stroke="#242424" stroke-opacity="0.501961" fill="none" d="M 174.389023 26.909639 Q 182.903526 41.829216, 190.919439 38.739952" stroke-width="0.500000" />
<path stroke="#2b2b2b" stroke-opacity="0.501961" fill="none" d="M 44.346894 82.320476 Q 44.377758 76.216258, 32.268831 57.305220" stroke-width="0.500000" />
<path stroke="#2b2b2b" stroke-opacity="0.501961" fill="none" d="M 225.105265 66.408302 Q 224.054652 56.856176, 214.339128 56.860287" stroke-width="0.500000" />
<path stroke="#1f1f1f" stroke-opacity="0.501961" fill="none" d="M 59.222401 71.244240 Q 49.379893 46.385186, 38.219285 52.057393" stroke-width="0.500000" />
<path stroke="#1e1e1e" stroke-opacity="0.501961" fill="none" d="M 68.378379 56.321993 Q 39.437937 60.695038, 38.260415 46.672609" stroke-width="0.500000" />
<path stroke="#2e2e2e" stroke-opacity="0.501961" fill="none" d="M 113.359656 12.886490 Q 114.028821 -6.221868, 113.027832 -7.337261" stroke-width="0.500000" />
<path stroke="#2c2c2c" stroke-opacity="0.501961" fill="none" d="M 178.506921 26.173101 Q 175.809547 35.485818, 187.654275 35.411660" stroke-width="0.500000" />
<path stroke="#414141" stroke-opacity="0.501961" fill="none" d="M 245.778043 83.368085 Q 271.000000 83.364517, 271.000000 65.752249" stroke-width="0.500000" />
<path stroke="#131313" stroke-opacity="0.501961" fill="none" d="M 94.980564 23.697800 Q 83.025817 52.514266, 78.084770 73.280014" stroke-width="0.500000" />
<path stroke="#363636" stroke-opacity="0.501961" fill="none" d="M 18.525237 75.190518 Q 19.114683 69.752464, 26.328669 66.541515" stroke-width="0.500000" />
<path stroke="#363636" stroke-opacity="0.501961" fill="none" d="M 100.881357 8.160150 Q 103.956828 11.316040, 111.513178 12.583874" stroke-width="0.500000" />
<path stroke="#494949" stroke-opacity="0.501961" fill="none" d="M 246.732584 83.215179 Q 253.526894 93.905230, 244.184908 96.848002" stroke-width="0.500000" />
<path stroke="#2d2d2d" stroke-opacity="0.501961" fill="none" d="M 252.852347 128.409920 Q 251.815437 144.943096, 251.256081 148.140619" stroke-width="0.500000" />
<path stroke="#282828" stroke-opacity="0.501961" fill="none" d="M 22.131686 70.559339 Q 15.996616 64.740681, -16.000000 62.427791" stroke-width="0.500000" />
<path stroke="#161616" stroke-opacity="0.501961" fill="none" d="M 77.805261 33.166599 Q 51.205388 14.240413, 28.914463 58.699813" stroke-width="0.500000" />
<path stroke="#202020" stroke-opacity="0.501961" fill="none" d="M 189.418109 36.045304 Q 183.075108 26.374206, 172.092907 28.926712" stroke-width="0.500000" />
<path stroke="#242424" stroke-opacity="0.501961" fill="none" d="M 44.743914 79.421545 Q 27.368925 60.066996, 48.693261 48.518640" stroke-width="0.500000" />
<path stroke="#191919" stroke-opacity="0.501961" fill="none" d="M 236.551348 56.908755 Q 219.331175 55.124310, 216.297028 41.165366" stroke-width="0.500000" />
<path stroke="#282828" stroke-opacity="0.501961" fill="none" d="M 227.201038 53.997595 Q 220.718144 64.571400, 215.164900 55.370543" stroke-width="0.500000" />
<path stroke="#303030" stroke-opacity="0.501961" fill="none" d="M 94.242687 15.411809 Q 93.629226 27.303988, 97.545045 29.136015" stroke-width="0.500000" />
<path stroke="#171717" stroke-opacity="0.501961" fill="none" d="M 53.613108 62.198987 Q 65.387842 32.927755, 38.746271 32.562335" stroke-width="0.500000" />
<path stroke="#222222" stroke-opacity="0.501961" fill="none" d="M 33.578353 68.827413 Q 40.379034 46.314472, 65.067994 56.652040" stroke-width="0.500000" />
<path stroke="#1e1e1e" stroke-opacity="0.501961" fill="none" d="M 34.662025 35.594353 Q 46.137238 59.371832, 55.166958 61.400041" stroke-width="0.500000" />
<path stroke="#262626" stroke-opacity="0.501961" fill="none" d="M 54.148626 58.917970 Q 41.615875 55.255315, 42.421952 45.873628" stroke-width="0.500000" />
<path stroke="#1e1e1e" stroke-opacity="0.501961" fill="none" d="M 22.505184 93.845843 Q 23.239111 100.484524, 37.651948 98.120867" stroke-width="0.500000" />
<path stroke="#232323" stroke-opacity="0.501961" fill="none" d="M 3.004198 63.410364 Q -3.016272 69.799938, 9.882855 77.338218" stroke-width="0.500000" />
<path stroke="#3c3c3c" stroke-opacity="0.501961" fill="none" d="M 242.873863 92.119653 Q 261.063378 84.064210, 260.685944 51.293238" stroke-width="0.500000" />
<path stroke="#383838" stroke-opacity="0.501961" fill="none" d="M 249.488374 73.352281 Q 237.572268 93.632727, 261.029643 101.857420" stroke-width="0.500000" />
</g>
</svg>