<svg xmlns="http://www.w3.org/2000/svg" version="1.1" width="1024" height="656">
<rect x="0" y="0" width="1024" height="656" fill="#030303" />
<g transform="scale(4.000000) translate(0.5 0.5)">
<path stroke="#545454" stroke-opacity="0.501961" fill="none" d="M 238.659989 78.221850 Q 250.281355 106.968815, 271.000000 98.053063" stroke-width="0.500000" />
<path stroke="#4f4f4f" stroke-opacity="0.501961" fill="none" d="M 248.266537 74.822736 Q 241.619561 92.541646, 251.395327 101.029594" stroke-width="0.500000" />
<path stroke="#4e4e4e" stroke-opacity="0.501961" fill="none" d="M 246.121727 97.095921 Q 248.389341 75.022103, 271.000000 55.816579" stroke-width="0.500000" />
<path stroke="#2f2f2f" stroke-opacity="0.501961" fill="none" d="M -16.000000 96.127458 Q 27.880216 46.255933, -8.085520 8.410464" stroke-width="0.500000" />
<path stroke="#373737" stroke-opacity="0.501961" fill="none" d="M 253.467857 143.239232 Q 254.327830 79.415040, 249.949805 74.087165" stroke-width="0.500000" />
<path stroke="#353535" stroke-opacity="0.501961" fill="none" d="M 67.116106 98.177093 Q 61.036470 74.688397, 91.012003 69.190625" stroke-width="0.500000" />
<path stroke="#4d4d4d" stroke-opacity="0.501961" fill="none" d="M 214.202852 83.618461 Q 213.413108 102.664215, 213.511914 107.898898" stroke-width="0.500000" />
<path stroke="#565656" stroke-opacity="0.501961" fill="none" d="M 241.630549 90.927207 Q 256.377146 88.255899, 249.030896 75.803817" stroke-width="0.500000" />
<path stroke="#2d2d2d" stroke-opacity="0.501961" fill="none" d="M 253.798114 164.224194 Q 252.445530 85.290007, 244.857641 75.631477" stroke-width="0.500000" />
<path stroke="#2d2d2d" stroke-opacity="0.501961" fill="none" d="M 78.150805 69.472771 Q 92.862945 45.076338, 100.444424 -16.000000" stroke-width="0.500000" />
<path stroke="#4d4d4d" stroke-opacity="0.501961" fill="none" d="M 131.939366 105.029416 Q 120.224691 103.833487, 126.623383 87.444272" stroke-width="0.500000" />
<path stroke="#424242" stroke-opacity="0.501961" fill="none" d="M 243.669545 72.819561 Q 248.438506 104.620306, 271.000000 101.288445" stroke-width="0.500000" />
<path stroke="#444444" stroke-opacity="0.501961" fill="none" d="M 209.686591 79.904662 Q 214.240640 84.939596, 220.785885 92.968067" stroke-width="0.500000" />
<path stroke="#3f3f3f" stroke-opacity="0.501961" fill="none" d="M 245.518183 97.384439 Q 236.852980 77.765821, 251.123851 72.216977" stroke-width="0.500000" />
<path stroke="#5e5e5e" stroke-opacity="0.501961" fill="none" d="M 126.553472 89.371031 Q 123.663460 99.664888, 124.968590 104.076621" stroke-width="0.500000" />
<path stroke="#232323" stroke-opacity="0.501961" fill="none" d="M 82.932076 37.697237 Q 33.660242 44.093088, 10.865297 71.321545" stroke-width="0.500000" />
<path stroke="#3e3e3e" stroke-opacity="0.501961" fill="none" d="M 40.020463 62.121022 Q 30.188196 51.071021, 15.169964 66.498997" stroke-width="0.500000" />
<path stroke="#525252" stroke-opacity="0.501961" fill="none" d="M 242.819593 75.492394 Q 248.662435 77.523433, 269.484324 93.463475" stroke-width="0.500000" />
<path stroke="#2e2e2e" stroke-opacity="0.501961" fill="none" d="M 2.888138 17.129735 Q 22.388094 51.756108, -15.649590 88.540767" stroke-width="0.500000" />
<path stroke="#242424" stroke-opacity="0.501961" fill="none" d="M 82.295045 36.457904 Q 78.282361 69.266208, 81.139853 106.624943" stroke-width="0.500000" />
<path stroke="#2c2c2c" stroke-opacity="0.501961" fill="none" d="M 46.667079 75.218048 Q -10.860372 51.508633, -16.000000 105.186365" stroke-width="0.500000" />
<path stroke="#2a2a2a" stroke-opacity="0.501961" fill="none" d="M 165.968052 55.128954 Q 179.443696 62.875671, 162.875607 97.962310" stroke-width="0.500000" />
<path stroke="#434343" stroke-opacity="0.501961" fill="none" d="M 251.329632 76.301888 Q 240.380982 91.389843, 271.000000 106.068665" stroke-width="0.500000" />
<path stroke="#323232" stroke-opacity="0.501961" fill="none" d="M 37.561134 56.461128 Q 33.043451 84.749765, 21.339999 93.994136" stroke-width="0.500000" />
<path stroke="#383838" stroke-opacity="0.501961" fill="none" d="M 192.565872 39.722286 Q 174.432140 24.333087, 165.964185 20.790517" stroke-width="0.500000" />
<path stroke="#2c2c2c" stroke-opacity="0.501961" fill="none" d="M 69.687621 99.370919 Q 89.201119 52.198007, 76.459842 30.595310" stroke-width="0.500000" />
<path stroke="#2c2c2c" stroke-opacity="0.501961" fill="none" d="M 239.739551 78.223855 Q 255.471504 110.782442, 252.221530 146.126513" stroke-width="0.500000" />
<path stroke="#2b2b2b" stroke-opacity="0.501961" fill="none" d="M -16.000000 -7.433382 Q 23.583337 47.178459, 4.331789 58.255847" stroke-width="0.500000" />
<path stroke="#2a2a2a" stroke-opacity="0.501961" fill="none" d="M 105.500774 52.821547 Q 73.630497 47.456525, 74.199472 100.740758" stroke-width="0.500000" />
<path stroke="#494949" stroke-opacity="0.501961" fill="none" d="M 98.345554 4.057225 Q 103.065802 2.112335, 112.262207 4.520406" stroke-width="0.500000" />
<path stroke="#444444" stroke-opacity="0.501961" fill="none" d="M 216.843969 103.401899 Q 218.383051 89.065561, 207.697832 90.149570" stroke-width="0.500000" />
<path stroke="#404040" stroke-opacity="0.501961" fill="none" d="M 101.195965 68.558464 Q 102.460768 67.505905, 98.875546 53.208150" stroke-width="0.500000" />
<path stroke="#3e3e3e" stroke-opacity="0.501961" fill="none" d="M 246.552386 73.782742 Q 242.288255 100.284259, 257.544862 100.165790" stroke-width="0.500000" />
<path stroke="#232323" stroke-opacity="0.501961" fill="none" d="M 14.044079 67.544012 Q 62.713540 81.758963, 105.198733 65.105007" stroke-width="0.500000" />
<path stroke="#292929" stroke-opacity="0.501961" fill="none" d="M -13.662472 76.780571 Q 18.033545 74.538231, 39.117628 41.026453" stroke-width="0.500000" />
<path stroke="#323232" stroke-opacity="0.501961" fill="none" d="M 242.884206 74.821937 Q 233.139822 90.090250, 256.368277 104.709286" stroke-width="0.500000" />
<path stroke="#323232" stroke-opacity="0.501961" fill="none" d="M 183.186836 109.743743 Q 191.487450 110.818920, 208.377205 107.801493" stroke-width="0.500000" />
<path stroke="#575757" stroke-opacity="0.501961" fill="none" d="M 131.308068 92.688048 Q 133.726181 102.158187, 128.416539 104.476381" stroke-width="0.500000" />
<path stroke="#292929" stroke-opacity="0.501961" fill="none" d="M 197.768542 42.609035 Q 159.757834 23.985729, 165.220139 9.980476" stroke-width="0.500000" />
<path stroke="#5a5a5a" stroke-opacity="0.501961" fill="none" d="M 160.272486 93.169597 Q 170.071929 89.603828, 170.621903 93.132447" stroke-width="0.500000" />
<path stroke="#2a2a2a" stroke-opacity="0.501961" fill="none" d="M 96.101466 14.201263 Q 90.838618 47.240106, 75.899198 74.540282" stroke-width="0.500000" />
<path stroke="#3f3f3f" stroke-opacity="0.501961" fill="none" d="M 246.266267 96.420925 Q 261.701270 82.378978, 243.989739 72.018913" stroke-width="0.500000" />
<path stroke="#212121" stroke-opacity="0.501961" fill="none" d="M 35.335502 77.303471 Q 30.816524 39.704947, 91.575063 39.041111" stroke-width="0.500000" />
<path stroke="#4d4d4d" stroke-opacity="0.501961" fill="none" d="M 107.908110 89.043972 Q 107.357764 101.285685, 107.776843 104.096087" stroke-width="0.500000" />
<path stroke="#383838" stroke-opacity="0.501961" fill="none" d="M 12.663031 50.449706 Q -16.000000 17.495874, -16.000000 14.602110" stroke-width="0.500000" />
<path stroke="#343434" stroke-opacity="0.501961" fill="none" d="M 61.400223 85.659380 Q 73.061771 81.375701, 84.955849 84.724123" stroke-width="0.500000" />
<path stroke="#232323" stroke-opacity="0.501961" fill="none" d="M 29.531839 49.309701 Q 38.547112 99.649927, 103.227752 61.956697" stroke-width="0.500000" />
<path stroke="#393939" stroke-opacity="0.501961" fill="none" d="M 86.874449 50.716803 Q 97.651043 69.939947, 78.738722 73.397465" stroke-width="0.500000" />
<path stroke="#252525" stroke-opacity="0.501961" fill="none" d="M 162.045320 91.177400 Q 197.005081 104.181651, 219.860271 102.465535" stroke-width="0.500000" />
<path stroke="#3f3f3f" stroke-opacity="0.501961" fill="none" d="M 271.000000 117.927122 Q 258.476055 101.567358, 237.874114 78.856492" stroke-width="0.500000" />
<path stroke="#2e2e2e" stroke-opacity="0.501961" fill="none" d="M 1.641830 11.313476 Q 12.488893 30.926005, 6.172375 58.854160" stroke-width="0.500000" />
<path stroke="#4d4d4d" stroke-opacity="0.501961" fill="none" d="M 130.920274 90.060443 Q 122.756988 92.894023, 126.176107 100.430665" stroke-width="0.500000" />
<path stroke="#171717" stroke-opacity="0.501961" fill="none" d="M 271.000000 72.993291 Q 251.301811 59.534054, 95.176322 7.954808" stroke-width="0.500000" />
<path stroke="#2a2a2a" stroke-opacity="0.501961" fill="none" d="M 46.183888 59.838261 Q 16.877033 83.162961, 4.103327 51.854012" stroke-width="0.500000" />
<path stroke="#3c3c3c" stroke-opacity="0.501961" fill="none" d="M 66.161172 98.502683 Q 76.267752 96.961723, 71.025404 81.489525" stroke-width="0.500000" />
<path stroke="#363636" stroke-opacity="0.501961" fill="none" d="M 99.524091 49.699433 Q 94.717986 52.129264, 94.050205 65.306323" stroke-width="0.500000" />
<path stroke="#202020" stroke-opacity="0.501961" fill="none" d="M 35.733545 35.656593 Q 58.783205 70.884799, 22.165042 92.982155" stroke-width="0.500000" />
<path stroke="#383838" stroke-opacity="0.501961" fill="none" d="M 255.460927 98.703367 Q 245.735815 75.681928, 256.138145 73.000579" stroke-width="0.500000" />
<path stroke="#4b4b4b" stroke-opacity="0.501961" fill="none" d="M 6.428713 58.149477 Q 5.043612 52.012417, 12.048055 46.936497" stroke-width="0.500000" />
<path stroke="#414141" stroke-opacity="0.501961" fill="none" d="M 213.530053 84.356152 Q 222.734261 98.388276, 211.719878 103.767086" stroke-width="0.500000" />
<path stroke="#252525" stroke-opacity="0.501961" fill="none" d="M 72.973510 31.161398 Q 88.517087 39.196595, 79.147735 103.670715" stroke-width="0.500000" />
<path stroke="#3c3c3c" stroke-opacity="0.501961" fill="none" d="M 17.714062 66.087929 Q 26.060110 53.347019, 39.877640 60.498411" stroke-width="0.500000" />
<path stroke="#414141" stroke-opacity="0.501961" fill="none" d="M 252.915542 145.676770 Q 254.288362 123.238016, 252.884124 121.976226" stroke-width="0.500000" />
<path stroke="#2a2a2a" stroke-opacity="0.501961" fill="none" d="M 153.024321 113.557249 Q 148.440415 96.155339, 155.702122 84.616410" stroke-width="0.500000" />
<path stroke="#383838" stroke-opacity="0.501961" fill="none" d="M 36.988502 59.749701 Q 34.771380 65.877361, 44.482112 80.518271" stroke-width="0.500000" />
<path stroke="#464646" stroke-opacity="0.501961" fill="none" d="M 240.568705 79.103965 Q 243.180177 72.324886, 270.535757 83.067316" stroke-width="0.500000" />
<path stroke="#555555" stroke-opacity="0.501961" fill="none" d="M 130.357337 97.860877 Q 133.768431 104.217499, 125.244847 105.116217" stroke-width="0.500000" />
<path stroke="#383838" stroke-opacity="0.501961" fill="none" d="M 208.651834 80.214773 Q 224.275173 88.091588, 213.539630 105.500058" stroke-width="0.500000" />
<path stroke="#393939" stroke-opacity="0.501961" fill="none" d="M 82.703735 96.001062 Q 67.975010 103.789468, 65.659315 90.402025" stroke-width="0.500000" />
<path stroke="#202020" stroke-opacity="0.501961" fill="none" d="M 164.355122 102.822365 Q 167.501202 42.086785, 176.242206 29.259539" stroke-width="0.500000" />
<path stroke="#242424" stroke-opacity="0.501961" fill="none" d="M 48.258672 33.917256 Q 75.101479 18.242454, 90.507721 57.151186" stroke-width="0.500000" />
<path stroke="#414141" stroke-opacity="0.501961" fill="none" d="M 244.293425 97.219069 Q 250.221369 76.844351, 261.799314 83.397337" stroke-width="0.500000" />
<path stroke="#1d1d1d" stroke-opacity="0.501961" fill="none" d="M 78.102069 59.191444 Q 80.214325 -3.462264, 133.965036 -6.400404" stroke-width="0.500000" />
<path stroke="#404040" stroke-opacity="0.501961" fill="none" d="M 66.445524 95.753437 Q 79.656542 100.767360, 80.844419 97.489569" stroke-width="0.500000" />
<path stroke="#454545" stroke-opacity="0.501961" fill="none" d="M 215.820677 88.343629 Q 211.907332 98.855913, 213.963454 110.240403" stroke-width="0.500000" />
<path stroke="#3f3f3f" stroke-opacity="0.501961" fill="none" d="M 243.607053 74.201138 Q 256.240143 78.808429, 245.914449 97.587485" stroke-width="0.500000" />
<path stroke="#212121" stroke-opacity="0.501961" fill="none" d="M 70.922966 99.388097 Q 90.505266 43.814705, 92.916957 26.969153" stroke-width="0.500000" />
<path stroke="#323232" stroke-opacity="0.501961" fill="none" d="M 195.389163 38.418487 Q 177.764769 41.509791, 180.658972 22.452707" stroke-width="0.500000" />
<path stroke="#2e2e2e" stroke-opacity="0.501961" fill="none" d="M 182.126711 31.373348 Q 167.032786 23.809654, 164.069808 13.883706" stroke-width="0.500000" />
<path stroke="#484848" stroke-opacity="0.501961" fill="none" d="M 76.939123 72.935549 Q 85.250994 69.950757, 91.046099 70.415429" stroke-width="0.500000" />
<path stroke="#3a3a3a" stroke-opacity="0.501961" fill="none" d="M 241.501121 75.109378 Q 239.348266 100.364223, 271.000000 102.910470" stroke-width="0.500000" />
<path stroke="#1d1d1d" stroke-opacity="0.501961" fill="none" d="M 78.821619 33.286212 Q 64.241588 44.504977, 20.450021 97.041323" stroke-width="0.500000" />
<path stroke="#292929" stroke-opacity="0.501961" fill="none" d="M 18.621543 74.849579 Q 31.914781 47.081943, 45.362725 52.535687" stroke-width="0.500000" />
<path stroke="#444444" stroke-opacity="0.501961" fill="none" d="M 133.898411 110.083763 Q 135.100301 100.489772, 122.298667 103.418400" stroke-width="0.500000" />
<path stroke="#363636" stroke-opacity="0.501961" fill="none" d="M 39.086920 60.358444 Q 22.444002 53.479732, 15.429013 69.240758" stroke-width="0.500000" />
<path stroke="#313131" stroke-opacity="0.501961" fill="none" d="M 65.507630 28.578115 Q 89.215752 34.368296, 78.789799 56.108583" stroke-width="0.500000" />
<path stroke="#494949" stroke-opacity="0.501961" fill="none" d="M 88.103709 70.145798 Q 83.238238 73.548602, 73.336427 69.313734" stroke-width="0.500000" />
<path stroke="#212121" stroke-opacity="0.501961" fill="none" d="M 67.143213 30.619100 Q 40.047071 28.868010, 27.397668 57.584506" stroke-width="0.500000" />
<path stroke="#313131" stroke-opacity="0.501961" fill="none" d="M 17.706798 39.642783 Q 10.829712 40.329531, -16.000000 16.555386" stroke-width="0.500000" />
<path stroke="#555555" stroke-opacity="0.501961" fill="none" d="M 168.313351 92.635742 Q 164.248944 91.146947, 159.756191 92.894600" stroke-width="0.500000" />
<path stroke="#363636" stroke-opacity="0.501961" fill="none" d="M 171.209546 73.401024 Q 173.813489 58.655539, 164.859332 57.939395" stroke-width="0.500000" />
<path stroke="#383838" stroke-opacity="0.501961" fill="none" d="M 129.741576 107.839898 Q 132.634847 106.500986, 131.050231 87.875984" stroke-width="0.500000" />
<path stroke="#404040" stroke-opacity="0.501961" fill="none" d="M 205.744635 86.316444 Q 205.377461 108.727961, 203.937531 109.505502" stroke-width="0.500000" />
<path stroke="#383838" stroke-opacity="0.501961" fill="none" d="M 39.520179 89.438822 Q 30.868430 79.714658, 23.765555 92.781028" stroke-width="0.500000" />
<path stroke="#3e3e3e" stroke-opacity="0.501961" fill="none" d="M 245.382977 96.595084 Q 245.346478 91.086600, 240.164832 78.909848" stroke-width="0.500000" />
<path stroke="#434343" stroke-opacity="0.501961" fill="none" d="M 99.172035 53.896323 Q 93.241450 53.640163, 94.699497 67.982265" stroke-width="0.500000" />
<path stroke="#242424" stroke-opacity="0.501961" fill="none" d="M 33.381083 70.134933 Q 42.668407 35.561048, 70.470643 44.412344" stroke-width="0.500000" />
<path stroke="#3b3b3b" stroke-opacity="0.501961" fill="none" d="M 174.123960 23.531547 Q 162.799061 24.794638, 166.670459 14.409289" stroke-width="0.500000" />
<path stroke="#2b2b2b" stroke-opacity="0.501961" fill="none" d="M 65.842561 100.390238 Q 65.304829 76.459301, 85.003725 85.981917" stroke-width="0.500000" />
<path stroke="#222222" stroke-opacity="0.501961" fill="none" d="M -2.902126 10.336622 Q 28.802081 45.138930, -15.696322 92.355221" stroke-width="0.500000" />
</g>
</svg>