<svg viewBox="0 0 1024 656" xmlns="http://www.w3.org/2000/svg" xmlns:inkscape="http://www.inkscape.org/namespaces/inkscape" width="420mm" height="297mm">
  <g transform="scale(4.000000) translate(0.5 0.5)" inkscape:groupmode="layer" id="layer1" inkscape:label="1 - layer-1.svg">
    <path stroke="#000000" stroke-opacity="0.501961" fill="none" d="M 51.565588 79.387769 Q 72.441387 75.098710, 94.075033 69.391320" stroke-width="0.500000" />
    <path stroke="#000000" stroke-opacity="0.501961" fill="none" d="M 78.920659 55.634363 Q 69.754997 72.539332, 84.040316 74.148628" stroke-width="0.500000" />
    <path stroke="#000000" stroke-opacity="0.501961" fill="none" d="M 81.508588 46.950590 Q 73.540286 68.662786, 75.422690 74.900924" stroke-width="0.500000" />
    <path stroke="#000000" stroke-opacity="0.501961" fill="none" d="M 76.685032 75.673369 Q 70.431039 72.749211, 84.102796 43.537075" stroke-width="0.500000" />
    <path stroke="#000000" stroke-opacity="0.501961" fill="none" d="M 59.492870 78.679096 Q 78.754233 74.023363, 82.624188 42.836467" stroke-width="0.500000" />
    <path stroke="#000000" stroke-opacity="0.501961" fill="none" d="M 176.665186 61.225048 Q 176.065855 58.594613, 161.185534 59.662848" stroke-width="0.500000" />
    <path stroke="#000000" stroke-opacity="0.501961" fill="none" d="M 166.893015 34.666722 Q 165.843470 31.369267, 165.406972 22.125736" stroke-width="0.500000" />
    <path stroke="#000000" stroke-opacity="0.501961" fill="none" d="M 65.401284 73.696219 Q 77.741926 72.996470, 83.923903 72.925439" stroke-width="0.500000" />
    <path stroke="#000000" stroke-opacity="0.501961" fill="none" d="M 31.234859 55.884416 Q 27.020236 62.419760, 24.204528 61.294435" stroke-width="0.500000" />
    <path stroke="#000000" stroke-opacity="0.501961" fill="none" d="M 46.021724 89.283576 Q 31.003855 78.289123, 25.152505 91.272287" stroke-width="0.500000" />
    <path stroke="#000000" stroke-opacity="0.501961" fill="none" d="M 90.962216 69.083340 Q 84.926790 70.891077, 75.430730 74.425023" stroke-width="0.500000" />
    <path stroke="#000000" stroke-opacity="0.501961" fill="none" d="M 80.192717 61.435743 Q 81.797121 73.696931, 73.893893 74.509919" stroke-width="0.500000" />
    <path stroke="#000000" stroke-opacity="0.501961" fill="none" d="M 25.182027 97.415746 Q 22.332964 90.408844, 31.132347 83.968102" stroke-width="0.500000" />
    <path stroke="#000000" stroke-opacity="0.501961" fill="none" d="M 165.758090 44.402019 Q 165.163348 9.987678, 165.765721 4.843950" stroke-width="0.500000" />
    <path stroke="#000000" stroke-opacity="0.501961" fill="none" d="M 77.821642 73.111600 Q 78.786302 70.347606, 84.047541 73.030467" stroke-width="0.500000" />
    <path stroke="#000000" stroke-opacity="0.501961" fill="none" d="M 77.686554 56.998977 Q 76.497210 73.776856, 60.915474 77.811849" stroke-width="0.500000" />
    <path stroke="#000000" stroke-opacity="0.501961" fill="none" d="M 177.407087 38.197184 Q 161.928662 38.531177, 165.124909 17.037068" stroke-width="0.500000" />
    <path stroke="#000000" stroke-opacity="0.501961" fill="none" d="M 167.910587 19.275964 Q 164.411751 22.550694, 164.955107 32.484249" stroke-width="0.500000" />
    <path stroke="#000000" stroke-opacity="0.501961" fill="none" d="M 89.290760 72.450892 Q 74.791118 70.526460, 75.089569 76.659393" stroke-width="0.500000" />
    <path stroke="#000000" stroke-opacity="0.501961" fill="none" d="M 175.888489 37.730193 Q 165.512082 37.004283, 165.367919 32.098834" stroke-width="0.500000" />
    <path stroke="#000000" stroke-opacity="0.501961" fill="none" d="M 189.893549 45.729919 Q 189.867673 37.557513, 198.455086 38.194739" stroke-width="0.500000" />
    <path stroke="#000000" stroke-opacity="0.501961" fill="none" d="M 96.580487 25.482072 Q 94.490825 28.934986, 101.685937 44.569443" stroke-width="0.500000" />
    <path stroke="#000000" stroke-opacity="0.501961" fill="none" d="M 42.300775 87.780356 Q 26.358544 78.154289, 24.026576 94.561367" stroke-width="0.500000" />
    <path stroke="#000000" stroke-opacity="0.501961" fill="none" d="M 175.972820 38.498874 Q 161.756414 38.135471, 166.394919 20.889898" stroke-width="0.500000" />
    <path stroke="#000000" stroke-opacity="0.501961" fill="none" d="M 167.860591 36.313619 Q 170.612884 35.335983, 175.789172 39.151653" stroke-width="0.500000" />
    <path stroke="#000000" stroke-opacity="0.501961" fill="none" d="M 27.398796 55.110485 Q 28.284312 55.719110, 28.961264 58.786412" stroke-width="0.500000" />
    <path stroke="#000000" stroke-opacity="0.501961" fill="none" d="M 61.715765 77.918589 Q 77.390881 70.913971, 79.056833 53.529570" stroke-width="0.500000" />
    <path stroke="#000000" stroke-opacity="0.501961" fill="none" d="M 80.873548 56.313988 Q 77.121283 58.035097, 74.047521 70.828044" stroke-width="0.500000" />
    <path stroke="#000000" stroke-opacity="0.501961" fill="none" d="M 67.633089 75.985480 Q 84.115039 72.721009, 84.421709 69.292797" stroke-width="0.500000" />
    <path stroke="#000000" stroke-opacity="0.501961" fill="none" d="M 70.541934 77.021110 Q 87.573989 58.589281, 91.843094 30.070146" stroke-width="0.500000" />
    <path stroke="#000000" stroke-opacity="0.501961" fill="none" d="M 89.661321 40.050866 Q 89.684592 36.649087, 92.981594 29.299677" stroke-width="0.500000" />
    <path stroke="#000000" stroke-opacity="0.501961" fill="none" d="M 123.350421 10.745612 Q 101.718182 20.199638, 97.058264 -4.908067" stroke-width="0.500000" />
    <path stroke="#000000" stroke-opacity="0.501961" fill="none" d="M 164.187194 17.316254 Q 166.732264 26.919855, 164.456363 27.988290" stroke-width="0.500000" />
    <path stroke="#000000" stroke-opacity="0.501961" fill="none" d="M 131.299008 78.567706 Q 113.031084 62.185344, 62.068071 74.154782" stroke-width="0.500000" />
    <path stroke="#000000" stroke-opacity="0.501961" fill="none" d="M 152.518556 89.652777 Q 71.858223 85.268394, 78.511393 33.057801" stroke-width="0.500000" />
    <path stroke="#000000" stroke-opacity="0.501961" fill="none" d="M 80.587175 66.366137 Q 77.359652 63.549226, 75.486313 64.587736" stroke-width="0.500000" />
    <path stroke="#000000" stroke-opacity="0.501961" fill="none" d="M 168.938283 59.219221 Q 157.613808 56.189519, 156.478896 58.175419" stroke-width="0.500000" />
    <path stroke="#000000" stroke-opacity="0.501961" fill="none" d="M 200.817417 68.418420 Q 199.116822 68.624661, 198.760774 66.631408" stroke-width="0.500000" />
    <path stroke="#000000" stroke-opacity="0.501961" fill="none" d="M 83.752502 40.742449 Q 78.197909 57.433469, 74.934365 66.414453" stroke-width="0.500000" />
    <path stroke="#000000" stroke-opacity="0.501961" fill="none" d="M 82.298562 57.624594 Q 67.448230 32.906766, 86.841443 29.561364" stroke-width="0.500000" />
    <path stroke="#000000" stroke-opacity="0.501961" fill="none" d="M 125.074401 14.429092 Q 124.485907 16.918202, 101.029902 10.256484" stroke-width="0.500000" />
    <path stroke="#000000" stroke-opacity="0.501961" fill="none" d="M 94.103348 5.626331 Q 96.625850 8.485677, 117.353333 14.948399" stroke-width="0.500000" />
    <path stroke="#000000" stroke-opacity="0.501961" fill="none" d="M 23.196098 93.714406 Q 26.192618 91.246488, 28.717309 84.029497" stroke-width="0.500000" />
    <path stroke="#000000" stroke-opacity="0.501961" fill="none" d="M 253.695561 117.837071 Q 267.706190 113.546711, 271.000000 121.664428" stroke-width="0.500000" />
    <path stroke="#000000" stroke-opacity="0.501961" fill="none" d="M 63.064480 81.169629 Q 150.035266 14.191154, 197.860419 14.574956" stroke-width="0.500000" />
    <path stroke="#000000" stroke-opacity="0.501961" fill="none" d="M 85.041973 59.605996 Q 73.928390 70.161214, 80.223520 76.588478" stroke-width="0.500000" />
    <path stroke="#000000" stroke-opacity="0.501961" fill="none" d="M 5.854769 146.897950 Q 16.543347 154.470158, 19.782019 150.364756" stroke-width="0.500000" />
    <path stroke="#000000" stroke-opacity="0.501961" fill="none" d="M 29.778638 56.579508 Q 26.282077 62.277901, 26.666637 66.414048" stroke-width="0.500000" />
    <path stroke="#000000" stroke-opacity="0.501961" fill="none" d="M 108.854605 11.311521 Q 112.992729 12.816685, 113.875626 13.160289" stroke-width="0.500000" />
    <path stroke="#000000" stroke-opacity="0.501961" fill="none" d="M 173.508285 54.320964 Q 172.774414 60.536747, 161.350589 58.643087" stroke-width="0.500000" />
    <path stroke="#000000" stroke-opacity="0.501961" fill="none" d="M 199.043156 66.923223 Q 203.808418 73.172520, 200.616054 80.280742" stroke-width="0.500000" />
    <path stroke="#000000" stroke-opacity="0.501961" fill="none" d="M 130.196508 22.462572 Q 80.011718 35.965153, 65.030852 78.165044" stroke-width="0.500000" />
    <path stroke="#000000" stroke-opacity="0.501961" fill="none" d="M 76.996359 61.530121 Q 79.917486 53.337546, 82.916749 44.490465" stroke-width="0.500000" />
    <path stroke="#000000" stroke-opacity="0.501961" fill="none" d="M 62.044532 81.412804 Q 92.618412 72.098344, 71.219172 8.682003" stroke-width="0.500000" />
    <path stroke="#000000" stroke-opacity="0.501961" fill="none" d="M 31.211406 83.511582 Q 30.544991 86.944371, 44.496368 87.724752" stroke-width="0.500000" />
    <path stroke="#000000" stroke-opacity="0.501961" fill="none" d="M 186.947247 44.492764 Q 186.838554 39.566922, 195.767673 38.293316" stroke-width="0.500000" />
    <path stroke="#000000" stroke-opacity="0.501961" fill="none" d="M 165.180788 33.825054 Q 166.324380 12.915841, 163.626301 10.671517" stroke-width="0.500000" />
    <path stroke="#000000" stroke-opacity="0.501961" fill="none" d="M 220.682549 55.554595 Q 194.150966 42.001645, 153.309863 27.159104" stroke-width="0.500000" />
    <path stroke="#000000" stroke-opacity="0.501961" fill="none" d="M 80.557075 61.594504 Q 80.314427 74.328705, 76.079091 74.349129" stroke-width="0.500000" />
    <path stroke="#000000" stroke-opacity="0.501961" fill="none" d="M 16.686882 151.521984 Q 18.766512 151.774917, 22.847878 150.493112" stroke-width="0.500000" />
    <path stroke="#000000" stroke-opacity="0.501961" fill="none" d="M 24.171904 64.586160 Q 29.390936 57.923537, 28.768795 55.430395" stroke-width="0.500000" />
    <path stroke="#000000" stroke-opacity="0.501961" fill="none" d="M 88.239747 76.671947 Q 92.926365 59.530453, 74.944774 24.570621" stroke-width="0.500000" />
    <path stroke="#000000" stroke-opacity="0.501961" fill="none" d="M 271.000000 52.399655 Q 264.630993 50.603061, 47.842282 74.049291" stroke-width="0.500000" />
    <path stroke="#000000" stroke-opacity="0.501961" fill="none" d="M 83.534646 24.825703 Q 97.601514 20.339054, 101.324459 44.782180" stroke-width="0.500000" />
    <path stroke="#000000" stroke-opacity="0.501961" fill="none" d="M 126.213740 92.767540 Q 124.574230 92.867140, 124.423956 91.425407" stroke-width="0.500000" />
    <path stroke="#000000" stroke-opacity="0.501961" fill="none" d="M 69.408690 83.741317 Q 75.737580 32.795297, 116.725174 1.618827" stroke-width="0.500000" />
    <path stroke="#000000" stroke-opacity="0.501961" fill="none" d="M 24.386566 55.300421 Q 57.978608 60.153348, 82.630904 56.851132" stroke-width="0.500000" />
    <path stroke="#000000" stroke-opacity="0.501961" fill="none" d="M 39.590881 115.193162 Q 44.287851 117.325049, 45.349955 113.915837" stroke-width="0.500000" />
    <path stroke="#000000" stroke-opacity="0.501961" fill="none" d="M 193.318060 37.691914 Q 198.284262 39.483862, 199.558278 39.457702" stroke-width="0.500000" />
    <path stroke="#000000" stroke-opacity="0.501961" fill="none" d="M 19.922543 118.515805 Q 16.113244 116.573273, 14.768961 119.522421" stroke-width="0.500000" />
    <path stroke="#000000" stroke-opacity="0.501961" fill="none" d="M 97.195800 28.809956 Q 97.852950 35.578532, 102.915998 50.097738" stroke-width="0.500000" />
    <path stroke="#000000" stroke-opacity="0.501961" fill="none" d="M 83.770474 51.718153 Q 74.806105 52.149918, 4.864918 111.001256" stroke-width="0.500000" />
    <path stroke="#000000" stroke-opacity="0.501961" fill="none" d="M 165.966553 10.579793 Q 162.242603 14.096954, 166.547216 18.168784" stroke-width="0.500000" />
    <path stroke="#000000" stroke-opacity="0.501961" fill="none" d="M 172.019806 67.930677 Q 181.693601 6.593927, 90.558147 6.231757" stroke-width="0.500000" />
    <path stroke="#000000" stroke-opacity="0.501961" fill="none" d="M 99.339810 6.914856 Q 109.914281 13.976984, 115.230353 13.409789" stroke-width="0.500000" />
    <path stroke="#000000" stroke-opacity="0.501961" fill="none" d="M 39.401551 84.433188 Q 35.631165 87.584530, 31.225286 83.968291" stroke-width="0.500000" />
    <path stroke="#000000" stroke-opacity="0.501961" fill="none" d="M 89.891059 37.837436 Q 90.372642 28.380784, 98.617449 30.428566" stroke-width="0.500000" />
    <path stroke="#000000" stroke-opacity="0.501961" fill="none" d="M 34.774697 86.212694 Q 228.121998 38.993899, 237.323647 15.515772" stroke-width="0.500000" />
    <path stroke="#000000" stroke-opacity="0.501961" fill="none" d="M 164.063373 0.580874 Q 170.044227 35.521003, 177.748209 74.049314" stroke-width="0.500000" />
    <path stroke="#000000" stroke-opacity="0.501961" fill="none" d="M 208.032841 37.277192 Q 203.396566 34.184544, 190.298801 40.670078" stroke-width="0.500000" />
    <path stroke="#000000" stroke-opacity="0.501961" fill="none" d="M 211.467396 -16.000000 Q 84.314347 86.883998, 63.352106 69.186540" stroke-width="0.500000" />
    <path stroke="#000000" stroke-opacity="0.501961" fill="none" d="M 87.405082 47.515790 Q 87.339299 44.081534, 92.668949 31.461846" stroke-width="0.500000" />
    <path stroke="#000000" stroke-opacity="0.501961" fill="none" d="M 28.423327 161.053852 Q 26.415694 167.626770, 45.855135 179.000000" stroke-width="0.500000" />
    <path stroke="#000000" stroke-opacity="0.501961" fill="none" d="M 77.859613 65.073401 Q 87.280975 52.201259, 178.552796 15.454440" stroke-width="0.500000" />
    <path stroke="#000000" stroke-opacity="0.501961" fill="none" d="M -16.000000 30.457746 Q 94.204472 100.251700, 8.455719 160.875168" stroke-width="0.500000" />
    <path stroke="#000000" stroke-opacity="0.501961" fill="none" d="M 85.519009 73.023115 Q 76.391350 71.018595, 75.120655 74.524579" stroke-width="0.500000" />
    <path stroke="#000000" stroke-opacity="0.501961" fill="none" d="M 68.496045 57.786781 Q 67.306485 106.118130, 27.357965 85.759277" stroke-width="0.500000" />
    <path stroke="#000000" stroke-opacity="0.501961" fill="none" d="M 167.549817 15.198459 Q 144.959558 63.820314, 179.292873 72.237911" stroke-width="0.500000" />
    <path stroke="#000000" stroke-opacity="0.501961" fill="none" d="M 100.452257 10.309182 Q 112.916802 10.324065, 118.338492 19.597188" stroke-width="0.500000" />
    <path stroke="#000000" stroke-opacity="0.501961" fill="none" d="M 197.148365 39.716253 Q 194.270696 39.229531, 194.336512 36.790631" stroke-width="0.500000" />
    <path stroke="#000000" stroke-opacity="0.501961" fill="none" d="M 166.111411 63.779589 Q 115.019125 20.750673, 78.802576 53.902716" stroke-width="0.500000" />
    <path stroke="#000000" stroke-opacity="0.501961" fill="none" d="M 73.267571 69.381669 Q 66.647194 82.520167, 48.129905 77.449700" stroke-width="0.500000" />
    <path stroke="#000000" stroke-opacity="0.501961" fill="none" d="M 20.751906 90.223772 Q 31.950355 83.286751, 36.388233 85.925375" stroke-width="0.500000" />
    <path stroke="#000000" stroke-opacity="0.501961" fill="none" d="M 165.774480 18.570311 Q 100.774753 155.305834, -16.000000 46.386458" stroke-width="0.500000" />
    <path stroke="#000000" stroke-opacity="0.501961" fill="none" d="M 85.098678 39.170944 Q 40.660626 92.619910, 131.653981 168.986990" stroke-width="0.500000" />
  </g>
  <g transform="scale(4.000000) translate(0.5 0.5)" inkscape:groupmode="layer" id="layer2" inkscape:label="2 - layer-2.svg">
    <path stroke="#000000" stroke-opacity="0.501961" fill="none" d="M 251.722487 77.301626 Q 254.480987 91.780443, 252.871401 157.558939" stroke-width="0.500000" />
    <path stroke="#000000" stroke-opacity="0.501961" fill="none" d="M 32.587597 56.189285 Q 32.769637 71.876568, 46.443526 80.481916" stroke-width="0.500000" />
    <path stroke="#000000" stroke-opacity="0.501961" fill="none" d="M 252.958479 147.397474 Q 253.961224 102.538236, 239.773600 78.144624" stroke-width="0.500000" />
    <path stroke="#000000" stroke-opacity="0.501961" fill="none" d="M 2.614714 63.611245 Q 39.303096 79.082066, 51.271671 49.642987" stroke-width="0.500000" />
    <path stroke="#000000" stroke-opacity="0.501961" fill="none" d="M 39.643096 45.248841 Q 45.803745 53.433931, 33.306231 69.563493" stroke-width="0.500000" />
    <path stroke="#000000" stroke-opacity="0.501961" fill="none" d="M -16.000000 67.053136 Q 39.392383 65.448918, 46.596456 77.158362" stroke-width="0.500000" />
    <path stroke="#000000" stroke-opacity="0.501961" fill="none" d="M 29.695076 47.122403 Q 32.151414 74.990770, 53.453796 76.449917" stroke-width="0.500000" />
    <path stroke="#000000" stroke-opacity="0.501961" fill="none" d="M 41.826303 51.397169 Q 51.300885 57.765528, 36.735300 76.822316" stroke-width="0.500000" />
    <path stroke="#000000" stroke-opacity="0.501961" fill="none" d="M -9.053063 69.363383 Q 1.151935 78.533368, 65.505851 56.070804" stroke-width="0.500000" />
    <path stroke="#000000" stroke-opacity="0.501961" fill="none" d="M 249.716564 100.733682 Q 231.228951 54.398969, 211.688537 56.356167" stroke-width="0.500000" />
    <path stroke="#000000" stroke-opacity="0.501961" fill="none" d="M 252.460192 146.588641 Q 259.269165 80.995795, 242.572243 71.367201" stroke-width="0.500000" />
    <path stroke="#000000" stroke-opacity="0.501961" fill="none" d="M 72.261174 32.229932 Q 36.777041 21.877239, 34.005774 71.521059" stroke-width="0.500000" />
    <path stroke="#000000" stroke-opacity="0.501961" fill="none" d="M 189.657897 37.319805 Q 180.173824 37.104579, 173.880738 24.929899" stroke-width="0.500000" />
    <path stroke="#000000" stroke-opacity="0.501961" fill="none" d="M 40.792967 43.280189 Q 44.178071 58.330901, 46.512370 80.602725" stroke-width="0.500000" />
    <path stroke="#000000" stroke-opacity="0.501961" fill="none" d="M 76.268477 33.664964 Q 47.062365 16.934640, 33.876462 51.755618" stroke-width="0.500000" />
    <path stroke="#000000" stroke-opacity="0.501961" fill="none" d="M 96.395674 30.131729 Q 90.624339 11.424066, 98.421562 8.968985" stroke-width="0.500000" />
    <path stroke="#000000" stroke-opacity="0.501961" fill="none" d="M 45.649461 73.311896 Q 21.947023 68.738423, -3.525319 66.103047" stroke-width="0.500000" />
    <path stroke="#000000" stroke-opacity="0.501961" fill="none" d="M 18.315956 76.083173 Q 37.139011 33.893537, 53.760159 32.193824" stroke-width="0.500000" />
    <path stroke="#000000" stroke-opacity="0.501961" fill="none" d="M -4.199429 74.514858 Q 30.432396 72.675653, 46.012780 51.753710" stroke-width="0.500000" />
    <path stroke="#000000" stroke-opacity="0.501961" fill="none" d="M 188.892538 33.521273 Q 182.847450 38.266962, 177.289168 27.985071" stroke-width="0.500000" />
    <path stroke="#000000" stroke-opacity="0.501961" fill="none" d="M 36.600021 58.188981 Q 33.354497 80.501818, 47.976462 79.723897" stroke-width="0.500000" />
    <path stroke="#000000" stroke-opacity="0.501961" fill="none" d="M 49.595592 61.070785 Q 48.434007 51.276371, 39.047972 51.242293" stroke-width="0.500000" />
    <path stroke="#000000" stroke-opacity="0.501961" fill="none" d="M 220.493618 48.904295 Q 238.762883 66.236056, 259.627947 54.191745" stroke-width="0.500000" />
    <path stroke="#000000" stroke-opacity="0.501961" fill="none" d="M 173.126792 35.149660 Q 175.614577 34.331121, 175.098068 21.832368" stroke-width="0.500000" />
    <path stroke="#000000" stroke-opacity="0.501961" fill="none" d="M 34.862938 38.200195 Q 72.228897 38.108807, 74.716592 28.082638" stroke-width="0.500000" />
    <path stroke="#000000" stroke-opacity="0.501961" fill="none" d="M 218.971828 60.148721 Q 225.865231 58.239445, 226.544331 52.800126" stroke-width="0.500000" />
    <path stroke="#000000" stroke-opacity="0.501961" fill="none" d="M 182.611502 25.291275 Q 172.424392 32.020098, 174.458454 34.547401" stroke-width="0.500000" />
    <path stroke="#000000" stroke-opacity="0.501961" fill="none" d="M 42.359859 74.987270 Q 16.208444 46.454578, 69.129174 23.952392" stroke-width="0.500000" />
    <path stroke="#000000" stroke-opacity="0.501961" fill="none" d="M 62.636816 68.487592 Q 55.049416 76.485887, 43.712982 60.325698" stroke-width="0.500000" />
    <path stroke="#000000" stroke-opacity="0.501961" fill="none" d="M 174.389023 26.909639 Q 182.903526 41.829216, 190.919439 38.739952" stroke-width="0.500000" />
    <path stroke="#000000" stroke-opacity="0.501961" fill="none" d="M 44.346894 82.320476 Q 44.377758 76.216258, 32.268831 57.305220" stroke-width="0.500000" />
    <path stroke="#000000" stroke-opacity="0.501961" fill="none" d="M 225.105265 66.408302 Q 224.054652 56.856176, 214.339128 56.860287" stroke-width="0.500000" />
    <path stroke="#000000" stroke-opacity="0.501961" fill="none" d="M 59.222401 71.244240 Q 49.379893 46.385186, 38.219285 52.057393" stroke-width="0.500000" />
    <path stroke="#000000" stroke-opacity="0.501961" fill="none" d="M 68.378379 56.321993 Q 39.437937 60.695038, 38.260415 46.672609" stroke-width="0.500000" />
    <path stroke="#000000" stroke-opacity="0.501961" fill="none" d="M 113.359656 12.886490 Q 114.028821 -6.221868, 113.027832 -7.337261" stroke-width="0.500000" />
    <path stroke="#000000" stroke-opacity="0.501961" fill="none" d="M 178.506921 26.173101 Q 175.809547 35.485818, 187.654275 35.411660" stroke-width="0.500000" />
    <path stroke="#000000" stroke-opacity="0.501961" fill="none" d="M 94.980564 23.697800 Q 83.025817 52.514266, 78.084770 73.280014" stroke-width="0.500000" />
    <path stroke="#000000" stroke-opacity="0.501961" fill="none" d="M 252.852347 128.409920 Q 251.815437 144.943096, 251.256081 148.140619" stroke-width="0.500000" />
    <path stroke="#000000" stroke-opacity="0.501961" fill="none" d="M 22.131686 70.559339 Q 15.996616 64.740681, -16.000000 62.427791" stroke-width="0.500000" />
    <path stroke="#000000" stroke-opacity="0.501961" fill="none" d="M 77.805261 33.166599 Q 51.205388 14.240413, 28.914463 58.699813" stroke-width="0.500000" />
    <path stroke="#000000" stroke-opacity="0.501961" fill="none" d="M 189.418109 36.045304 Q 183.075108 26.374206, 172.092907 28.926712" stroke-width="0.500000" />
    <path stroke="#000000" stroke-opacity="0.501961" fill="none" d="M 44.743914 79.421545 Q 27.368925 60.066996, 48.693261 48.518640" stroke-width="0.500000" />
    <path stroke="#000000" stroke-opacity="0.501961" fill="none" d="M 236.551348 56.908755 Q 219.331175 55.124310, 216.297028 41.165366" stroke-width="0.500000" />
    <path stroke="#000000" stroke-opacity="0.501961" fill="none" d="M 227.201038 53.997595 Q 220.718144 64.571400, 215.164900 55.370543" stroke-width="0.500000" />
    <path stroke="#000000" stroke-opacity="0.501961" fill="none" d="M 94.242687 15.411809 Q 93.629226 27.303988, 97.545045 29.136015" stroke-width="0.500000" />
    <path stroke="#000000" stroke-opacity="0.501961" fill="none" d="M 53.613108 62.198987 Q 65.387842 32.927755, 38.746271 32.562335" stroke-width="0.500000" />
    <path stroke="#000000" stroke-opacity="0.501961" fill="none" d="M 33.578353 68.827413 Q 40.379034 46.314472, 65.067994 56.652040" stroke-width="0.500000" />
    <path stroke="#000000" stroke-opacity="0.501961" fill="none" d="M 34.662025 35.594353 Q 46.137238 59.371832, 55.166958 61.400041" stroke-width="0.500000" />
    <path stroke="#000000" stroke-opacity="0.501961" fill="none" d="M 54.148626 58.917970 Q 41.615875 55.255315, 42.421952 45.873628" stroke-width="0.500000" />
    <path stroke="#000000" stroke-opacity="0.501961" fill="none" d="M 22.505184 93.845843 Q 23.239111 100.484524, 37.651948 98.120867" stroke-width="0.500000" />
    <path stroke="#000000" stroke-opacity="0.501961" fill="none" d="M 3.004198 63.410364 Q -3.016272 69.799938, 9.882855 77.338218" stroke-width="0.500000" />
  </g>
  <g transform="scale(4.000000) translate(0.5 0.5)" inkscape:groupmode="layer" id="layer3" inkscape:label="3 - layer-3.svg">
    <path stroke="#000000" stroke-opacity="0.501961" fill="none" d="M -16.000000 96.127458 Q 27.880216 46.255933, -8.085520 8.410464" stroke-width="0.500000" />
    <path stroke="#000000" stroke-opacity="0.501961" fill="none" d="M 253.798114 164.224194 Q 252.445530 85.290007, 244.857641 75.631477" stroke-width="0.500000" />
    <path stroke="#000000" stroke-opacity="0.501961" fill="none" d="M 78.150805 69.472771 Q 92.862945 45.076338, 100.444424 -16.000000" stroke-width="0.500000" />
    <path stroke="#000000" stroke-opacity="0.501961" fill="none" d="M 82.932076 37.697237 Q 33.660242 44.093088, 10.865297 71.321545" stroke-width="0.500000" />
    <path stroke="#000000" stroke-opacity="0.501961" fill="none" d="M 2.888138 17.129735 Q 22.388094 51.756108, -15.649590 88.540767" stroke-width="0.500000" />
    <path stroke="#000000" stroke-opacity="0.501961" fill="none" d="M 82.295045 36.457904 Q 78.282361 69.266208, 81.139853 106.624943" stroke-width="0.500000" />
    <path stroke="#000000" stroke-opacity="0.501961" fill="none" d="M 46.667079 75.218048 Q -10.860372 51.508633, -16.000000 105.186365" stroke-width="0.500000" />
    <path stroke="#000000" stroke-opacity="0.501961" fill="none" d="M 165.968052 55.128954 Q 179.443696 62.875671, 162.875607 97.962310" stroke-width="0.500000" />
    <path stroke="#000000" stroke-opacity="0.501961" fill="none" d="M 69.687621 99.370919 Q 89.201119 52.198007, 76.459842 30.595310" stroke-width="0.500000" />
    <path stroke="#000000" stroke-opacity="0.501961" fill="none" d="M 239.739551 78.223855 Q 255.471504 110.782442, 252.221530 146.126513" stroke-width="0.500000" />
    <path stroke="#000000" stroke-opacity="0.501961" fill="none" d="M -16.000000 -7.433382 Q 23.583337 47.178459, 4.331789 58.255847" stroke-width="0.500000" />
    <path stroke="#000000" stroke-opacity="0.501961" fill="none" d="M 105.500774 52.821547 Q 73.630497 47.456525, 74.199472 100.740758" stroke-width="0.500000" />
    <path stroke="#000000" stroke-opacity="0.501961" fill="none" d="M 14.044079 67.544012 Q 62.713540 81.758963, 105.198733 65.105007" stroke-width="0.500000" />
    <path stroke="#000000" stroke-opacity="0.501961" fill="none" d="M -13.662472 76.780571 Q 18.033545 74.538231, 39.117628 41.026453" stroke-width="0.500000" />
    <path stroke="#000000" stroke-opacity="0.501961" fill="none" d="M 197.768542 42.609035 Q 159.757834 23.985729, 165.220139 9.980476" stroke-width="0.500000" />
    <path stroke="#000000" stroke-opacity="0.501961" fill="none" d="M 96.101466 14.201263 Q 90.838618 47.240106, 75.899198 74.540282" stroke-width="0.500000" />
    <path stroke="#000000" stroke-opacity="0.501961" fill="none" d="M 35.335502 77.303471 Q 30.816524 39.704947, 91.575063 39.041111" stroke-width="0.500000" />
    <path stroke="#000000" stroke-opacity="0.501961" fill="none" d="M 29.531839 49.309701 Q 38.547112 99.649927, 103.227752 61.956697" stroke-width="0.500000" />
    <path stroke="#000000" stroke-opacity="0.501961" fill="none" d="M 162.045320 91.177400 Q 197.005081 104.181651, 219.860271 102.465535" stroke-width="0.500000" />
    <path stroke="#000000" stroke-opacity="0.501961" fill="none" d="M 1.641830 11.313476 Q 12.488893 30.926005, 6.172375 58.854160" stroke-width="0.500000" />
    <path stroke="#000000" stroke-opacity="0.501961" fill="none" d="M 271.000000 72.993291 Q 251.301811 59.534054, 95.176322 7.954808" stroke-width="0.500000" />
    <path stroke="#000000" stroke-opacity="0.501961" fill="none" d="M 46.183888 59.838261 Q 16.877033 83.162961, 4.103327 51.854012" stroke-width="0.500000" />
    <path stroke="#000000" stroke-opacity="0.501961" fill="none" d="M 35.733545 35.656593 Q 58.783205 70.884799, 22.165042 92.982155" stroke-width="0.500000" />
    <path stroke="#000000" stroke-opacity="0.501961" fill="none" d="M 72.973510 31.161398 Q 88.517087 39.196595, 79.147735 103.670715" stroke-width="0.500000" />
    <path stroke="#000000" stroke-opacity="0.501961" fill="none" d="M 153.024321 113.557249 Q 148.440415 96.155339, 155.702122 84.616410" stroke-width="0.500000" />
    <path stroke="#000000" stroke-opacity="0.501961" fill="none" d="M 164.355122 102.822365 Q 167.501202 42.086785, 176.242206 29.259539" stroke-width="0.500000" />
    <path stroke="#000000" stroke-opacity="0.501961" fill="none" d="M 48.258672 33.917256 Q 75.101479 18.242454, 90.507721 57.151186" stroke-width="0.500000" />
    <path stroke="#000000" stroke-opacity="0.501961" fill="none" d="M 78.102069 59.191444 Q 80.214325 -3.462264, 133.965036 -6.400404" stroke-width="0.500000" />
    <path stroke="#000000" stroke-opacity="0.501961" fill="none" d="M 70.922966 99.388097 Q 90.505266 43.814705, 92.916957 26.969153" stroke-width="0.500000" />
    <path stroke="#000000" stroke-opacity="0.501961" fill="none" d="M 182.126711 31.373348 Q 167.032786 23.809654, 164.069808 13.883706" stroke-width="0.500000" />
    <path stroke="#000000" stroke-opacity="0.501961" fill="none" d="M 78.821619 33.286212 Q 64.241588 44.504977, 20.450021 97.041323" stroke-width="0.500000" />
    <path stroke="#000000" stroke-opacity="0.501961" fill="none" d="M 18.621543 74.849579 Q 31.914781 47.081943, 45.362725 52.535687" stroke-width="0.500000" />
    <path stroke="#000000" stroke-opacity="0.501961" fill="none" d="M 65.507630 28.578115 Q 89.215752 34.368296, 78.789799 56.108583" stroke-width="0.500000" />
    <path stroke="#000000" stroke-opacity="0.501961" fill="none" d="M 67.143213 30.619100 Q 40.047071 28.868010, 27.397668 57.584506" stroke-width="0.500000" />
    <path stroke="#000000" stroke-opacity="0.501961" fill="none" d="M 17.706798 39.642783 Q 10.829712 40.329531, -16.000000 16.555386" stroke-width="0.500000" />
    <path stroke="#000000" stroke-opacity="0.501961" fill="none" d="M 33.381083 70.134933 Q 42.668407 35.561048, 70.470643 44.412344" stroke-width="0.500000" />
    <path stroke="#000000" stroke-opacity="0.501961" fill="none" d="M 65.842561 100.390238 Q 65.304829 76.459301, 85.003725 85.981917" stroke-width="0.500000" />
    <path stroke="#000000" stroke-opacity="0.501961" fill="none" d="M -2.902126 10.336622 Q 28.802081 45.138930, -15.696322 92.355221" stroke-width="0.500000" />
  </g>
</svg>
