<svg viewBox="0 0 1024 707" xmlns="http://www.w3.org/2000/svg" xmlns:inkscape="http://www.inkscape.org/namespaces/inkscape" width="428mm" height="295mm">
  <path style="stroke: black; stroke-width: 1" d="M512.0,0.0L384.0,176.75L320.0,88.375L384.0,88.375L368.0,110.46875L360.0,99.421875L368.0,99.421875L364.0,104.9453125L372.0,104.9453125L368.0,99.421875L376.0,99.421875L372.0,93.8984375L380.0,93.8984375L376.0,88.375L372.0,93.8984375L368.0,88.375L364.0,93.8984375L360.0,88.375L356.0,93.8984375L364.0,93.8984375L360.0,99.421875L352.0,88.375L344.0,99.421875L340.0,93.8984375L348.0,93.8984375L344.0,88.375L340.0,93.8984375L336.0,88.375L332.0,93.8984375L328.0,88.375L324.0,93.8984375L332.0,93.8984375L328.0,99.421875L336.0,99.421875L332.0,104.9453125L340.0,104.9453125L336.0,99.421875L344.0,99.421875L336.0,110.46875L352.0,110.46875L348.0,115.9921875L344.0,110.46875L340.0,115.9921875L348.0,115.9921875L344.0,121.515625L352.0,121.515625L348.0,127.0390625L356.0,127.0390625L352.0,121.515625L360.0,121.515625L356.0,115.9921875L364.0,115.9921875L360.0,110.46875L356.0,115.9921875L352.0,110.46875L368.0,110.46875L352.0,132.5625L384.0,132.5625L376.0,143.609375L372.0,138.0859375L380.0,138.0859375L376.0,132.5625L372.0,138.0859375L368.0,132.5625L364.0,138.0859375L360.0,132.5625L356.0,138.0859375L364.0,138.0859375L360.0,143.609375L368.0,143.609375L364.0,149.1328125L372.0,149.1328125L368.0,143.609375L376.0,143.609375L368.0,154.65625L384.0,154.65625L380.0,160.1796875L376.0,154.65625L372.0,160.1796875L380.0,160.1796875L376.0,165.703125L384.0,165.703125L380.0,171.2265625L388.0,171.2265625L384.0,165.703125L392.0,165.703125L388.0,160.1796875L396.0,160.1796875L392.0,154.65625L388.0,160.1796875L384.0,154.65625L400.0,154.65625L392.0,143.609375L400.0,143.609375L396.0,149.1328125L404.0,149.1328125L400.0,143.609375L408.0,143.609375L404.0,138.0859375L412.0,138.0859375L408.0,132.5625L404.0,138.0859375L400.0,132.5625L396.0,138.0859375L392.0,132.5625L388.0,138.0859375L396.0,138.0859375L392.0,143.609375L384.0,132.5625L416.0,132.5625L400.0,110.46875L416.0,110.46875L412.0,115.9921875L408.0,110.46875L404.0,115.9921875L412.0,115.9921875L408.0,121.515625L416.0,121.515625L412.0,127.0390625L420.0,127.0390625L416.0,121.515625L424.0,121.515625L420.0,115.9921875L428.0,115.9921875L424.0,110.46875L420.0,115.9921875L416.0,110.46875L432.0,110.46875L424.0,99.421875L432.0,99.421875L428.0,104.9453125L436.0,104.9453125L432.0,99.421875L440.0,99.421875L436.0,93.8984375L444.0,93.8984375L440.0,88.375L436.0,93.8984375L432.0,88.375L428.0,93.8984375L424.0,88.375L420.0,93.8984375L428.0,93.8984375L424.0,99.421875L416.0,88.375L408.0,99.421875L404.0,93.8984375L412.0,93.8984375L408.0,88.375L404.0,93.8984375L400.0,88.375L396.0,93.8984375L392.0,88.375L388.0,93.8984375L396.0,93.8984375L392.0,99.421875L400.0,99.421875L396.0,104.9453125L404.0,104.9453125L400.0,99.421875L408.0,99.421875L400.0,110.46875L384.0,88.375L448.0,88.375L416.0,44.1875L448.0,44.1875L440.0,55.234375L436.0,49.7109375L444.0,49.7109375L440.0,44.1875L436.0,49.7109375L432.0,44.1875L428.0,49.7109375L424.0,44.1875L420.0,49.7109375L428.0,49.7109375L424.0,55.234375L432.0,55.234375L428.0,60.7578125L436.0,60.7578125L432.0,55.234375L440.0,55.234375L432.0,66.28125L448.0,66.28125L444.0,71.8046875L440.0,66.28125L436.0,71.8046875L444.0,71.8046875L440.0,77.328125L448.0,77.328125L444.0,82.8515625L452.0,82.8515625L448.0,77.328125L456.0,77.328125L452.0,71.8046875L460.0,71.8046875L456.0,66.28125L452.0,71.8046875L448.0,66.28125L464.0,66.28125L456.0,55.234375L464.0,55.234375L460.0,60.7578125L468.0,60.7578125L464.0,55.234375L472.0,55.234375L468.0,49.7109375L476.0,49.7109375L472.0,44.1875L468.0,49.7109375L464.0,44.1875L460.0,49.7109375L456.0,44.1875L452.0,49.7109375L460.0,49.7109375L456.0,55.234375L448.0,44.1875L480.0,44.1875L464.0,22.09375L480.0,22.09375L476.0,27.6171875L472.0,22.09375L468.0,27.6171875L476.0,27.6171875L472.0,33.140625L480.0,33.140625L476.0,38.6640625L484.0,38.6640625L480.0,33.140625L488.0,33.140625L484.0,27.6171875L492.0,27.6171875L488.0,22.09375L484.0,27.6171875L480.0,22.09375L496.0,22.09375L488.0,11.046875L496.0,11.046875L492.0,16.5703125L500.0,16.5703125L496.0,11.046875L504.0,11.046875L500.0,5.5234375L508.0,5.5234375L504.0,0.0L500.0,5.5234375L496.0,0.0L492.0,5.5234375L488.0,0.0L484.0,5.5234375L492.0,5.5234375L488.0,11.046875L480.0,0.0L472.0,11.046875L468.0,5.5234375L476.0,5.5234375L472.0,0.0L468.0,5.5234375L464.0,0.0L460.0,5.5234375L456.0,0.0L452.0,5.5234375L460.0,5.5234375L456.0,11.046875L464.0,11.046875L460.0,16.5703125L468.0,16.5703125L464.0,11.046875L472.0,11.046875L464.0,22.09375L448.0,0.0L432.0,22.09375L424.0,11.046875L432.0,11.046875L428.0,16.5703125L436.0,16.5703125L432.0,11.046875L440.0,11.046875L436.0,5.5234375L444.0,5.5234375L440.0,0.0L436.0,5.5234375L432.0,0.0L428.0,5.5234375L424.0,0.0L420.0,5.5234375L428.0,5.5234375L424.0,11.046875L416.0,0.0L408.0,11.046875L404.0,5.5234375L412.0,5.5234375L408.0,0.0L404.0,5.5234375L400.0,0.0L396.0,5.5234375L392.0,0.0L388.0,5.5234375L396.0,5.5234375L392.0,11.046875L400.0,11.046875L396.0,16.5703125L404.0,16.5703125L400.0,11.046875L408.0,11.046875L400.0,22.09375L416.0,22.09375L412.0,27.6171875L408.0,22.09375L404.0,27.6171875L412.0,27.6171875L408.0,33.140625L416.0,33.140625L412.0,38.6640625L420.0,38.6640625L416.0,33.140625L424.0,33.140625L420.0,27.6171875L428.0,27.6171875L424.0,22.09375L420.0,27.6171875L416.0,22.09375L432.0,22.09375L416.0,44.1875L384.0,0.0L352.0,44.1875L336.0,22.09375L352.0,22.09375L348.0,27.6171875L344.0,22.09375L340.0,27.6171875L348.0,27.6171875L344.0,33.140625L352.0,33.140625L348.0,38.6640625L356.0,38.6640625L352.0,33.140625L360.0,33.140625L356.0,27.6171875L364.0,27.6171875L360.0,22.09375L356.0,27.6171875L352.0,22.09375L368.0,22.09375L360.0,11.046875L368.0,11.046875L364.0,16.5703125L372.0,16.5703125L368.0,11.046875L376.0,11.046875L372.0,5.5234375L380.0,5.5234375L376.0,0.0L372.0,5.5234375L368.0,0.0L364.0,5.5234375L360.0,0.0L356.0,5.5234375L364.0,5.5234375L360.0,11.046875L352.0,0.0L344.0,11.046875L340.0,5.5234375L348.0,5.5234375L344.0,0.0L340.0,5.5234375L336.0,0.0L332.0,5.5234375L328.0,0.0L324.0,5.5234375L332.0,5.5234375L328.0,11.046875L336.0,11.046875L332.0,16.5703125L340.0,16.5703125L336.0,11.046875L344.0,11.046875L336.0,22.09375L320.0,0.0L304.0,22.09375L296.0,11.046875L304.0,11.046875L300.0,16.5703125L308.0,16.5703125L304.0,11.046875L312.0,11.046875L308.0,5.5234375L316.0,5.5234375L312.0,0.0L308.0,5.5234375L304.0,0.0L300.0,5.5234375L296.0,0.0L292.0,5.5234375L300.0,5.5234375L296.0,11.046875L288.0,0.0L280.0,11.046875L276.0,5.5234375L284.0,5.5234375L280.0,0.0L276.0,5.5234375L272.0,0.0L268.0,5.5234375L264.0,0.0L260.0,5.5234375L268.0,5.5234375L264.0,11.046875L272.0,11.046875L268.0,16.5703125L276.0,16.5703125L272.0,11.046875L280.0,11.046875L272.0,22.09375L288.0,22.09375L284.0,27.6171875L280.0,22.09375L276.0,27.6171875L284.0,27.6171875L280.0,33.140625L288.0,33.140625L284.0,38.6640625L292.0,38.6640625L288.0,33.140625L296.0,33.140625L292.0,27.6171875L300.0,27.6171875L296.0,22.09375L292.0,27.6171875L288.0,22.09375L304.0,22.09375L288.0,44.1875L320.0,44.1875L312.0,55.234375L308.0,49.7109375L316.0,49.7109375L312.0,44.1875L308.0,49.7109375L304.0,44.1875L300.0,49.7109375L296.0,44.1875L292.0,49.7109375L300.0,49.7109375L296.0,55.234375L304.0,55.234375L300.0,60.7578125L308.0,60.7578125L304.0,55.234375L312.0,55.234375L304.0,66.28125L320.0,66.28125L316.0,71.8046875L312.0,66.28125L308.0,71.8046875L316.0,71.8046875L312.0,77.328125L320.0,77.328125L316.0,82.8515625L324.0,82.8515625L320.0,77.328125L328.0,77.328125L324.0,71.8046875L332.0,71.8046875L328.0,66.28125L324.0,71.8046875L320.0,66.28125L336.0,66.28125L328.0,55.234375L336.0,55.234375L332.0,60.7578125L340.0,60.7578125L336.0,55.234375L344.0,55.234375L340.0,49.7109375L348.0,49.7109375L344.0,44.1875L340.0,49.7109375L336.0,44.1875L332.0,49.7109375L328.0,44.1875L324.0,49.7109375L332.0,49.7109375L328.0,55.234375L320.0,44.1875L352.0,44.1875L320.0,88.375L256.0,0.0L192.0,88.375L160.0,44.1875L192.0,44.1875L184.0,55.234375L180.0,49.7109375L188.0,49.7109375L184.0,44.1875L180.0,49.7109375L176.0,44.1875L172.0,49.7109375L168.0,44.1875L164.0,49.7109375L172.0,49.7109375L168.0,55.234375L176.0,55.234375L172.0,60.7578125L180.0,60.7578125L176.0,55.234375L184.0,55.234375L176.0,66.28125L192.0,66.28125L188.0,71.8046875L184.0,66.28125L180.0,71.8046875L188.0,71.8046875L184.0,77.328125L192.0,77.328125L188.0,82.8515625L196.0,82.8515625L192.0,77.328125L200.0,77.328125L196.0,71.8046875L204.0,71.8046875L200.0,66.28125L196.0,71.8046875L192.0,66.28125L208.0,66.28125L200.0,55.234375L208.0,55.234375L204.0,60.7578125L212.0,60.7578125L208.0,55.234375L216.0,55.234375L212.0,49.7109375L220.0,49.7109375L216.0,44.1875L212.0,49.7109375L208.0,44.1875L204.0,49.7109375L200.0,44.1875L196.0,49.7109375L204.0,49.7109375L200.0,55.234375L192.0,44.1875L224.0,44.1875L208.0,22.09375L224.0,22.09375L220.0,27.6171875L216.0,22.09375L212.0,27.6171875L220.0,27.6171875L216.0,33.140625L224.0,33.140625L220.0,38.6640625L228.0,38.6640625L224.0,33.140625L232.0,33.140625L228.0,27.6171875L236.0,27.6171875L232.0,22.09375L228.0,27.6171875L224.0,22.09375L240.0,22.09375L232.0,11.046875L240.0,11.046875L236.0,16.5703125L244.0,16.5703125L240.0,11.046875L248.0,11.046875L244.0,5.5234375L252.0,5.5234375L248.0,0.0L244.0,5.5234375L240.0,0.0L236.0,5.5234375L232.0,0.0L228.0,5.5234375L236.0,5.5234375L232.0,11.046875L224.0,0.0L216.0,11.046875L212.0,5.5234375L220.0,5.5234375L216.0,0.0L212.0,5.5234375L208.0,0.0L204.0,5.5234375L200.0,0.0L196.0,5.5234375L204.0,5.5234375L200.0,11.046875L208.0,11.046875L204.0,16.5703125L212.0,16.5703125L208.0,11.046875L216.0,11.046875L208.0,22.09375L192.0,0.0L176.0,22.09375L168.0,11.046875L176.0,11.046875L172.0,16.5703125L180.0,16.5703125L176.0,11.046875L184.0,11.046875L180.0,5.5234375L188.0,5.5234375L184.0,0.0L180.0,5.5234375L176.0,0.0L172.0,5.5234375L168.0,0.0L164.0,5.5234375L172.0,5.5234375L168.0,11.046875L160.0,0.0L152.0,11.046875L148.0,5.5234375L156.0,5.5234375L152.0,0.0L148.0,5.5234375L144.0,0.0L140.0,5.5234375L136.0,0.0L132.0,5.5234375L140.0,5.5234375L136.0,11.046875L144.0,11.046875L140.0,16.5703125L148.0,16.5703125L144.0,11.046875L152.0,11.046875L144.0,22.09375L160.0,22.09375L156.0,27.6171875L152.0,22.09375L148.0,27.6171875L156.0,27.6171875L152.0,33.140625L160.0,33.140625L156.0,38.6640625L164.0,38.6640625L160.0,33.140625L168.0,33.140625L164.0,27.6171875L172.0,27.6171875L168.0,22.09375L164.0,27.6171875L160.0,22.09375L176.0,22.09375L160.0,44.1875L128.0,0.0L96.0,44.1875L80.0,22.09375L96.0,22.09375L92.0,27.6171875L88.0,22.09375L84.0,27.6171875L92.0,27.6171875L88.0,33.140625L96.0,33.140625L92.0,38.6640625L100.0,38.6640625L96.0,33.140625L104.0,33.140625L100.0,27.6171875L108.0,27.6171875L104.0,22.09375L100.0,27.6171875L96.0,22.09375L112.0,22.09375L104.0,11.046875L112.0,11.046875L108.0,16.5703125L116.0,16.5703125L112.0,11.046875L120.0,11.046875L116.0,5.5234375L124.0,5.5234375L120.0,0.0L116.0,5.5234375L112.0,0.0L108.0,5.5234375L104.0,0.0L100.0,5.5234375L108.0,5.5234375L104.0,11.046875L96.0,0.0L88.0,11.046875L84.0,5.5234375L92.0,5.5234375L88.0,0.0L84.0,5.5234375L80.0,0.0L76.0,5.5234375L72.0,0.0L68.0,5.5234375L76.0,5.5234375L72.0,11.046875L80.0,11.046875L76.0,16.5703125L84.0,16.5703125L80.0,11.046875L88.0,11.046875L80.0,22.09375L64.0,0.0L48.0,22.09375L40.0,11.046875L48.0,11.046875L44.0,16.5703125L52.0,16.5703125L48.0,11.046875L56.0,11.046875L52.0,5.5234375L60.0,5.5234375L56.0,0.0L52.0,5.5234375L48.0,0.0L44.0,5.5234375L40.0,0.0L36.0,5.5234375L44.0,5.5234375L40.0,11.046875L32.0,0.0L24.0,11.046875L20.0,5.5234375L28.0,5.5234375L24.0,0.0L20.0,5.5234375L16.0,0.0L12.0,5.5234375L8.0,0.0L4.0,5.5234375L12.0,5.5234375L8.0,11.046875L16.0,11.046875L12.0,16.5703125L20.0,16.5703125L16.0,11.046875L24.0,11.046875L16.0,22.09375L32.0,22.09375L28.0,27.6171875L24.0,22.09375L20.0,27.6171875L28.0,27.6171875L24.0,33.140625L32.0,33.140625L28.0,38.6640625L36.0,38.6640625L32.0,33.140625L40.0,33.140625L36.0,27.6171875L44.0,27.6171875L40.0,22.09375L36.0,27.6171875L32.0,22.09375L48.0,22.09375L32.0,44.1875L64.0,44.1875L56.0,55.234375L52.0,49.7109375L60.0,49.7109375L56.0,44.1875L52.0,49.7109375L48.0,44.1875L44.0,49.7109375L40.0,44.1875L36.0,49.7109375L44.0,49.7109375L40.0,55.234375L48.0,55.234375L44.0,60.7578125L52.0,60.7578125L48.0,55.234375L56.0,55.234375L48.0,66.28125L64.0,66.28125L60.0,71.8046875L56.0,66.28125L52.0,71.8046875L60.0,71.8046875L56.0,77.328125L64.0,77.328125L60.0,82.8515625L68.0,82.8515625L64.0,77.328125L72.0,77.328125L68.0,71.8046875L76.0,71.8046875L72.0,66.28125L68.0,71.8046875L64.0,66.28125L80.0,66.28125L72.0,55.234375L80.0,55.234375L76.0,60.7578125L84.0,60.7578125L80.0,55.234375L88.0,55.234375L84.0,49.7109375L92.0,49.7109375L88.0,44.1875L84.0,49.7109375L80.0,44.1875L76.0,49.7109375L72.0,44.1875L68.0,49.7109375L76.0,49.7109375L72.0,55.234375L64.0,44.1875L96.0,44.1875L64.0,88.375L128.0,88.375L112.0,110.46875L104.0,99.421875L112.0,99.421875L108.0,104.9453125L116.0,104.9453125L112.0,99.421875L120.0,99.421875L116.0,93.8984375L124.0,93.8984375L120.0,88.375L116.0,93.8984375L112.0,88.375L108.0,93.8984375L104.0,88.375L100.0,93.8984375L108.0,93.8984375L104.0,99.421875L96.0,88.375L88.0,99.421875L84.0,93.8984375L92.0,93.8984375L88.0,88.375L84.0,93.8984375L80.0,88.375L76.0,93.8984375L72.0,88.375L68.0,93.8984375L76.0,93.8984375L72.0,99.421875L80.0,99.421875L76.0,104.9453125L84.0,104.9453125L80.0,99.421875L88.0,99.421875L80.0,110.46875L96.0,110.46875L92.0,115.9921875L88.0,110.46875L84.0,115.9921875L92.0,115.9921875L88.0,121.515625L96.0,121.515625L92.0,127.0390625L100.0,127.0390625L96.0,121.515625L104.0,121.515625L100.0,115.9921875L108.0,115.9921875L104.0,110.46875L100.0,115.9921875L96.0,110.46875L112.0,110.46875L96.0,132.5625L128.0,132.5625L120.0,143.609375L116.0,138.0859375L124.0,138.0859375L120.0,132.5625L116.0,138.0859375L112.0,132.5625L108.0,138.0859375L104.0,132.5625L100.0,138.0859375L108.0,138.0859375L104.0,143.609375L112.0,143.609375L108.0,149.1328125L116.0,149.1328125L112.0,143.609375L120.0,143.609375L112.0,154.65625L128.0,154.65625L124.0,160.1796875L120.0,154.65625L116.0,160.1796875L124.0,160.1796875L120.0,165.703125L128.0,165.703125L124.0,171.2265625L132.0,171.2265625L128.0,165.703125L136.0,165.703125L132.0,160.1796875L140.0,160.1796875L136.0,154.65625L132.0,160.1796875L128.0,154.65625L144.0,154.65625L136.0,143.609375L144.0,143.609375L140.0,149.1328125L148.0,149.1328125L144.0,143.609375L152.0,143.609375L148.0,138.0859375L156.0,138.0859375L152.0,132.5625L148.0,138.0859375L144.0,132.5625L140.0,138.0859375L136.0,132.5625L132.0,138.0859375L140.0,138.0859375L136.0,143.609375L128.0,132.5625L160.0,132.5625L144.0,110.46875L160.0,110.46875L156.0,115.9921875L152.0,110.46875L148.0,115.9921875L156.0,115.9921875L152.0,121.515625L160.0,121.515625L156.0,127.0390625L164.0,127.0390625L160.0,121.515625L168.0,121.515625L164.0,115.9921875L172.0,115.9921875L168.0,110.46875L164.0,115.9921875L160.0,110.46875L176.0,110.46875L168.0,99.421875L176.0,99.421875L172.0,104.9453125L180.0,104.9453125L176.0,99.421875L184.0,99.421875L180.0,93.8984375L188.0,93.8984375L184.0,88.375L180.0,93.8984375L176.0,88.375L172.0,93.8984375L168.0,88.375L164.0,93.8984375L172.0,93.8984375L168.0,99.421875L160.0,88.375L152.0,99.421875L148.0,93.8984375L156.0,93.8984375L152.0,88.375L148.0,93.8984375L144.0,88.375L140.0,93.8984375L136.0,88.375L132.0,93.8984375L140.0,93.8984375L136.0,99.421875L144.0,99.421875L140.0,104.9453125L148.0,104.9453125L144.0,99.421875L152.0,99.421875L144.0,110.46875L128.0,88.375L192.0,88.375L128.0,176.75L256.0,176.75L224.0,220.9375L208.0,198.84375L224.0,198.84375L220.0,204.3671875L216.0,198.84375L212.0,204.3671875L220.0,204.3671875L216.0,209.890625L224.0,209.890625L220.0,215.4140625L228.0,215.4140625L224.0,209.890625L232.0,209.890625L228.0,204.3671875L236.0,204.3671875L232.0,198.84375L228.0,204.3671875L224.0,198.84375L240.0,198.84375L232.0,187.796875L240.0,187.796875L236.0,193.3203125L244.0,193.3203125L240.0,187.796875L248.0,187.796875L244.0,182.2734375L252.0,182.2734375L248.0,176.75L244.0,182.2734375L240.0,176.75L236.0,182.2734375L232.0,176.75L228.0,182.2734375L236.0,182.2734375L232.0,187.796875L224.0,176.75L216.0,187.796875L212.0,182.2734375L220.0,182.2734375L216.0,176.75L212.0,182.2734375L208.0,176.75L204.0,182.2734375L200.0,176.75L196.0,182.2734375L204.0,182.2734375L200.0,187.796875L208.0,187.796875L204.0,193.3203125L212.0,193.3203125L208.0,187.796875L216.0,187.796875L208.0,198.84375L192.0,176.75L176.0,198.84375L168.0,187.796875L176.0,187.796875L172.0,193.3203125L180.0,193.3203125L176.0,187.796875L184.0,187.796875L180.0,182.2734375L188.0,182.2734375L184.0,176.75L180.0,182.2734375L176.0,176.75L172.0,182.2734375L168.0,176.75L164.0,182.2734375L172.0,182.2734375L168.0,187.796875L160.0,176.75L152.0,187.796875L148.0,182.2734375L156.0,182.2734375L152.0,176.75L148.0,182.2734375L144.0,176.75L140.0,182.2734375L136.0,176.75L132.0,182.2734375L140.0,182.2734375L136.0,187.796875L144.0,187.796875L140.0,193.3203125L148.0,193.3203125L144.0,187.796875L152.0,187.796875L144.0,198.84375L160.0,198.84375L156.0,204.3671875L152.0,198.84375L148.0,204.3671875L156.0,204.3671875L152.0,209.890625L160.0,209.890625L156.0,215.4140625L164.0,215.4140625L160.0,209.890625L168.0,209.890625L164.0,204.3671875L172.0,204.3671875L168.0,198.84375L164.0,204.3671875L160.0,198.84375L176.0,198.84375L160.0,220.9375L192.0,220.9375L184.0,231.984375L180.0,226.4609375L188.0,226.4609375L184.0,220.9375L180.0,226.4609375L176.0,220.9375L172.0,226.4609375L168.0,220.9375L164.0,226.4609375L172.0,226.4609375L168.0,231.984375L176.0,231.984375L172.0,237.5078125L180.0,237.5078125L176.0,231.984375L184.0,231.984375L176.0,243.03125L192.0,243.03125L188.0,248.5546875L184.0,243.03125L180.0,248.5546875L188.0,248.5546875L184.0,254.078125L192.0,254.078125L188.0,259.6015625L196.0,259.6015625L192.0,254.078125L200.0,254.078125L196.0,248.5546875L204.0,248.5546875L200.0,243.03125L196.0,248.5546875L192.0,243.03125L208.0,243.03125L200.0,231.984375L208.0,231.984375L204.0,237.5078125L212.0,237.5078125L208.0,231.984375L216.0,231.984375L212.0,226.4609375L220.0,226.4609375L216.0,220.9375L212.0,226.4609375L208.0,220.9375L204.0,226.4609375L200.0,220.9375L196.0,226.4609375L204.0,226.4609375L200.0,231.984375L192.0,220.9375L224.0,220.9375L192.0,265.125L256.0,265.125L240.0,287.21875L232.0,276.171875L240.0,276.171875L236.0,281.6953125L244.0,281.6953125L240.0,276.171875L248.0,276.171875L244.0,270.6484375L252.0,270.6484375L248.0,265.125L244.0,270.6484375L240.0,265.125L236.0,270.6484375L232.0,265.125L228.0,270.6484375L236.0,270.6484375L232.0,276.171875L224.0,265.125L216.0,276.171875L212.0,270.6484375L220.0,270.6484375L216.0,265.125L212.0,270.6484375L208.0,265.125L204.0,270.6484375L200.0,265.125L196.0,270.6484375L204.0,270.6484375L200.0,276.171875L208.0,276.171875L204.0,281.6953125L212.0,281.6953125L208.0,276.171875L216.0,276.171875L208.0,287.21875L224.0,287.21875L220.0,292.7421875L216.0,287.21875L212.0,292.7421875L220.0,292.7421875L216.0,298.265625L224.0,298.265625L220.0,303.7890625L228.0,303.7890625L224.0,298.265625L232.0,298.265625L228.0,292.7421875L236.0,292.7421875L232.0,287.21875L228.0,292.7421875L224.0,287.21875L240.0,287.21875L224.0,309.3125L256.0,309.3125L248.0,320.359375L244.0,314.8359375L252.0,314.8359375L248.0,309.3125L244.0,314.8359375L240.0,309.3125L236.0,314.8359375L232.0,309.3125L228.0,314.8359375L236.0,314.8359375L232.0,320.359375L240.0,320.359375L236.0,325.8828125L244.0,325.8828125L240.0,320.359375L248.0,320.359375L240.0,331.40625L256.0,331.40625L252.0,336.9296875L248.0,331.40625L244.0,336.9296875L252.0,336.9296875L248.0,342.453125L256.0,342.453125L252.0,347.9765625L260.0,347.9765625L256.0,342.453125L264.0,342.453125L260.0,336.9296875L268.0,336.9296875L264.0,331.40625L260.0,336.9296875L256.0,331.40625L272.0,331.40625L264.0,320.359375L272.0,320.359375L268.0,325.8828125L276.0,325.8828125L272.0,320.359375L280.0,320.359375L276.0,314.8359375L284.0,314.8359375L280.0,309.3125L276.0,314.8359375L272.0,309.3125L268.0,314.8359375L264.0,309.3125L260.0,314.8359375L268.0,314.8359375L264.0,320.359375L256.0,309.3125L288.0,309.3125L272.0,287.21875L288.0,287.21875L284.0,292.7421875L280.0,287.21875L276.0,292.7421875L284.0,292.7421875L280.0,298.265625L288.0,298.265625L284.0,303.7890625L292.0,303.7890625L288.0,298.265625L296.0,298.265625L292.0,292.7421875L300.0,292.7421875L296.0,287.21875L292.0,292.7421875L288.0,287.21875L304.0,287.21875L296.0,276.171875L304.0,276.171875L300.0,281.6953125L308.0,281.6953125L304.0,276.171875L312.0,276.171875L308.0,270.6484375L316.0,270.6484375L312.0,265.125L308.0,270.6484375L304.0,265.125L300.0,270.6484375L296.0,265.125L292.0,270.6484375L300.0,270.6484375L296.0,276.171875L288.0,265.125L280.0,276.171875L276.0,270.6484375L284.0,270.6484375L280.0,265.125L276.0,270.6484375L272.0,265.125L268.0,270.6484375L264.0,265.125L260.0,270.6484375L268.0,270.6484375L264.0,276.171875L272.0,276.171875L268.0,281.6953125L276.0,281.6953125L272.0,276.171875L280.0,276.171875L272.0,287.21875L256.0,265.125L320.0,265.125L288.0,220.9375L320.0,220.9375L312.0,231.984375L308.0,226.4609375L316.0,226.4609375L312.0,220.9375L308.0,226.4609375L304.0,220.9375L300.0,226.4609375L296.0,220.9375L292.0,226.4609375L300.0,226.4609375L296.0,231.984375L304.0,231.984375L300.0,237.5078125L308.0,237.5078125L304.0,231.984375L312.0,231.984375L304.0,243.03125L320.0,243.03125L316.0,248.5546875L312.0,243.03125L308.0,248.5546875L316.0,248.5546875L312.0,254.078125L320.0,254.078125L316.0,259.6015625L324.0,259.6015625L320.0,254.078125L328.0,254.078125L324.0,248.5546875L332.0,248.5546875L328.0,243.03125L324.0,248.5546875L320.0,243.03125L336.0,243.03125L328.0,231.984375L336.0,231.984375L332.0,237.5078125L340.0,237.5078125L336.0,231.984375L344.0,231.984375L340.0,226.4609375L348.0,226.4609375L344.0,220.9375L340.0,226.4609375L336.0,220.9375L332.0,226.4609375L328.0,220.9375L324.0,226.4609375L332.0,226.4609375L328.0,231.984375L320.0,220.9375L352.0,220.9375L336.0,198.84375L352.0,198.84375L348.0,204.3671875L344.0,198.84375L340.0,204.3671875L348.0,204.3671875L344.0,209.890625L352.0,209.890625L348.0,215.4140625L356.0,215.4140625L352.0,209.890625L360.0,209.890625L356.0,204.3671875L364.0,204.3671875L360.0,198.84375L356.0,204.3671875L352.0,198.84375L368.0,198.84375L360.0,187.796875L368.0,187.796875L364.0,193.3203125L372.0,193.3203125L368.0,187.796875L376.0,187.796875L372.0,182.2734375L380.0,182.2734375L376.0,176.75L372.0,182.2734375L368.0,176.75L364.0,182.2734375L360.0,176.75L356.0,182.2734375L364.0,182.2734375L360.0,187.796875L352.0,176.75L344.0,187.796875L340.0,182.2734375L348.0,182.2734375L344.0,176.75L340.0,182.2734375L336.0,176.75L332.0,182.2734375L328.0,176.75L324.0,182.2734375L332.0,182.2734375L328.0,187.796875L336.0,187.796875L332.0,193.3203125L340.0,193.3203125L336.0,187.796875L344.0,187.796875L336.0,198.84375L320.0,176.75L304.0,198.84375L296.0,187.796875L304.0,187.796875L300.0,193.3203125L308.0,193.3203125L304.0,187.796875L312.0,187.796875L308.0,182.2734375L316.0,182.2734375L312.0,176.75L308.0,182.2734375L304.0,176.75L300.0,182.2734375L296.0,176.75L292.0,182.2734375L300.0,182.2734375L296.0,187.796875L288.0,176.75L280.0,187.796875L276.0,182.2734375L284.0,182.2734375L280.0,176.75L276.0,182.2734375L272.0,176.75L268.0,182.2734375L264.0,176.75L260.0,182.2734375L268.0,182.2734375L264.0,187.796875L272.0,187.796875L268.0,193.3203125L276.0,193.3203125L272.0,187.796875L280.0,187.796875L272.0,198.84375L288.0,198.84375L284.0,204.3671875L280.0,198.84375L276.0,204.3671875L284.0,204.3671875L280.0,209.890625L288.0,209.890625L284.0,215.4140625L292.0,215.4140625L288.0,209.890625L296.0,209.890625L292.0,204.3671875L300.0,204.3671875L296.0,198.84375L292.0,204.3671875L288.0,198.84375L304.0,198.84375L288.0,220.9375L256.0,176.75L384.0,176.75L256.0,353.5L512.0,353.5L448.0,441.875L416.0,397.6875L448.0,397.6875L440.0,408.734375L436.0,403.2109375L444.0,403.2109375L440.0,397.6875L436.0,403.2109375L432.0,397.6875L428.0,403.2109375L424.0,397.6875L420.0,403.2109375L428.0,403.2109375L424.0,408.734375L432.0,408.734375L428.0,414.2578125L436.0,414.2578125L432.0,408.734375L440.0,408.734375L432.0,419.78125L448.0,419.78125L444.0,425.3046875L440.0,419.78125L436.0,425.3046875L444.0,425.3046875L440.0,430.828125L448.0,430.828125L444.0,436.3515625L452.0,436.3515625L448.0,430.828125L456.0,430.828125L452.0,425.3046875L460.0,425.3046875L456.0,419.78125L452.0,425.3046875L448.0,419.78125L464.0,419.78125L456.0,408.734375L464.0,408.734375L460.0,414.2578125L468.0,414.2578125L464.0,408.734375L472.0,408.734375L468.0,403.2109375L476.0,403.2109375L472.0,397.6875L468.0,403.2109375L464.0,397.6875L460.0,403.2109375L456.0,397.6875L452.0,403.2109375L460.0,403.2109375L456.0,408.734375L448.0,397.6875L480.0,397.6875L464.0,375.59375L480.0,375.59375L476.0,381.1171875L472.0,375.59375L468.0,381.1171875L476.0,381.1171875L472.0,386.640625L480.0,386.640625L476.0,392.1640625L484.0,392.1640625L480.0,386.640625L488.0,386.640625L484.0,381.1171875L492.0,381.1171875L488.0,375.59375L484.0,381.1171875L480.0,375.59375L496.0,375.59375L488.0,364.546875L496.0,364.546875L492.0,370.0703125L500.0,370.0703125L496.0,364.546875L504.0,364.546875L500.0,359.0234375L508.0,359.0234375L504.0,353.5L500.0,359.0234375L496.0,353.5L492.0,359.0234375L488.0,353.5L484.0,359.0234375L492.0,359.0234375L488.0,364.546875L480.0,353.5L472.0,364.546875L468.0,359.0234375L476.0,359.0234375L472.0,353.5L468.0,359.0234375L464.0,353.5L460.0,359.0234375L456.0,353.5L452.0,359.0234375L460.0,359.0234375L456.0,364.546875L464.0,364.546875L460.0,370.0703125L468.0,370.0703125L464.0,364.546875L472.0,364.546875L464.0,375.59375L448.0,353.5L432.0,375.59375L424.0,364.546875L432.0,364.546875L428.0,370.0703125L436.0,370.0703125L432.0,364.546875L440.0,364.546875L436.0,359.0234375L444.0,359.0234375L440.0,353.5L436.0,359.0234375L432.0,353.5L428.0,359.0234375L424.0,353.5L420.0,359.0234375L428.0,359.0234375L424.0,364.546875L416.0,353.5L408.0,364.546875L404.0,359.0234375L412.0,359.0234375L408.0,353.5L404.0,359.0234375L400.0,353.5L396.0,359.0234375L392.0,353.5L388.0,359.0234375L396.0,359.0234375L392.0,364.546875L400.0,364.546875L396.0,370.0703125L404.0,370.0703125L400.0,364.546875L408.0,364.546875L400.0,375.59375L416.0,375.59375L412.0,381.1171875L408.0,375.59375L404.0,381.1171875L412.0,381.1171875L408.0,386.640625L416.0,386.640625L412.0,392.1640625L420.0,392.1640625L416.0,386.640625L424.0,386.640625L420.0,381.1171875L428.0,381.1171875L424.0,375.59375L420.0,381.1171875L416.0,375.59375L432.0,375.59375L416.0,397.6875L384.0,353.5L352.0,397.6875L336.0,375.59375L352.0,375.59375L348.0,381.1171875L344.0,375.59375L340.0,381.1171875L348.0,381.1171875L344.0,386.640625L352.0,386.640625L348.0,392.1640625L356.0,392.1640625L352.0,386.640625L360.0,386.640625L356.0,381.1171875L364.0,381.1171875L360.0,375.59375L356.0,381.1171875L352.0,375.59375L368.0,375.59375L360.0,364.546875L368.0,364.546875L364.0,370.0703125L372.0,370.0703125L368.0,364.546875L376.0,364.546875L372.0,359.0234375L380.0,359.0234375L376.0,353.5L372.0,359.0234375L368.0,353.5L364.0,359.0234375L360.0,353.5L356.0,359.0234375L364.0,359.0234375L360.0,364.546875L352.0,353.5L344.0,364.546875L340.0,359.0234375L348.0,359.0234375L344.0,353.5L340.0,359.0234375L336.0,353.5L332.0,359.0234375L328.0,353.5L324.0,359.0234375L332.0,359.0234375L328.0,364.546875L336.0,364.546875L332.0,370.0703125L340.0,370.0703125L336.0,364.546875L344.0,364.546875L336.0,375.59375L320.0,353.5L304.0,375.59375L296.0,364.546875L304.0,364.546875L300.0,370.0703125L308.0,370.0703125L304.0,364.546875L312.0,364.546875L308.0,359.0234375L316.0,359.0234375L312.0,353.5L308.0,359.0234375L304.0,353.5L300.0,359.0234375L296.0,353.5L292.0,359.0234375L300.0,359.0234375L296.0,364.546875L288.0,353.5L280.0,364.546875L276.0,359.0234375L284.0,359.0234375L280.0,353.5L276.0,359.0234375L272.0,353.5L268.0,359.0234375L264.0,353.5L260.0,359.0234375L268.0,359.0234375L264.0,364.546875L272.0,364.546875L268.0,370.0703125L276.0,370.0703125L272.0,364.546875L280.0,364.546875L272.0,375.59375L288.0,375.59375L284.0,381.1171875L280.0,375.59375L276.0,381.1171875L284.0,381.1171875L280.0,386.640625L288.0,386.640625L284.0,392.1640625L292.0,392.1640625L288.0,386.640625L296.0,386.640625L292.0,381.1171875L300.0,381.1171875L296.0,375.59375L292.0,381.1171875L288.0,375.59375L304.0,375.59375L288.0,397.6875L320.0,397.6875L312.0,408.734375L308.0,403.2109375L316.0,403.2109375L312.0,397.6875L308.0,403.2109375L304.0,397.6875L300.0,403.2109375L296.0,397.6875L292.0,403.2109375L300.0,403.2109375L296.0,408.734375L304.0,408.734375L300.0,414.2578125L308.0,414.2578125L304.0,408.734375L312.0,408.734375L304.0,419.78125L320.0,419.78125L316.0,425.3046875L312.0,419.78125L308.0,425.3046875L316.0,425.3046875L312.0,430.828125L320.0,430.828125L316.0,436.3515625L324.0,436.3515625L320.0,430.828125L328.0,430.828125L324.0,425.3046875L332.0,425.3046875L328.0,419.78125L324.0,425.3046875L320.0,419.78125L336.0,419.78125L328.0,408.734375L336.0,408.734375L332.0,414.2578125L340.0,414.2578125L336.0,408.734375L344.0,408.734375L340.0,403.2109375L348.0,403.2109375L344.0,397.6875L340.0,403.2109375L336.0,397.6875L332.0,403.2109375L328.0,397.6875L324.0,403.2109375L332.0,403.2109375L328.0,408.734375L320.0,397.6875L352.0,397.6875L320.0,441.875L384.0,441.875L368.0,463.96875L360.0,452.921875L368.0,452.921875L364.0,458.4453125L372.0,458.4453125L368.0,452.921875L376.0,452.921875L372.0,447.3984375L380.0,447.3984375L376.0,441.875L372.0,447.3984375L368.0,441.875L364.0,447.3984375L360.0,441.875L356.0,447.3984375L364.0,447.3984375L360.0,452.921875L352.0,441.875L344.0,452.921875L340.0,447.3984375L348.0,447.3984375L344.0,441.875L340.0,447.3984375L336.0,441.875L332.0,447.3984375L328.0,441.875L324.0,447.3984375L332.0,447.3984375L328.0,452.921875L336.0,452.921875L332.0,458.4453125L340.0,458.4453125L336.0,452.921875L344.0,452.921875L336.0,463.96875L352.0,463.96875L348.0,469.4921875L344.0,463.96875L340.0,469.4921875L348.0,469.4921875L344.0,475.015625L352.0,475.015625L348.0,480.5390625L356.0,480.5390625L352.0,475.015625L360.0,475.015625L356.0,469.4921875L364.0,469.4921875L360.0,463.96875L356.0,469.4921875L352.0,463.96875L368.0,463.96875L352.0,486.0625L384.0,486.0625L376.0,497.109375L372.0,491.5859375L380.0,491.5859375L376.0,486.0625L372.0,491.5859375L368.0,486.0625L364.0,491.5859375L360.0,486.0625L356.0,491.5859375L364.0,491.5859375L360.0,497.109375L368.0,497.109375L364.0,502.6328125L372.0,502.6328125L368.0,497.109375L376.0,497.109375L368.0,508.15625L384.0,508.15625L380.0,513.6796875L376.0,508.15625L372.0,513.6796875L380.0,513.6796875L376.0,519.203125L384.0,519.203125L380.0,524.7265625L388.0,524.7265625L384.0,519.203125L392.0,519.203125L388.0,513.6796875L396.0,513.6796875L392.0,508.15625L388.0,513.6796875L384.0,508.15625L400.0,508.15625L392.0,497.109375L400.0,497.109375L396.0,502.6328125L404.0,502.6328125L400.0,497.109375L408.0,497.109375L404.0,491.5859375L412.0,491.5859375L408.0,486.0625L404.0,491.5859375L400.0,486.0625L396.0,491.5859375L392.0,486.0625L388.0,491.5859375L396.0,491.5859375L392.0,497.109375L384.0,486.0625L416.0,486.0625L400.0,463.96875L416.0,463.96875L412.0,469.4921875L408.0,463.96875L404.0,469.4921875L412.0,469.4921875L408.0,475.015625L416.0,475.015625L412.0,480.5390625L420.0,480.5390625L416.0,475.015625L424.0,475.015625L420.0,469.4921875L428.0,469.4921875L424.0,463.96875L420.0,469.4921875L416.0,463.96875L432.0,463.96875L424.0,452.921875L432.0,452.921875L428.0,458.4453125L436.0,458.4453125L432.0,452.921875L440.0,452.921875L436.0,447.3984375L444.0,447.3984375L440.0,441.875L436.0,447.3984375L432.0,441.875L428.0,447.3984375L424.0,441.875L420.0,447.3984375L428.0,447.3984375L424.0,452.921875L416.0,441.875L408.0,452.921875L404.0,447.3984375L412.0,447.3984375L408.0,441.875L404.0,447.3984375L400.0,441.875L396.0,447.3984375L392.0,441.875L388.0,447.3984375L396.0,447.3984375L392.0,452.921875L400.0,452.921875L396.0,458.4453125L404.0,458.4453125L400.0,452.921875L408.0,452.921875L400.0,463.96875L384.0,441.875L448.0,441.875L384.0,530.25L512.0,530.25L480.0,574.4375L464.0,552.34375L480.0,552.34375L476.0,557.8671875L472.0,552.34375L468.0,557.8671875L476.0,557.8671875L472.0,563.390625L480.0,563.390625L476.0,568.9140625L484.0,568.9140625L480.0,563.390625L488.0,563.390625L484.0,557.8671875L492.0,557.8671875L488.0,552.34375L484.0,557.8671875L480.0,552.34375L496.0,552.34375L488.0,541.296875L496.0,541.296875L492.0,546.8203125L500.0,546.8203125L496.0,541.296875L504.0,541.296875L500.0,535.7734375L508.0,535.7734375L504.0,530.25L500.0,535.7734375L496.0,530.25L492.0,535.7734375L488.0,530.25L484.0,535.7734375L492.0,535.7734375L488.0,541.296875L480.0,530.25L472.0,541.296875L468.0,535.7734375L476.0,535.7734375L472.0,530.25L468.0,535.7734375L464.0,530.25L460.0,535.7734375L456.0,530.25L452.0,535.7734375L460.0,535.7734375L456.0,541.296875L464.0,541.296875L460.0,546.8203125L468.0,546.8203125L464.0,541.296875L472.0,541.296875L464.0,552.34375L448.0,530.25L432.0,552.34375L424.0,541.296875L432.0,541.296875L428.0,546.8203125L436.0,546.8203125L432.0,541.296875L440.0,541.296875L436.0,535.7734375L444.0,535.7734375L440.0,530.25L436.0,535.7734375L432.0,530.25L428.0,535.7734375L424.0,530.25L420.0,535.7734375L428.0,535.7734375L424.0,541.296875L416.0,530.25L408.0,541.296875L404.0,535.7734375L412.0,535.7734375L408.0,530.25L404.0,535.7734375L400.0,530.25L396.0,535.7734375L392.0,530.25L388.0,535.7734375L396.0,535.7734375L392.0,541.296875L400.0,541.296875L396.0,546.8203125L404.0,546.8203125L400.0,541.296875L408.0,541.296875L400.0,552.34375L416.0,552.34375L412.0,557.8671875L408.0,552.34375L404.0,557.8671875L412.0,557.8671875L408.0,563.390625L416.0,563.390625L412.0,568.9140625L420.0,568.9140625L416.0,563.390625L424.0,563.390625L420.0,557.8671875L428.0,557.8671875L424.0,552.34375L420.0,557.8671875L416.0,552.34375L432.0,552.34375L416.0,574.4375L448.0,574.4375L440.0,585.484375L436.0,579.9609375L444.0,579.9609375L440.0,574.4375L436.0,579.9609375L432.0,574.4375L428.0,579.9609375L424.0,574.4375L420.0,579.9609375L428.0,579.9609375L424.0,585.484375L432.0,585.484375L428.0,591.0078125L436.0,591.0078125L432.0,585.484375L440.0,585.484375L432.0,596.53125L448.0,596.53125L444.0,602.0546875L440.0,596.53125L436.0,602.0546875L444.0,602.0546875L440.0,607.578125L448.0,607.578125L444.0,613.1015625L452.0,613.1015625L448.0,607.578125L456.0,607.578125L452.0,602.0546875L460.0,602.0546875L456.0,596.53125L452.0,602.0546875L448.0,596.53125L464.0,596.53125L456.0,585.484375L464.0,585.484375L460.0,591.0078125L468.0,591.0078125L464.0,585.484375L472.0,585.484375L468.0,579.9609375L476.0,579.9609375L472.0,574.4375L468.0,579.9609375L464.0,574.4375L460.0,579.9609375L456.0,574.4375L452.0,579.9609375L460.0,579.9609375L456.0,585.484375L448.0,574.4375L480.0,574.4375L448.0,618.625L512.0,618.625L496.0,640.71875L488.0,629.671875L496.0,629.671875L492.0,635.1953125L500.0,635.1953125L496.0,629.671875L504.0,629.671875L500.0,624.1484375L508.0,624.1484375L504.0,618.625L500.0,624.1484375L496.0,618.625L492.0,624.1484375L488.0,618.625L484.0,624.1484375L492.0,624.1484375L488.0,629.671875L480.0,618.625L472.0,629.671875L468.0,624.1484375L476.0,624.1484375L472.0,618.625L468.0,624.1484375L464.0,618.625L460.0,624.1484375L456.0,618.625L452.0,624.1484375L460.0,624.1484375L456.0,629.671875L464.0,629.671875L460.0,635.1953125L468.0,635.1953125L464.0,629.671875L472.0,629.671875L464.0,640.71875L480.0,640.71875L476.0,646.2421875L472.0,640.71875L468.0,646.2421875L476.0,646.2421875L472.0,651.765625L480.0,651.765625L476.0,657.2890625L484.0,657.2890625L480.0,651.765625L488.0,651.765625L484.0,646.2421875L492.0,646.2421875L488.0,640.71875L484.0,646.2421875L480.0,640.71875L496.0,640.71875L480.0,662.8125L512.0,662.8125L504.0,673.859375L500.0,668.3359375L508.0,668.3359375L504.0,662.8125L500.0,668.3359375L496.0,662.8125L492.0,668.3359375L488.0,662.8125L484.0,668.3359375L492.0,668.3359375L488.0,673.859375L496.0,673.859375L492.0,679.3828125L500.0,679.3828125L496.0,673.859375L504.0,673.859375L496.0,684.90625L512.0,684.90625L508.0,690.4296875L504.0,684.90625L500.0,690.4296875L508.0,690.4296875L504.0,695.953125L512.0,695.953125L508.0,701.4765625L516.0,701.4765625L512.0,695.953125L520.0,695.953125L516.0,690.4296875L524.0,690.4296875L520.0,684.90625L516.0,690.4296875L512.0,684.90625L528.0,684.90625L520.0,673.859375L528.0,673.859375L524.0,679.3828125L532.0,679.3828125L528.0,673.859375L536.0,673.859375L532.0,668.3359375L540.0,668.3359375L536.0,662.8125L532.0,668.3359375L528.0,662.8125L524.0,668.3359375L520.0,662.8125L516.0,668.3359375L524.0,668.3359375L520.0,673.859375L512.0,662.8125L544.0,662.8125L528.0,640.71875L544.0,640.71875L540.0,646.2421875L536.0,640.71875L532.0,646.2421875L540.0,646.2421875L536.0,651.765625L544.0,651.765625L540.0,657.2890625L548.0,657.2890625L544.0,651.765625L552.0,651.765625L548.0,646.2421875L556.0,646.2421875L552.0,640.71875L548.0,646.2421875L544.0,640.71875L560.0,640.71875L552.0,629.671875L560.0,629.671875L556.0,635.1953125L564.0,635.1953125L560.0,629.671875L568.0,629.671875L564.0,624.1484375L572.0,624.1484375L568.0,618.625L564.0,624.1484375L560.0,618.625L556.0,624.1484375L552.0,618.625L548.0,624.1484375L556.0,624.1484375L552.0,629.671875L544.0,618.625L536.0,629.671875L532.0,624.1484375L540.0,624.1484375L536.0,618.625L532.0,624.1484375L528.0,618.625L524.0,624.1484375L520.0,618.625L516.0,624.1484375L524.0,624.1484375L520.0,629.671875L528.0,629.671875L524.0,635.1953125L532.0,635.1953125L528.0,629.671875L536.0,629.671875L528.0,640.71875L512.0,618.625L576.0,618.625L544.0,574.4375L576.0,574.4375L568.0,585.484375L564.0,579.9609375L572.0,579.9609375L568.0,574.4375L564.0,579.9609375L560.0,574.4375L556.0,579.9609375L552.0,574.4375L548.0,579.9609375L556.0,579.9609375L552.0,585.484375L560.0,585.484375L556.0,591.0078125L564.0,591.0078125L560.0,585.484375L568.0,585.484375L560.0,596.53125L576.0,596.53125L572.0,602.0546875L568.0,596.53125L564.0,602.0546875L572.0,602.0546875L568.0,607.578125L576.0,607.578125L572.0,613.1015625L580.0,613.1015625L576.0,607.578125L584.0,607.578125L580.0,602.0546875L588.0,602.0546875L584.0,596.53125L580.0,602.0546875L576.0,596.53125L592.0,596.53125L584.0,585.484375L592.0,585.484375L588.0,591.0078125L596.0,591.0078125L592.0,585.484375L600.0,585.484375L596.0,579.9609375L604.0,579.9609375L600.0,574.4375L596.0,579.9609375L592.0,574.4375L588.0,579.9609375L584.0,574.4375L580.0,579.9609375L588.0,579.9609375L584.0,585.484375L576.0,574.4375L608.0,574.4375L592.0,552.34375L608.0,552.34375L604.0,557.8671875L600.0,552.34375L596.0,557.8671875L604.0,557.8671875L600.0,563.390625L608.0,563.390625L604.0,568.9140625L612.0,568.9140625L608.0,563.390625L616.0,563.390625L612.0,557.8671875L620.0,557.8671875L616.0,552.34375L612.0,557.8671875L608.0,552.34375L624.0,552.34375L616.0,541.296875L624.0,541.296875L620.0,546.8203125L628.0,546.8203125L624.0,541.296875L632.0,541.296875L628.0,535.7734375L636.0,535.7734375L632.0,530.25L628.0,535.7734375L624.0,530.25L620.0,535.7734375L616.0,530.25L612.0,535.7734375L620.0,535.7734375L616.0,541.296875L608.0,530.25L600.0,541.296875L596.0,535.7734375L604.0,535.7734375L600.0,530.25L596.0,535.7734375L592.0,530.25L588.0,535.7734375L584.0,530.25L580.0,535.7734375L588.0,535.7734375L584.0,541.296875L592.0,541.296875L588.0,546.8203125L596.0,546.8203125L592.0,541.296875L600.0,541.296875L592.0,552.34375L576.0,530.25L560.0,552.34375L552.0,541.296875L560.0,541.296875L556.0,546.8203125L564.0,546.8203125L560.0,541.296875L568.0,541.296875L564.0,535.7734375L572.0,535.7734375L568.0,530.25L564.0,535.7734375L560.0,530.25L556.0,535.7734375L552.0,530.25L548.0,535.7734375L556.0,535.7734375L552.0,541.296875L544.0,530.25L536.0,541.296875L532.0,535.7734375L540.0,535.7734375L536.0,530.25L532.0,535.7734375L528.0,530.25L524.0,535.7734375L520.0,530.25L516.0,535.7734375L524.0,535.7734375L520.0,541.296875L528.0,541.296875L524.0,546.8203125L532.0,546.8203125L528.0,541.296875L536.0,541.296875L528.0,552.34375L544.0,552.34375L540.0,557.8671875L536.0,552.34375L532.0,557.8671875L540.0,557.8671875L536.0,563.390625L544.0,563.390625L540.0,568.9140625L548.0,568.9140625L544.0,563.390625L552.0,563.390625L548.0,557.8671875L556.0,557.8671875L552.0,552.34375L548.0,557.8671875L544.0,552.34375L560.0,552.34375L544.0,574.4375L512.0,530.25L640.0,530.25L576.0,441.875L640.0,441.875L624.0,463.96875L616.0,452.921875L624.0,452.921875L620.0,458.4453125L628.0,458.4453125L624.0,452.921875L632.0,452.921875L628.0,447.3984375L636.0,447.3984375L632.0,441.875L628.0,447.3984375L624.0,441.875L620.0,447.3984375L616.0,441.875L612.0,447.3984375L620.0,447.3984375L616.0,452.921875L608.0,441.875L600.0,452.921875L596.0,447.3984375L604.0,447.3984375L600.0,441.875L596.0,447.3984375L592.0,441.875L588.0,447.3984375L584.0,441.875L580.0,447.3984375L588.0,447.3984375L584.0,452.921875L592.0,452.921875L588.0,458.4453125L596.0,458.4453125L592.0,452.921875L600.0,452.921875L592.0,463.96875L608.0,463.96875L604.0,469.4921875L600.0,463.96875L596.0,469.4921875L604.0,469.4921875L600.0,475.015625L608.0,475.015625L604.0,480.5390625L612.0,480.5390625L608.0,475.015625L616.0,475.015625L612.0,469.4921875L620.0,469.4921875L616.0,463.96875L612.0,469.4921875L608.0,463.96875L624.0,463.96875L608.0,486.0625L640.0,486.0625L632.0,497.109375L628.0,491.5859375L636.0,491.5859375L632.0,486.0625L628.0,491.5859375L624.0,486.0625L620.0,491.5859375L616.0,486.0625L612.0,491.5859375L620.0,491.5859375L616.0,497.109375L624.0,497.109375L620.0,502.6328125L628.0,502.6328125L624.0,497.109375L632.0,497.109375L624.0,508.15625L640.0,508.15625L636.0,513.6796875L632.0,508.15625L628.0,513.6796875L636.0,513.6796875L632.0,519.203125L640.0,519.203125L636.0,524.7265625L644.0,524.7265625L640.0,519.203125L648.0,519.203125L644.0,513.6796875L652.0,513.6796875L648.0,508.15625L644.0,513.6796875L640.0,508.15625L656.0,508.15625L648.0,497.109375L656.0,497.109375L652.0,502.6328125L660.0,502.6328125L656.0,497.109375L664.0,497.109375L660.0,491.5859375L668.0,491.5859375L664.0,486.0625L660.0,491.5859375L656.0,486.0625L652.0,491.5859375L648.0,486.0625L644.0,491.5859375L652.0,491.5859375L648.0,497.109375L640.0,486.0625L672.0,486.0625L656.0,463.96875L672.0,463.96875L668.0,469.4921875L664.0,463.96875L660.0,469.4921875L668.0,469.4921875L664.0,475.015625L672.0,475.015625L668.0,480.5390625L676.0,480.5390625L672.0,475.015625L680.0,475.015625L676.0,469.4921875L684.0,469.4921875L680.0,463.96875L676.0,469.4921875L672.0,463.96875L688.0,463.96875L680.0,452.921875L688.0,452.921875L684.0,458.4453125L692.0,458.4453125L688.0,452.921875L696.0,452.921875L692.0,447.3984375L700.0,447.3984375L696.0,441.875L692.0,447.3984375L688.0,441.875L684.0,447.3984375L680.0,441.875L676.0,447.3984375L684.0,447.3984375L680.0,452.921875L672.0,441.875L664.0,452.921875L660.0,447.3984375L668.0,447.3984375L664.0,441.875L660.0,447.3984375L656.0,441.875L652.0,447.3984375L648.0,441.875L644.0,447.3984375L652.0,447.3984375L648.0,452.921875L656.0,452.921875L652.0,458.4453125L660.0,458.4453125L656.0,452.921875L664.0,452.921875L656.0,463.96875L640.0,441.875L704.0,441.875L672.0,397.6875L704.0,397.6875L696.0,408.734375L692.0,403.2109375L700.0,403.2109375L696.0,397.6875L692.0,403.2109375L688.0,397.6875L684.0,403.2109375L680.0,397.6875L676.0,403.2109375L684.0,403.2109375L680.0,408.734375L688.0,408.734375L684.0,414.2578125L692.0,414.2578125L688.0,408.734375L696.0,408.734375L688.0,419.78125L704.0,419.78125L700.0,425.3046875L696.0,419.78125L692.0,425.3046875L700.0,425.3046875L696.0,430.828125L704.0,430.828125L700.0,436.3515625L708.0,436.3515625L704.0,430.828125L712.0,430.828125L708.0,425.3046875L716.0,425.3046875L712.0,419.78125L708.0,425.3046875L704.0,419.78125L720.0,419.78125L712.0,408.734375L720.0,408.734375L716.0,414.2578125L724.0,414.2578125L720.0,408.734375L728.0,408.734375L724.0,403.2109375L732.0,403.2109375L728.0,397.6875L724.0,403.2109375L720.0,397.6875L716.0,403.2109375L712.0,397.6875L708.0,403.2109375L716.0,403.2109375L712.0,408.734375L704.0,397.6875L736.0,397.6875L720.0,375.59375L736.0,375.59375L732.0,381.1171875L728.0,375.59375L724.0,381.1171875L732.0,381.1171875L728.0,386.640625L736.0,386.640625L732.0,392.1640625L740.0,392.1640625L736.0,386.640625L744.0,386.640625L740.0,381.1171875L748.0,381.1171875L744.0,375.59375L740.0,381.1171875L736.0,375.59375L752.0,375.59375L744.0,364.546875L752.0,364.546875L748.0,370.0703125L756.0,370.0703125L752.0,364.546875L760.0,364.546875L756.0,359.0234375L764.0,359.0234375L760.0,353.5L756.0,359.0234375L752.0,353.5L748.0,359.0234375L744.0,353.5L740.0,359.0234375L748.0,359.0234375L744.0,364.546875L736.0,353.5L728.0,364.546875L724.0,359.0234375L732.0,359.0234375L728.0,353.5L724.0,359.0234375L720.0,353.5L716.0,359.0234375L712.0,353.5L708.0,359.0234375L716.0,359.0234375L712.0,364.546875L720.0,364.546875L716.0,370.0703125L724.0,370.0703125L720.0,364.546875L728.0,364.546875L720.0,375.59375L704.0,353.5L688.0,375.59375L680.0,364.546875L688.0,364.546875L684.0,370.0703125L692.0,370.0703125L688.0,364.546875L696.0,364.546875L692.0,359.0234375L700.0,359.0234375L696.0,353.5L692.0,359.0234375L688.0,353.5L684.0,359.0234375L680.0,353.5L676.0,359.0234375L684.0,359.0234375L680.0,364.546875L672.0,353.5L664.0,364.546875L660.0,359.0234375L668.0,359.0234375L664.0,353.5L660.0,359.0234375L656.0,353.5L652.0,359.0234375L648.0,353.5L644.0,359.0234375L652.0,359.0234375L648.0,364.546875L656.0,364.546875L652.0,370.0703125L660.0,370.0703125L656.0,364.546875L664.0,364.546875L656.0,375.59375L672.0,375.59375L668.0,381.1171875L664.0,375.59375L660.0,381.1171875L668.0,381.1171875L664.0,386.640625L672.0,386.640625L668.0,392.1640625L676.0,392.1640625L672.0,386.640625L680.0,386.640625L676.0,381.1171875L684.0,381.1171875L680.0,375.59375L676.0,381.1171875L672.0,375.59375L688.0,375.59375L672.0,397.6875L640.0,353.5L608.0,397.6875L592.0,375.59375L608.0,375.59375L604.0,381.1171875L600.0,375.59375L596.0,381.1171875L604.0,381.1171875L600.0,386.640625L608.0,386.640625L604.0,392.1640625L612.0,392.1640625L608.0,386.640625L616.0,386.640625L612.0,381.1171875L620.0,381.1171875L616.0,375.59375L612.0,381.1171875L608.0,375.59375L624.0,375.59375L616.0,364.546875L624.0,364.546875L620.0,370.0703125L628.0,370.0703125L624.0,364.546875L632.0,364.546875L628.0,359.0234375L636.0,359.0234375L632.0,353.5L628.0,359.0234375L624.0,353.5L620.0,359.0234375L616.0,353.5L612.0,359.0234375L620.0,359.0234375L616.0,364.546875L608.0,353.5L600.0,364.546875L596.0,359.0234375L604.0,359.0234375L600.0,353.5L596.0,359.0234375L592.0,353.5L588.0,359.0234375L584.0,353.5L580.0,359.0234375L588.0,359.0234375L584.0,364.546875L592.0,364.546875L588.0,370.0703125L596.0,370.0703125L592.0,364.546875L600.0,364.546875L592.0,375.59375L576.0,353.5L560.0,375.59375L552.0,364.546875L560.0,364.546875L556.0,370.0703125L564.0,370.0703125L560.0,364.546875L568.0,364.546875L564.0,359.0234375L572.0,359.0234375L568.0,353.5L564.0,359.0234375L560.0,353.5L556.0,359.0234375L552.0,353.5L548.0,359.0234375L556.0,359.0234375L552.0,364.546875L544.0,353.5L536.0,364.546875L532.0,359.0234375L540.0,359.0234375L536.0,353.5L532.0,359.0234375L528.0,353.5L524.0,359.0234375L520.0,353.5L516.0,359.0234375L524.0,359.0234375L520.0,364.546875L528.0,364.546875L524.0,370.0703125L532.0,370.0703125L528.0,364.546875L536.0,364.546875L528.0,375.59375L544.0,375.59375L540.0,381.1171875L536.0,375.59375L532.0,381.1171875L540.0,381.1171875L536.0,386.640625L544.0,386.640625L540.0,392.1640625L548.0,392.1640625L544.0,386.640625L552.0,386.640625L548.0,381.1171875L556.0,381.1171875L552.0,375.59375L548.0,381.1171875L544.0,375.59375L560.0,375.59375L544.0,397.6875L576.0,397.6875L568.0,408.734375L564.0,403.2109375L572.0,403.2109375L568.0,397.6875L564.0,403.2109375L560.0,397.6875L556.0,403.2109375L552.0,397.6875L548.0,403.2109375L556.0,403.2109375L552.0,408.734375L560.0,408.734375L556.0,414.2578125L564.0,414.2578125L560.0,408.734375L568.0,408.734375L560.0,419.78125L576.0,419.78125L572.0,425.3046875L568.0,419.78125L564.0,425.3046875L572.0,425.3046875L568.0,430.828125L576.0,430.828125L572.0,436.3515625L580.0,436.3515625L576.0,430.828125L584.0,430.828125L580.0,425.3046875L588.0,425.3046875L584.0,419.78125L580.0,425.3046875L576.0,419.78125L592.0,419.78125L584.0,408.734375L592.0,408.734375L588.0,414.2578125L596.0,414.2578125L592.0,408.734375L600.0,408.734375L596.0,403.2109375L604.0,403.2109375L600.0,397.6875L596.0,403.2109375L592.0,397.6875L588.0,403.2109375L584.0,397.6875L580.0,403.2109375L588.0,403.2109375L584.0,408.734375L576.0,397.6875L608.0,397.6875L576.0,441.875L512.0,353.5L768.0,353.5L640.0,176.75L768.0,176.75L736.0,220.9375L720.0,198.84375L736.0,198.84375L732.0,204.3671875L728.0,198.84375L724.0,204.3671875L732.0,204.3671875L728.0,209.890625L736.0,209.890625L732.0,215.4140625L740.0,215.4140625L736.0,209.890625L744.0,209.890625L740.0,204.3671875L748.0,204.3671875L744.0,198.84375L740.0,204.3671875L736.0,198.84375L752.0,198.84375L744.0,187.796875L752.0,187.796875L748.0,193.3203125L756.0,193.3203125L752.0,187.796875L760.0,187.796875L756.0,182.2734375L764.0,182.2734375L760.0,176.75L756.0,182.2734375L752.0,176.75L748.0,182.2734375L744.0,176.75L740.0,182.2734375L748.0,182.2734375L744.0,187.796875L736.0,176.75L728.0,187.796875L724.0,182.2734375L732.0,182.2734375L728.0,176.75L724.0,182.2734375L720.0,176.75L716.0,182.2734375L712.0,176.75L708.0,182.2734375L716.0,182.2734375L712.0,187.796875L720.0,187.796875L716.0,193.3203125L724.0,193.3203125L720.0,187.796875L728.0,187.796875L720.0,198.84375L704.0,176.75L688.0,198.84375L680.0,187.796875L688.0,187.796875L684.0,193.3203125L692.0,193.3203125L688.0,187.796875L696.0,187.796875L692.0,182.2734375L700.0,182.2734375L696.0,176.75L692.0,182.2734375L688.0,176.75L684.0,182.2734375L680.0,176.75L676.0,182.2734375L684.0,182.2734375L680.0,187.796875L672.0,176.75L664.0,187.796875L660.0,182.2734375L668.0,182.2734375L664.0,176.75L660.0,182.2734375L656.0,176.75L652.0,182.2734375L648.0,176.75L644.0,182.2734375L652.0,182.2734375L648.0,187.796875L656.0,187.796875L652.0,193.3203125L660.0,193.3203125L656.0,187.796875L664.0,187.796875L656.0,198.84375L672.0,198.84375L668.0,204.3671875L664.0,198.84375L660.0,204.3671875L668.0,204.3671875L664.0,209.890625L672.0,209.890625L668.0,215.4140625L676.0,215.4140625L672.0,209.890625L680.0,209.890625L676.0,204.3671875L684.0,204.3671875L680.0,198.84375L676.0,204.3671875L672.0,198.84375L688.0,198.84375L672.0,220.9375L704.0,220.9375L696.0,231.984375L692.0,226.4609375L700.0,226.4609375L696.0,220.9375L692.0,226.4609375L688.0,220.9375L684.0,226.4609375L680.0,220.9375L676.0,226.4609375L684.0,226.4609375L680.0,231.984375L688.0,231.984375L684.0,237.5078125L692.0,237.5078125L688.0,231.984375L696.0,231.984375L688.0,243.03125L704.0,243.03125L700.0,248.5546875L696.0,243.03125L692.0,248.5546875L700.0,248.5546875L696.0,254.078125L704.0,254.078125L700.0,259.6015625L708.0,259.6015625L704.0,254.078125L712.0,254.078125L708.0,248.5546875L716.0,248.5546875L712.0,243.03125L708.0,248.5546875L704.0,243.03125L720.0,243.03125L712.0,231.984375L720.0,231.984375L716.0,237.5078125L724.0,237.5078125L720.0,231.984375L728.0,231.984375L724.0,226.4609375L732.0,226.4609375L728.0,220.9375L724.0,226.4609375L720.0,220.9375L716.0,226.4609375L712.0,220.9375L708.0,226.4609375L716.0,226.4609375L712.0,231.984375L704.0,220.9375L736.0,220.9375L704.0,265.125L768.0,265.125L752.0,287.21875L744.0,276.171875L752.0,276.171875L748.0,281.6953125L756.0,281.6953125L752.0,276.171875L760.0,276.171875L756.0,270.6484375L764.0,270.6484375L760.0,265.125L756.0,270.6484375L752.0,265.125L748.0,270.6484375L744.0,265.125L740.0,270.6484375L748.0,270.6484375L744.0,276.171875L736.0,265.125L728.0,276.171875L724.0,270.6484375L732.0,270.6484375L728.0,265.125L724.0,270.6484375L720.0,265.125L716.0,270.6484375L712.0,265.125L708.0,270.6484375L716.0,270.6484375L712.0,276.171875L720.0,276.171875L716.0,281.6953125L724.0,281.6953125L720.0,276.171875L728.0,276.171875L720.0,287.21875L736.0,287.21875L732.0,292.7421875L728.0,287.21875L724.0,292.7421875L732.0,292.7421875L728.0,298.265625L736.0,298.265625L732.0,303.7890625L740.0,303.7890625L736.0,298.265625L744.0,298.265625L740.0,292.7421875L748.0,292.7421875L744.0,287.21875L740.0,292.7421875L736.0,287.21875L752.0,287.21875L736.0,309.3125L768.0,309.3125L760.0,320.359375L756.0,314.8359375L764.0,314.8359375L760.0,309.3125L756.0,314.8359375L752.0,309.3125L748.0,314.8359375L744.0,309.3125L740.0,314.8359375L748.0,314.8359375L744.0,320.359375L752.0,320.359375L748.0,325.8828125L756.0,325.8828125L752.0,320.359375L760.0,320.359375L752.0,331.40625L768.0,331.40625L764.0,336.9296875L760.0,331.40625L756.0,336.9296875L764.0,336.9296875L760.0,342.453125L768.0,342.453125L764.0,347.9765625L772.0,347.9765625L768.0,342.453125L776.0,342.453125L772.0,336.9296875L780.0,336.9296875L776.0,331.40625L772.0,336.9296875L768.0,331.40625L784.0,331.40625L776.0,320.359375L784.0,320.359375L780.0,325.8828125L788.0,325.8828125L784.0,320.359375L792.0,320.359375L788.0,314.8359375L796.0,314.8359375L792.0,309.3125L788.0,314.8359375L784.0,309.3125L780.0,314.8359375L776.0,309.3125L772.0,314.8359375L780.0,314.8359375L776.0,320.359375L768.0,309.3125L800.0,309.3125L784.0,287.21875L800.0,287.21875L796.0,292.7421875L792.0,287.21875L788.0,292.7421875L796.0,292.7421875L792.0,298.265625L800.0,298.265625L796.0,303.7890625L804.0,303.7890625L800.0,298.265625L808.0,298.265625L804.0,292.7421875L812.0,292.7421875L808.0,287.21875L804.0,292.7421875L800.0,287.21875L816.0,287.21875L808.0,276.171875L816.0,276.171875L812.0,281.6953125L820.0,281.6953125L816.0,276.171875L824.0,276.171875L820.0,270.6484375L828.0,270.6484375L824.0,265.125L820.0,270.6484375L816.0,265.125L812.0,270.6484375L808.0,265.125L804.0,270.6484375L812.0,270.6484375L808.0,276.171875L800.0,265.125L792.0,276.171875L788.0,270.6484375L796.0,270.6484375L792.0,265.125L788.0,270.6484375L784.0,265.125L780.0,270.6484375L776.0,265.125L772.0,270.6484375L780.0,270.6484375L776.0,276.171875L784.0,276.171875L780.0,281.6953125L788.0,281.6953125L784.0,276.171875L792.0,276.171875L784.0,287.21875L768.0,265.125L832.0,265.125L800.0,220.9375L832.0,220.9375L824.0,231.984375L820.0,226.4609375L828.0,226.4609375L824.0,220.9375L820.0,226.4609375L816.0,220.9375L812.0,226.4609375L808.0,220.9375L804.0,226.4609375L812.0,226.4609375L808.0,231.984375L816.0,231.984375L812.0,237.5078125L820.0,237.5078125L816.0,231.984375L824.0,231.984375L816.0,243.03125L832.0,243.03125L828.0,248.5546875L824.0,243.03125L820.0,248.5546875L828.0,248.5546875L824.0,254.078125L832.0,254.078125L828.0,259.6015625L836.0,259.6015625L832.0,254.078125L840.0,254.078125L836.0,248.5546875L844.0,248.5546875L840.0,243.03125L836.0,248.5546875L832.0,243.03125L848.0,243.03125L840.0,231.984375L848.0,231.984375L844.0,237.5078125L852.0,237.5078125L848.0,231.984375L856.0,231.984375L852.0,226.4609375L860.0,226.4609375L856.0,220.9375L852.0,226.4609375L848.0,220.9375L844.0,226.4609375L840.0,220.9375L836.0,226.4609375L844.0,226.4609375L840.0,231.984375L832.0,220.9375L864.0,220.9375L848.0,198.84375L864.0,198.84375L860.0,204.3671875L856.0,198.84375L852.0,204.3671875L860.0,204.3671875L856.0,209.890625L864.0,209.890625L860.0,215.4140625L868.0,215.4140625L864.0,209.890625L872.0,209.890625L868.0,204.3671875L876.0,204.3671875L872.0,198.84375L868.0,204.3671875L864.0,198.84375L880.0,198.84375L872.0,187.796875L880.0,187.796875L876.0,193.3203125L884.0,193.3203125L880.0,187.796875L888.0,187.796875L884.0,182.2734375L892.0,182.2734375L888.0,176.75L884.0,182.2734375L880.0,176.75L876.0,182.2734375L872.0,176.75L868.0,182.2734375L876.0,182.2734375L872.0,187.796875L864.0,176.75L856.0,187.796875L852.0,182.2734375L860.0,182.2734375L856.0,176.75L852.0,182.2734375L848.0,176.75L844.0,182.2734375L840.0,176.75L836.0,182.2734375L844.0,182.2734375L840.0,187.796875L848.0,187.796875L844.0,193.3203125L852.0,193.3203125L848.0,187.796875L856.0,187.796875L848.0,198.84375L832.0,176.75L816.0,198.84375L808.0,187.796875L816.0,187.796875L812.0,193.3203125L820.0,193.3203125L816.0,187.796875L824.0,187.796875L820.0,182.2734375L828.0,182.2734375L824.0,176.75L820.0,182.2734375L816.0,176.75L812.0,182.2734375L808.0,176.75L804.0,182.2734375L812.0,182.2734375L808.0,187.796875L800.0,176.75L792.0,187.796875L788.0,182.2734375L796.0,182.2734375L792.0,176.75L788.0,182.2734375L784.0,176.75L780.0,182.2734375L776.0,176.75L772.0,182.2734375L780.0,182.2734375L776.0,187.796875L784.0,187.796875L780.0,193.3203125L788.0,193.3203125L784.0,187.796875L792.0,187.796875L784.0,198.84375L800.0,198.84375L796.0,204.3671875L792.0,198.84375L788.0,204.3671875L796.0,204.3671875L792.0,209.890625L800.0,209.890625L796.0,215.4140625L804.0,215.4140625L800.0,209.890625L808.0,209.890625L804.0,204.3671875L812.0,204.3671875L808.0,198.84375L804.0,204.3671875L800.0,198.84375L816.0,198.84375L800.0,220.9375L768.0,176.75L896.0,176.75L832.0,88.375L896.0,88.375L880.0,110.46875L872.0,99.421875L880.0,99.421875L876.0,104.9453125L884.0,104.9453125L880.0,99.421875L888.0,99.421875L884.0,93.8984375L892.0,93.8984375L888.0,88.375L884.0,93.8984375L880.0,88.375L876.0,93.8984375L872.0,88.375L868.0,93.8984375L876.0,93.8984375L872.0,99.421875L864.0,88.375L856.0,99.421875L852.0,93.8984375L860.0,93.8984375L856.0,88.375L852.0,93.8984375L848.0,88.375L844.0,93.8984375L840.0,88.375L836.0,93.8984375L844.0,93.8984375L840.0,99.421875L848.0,99.421875L844.0,104.9453125L852.0,104.9453125L848.0,99.421875L856.0,99.421875L848.0,110.46875L864.0,110.46875L860.0,115.9921875L856.0,110.46875L852.0,115.9921875L860.0,115.9921875L856.0,121.515625L864.0,121.515625L860.0,127.0390625L868.0,127.0390625L864.0,121.515625L872.0,121.515625L868.0,115.9921875L876.0,115.9921875L872.0,110.46875L868.0,115.9921875L864.0,110.46875L880.0,110.46875L864.0,132.5625L896.0,132.5625L888.0,143.609375L884.0,138.0859375L892.0,138.0859375L888.0,132.5625L884.0,138.0859375L880.0,132.5625L876.0,138.0859375L872.0,132.5625L868.0,138.0859375L876.0,138.0859375L872.0,143.609375L880.0,143.609375L876.0,149.1328125L884.0,149.1328125L880.0,143.609375L888.0,143.609375L880.0,154.65625L896.0,154.65625L892.0,160.1796875L888.0,154.65625L884.0,160.1796875L892.0,160.1796875L888.0,165.703125L896.0,165.703125L892.0,171.2265625L900.0,171.2265625L896.0,165.703125L904.0,165.703125L900.0,160.1796875L908.0,160.1796875L904.0,154.65625L900.0,160.1796875L896.0,154.65625L912.0,154.65625L904.0,143.609375L912.0,143.609375L908.0,149.1328125L916.0,149.1328125L912.0,143.609375L920.0,143.609375L916.0,138.0859375L924.0,138.0859375L920.0,132.5625L916.0,138.0859375L912.0,132.5625L908.0,138.0859375L904.0,132.5625L900.0,138.0859375L908.0,138.0859375L904.0,143.609375L896.0,132.5625L928.0,132.5625L912.0,110.46875L928.0,110.46875L924.0,115.9921875L920.0,110.46875L916.0,115.9921875L924.0,115.9921875L920.0,121.515625L928.0,121.515625L924.0,127.0390625L932.0,127.0390625L928.0,121.515625L936.0,121.515625L932.0,115.9921875L940.0,115.9921875L936.0,110.46875L932.0,115.9921875L928.0,110.46875L944.0,110.46875L936.0,99.421875L944.0,99.421875L940.0,104.9453125L948.0,104.9453125L944.0,99.421875L952.0,99.421875L948.0,93.8984375L956.0,93.8984375L952.0,88.375L948.0,93.8984375L944.0,88.375L940.0,93.8984375L936.0,88.375L932.0,93.8984375L940.0,93.8984375L936.0,99.421875L928.0,88.375L920.0,99.421875L916.0,93.8984375L924.0,93.8984375L920.0,88.375L916.0,93.8984375L912.0,88.375L908.0,93.8984375L904.0,88.375L900.0,93.8984375L908.0,93.8984375L904.0,99.421875L912.0,99.421875L908.0,104.9453125L916.0,104.9453125L912.0,99.421875L920.0,99.421875L912.0,110.46875L896.0,88.375L960.0,88.375L928.0,44.1875L960.0,44.1875L952.0,55.234375L948.0,49.7109375L956.0,49.7109375L952.0,44.1875L948.0,49.7109375L944.0,44.1875L940.0,49.7109375L936.0,44.1875L932.0,49.7109375L940.0,49.7109375L936.0,55.234375L944.0,55.234375L940.0,60.7578125L948.0,60.7578125L944.0,55.234375L952.0,55.234375L944.0,66.28125L960.0,66.28125L956.0,71.8046875L952.0,66.28125L948.0,71.8046875L956.0,71.8046875L952.0,77.328125L960.0,77.328125L956.0,82.8515625L964.0,82.8515625L960.0,77.328125L968.0,77.328125L964.0,71.8046875L972.0,71.8046875L968.0,66.28125L964.0,71.8046875L960.0,66.28125L976.0,66.28125L968.0,55.234375L976.0,55.234375L972.0,60.7578125L980.0,60.7578125L976.0,55.234375L984.0,55.234375L980.0,49.7109375L988.0,49.7109375L984.0,44.1875L980.0,49.7109375L976.0,44.1875L972.0,49.7109375L968.0,44.1875L964.0,49.7109375L972.0,49.7109375L968.0,55.234375L960.0,44.1875L992.0,44.1875L976.0,22.09375L992.0,22.09375L988.0,27.6171875L984.0,22.09375L980.0,27.6171875L988.0,27.6171875L984.0,33.140625L992.0,33.140625L988.0,38.6640625L996.0,38.6640625L992.0,33.140625L1000.0,33.140625L996.0,27.6171875L1004.0,27.6171875L1000.0,22.09375L996.0,27.6171875L992.0,22.09375L1008.0,22.09375L1000.0,11.046875L1008.0,11.046875L1004.0,16.5703125L1012.0,16.5703125L1008.0,11.046875L1016.0,11.046875L1012.0,5.5234375L1020.0,5.5234375L1016.0,0.0L1012.0,5.5234375L1008.0,0.0L1004.0,5.5234375L1000.0,0.0L996.0,5.5234375L1004.0,5.5234375L1000.0,11.046875L992.0,0.0L984.0,11.046875L980.0,5.5234375L988.0,5.5234375L984.0,0.0L980.0,5.5234375L976.0,0.0L972.0,5.5234375L968.0,0.0L964.0,5.5234375L972.0,5.5234375L968.0,11.046875L976.0,11.046875L972.0,16.5703125L980.0,16.5703125L976.0,11.046875L984.0,11.046875L976.0,22.09375L960.0,0.0L944.0,22.09375L936.0,11.046875L944.0,11.046875L940.0,16.5703125L948.0,16.5703125L944.0,11.046875L952.0,11.046875L948.0,5.5234375L956.0,5.5234375L952.0,0.0L948.0,5.5234375L944.0,0.0L940.0,5.5234375L936.0,0.0L932.0,5.5234375L940.0,5.5234375L936.0,11.046875L928.0,0.0L920.0,11.046875L916.0,5.5234375L924.0,5.5234375L920.0,0.0L916.0,5.5234375L912.0,0.0L908.0,5.5234375L904.0,0.0L900.0,5.5234375L908.0,5.5234375L904.0,11.046875L912.0,11.046875L908.0,16.5703125L916.0,16.5703125L912.0,11.046875L920.0,11.046875L912.0,22.09375L928.0,22.09375L924.0,27.6171875L920.0,22.09375L916.0,27.6171875L924.0,27.6171875L920.0,33.140625L928.0,33.140625L924.0,38.6640625L932.0,38.6640625L928.0,33.140625L936.0,33.140625L932.0,27.6171875L940.0,27.6171875L936.0,22.09375L932.0,27.6171875L928.0,22.09375L944.0,22.09375L928.0,44.1875L896.0,0.0L864.0,44.1875L848.0,22.09375L864.0,22.09375L860.0,27.6171875L856.0,22.09375L852.0,27.6171875L860.0,27.6171875L856.0,33.140625L864.0,33.140625L860.0,38.6640625L868.0,38.6640625L864.0,33.140625L872.0,33.140625L868.0,27.6171875L876.0,27.6171875L872.0,22.09375L868.0,27.6171875L864.0,22.09375L880.0,22.09375L872.0,11.046875L880.0,11.046875L876.0,16.5703125L884.0,16.5703125L880.0,11.046875L888.0,11.046875L884.0,5.5234375L892.0,5.5234375L888.0,0.0L884.0,5.5234375L880.0,0.0L876.0,5.5234375L872.0,0.0L868.0,5.5234375L876.0,5.5234375L872.0,11.046875L864.0,0.0L856.0,11.046875L852.0,5.5234375L860.0,5.5234375L856.0,0.0L852.0,5.5234375L848.0,0.0L844.0,5.5234375L840.0,0.0L836.0,5.5234375L844.0,5.5234375L840.0,11.046875L848.0,11.046875L844.0,16.5703125L852.0,16.5703125L848.0,11.046875L856.0,11.046875L848.0,22.09375L832.0,0.0L816.0,22.09375L808.0,11.046875L816.0,11.046875L812.0,16.5703125L820.0,16.5703125L816.0,11.046875L824.0,11.046875L820.0,5.5234375L828.0,5.5234375L824.0,0.0L820.0,5.5234375L816.0,0.0L812.0,5.5234375L808.0,0.0L804.0,5.5234375L812.0,5.5234375L808.0,11.046875L800.0,0.0L792.0,11.046875L788.0,5.5234375L796.0,5.5234375L792.0,0.0L788.0,5.5234375L784.0,0.0L780.0,5.5234375L776.0,0.0L772.0,5.5234375L780.0,5.5234375L776.0,11.046875L784.0,11.046875L780.0,16.5703125L788.0,16.5703125L784.0,11.046875L792.0,11.046875L784.0,22.09375L800.0,22.09375L796.0,27.6171875L792.0,22.09375L788.0,27.6171875L796.0,27.6171875L792.0,33.140625L800.0,33.140625L796.0,38.6640625L804.0,38.6640625L800.0,33.140625L808.0,33.140625L804.0,27.6171875L812.0,27.6171875L808.0,22.09375L804.0,27.6171875L800.0,22.09375L816.0,22.09375L800.0,44.1875L832.0,44.1875L824.0,55.234375L820.0,49.7109375L828.0,49.7109375L824.0,44.1875L820.0,49.7109375L816.0,44.1875L812.0,49.7109375L808.0,44.1875L804.0,49.7109375L812.0,49.7109375L808.0,55.234375L816.0,55.234375L812.0,60.7578125L820.0,60.7578125L816.0,55.234375L824.0,55.234375L816.0,66.28125L832.0,66.28125L828.0,71.8046875L824.0,66.28125L820.0,71.8046875L828.0,71.8046875L824.0,77.328125L832.0,77.328125L828.0,82.8515625L836.0,82.8515625L832.0,77.328125L840.0,77.328125L836.0,71.8046875L844.0,71.8046875L840.0,66.28125L836.0,71.8046875L832.0,66.28125L848.0,66.28125L840.0,55.234375L848.0,55.234375L844.0,60.7578125L852.0,60.7578125L848.0,55.234375L856.0,55.234375L852.0,49.7109375L860.0,49.7109375L856.0,44.1875L852.0,49.7109375L848.0,44.1875L844.0,49.7109375L840.0,44.1875L836.0,49.7109375L844.0,49.7109375L840.0,55.234375L832.0,44.1875L864.0,44.1875L832.0,88.375L768.0,0.0L704.0,88.375L672.0,44.1875L704.0,44.1875L696.0,55.234375L692.0,49.7109375L700.0,49.7109375L696.0,44.1875L692.0,49.7109375L688.0,44.1875L684.0,49.7109375L680.0,44.1875L676.0,49.7109375L684.0,49.7109375L680.0,55.234375L688.0,55.234375L684.0,60.7578125L692.0,60.7578125L688.0,55.234375L696.0,55.234375L688.0,66.28125L704.0,66.28125L700.0,71.8046875L696.0,66.28125L692.0,71.8046875L700.0,71.8046875L696.0,77.328125L704.0,77.328125L700.0,82.8515625L708.0,82.8515625L704.0,77.328125L712.0,77.328125L708.0,71.8046875L716.0,71.8046875L712.0,66.28125L708.0,71.8046875L704.0,66.28125L720.0,66.28125L712.0,55.234375L720.0,55.234375L716.0,60.7578125L724.0,60.7578125L720.0,55.234375L728.0,55.234375L724.0,49.7109375L732.0,49.7109375L728.0,44.1875L724.0,49.7109375L720.0,44.1875L716.0,49.7109375L712.0,44.1875L708.0,49.7109375L716.0,49.7109375L712.0,55.234375L704.0,44.1875L736.0,44.1875L720.0,22.09375L736.0,22.09375L732.0,27.6171875L728.0,22.09375L724.0,27.6171875L732.0,27.6171875L728.0,33.140625L736.0,33.140625L732.0,38.6640625L740.0,38.6640625L736.0,33.140625L744.0,33.140625L740.0,27.6171875L748.0,27.6171875L744.0,22.09375L740.0,27.6171875L736.0,22.09375L752.0,22.09375L744.0,11.046875L752.0,11.046875L748.0,16.5703125L756.0,16.5703125L752.0,11.046875L760.0,11.046875L756.0,5.5234375L764.0,5.5234375L760.0,0.0L756.0,5.5234375L752.0,0.0L748.0,5.5234375L744.0,0.0L740.0,5.5234375L748.0,5.5234375L744.0,11.046875L736.0,0.0L728.0,11.046875L724.0,5.5234375L732.0,5.5234375L728.0,0.0L724.0,5.5234375L720.0,0.0L716.0,5.5234375L712.0,0.0L708.0,5.5234375L716.0,5.5234375L712.0,11.046875L720.0,11.046875L716.0,16.5703125L724.0,16.5703125L720.0,11.046875L728.0,11.046875L720.0,22.09375L704.0,0.0L688.0,22.09375L680.0,11.046875L688.0,11.046875L684.0,16.5703125L692.0,16.5703125L688.0,11.046875L696.0,11.046875L692.0,5.5234375L700.0,5.5234375L696.0,0.0L692.0,5.5234375L688.0,0.0L684.0,5.5234375L680.0,0.0L676.0,5.5234375L684.0,5.5234375L680.0,11.046875L672.0,0.0L664.0,11.046875L660.0,5.5234375L668.0,5.5234375L664.0,0.0L660.0,5.5234375L656.0,0.0L652.0,5.5234375L648.0,0.0L644.0,5.5234375L652.0,5.5234375L648.0,11.046875L656.0,11.046875L652.0,16.5703125L660.0,16.5703125L656.0,11.046875L664.0,11.046875L656.0,22.09375L672.0,22.09375L668.0,27.6171875L664.0,22.09375L660.0,27.6171875L668.0,27.6171875L664.0,33.140625L672.0,33.140625L668.0,38.6640625L676.0,38.6640625L672.0,33.140625L680.0,33.140625L676.0,27.6171875L684.0,27.6171875L680.0,22.09375L676.0,27.6171875L672.0,22.09375L688.0,22.09375L672.0,44.1875L640.0,0.0L608.0,44.1875L592.0,22.09375L608.0,22.09375L604.0,27.6171875L600.0,22.09375L596.0,27.6171875L604.0,27.6171875L600.0,33.140625L608.0,33.140625L604.0,38.6640625L612.0,38.6640625L608.0,33.140625L616.0,33.140625L612.0,27.6171875L620.0,27.6171875L616.0,22.09375L612.0,27.6171875L608.0,22.09375L624.0,22.09375L616.0,11.046875L624.0,11.046875L620.0,16.5703125L628.0,16.5703125L624.0,11.046875L632.0,11.046875L628.0,5.5234375L636.0,5.5234375L632.0,0.0L628.0,5.5234375L624.0,0.0L620.0,5.5234375L616.0,0.0L612.0,5.5234375L620.0,5.5234375L616.0,11.046875L608.0,0.0L600.0,11.046875L596.0,5.5234375L604.0,5.5234375L600.0,0.0L596.0,5.5234375L592.0,0.0L588.0,5.5234375L584.0,0.0L580.0,5.5234375L588.0,5.5234375L584.0,11.046875L592.0,11.046875L588.0,16.5703125L596.0,16.5703125L592.0,11.046875L600.0,11.046875L592.0,22.09375L576.0,0.0L560.0,22.09375L552.0,11.046875L560.0,11.046875L556.0,16.5703125L564.0,16.5703125L560.0,11.046875L568.0,11.046875L564.0,5.5234375L572.0,5.5234375L568.0,0.0L564.0,5.5234375L560.0,0.0L556.0,5.5234375L552.0,0.0L548.0,5.5234375L556.0,5.5234375L552.0,11.046875L544.0,0.0L536.0,11.046875L532.0,5.5234375L540.0,5.5234375L536.0,0.0L532.0,5.5234375L528.0,0.0L524.0,5.5234375L520.0,0.0L516.0,5.5234375L524.0,5.5234375L520.0,11.046875L528.0,11.046875L524.0,16.5703125L532.0,16.5703125L528.0,11.046875L536.0,11.046875L528.0,22.09375L544.0,22.09375L540.0,27.6171875L536.0,22.09375L532.0,27.6171875L540.0,27.6171875L536.0,33.140625L544.0,33.140625L540.0,38.6640625L548.0,38.6640625L544.0,33.140625L552.0,33.140625L548.0,27.6171875L556.0,27.6171875L552.0,22.09375L548.0,27.6171875L544.0,22.09375L560.0,22.09375L544.0,44.1875L576.0,44.1875L568.0,55.234375L564.0,49.7109375L572.0,49.7109375L568.0,44.1875L564.0,49.7109375L560.0,44.1875L556.0,49.7109375L552.0,44.1875L548.0,49.7109375L556.0,49.7109375L552.0,55.234375L560.0,55.234375L556.0,60.7578125L564.0,60.7578125L560.0,55.234375L568.0,55.234375L560.0,66.28125L576.0,66.28125L572.0,71.8046875L568.0,66.28125L564.0,71.8046875L572.0,71.8046875L568.0,77.328125L576.0,77.328125L572.0,82.8515625L580.0,82.8515625L576.0,77.328125L584.0,77.328125L580.0,71.8046875L588.0,71.8046875L584.0,66.28125L580.0,71.8046875L576.0,66.28125L592.0,66.28125L584.0,55.234375L592.0,55.234375L588.0,60.7578125L596.0,60.7578125L592.0,55.234375L600.0,55.234375L596.0,49.7109375L604.0,49.7109375L600.0,44.1875L596.0,49.7109375L592.0,44.1875L588.0,49.7109375L584.0,44.1875L580.0,49.7109375L588.0,49.7109375L584.0,55.234375L576.0,44.1875L608.0,44.1875L576.0,88.375L640.0,88.375L624.0,110.46875L616.0,99.421875L624.0,99.421875L620.0,104.9453125L628.0,104.9453125L624.0,99.421875L632.0,99.421875L628.0,93.8984375L636.0,93.8984375L632.0,88.375L628.0,93.8984375L624.0,88.375L620.0,93.8984375L616.0,88.375L612.0,93.8984375L620.0,93.8984375L616.0,99.421875L608.0,88.375L600.0,99.421875L596.0,93.8984375L604.0,93.8984375L600.0,88.375L596.0,93.8984375L592.0,88.375L588.0,93.8984375L584.0,88.375L580.0,93.8984375L588.0,93.8984375L584.0,99.421875L592.0,99.421875L588.0,104.9453125L596.0,104.9453125L592.0,99.421875L600.0,99.421875L592.0,110.46875L608.0,110.46875L604.0,115.9921875L600.0,110.46875L596.0,115.9921875L604.0,115.9921875L600.0,121.515625L608.0,121.515625L604.0,127.0390625L612.0,127.0390625L608.0,121.515625L616.0,121.515625L612.0,115.9921875L620.0,115.9921875L616.0,110.46875L612.0,115.9921875L608.0,110.46875L624.0,110.46875L608.0,132.5625L640.0,132.5625L632.0,143.609375L628.0,138.0859375L636.0,138.0859375L632.0,132.5625L628.0,138.0859375L624.0,132.5625L620.0,138.0859375L616.0,132.5625L612.0,138.0859375L620.0,138.0859375L616.0,143.609375L624.0,143.609375L620.0,149.1328125L628.0,149.1328125L624.0,143.609375L632.0,143.609375L624.0,154.65625L640.0,154.65625L636.0,160.1796875L632.0,154.65625L628.0,160.1796875L636.0,160.1796875L632.0,165.703125L640.0,165.703125L636.0,171.2265625L644.0,171.2265625L640.0,165.703125L648.0,165.703125L644.0,160.1796875L652.0,160.1796875L648.0,154.65625L644.0,160.1796875L640.0,154.65625L656.0,154.65625L648.0,143.609375L656.0,143.609375L652.0,149.1328125L660.0,149.1328125L656.0,143.609375L664.0,143.609375L660.0,138.0859375L668.0,138.0859375L664.0,132.5625L660.0,138.0859375L656.0,132.5625L652.0,138.0859375L648.0,132.5625L644.0,138.0859375L652.0,138.0859375L648.0,143.609375L640.0,132.5625L672.0,132.5625L656.0,110.46875L672.0,110.46875L668.0,115.9921875L664.0,110.46875L660.0,115.9921875L668.0,115.9921875L664.0,121.515625L672.0,121.515625L668.0,127.0390625L676.0,127.0390625L672.0,121.515625L680.0,121.515625L676.0,115.9921875L684.0,115.9921875L680.0,110.46875L676.0,115.9921875L672.0,110.46875L688.0,110.46875L680.0,99.421875L688.0,99.421875L684.0,104.9453125L692.0,104.9453125L688.0,99.421875L696.0,99.421875L692.0,93.8984375L700.0,93.8984375L696.0,88.375L692.0,93.8984375L688.0,88.375L684.0,93.8984375L680.0,88.375L676.0,93.8984375L684.0,93.8984375L680.0,99.421875L672.0,88.375L664.0,99.421875L660.0,93.8984375L668.0,93.8984375L664.0,88.375L660.0,93.8984375L656.0,88.375L652.0,93.8984375L648.0,88.375L644.0,93.8984375L652.0,93.8984375L648.0,99.421875L656.0,99.421875L652.0,104.9453125L660.0,104.9453125L656.0,99.421875L664.0,99.421875L656.0,110.46875L640.0,88.375L704.0,88.375L640.0,176.75L512.0,0.0" fill="none" stroke="black" stroke-width="0.1"/>
</svg>
