<svg xmlns="http://www.w3.org/2000/svg" version="1.1" width="1024" height="624">
<g transform="scale(4.000000) translate(0.5 0.5)">
<path stroke="#000000" stroke-opacity="0.501961" fill="none" d="M 248.861098 52.686683 Q 258.457036 108.601857, 251.863863 162.298116" stroke-width="0.500000" />
<path stroke="#000000" stroke-opacity="0.501961" fill="none" d="M 73.269483 58.425952 Q 44.990616 62.193378, 39.420664 55.284695" stroke-width="0.500000" />
<path stroke="#000000" stroke-opacity="0.501961" fill="none" d="M 46.055493 74.264156 Q 36.146786 62.742399, 67.124127 32.285809" stroke-width="0.500000" />
<path stroke="#000000" stroke-opacity="0.501961" fill="none" d="M 72.180506 58.324568 Q 49.949010 69.795480, 4.837301 73.027175" stroke-width="0.500000" />
<path stroke="#000000" stroke-opacity="0.501961" fill="none" d="M 62.619060 39.521543 Q 40.174329 47.161130, 50.936928 81.004283" stroke-width="0.500000" />
<path stroke="#000000" stroke-opacity="0.501961" fill="none" d="M 257.113191 114.877970 Q 251.575716 115.461678, 252.814453 152.450805" stroke-width="0.500000" />
<path stroke="#000000" stroke-opacity="0.501961" fill="none" d="M 45.833146 42.894512 Q 51.457841 59.184247, 69.681359 58.679983" stroke-width="0.500000" />
<path stroke="#000000" stroke-opacity="0.501961" fill="none" d="M 39.695469 55.197228 Q 41.399078 67.222071, 70.319375 58.633626" stroke-width="0.500000" />
<path stroke="#000000" stroke-opacity="0.501961" fill="none" d="M 50.994956 41.564430 Q 60.887005 79.515805, 53.584406 80.582517" stroke-width="0.500000" />
<path stroke="#000000" stroke-opacity="0.501961" fill="none" d="M 4.371389 71.371405 Q 53.407875 73.746627, 79.164720 52.356128" stroke-width="0.500000" />
<path stroke="#000000" stroke-opacity="0.501961" fill="none" d="M 269.384594 101.038590 Q 225.465371 49.406357, 178.363676 34.810359" stroke-width="0.500000" />
<path stroke="#000000" stroke-opacity="0.501961" fill="none" d="M 228.918664 140.981082 Q 236.417539 123.633861, 254.450005 91.270011" stroke-width="0.500000" />
<path stroke="#000000" stroke-opacity="0.501961" fill="none" d="M 81.776257 34.075969 Q 40.892065 38.697438, 54.282251 125.316562" stroke-width="0.500000" />
<path stroke="#000000" stroke-opacity="0.501961" fill="none" d="M 38.451183 53.920435 Q 41.044851 65.126370, 69.329175 57.905518" stroke-width="0.500000" />
<path stroke="#000000" stroke-opacity="0.501961" fill="none" d="M 67.161118 28.423092 Q 40.598546 90.832385, 3.577087 70.971714" stroke-width="0.500000" />
<path stroke="#000000" stroke-opacity="0.501961" fill="none" d="M 63.816820 33.232384 Q 34.612223 53.367384, 66.027424 121.024479" stroke-width="0.500000" />
<path stroke="#000000" stroke-opacity="0.501961" fill="none" d="M 250.166472 72.940761 Q 258.320372 121.050488, 249.281673 168.785125" stroke-width="0.500000" />
<path stroke="#000000" stroke-opacity="0.501961" fill="none" d="M 54.703919 78.648295 Q 68.332776 53.868853, 43.945112 43.910885" stroke-width="0.500000" />
<path stroke="#000000" stroke-opacity="0.501961" fill="none" d="M 56.294393 44.857836 Q 38.853097 83.281151, 11.610711 63.457898" stroke-width="0.500000" />
<path stroke="#000000" stroke-opacity="0.501961" fill="none" d="M 57.571919 85.425939 Q 28.285422 63.348663, 66.514567 33.968063" stroke-width="0.500000" />
<path stroke="#000000" stroke-opacity="0.501961" fill="none" d="M 25.345661 76.809600 Q 48.221795 45.147109, 66.400210 59.929839" stroke-width="0.500000" />
<path stroke="#000000" stroke-opacity="0.501961" fill="none" d="M 216.621277 55.817973 Q 267.153435 67.516870, 231.971155 135.300800" stroke-width="0.500000" />
<path stroke="#000000" stroke-opacity="0.501961" fill="none" d="M 77.091380 54.776575 Q 61.751324 63.152641, 37.488906 52.962067" stroke-width="0.500000" />
<path stroke="#000000" stroke-opacity="0.501961" fill="none" d="M 252.580082 118.886381 Q 252.040814 132.688209, 253.657436 150.366754" stroke-width="0.500000" />
<path stroke="#000000" stroke-opacity="0.501961" fill="none" d="M 250.386314 99.636527 Q 246.103389 66.798836, 168.257703 23.299627" stroke-width="0.500000" />
<path stroke="#000000" stroke-opacity="0.501961" fill="none" d="M 251.397461 101.667895 Q 247.912871 93.813044, 258.098627 59.934098" stroke-width="0.500000" />
<path stroke="#000000" stroke-opacity="0.501961" fill="none" d="M 41.344269 50.885671 Q 30.144849 68.682499, 60.015544 76.460744" stroke-width="0.500000" />
<path stroke="#000000" stroke-opacity="0.501961" fill="none" d="M 54.021341 36.289738 Q 39.293652 72.617549, 73.307884 72.486401" stroke-width="0.500000" />
<path stroke="#000000" stroke-opacity="0.501961" fill="none" d="M 222.500835 62.427631 Q 225.048002 65.004847, 260.561828 87.232574" stroke-width="0.500000" />
<path stroke="#000000" stroke-opacity="0.501961" fill="none" d="M 94.128576 20.019996 Q 101.771748 22.248776, 109.836897 55.457169" stroke-width="0.500000" />
<path stroke="#000000" stroke-opacity="0.501961" fill="none" d="M 251.960587 146.425439 Q 262.289172 72.743402, 234.187223 57.467526" stroke-width="0.500000" />
<path stroke="#000000" stroke-opacity="0.501961" fill="none" d="M 29.033765 96.780948 Q 50.988034 73.354549, 72.530746 36.123932" stroke-width="0.500000" />
<path stroke="#000000" stroke-opacity="0.501961" fill="none" d="M 80.763439 76.422813 Q 60.209463 79.232492, 46.498926 45.639183" stroke-width="0.500000" />
<path stroke="#000000" stroke-opacity="0.501961" fill="none" d="M 37.769658 87.752034 Q 61.455060 28.478174, 100.375997 26.973035" stroke-width="0.500000" />
<path stroke="#000000" stroke-opacity="0.501961" fill="none" d="M 36.838502 59.129166 Q 53.079627 61.974563, 61.512888 69.241128" stroke-width="0.500000" />
<path stroke="#000000" stroke-opacity="0.501961" fill="none" d="M 2.718213 69.347022 Q 28.496732 86.321384, 75.276326 55.760554" stroke-width="0.500000" />
<path stroke="#000000" stroke-opacity="0.501961" fill="none" d="M 110.059036 57.740207 Q 93.830112 23.808138, 93.782337 23.252714" stroke-width="0.500000" />
<path stroke="#000000" stroke-opacity="0.501961" fill="none" d="M 176.841243 26.944747 Q 178.814915 36.492834, 187.891515 39.285379" stroke-width="0.500000" />
<path stroke="#000000" stroke-opacity="0.501961" fill="none" d="M 249.155020 100.596241 Q 262.566890 49.933645, 205.520185 55.391787" stroke-width="0.500000" />
<path stroke="#000000" stroke-opacity="0.501961" fill="none" d="M 71.862502 115.224971 Q 66.301491 110.273901, 48.537813 121.778260" stroke-width="0.500000" />
<path stroke="#000000" stroke-opacity="0.501961" fill="none" d="M 218.231602 61.711663 Q 262.426752 86.727244, 252.865854 106.200542" stroke-width="0.500000" />
<path stroke="#000000" stroke-opacity="0.501961" fill="none" d="M 252.875246 139.486169 Q 271.000000 69.196212, 179.404578 36.260577" stroke-width="0.500000" />
<path stroke="#000000" stroke-opacity="0.501961" fill="none" d="M 60.145194 123.008768 Q 51.726162 60.525639, 59.710372 31.448163" stroke-width="0.500000" />
<path stroke="#000000" stroke-opacity="0.501961" fill="none" d="M 68.300019 30.673828 Q 24.990337 98.815762, 80.512056 122.781423" stroke-width="0.500000" />
<path stroke="#000000" stroke-opacity="0.501961" fill="none" d="M -16.000000 83.033316 Q 76.981422 44.787395, 113.065057 5.734933" stroke-width="0.500000" />
<path stroke="#000000" stroke-opacity="0.501961" fill="none" d="M 26.140550 79.312142 Q 42.186569 44.567866, 66.650429 38.879110" stroke-width="0.500000" />
<path stroke="#000000" stroke-opacity="0.501961" fill="none" d="M 39.293165 64.557441 Q 60.006979 90.654961, 95.729801 69.123940" stroke-width="0.500000" />
<path stroke="#000000" stroke-opacity="0.501961" fill="none" d="M 106.129030 50.002974 Q 107.808136 38.490017, 94.982570 18.320284" stroke-width="0.500000" />
<path stroke="#000000" stroke-opacity="0.501961" fill="none" d="M 219.594560 65.585405 Q 242.588236 80.721405, 268.491891 78.985781" stroke-width="0.500000" />
<path stroke="#000000" stroke-opacity="0.501961" fill="none" d="M 45.069609 70.447459 Q 70.649308 54.577838, 66.078928 32.220524" stroke-width="0.500000" />
<path stroke="#000000" stroke-opacity="0.501961" fill="none" d="M 38.300307 55.420033 Q 53.754282 48.756504, 56.729445 67.092891" stroke-width="0.500000" />
<path stroke="#000000" stroke-opacity="0.501961" fill="none" d="M 60.335739 171.000000 Q 19.130541 146.048716, 18.903015 145.559727" stroke-width="0.500000" />
<path stroke="#000000" stroke-opacity="0.501961" fill="none" d="M 265.536201 110.374934 Q 266.802974 77.402328, 240.634240 81.888191" stroke-width="0.500000" />
<path stroke="#000000" stroke-opacity="0.501961" fill="none" d="M 76.478016 55.522142 Q 16.891629 99.084123, -16.000000 27.026446" stroke-width="0.500000" />
<path stroke="#000000" stroke-opacity="0.501961" fill="none" d="M 267.696444 66.605585 Q 212.533635 54.508583, 158.391147 26.880572" stroke-width="0.500000" />
<path stroke="#000000" stroke-opacity="0.501961" fill="none" d="M 14.092662 66.299611 Q 64.528718 91.431276, 64.740648 30.541568" stroke-width="0.500000" />
<path stroke="#000000" stroke-opacity="0.501961" fill="none" d="M 247.336035 75.981527 Q 232.367131 91.291819, 265.900340 111.594015" stroke-width="0.500000" />
<path stroke="#000000" stroke-opacity="0.501961" fill="none" d="M 160.437073 28.192376 Q 159.148940 34.357852, 194.515465 40.255156" stroke-width="0.500000" />
<path stroke="#000000" stroke-opacity="0.501961" fill="none" d="M 58.519764 32.863507 Q 47.978400 37.423788, 49.803124 81.312277" stroke-width="0.500000" />
<path stroke="#000000" stroke-opacity="0.501961" fill="none" d="M 251.160636 110.130593 Q 270.445541 59.848576, 221.112653 63.572705" stroke-width="0.500000" />
<path stroke="#000000" stroke-opacity="0.501961" fill="none" d="M 22.209410 116.705524 Q 32.696377 120.749082, 76.215445 115.087651" stroke-width="0.500000" />
<path stroke="#000000" stroke-opacity="0.501961" fill="none" d="M 4.700196 72.938658 Q 101.214643 32.371678, 115.667996 6.006925" stroke-width="0.500000" />
<path stroke="#000000" stroke-opacity="0.501961" fill="none" d="M 99.754847 17.726463 Q 90.051630 20.804349, 95.181917 45.528586" stroke-width="0.500000" />
<path stroke="#000000" stroke-opacity="0.501961" fill="none" d="M 265.784878 98.926975 Q 239.269354 98.888110, 246.696468 75.975404" stroke-width="0.500000" />
<path stroke="#000000" stroke-opacity="0.501961" fill="none" d="M 50.123633 144.700993 Q 44.236491 154.908679, 17.473756 148.057701" stroke-width="0.500000" />
<path stroke="#000000" stroke-opacity="0.501961" fill="none" d="M 240.442422 83.281364 Q 262.498995 65.714295, 271.000000 85.433227" stroke-width="0.500000" />
<path stroke="#000000" stroke-opacity="0.501961" fill="none" d="M 29.550575 71.139533 Q 15.290349 60.366408, 6.436647 73.225174" stroke-width="0.500000" />
<path stroke="#000000" stroke-opacity="0.501961" fill="none" d="M 71.463156 119.934213 Q 28.989350 56.887900, 60.315718 40.495312" stroke-width="0.500000" />
<path stroke="#000000" stroke-opacity="0.501961" fill="none" d="M 167.308790 21.755947 Q 193.274786 36.393402, 195.460005 44.077778" stroke-width="0.500000" />
<path stroke="#000000" stroke-opacity="0.501961" fill="none" d="M 113.641204 9.404089 Q 83.953688 24.033578, 103.595931 41.969867" stroke-width="0.500000" />
<path stroke="#000000" stroke-opacity="0.501961" fill="none" d="M 92.606069 72.699612 Q 58.838011 77.201701, 46.390081 74.901759" stroke-width="0.500000" />
<path stroke="#000000" stroke-opacity="0.501961" fill="none" d="M 236.183912 123.458885 Q 233.180588 134.698906, 229.052487 136.973258" stroke-width="0.500000" />
<path stroke="#000000" stroke-opacity="0.501961" fill="none" d="M 38.307935 56.077894 Q 42.554639 52.285104, 64.795502 60.237549" stroke-width="0.500000" />
<path stroke="#000000" stroke-opacity="0.501961" fill="none" d="M 36.756305 57.712333 Q 49.784147 64.047369, 57.494547 44.740762" stroke-width="0.500000" />
<path stroke="#000000" stroke-opacity="0.501961" fill="none" d="M 43.028157 124.180022 Q 49.224816 121.870887, 73.527132 109.445970" stroke-width="0.500000" />
<path stroke="#000000" stroke-opacity="0.501961" fill="none" d="M 166.511133 32.182473 Q 174.439141 43.770372, 182.114846 38.748535" stroke-width="0.500000" />
<path stroke="#000000" stroke-opacity="0.501961" fill="none" d="M 196.809069 43.849666 Q 166.276326 24.548104, 154.718018 32.575312" stroke-width="0.500000" />
<path stroke="#000000" stroke-opacity="0.501961" fill="none" d="M 36.946678 62.723597 Q 48.452818 43.965472, 80.196259 33.059315" stroke-width="0.500000" />
<path stroke="#000000" stroke-opacity="0.501961" fill="none" d="M 73.485571 119.026093 Q 69.780696 103.705265, 52.679362 114.565260" stroke-width="0.500000" />
<path stroke="#000000" stroke-opacity="0.501961" fill="none" d="M 229.084617 54.604044 Q 271.000000 70.874972, 231.869728 133.872737" stroke-width="0.500000" />
<path stroke="#000000" stroke-opacity="0.501961" fill="none" d="M 76.466690 54.319746 Q 57.958086 71.470636, 39.377600 58.545304" stroke-width="0.500000" />
<path stroke="#000000" stroke-opacity="0.501961" fill="none" d="M 93.303912 30.168965 Q 96.381178 9.616107, 116.493594 8.873566" stroke-width="0.500000" />
<path stroke="#000000" stroke-opacity="0.501961" fill="none" d="M 64.500009 109.158484 Q 45.925720 168.729052, 22.958085 171.000000" stroke-width="0.500000" />
<path stroke="#000000" stroke-opacity="0.501961" fill="none" d="M 94.312734 17.319229 Q 100.412097 24.737713, 101.651263 44.425221" stroke-width="0.500000" />
<path stroke="#000000" stroke-opacity="0.501961" fill="none" d="M 77.608541 33.794789 Q 52.934374 24.255052, 39.510461 59.755059" stroke-width="0.500000" />
<path stroke="#000000" stroke-opacity="0.501961" fill="none" d="M 17.252978 146.433840 Q 33.426706 158.516449, 95.824048 171.000000" stroke-width="0.500000" />
<path stroke="#000000" stroke-opacity="0.501961" fill="none" d="M 255.460423 101.376368 Q 242.495525 89.731490, 271.000000 60.222351" stroke-width="0.500000" />
<path stroke="#000000" stroke-opacity="0.501961" fill="none" d="M 258.722687 96.622370 Q 236.775118 99.048781, 244.399638 78.217749" stroke-width="0.500000" />
<path stroke="#000000" stroke-opacity="0.501961" fill="none" d="M 5.251152 72.635388 Q 18.825514 80.742313, 64.842795 54.738821" stroke-width="0.500000" />
<path stroke="#000000" stroke-opacity="0.501961" fill="none" d="M 38.451426 51.521242 Q 49.277444 75.032466, 75.557290 54.267935" stroke-width="0.500000" />
<path stroke="#000000" stroke-opacity="0.501961" fill="none" d="M 79.092348 118.609311 Q 62.269162 105.293847, 54.074823 123.094119" stroke-width="0.500000" />
<path stroke="#000000" stroke-opacity="0.501961" fill="none" d="M 42.385629 83.312870 Q 58.962992 88.324624, 66.602595 33.723197" stroke-width="0.500000" />
<path stroke="#000000" stroke-opacity="0.501961" fill="none" d="M 26.818614 109.934782 Q 29.914776 111.521022, 74.566063 115.491201" stroke-width="0.500000" />
<path stroke="#000000" stroke-opacity="0.501961" fill="none" d="M 5.920885 41.566006 Q -6.027574 41.659317, -1.087243 52.577424" stroke-width="0.500000" />
<path stroke="#000000" stroke-opacity="0.501961" fill="none" d="M 28.459297 76.036921 Q 23.140356 69.552446, 2.839746 72.470264" stroke-width="0.500000" />
<path stroke="#000000" stroke-opacity="0.501961" fill="none" d="M 69.037924 41.692113 Q 33.655345 42.844701, 38.929956 67.527373" stroke-width="0.500000" />
<path stroke="#000000" stroke-opacity="0.501961" fill="none" d="M 270.131064 84.675507 Q 271.000000 61.029832, 217.433007 55.774726" stroke-width="0.500000" />
<path stroke="#000000" stroke-opacity="0.501961" fill="none" d="M 26.589526 166.674307 Q 88.197584 124.322353, 29.687796 87.117888" stroke-width="0.500000" />
<path stroke="#000000" stroke-opacity="0.501961" fill="none" d="M 23.858979 155.351767 Q 51.380760 140.984413, 55.591807 147.244564" stroke-width="0.500000" />
<path stroke="#000000" stroke-opacity="0.501961" fill="none" d="M 252.213295 164.964330 Q 254.444359 151.385986, 252.320488 117.045534" stroke-width="0.500000" />
</g>
</svg>
