<svg xmlns="http://www.w3.org/2000/svg" version="1.1" width="1024" height="624">
<g transform="scale(4.000000) translate(0.5 0.5)">
<path stroke="#000000" stroke-opacity="0.501961" fill="none" d="M 222.500427 150.649831 Q 227.494053 146.442501, 241.346531 115.140054" stroke-width="0.500000" />
<path stroke="#000000" stroke-opacity="0.501961" fill="none" d="M 243.189485 112.011026 Q 224.237131 148.796310, 222.910598 155.823227" stroke-width="0.500000" />
<path stroke="#000000" stroke-opacity="0.501961" fill="none" d="M 98.529658 12.483258 Q 96.966294 38.402919, 45.060575 41.396712" stroke-width="0.500000" />
<path stroke="#000000" stroke-opacity="0.501961" fill="none" d="M 96.525026 31.504431 Q 92.489678 18.448521, 99.654028 8.581519" stroke-width="0.500000" />
<path stroke="#000000" stroke-opacity="0.501961" fill="none" d="M 238.524178 119.891913 Q 231.274380 136.000905, 225.506451 146.239548" stroke-width="0.500000" />
<path stroke="#000000" stroke-opacity="0.501961" fill="none" d="M 251.289270 121.183157 Q 224.915217 128.068069, 206.200726 132.527069" stroke-width="0.500000" />
<path stroke="#000000" stroke-opacity="0.501961" fill="none" d="M 97.054097 28.955549 Q 96.849819 11.167043, 98.146456 11.936810" stroke-width="0.500000" />
<path stroke="#000000" stroke-opacity="0.501961" fill="none" d="M 97.057911 15.436853 Q 90.468307 20.942063, 102.735974 42.562885" stroke-width="0.500000" />
<path stroke="#000000" stroke-opacity="0.501961" fill="none" d="M 79.304982 32.684363 Q 63.658571 36.513387, 43.979915 45.331311" stroke-width="0.500000" />
<path stroke="#000000" stroke-opacity="0.501961" fill="none" d="M 271.000000 105.516538 Q 258.298518 53.555171, 216.564460 57.604806" stroke-width="0.500000" />
<path stroke="#000000" stroke-opacity="0.501961" fill="none" d="M 224.314749 73.807638 Q 227.672456 60.861008, 215.889041 51.270184" stroke-width="0.500000" />
<path stroke="#000000" stroke-opacity="0.501961" fill="none" d="M 262.485438 77.768743 Q 234.140971 122.369334, 218.906671 164.262467" stroke-width="0.500000" />
<path stroke="#000000" stroke-opacity="0.501961" fill="none" d="M 37.619375 109.046615 Q 6.039503 103.120377, -14.863651 102.940119" stroke-width="0.500000" />
<path stroke="#000000" stroke-opacity="0.501961" fill="none" d="M 224.053353 50.486006 Q 212.505631 71.199594, 271.000000 117.053430" stroke-width="0.500000" />
<path stroke="#000000" stroke-opacity="0.501961" fill="none" d="M 219.468679 64.117884 Q 245.803649 55.035822, 271.000000 85.314524" stroke-width="0.500000" />
<path stroke="#000000" stroke-opacity="0.501961" fill="none" d="M 223.843519 153.862175 Q 234.872447 126.724633, 243.715359 111.892260" stroke-width="0.500000" />
<path stroke="#000000" stroke-opacity="0.501961" fill="none" d="M 231.534122 63.032401 Q 172.125970 26.695551, 165.757274 19.308286" stroke-width="0.500000" />
<path stroke="#000000" stroke-opacity="0.501961" fill="none" d="M 46.295557 42.204407 Q 62.048594 47.073876, 72.381880 33.947630" stroke-width="0.500000" />
<path stroke="#000000" stroke-opacity="0.501961" fill="none" d="M 99.001167 14.379906 Q 103.483360 42.761298, 48.374289 40.236957" stroke-width="0.500000" />
<path stroke="#000000" stroke-opacity="0.501961" fill="none" d="M 102.347489 12.212972 Q 90.199799 17.446629, 103.664100 32.422794" stroke-width="0.500000" />
<path stroke="#000000" stroke-opacity="0.501961" fill="none" d="M 175.554089 39.992496 Q 162.080694 34.246861, 168.334213 19.909454" stroke-width="0.500000" />
<path stroke="#000000" stroke-opacity="0.501961" fill="none" d="M 254.947237 56.529614 Q 243.823042 64.152258, 254.248934 108.983194" stroke-width="0.500000" />
<path stroke="#000000" stroke-opacity="0.501961" fill="none" d="M 101.128205 38.044959 Q 91.763087 22.206182, 97.294833 11.618080" stroke-width="0.500000" />
<path stroke="#000000" stroke-opacity="0.501961" fill="none" d="M 61.943067 48.170860 Q 59.770399 43.919221, 65.728537 35.552742" stroke-width="0.500000" />
<path stroke="#000000" stroke-opacity="0.501961" fill="none" d="M 210.868025 56.490403 Q 271.000000 53.844588, 252.570762 105.489458" stroke-width="0.500000" />
<path stroke="#000000" stroke-opacity="0.501961" fill="none" d="M 78.437093 33.068391 Q 70.645733 40.896018, 49.139370 39.604368" stroke-width="0.500000" />
<path stroke="#000000" stroke-opacity="0.501961" fill="none" d="M 142.336969 147.638878 Q 196.537274 133.432717, 258.767240 120.085632" stroke-width="0.500000" />
<path stroke="#000000" stroke-opacity="0.501961" fill="none" d="M 222.062841 65.215214 Q 256.624422 43.841942, 271.000000 100.830925" stroke-width="0.500000" />
<path stroke="#000000" stroke-opacity="0.501961" fill="none" d="M 24.523056 89.941133 Q 33.659626 90.651334, 41.530194 94.682806" stroke-width="0.500000" />
<path stroke="#000000" stroke-opacity="0.501961" fill="none" d="M 25.626521 106.835389 Q 0.890431 102.216321, -12.729246 105.193072" stroke-width="0.500000" />
<path stroke="#000000" stroke-opacity="0.501961" fill="none" d="M 71.485685 48.094450 Q 71.905865 40.197870, 53.979323 33.522594" stroke-width="0.500000" />
<path stroke="#000000" stroke-opacity="0.501961" fill="none" d="M 145.400635 147.089882 Q 165.994168 141.006571, 210.553022 131.287906" stroke-width="0.500000" />
<path stroke="#000000" stroke-opacity="0.501961" fill="none" d="M 177.699304 116.985588 Q 147.971226 121.764585, 136.994083 118.098125" stroke-width="0.500000" />
<path stroke="#000000" stroke-opacity="0.501961" fill="none" d="M 177.039856 39.508034 Q 164.656873 39.155753, 167.705273 17.975413" stroke-width="0.500000" />
<path stroke="#000000" stroke-opacity="0.501961" fill="none" d="M 234.876610 58.820547 Q 221.729260 60.315997, 225.366325 72.125266" stroke-width="0.500000" />
<path stroke="#000000" stroke-opacity="0.501961" fill="none" d="M 34.919221 90.954629 Q 38.979830 78.418755, 54.396502 86.591987" stroke-width="0.500000" />
<path stroke="#000000" stroke-opacity="0.501961" fill="none" d="M 98.448632 10.769777 Q 95.836198 30.375626, 103.187076 32.523458" stroke-width="0.500000" />
<path stroke="#000000" stroke-opacity="0.501961" fill="none" d="M 257.462309 119.766692 Q 250.917045 90.508458, 250.320827 60.295096" stroke-width="0.500000" />
<path stroke="#000000" stroke-opacity="0.501961" fill="none" d="M 217.635612 55.083865 Q 228.968043 59.162137, 224.703619 71.228384" stroke-width="0.500000" />
<path stroke="#000000" stroke-opacity="0.501961" fill="none" d="M 83.029251 35.429852 Q 76.464540 30.435297, 59.286892 45.255824" stroke-width="0.500000" />
<path stroke="#000000" stroke-opacity="0.501961" fill="none" d="M 222.252815 155.357868 Q 238.204157 116.269469, 243.571065 113.030980" stroke-width="0.500000" />
<path stroke="#000000" stroke-opacity="0.501961" fill="none" d="M 103.695369 30.903773 Q 41.545985 25.733266, 28.456145 77.791696" stroke-width="0.500000" />
<path stroke="#000000" stroke-opacity="0.501961" fill="none" d="M 156.335323 120.422592 Q 138.413243 116.834807, 138.420565 116.395964" stroke-width="0.500000" />
<path stroke="#000000" stroke-opacity="0.501961" fill="none" d="M 219.174371 127.214403 Q 256.367728 128.215125, 254.622550 94.109297" stroke-width="0.500000" />
<path stroke="#000000" stroke-opacity="0.501961" fill="none" d="M 42.979599 44.774654 Q 80.229318 37.498675, 82.711004 34.050670" stroke-width="0.500000" />
<path stroke="#000000" stroke-opacity="0.501961" fill="none" d="M 81.577702 34.001415 Q 65.002224 29.305276, 64.545733 51.858111" stroke-width="0.500000" />
<path stroke="#000000" stroke-opacity="0.501961" fill="none" d="M 99.047015 12.252235 Q 102.421746 30.304720, 100.187692 41.366728" stroke-width="0.500000" />
<path stroke="#000000" stroke-opacity="0.501961" fill="none" d="M 271.000000 45.236327 Q 221.759103 69.669680, 271.000000 130.748394" stroke-width="0.500000" />
<path stroke="#000000" stroke-opacity="0.501961" fill="none" d="M 109.860406 68.702016 Q 64.658406 74.665591, 26.706531 90.565209" stroke-width="0.500000" />
<path stroke="#000000" stroke-opacity="0.501961" fill="none" d="M 67.608182 48.431441 Q 55.954314 37.873942, 65.405200 32.718501" stroke-width="0.500000" />
<path stroke="#000000" stroke-opacity="0.501961" fill="none" d="M 26.834528 86.812807 Q 41.086498 102.849402, 57.289037 87.431975" stroke-width="0.500000" />
<path stroke="#000000" stroke-opacity="0.501961" fill="none" d="M 135.862879 121.750440 Q 139.443868 128.117292, 169.215415 134.215437" stroke-width="0.500000" />
<path stroke="#000000" stroke-opacity="0.501961" fill="none" d="M 69.382668 32.052164 Q 59.730284 34.738878, 60.991144 47.397678" stroke-width="0.500000" />
<path stroke="#000000" stroke-opacity="0.501961" fill="none" d="M 212.459312 50.713391 Q 223.387589 69.092207, 266.575333 57.248598" stroke-width="0.500000" />
<path stroke="#000000" stroke-opacity="0.501961" fill="none" d="M 101.256323 33.144935 Q 87.744681 20.696397, 98.607470 14.331619" stroke-width="0.500000" />
<path stroke="#000000" stroke-opacity="0.501961" fill="none" d="M 91.416505 35.767515 Q 93.374243 29.614536, 97.087696 13.218613" stroke-width="0.500000" />
<path stroke="#000000" stroke-opacity="0.501961" fill="none" d="M 101.875938 42.229500 Q 94.397457 20.814934, 96.177368 14.262621" stroke-width="0.500000" />
<path stroke="#000000" stroke-opacity="0.501961" fill="none" d="M 169.961495 17.456710 Q 160.221434 32.119999, 171.892039 37.525580" stroke-width="0.500000" />
<path stroke="#000000" stroke-opacity="0.501961" fill="none" d="M 234.763046 58.861953 Q 228.290443 66.111965, 217.680281 62.491085" stroke-width="0.500000" />
<path stroke="#000000" stroke-opacity="0.501961" fill="none" d="M 260.238217 109.937166 Q 223.352251 72.289067, 271.000000 46.811715" stroke-width="0.500000" />
<path stroke="#000000" stroke-opacity="0.501961" fill="none" d="M 71.693236 46.779191 Q 58.076697 43.574905, 56.461231 32.738645" stroke-width="0.500000" />
<path stroke="#000000" stroke-opacity="0.501961" fill="none" d="M 232.871713 64.179559 Q 229.619146 61.815866, 214.172068 54.745582" stroke-width="0.500000" />
<path stroke="#000000" stroke-opacity="0.501961" fill="none" d="M 156.602885 132.625012 Q 148.518128 139.339692, 136.465313 121.915494" stroke-width="0.500000" />
<path stroke="#000000" stroke-opacity="0.501961" fill="none" d="M 241.080803 114.287739 Q 237.744525 124.881284, 228.047270 143.430149" stroke-width="0.500000" />
<path stroke="#000000" stroke-opacity="0.501961" fill="none" d="M 99.308701 12.911479 Q 91.460128 21.423202, 97.308457 28.792336" stroke-width="0.500000" />
<path stroke="#000000" stroke-opacity="0.501961" fill="none" d="M 254.873215 103.654652 Q 239.625825 80.976859, 259.395850 54.423782" stroke-width="0.500000" />
<path stroke="#000000" stroke-opacity="0.501961" fill="none" d="M 81.335488 35.530564 Q 68.522475 35.051192, 45.761001 43.307353" stroke-width="0.500000" />
<path stroke="#000000" stroke-opacity="0.501961" fill="none" d="M 215.518713 48.192728 Q 215.334044 60.581033, 235.217896 84.024845" stroke-width="0.500000" />
<path stroke="#000000" stroke-opacity="0.501961" fill="none" d="M 197.515295 44.835175 Q 175.046083 20.419771, 167.746527 24.967418" stroke-width="0.500000" />
<path stroke="#000000" stroke-opacity="0.501961" fill="none" d="M 233.892069 59.196198 Q 183.109216 37.480218, 154.225108 28.218168" stroke-width="0.500000" />
<path stroke="#000000" stroke-opacity="0.501961" fill="none" d="M 26.473465 86.120624 Q 29.651522 90.342372, 54.476907 85.863557" stroke-width="0.500000" />
<path stroke="#000000" stroke-opacity="0.501961" fill="none" d="M 30.633496 90.080294 Q 36.228853 96.353048, 50.159322 93.679656" stroke-width="0.500000" />
<path stroke="#000000" stroke-opacity="0.501961" fill="none" d="M 60.555503 30.097475 Q 60.625005 45.842120, 73.507297 41.412479" stroke-width="0.500000" />
<path stroke="#000000" stroke-opacity="0.501961" fill="none" d="M 226.146262 127.881284 Q 257.565064 119.136181, 267.228841 119.523400" stroke-width="0.500000" />
<path stroke="#000000" stroke-opacity="0.501961" fill="none" d="M 84.489258 38.988959 Q 68.777969 20.408220, 49.725378 47.215177" stroke-width="0.500000" />
<path stroke="#000000" stroke-opacity="0.501961" fill="none" d="M 252.775511 113.579851 Q 257.769601 100.848033, 250.467835 86.791915" stroke-width="0.500000" />
<path stroke="#000000" stroke-opacity="0.501961" fill="none" d="M 180.854072 40.537397 Q 158.761852 40.316692, 168.944054 17.169949" stroke-width="0.500000" />
<path stroke="#000000" stroke-opacity="0.501961" fill="none" d="M 208.172706 132.002823 Q 169.699563 139.973206, 150.194183 146.212801" stroke-width="0.500000" />
<path stroke="#000000" stroke-opacity="0.501961" fill="none" d="M 223.382536 151.670753 Q 237.649071 125.091743, 241.353625 114.563328" stroke-width="0.500000" />
<path stroke="#000000" stroke-opacity="0.501961" fill="none" d="M 135.272857 121.344280 Q 157.973351 138.955278, 166.437712 128.711719" stroke-width="0.500000" />
<path stroke="#000000" stroke-opacity="0.501961" fill="none" d="M 94.955476 76.207845 Q 84.944542 69.236935, 93.835485 58.933507" stroke-width="0.500000" />
<path stroke="#000000" stroke-opacity="0.501961" fill="none" d="M 197.560764 82.379454 Q 192.025494 108.582192, 170.571989 118.953703" stroke-width="0.500000" />
<path stroke="#000000" stroke-opacity="0.501961" fill="none" d="M 88.774000 55.010261 Q 82.929988 25.990521, 59.706317 45.102064" stroke-width="0.500000" />
<path stroke="#000000" stroke-opacity="0.501961" fill="none" d="M 63.871578 86.728528 Q 61.802422 89.333505, 25.177923 89.627248" stroke-width="0.500000" />
<path stroke="#000000" stroke-opacity="0.501961" fill="none" d="M 54.471952 34.310221 Q 94.612385 29.144070, 90.623995 68.007891" stroke-width="0.500000" />
<path stroke="#000000" stroke-opacity="0.501961" fill="none" d="M 264.586209 46.789370 Q 263.812211 52.753639, 246.122824 69.034408" stroke-width="0.500000" />
<path stroke="#000000" stroke-opacity="0.501961" fill="none" d="M 92.646600 25.359454 Q 105.186897 7.133376, 110.856310 6.436441" stroke-width="0.500000" />
<path stroke="#000000" stroke-opacity="0.501961" fill="none" d="M 69.547986 41.331876 Q 39.673887 32.081564, 35.662603 76.000442" stroke-width="0.500000" />
<path stroke="#000000" stroke-opacity="0.501961" fill="none" d="M 30.294333 106.909334 Q -9.822541 100.309630, -16.000000 109.846218" stroke-width="0.500000" />
<path stroke="#000000" stroke-opacity="0.501961" fill="none" d="M 117.139990 95.983938 Q 117.311314 88.915818, 120.510298 88.269731" stroke-width="0.500000" />
<path stroke="#000000" stroke-opacity="0.501961" fill="none" d="M 36.168858 83.563470 Q 58.513613 80.781837, 53.206840 101.041916" stroke-width="0.500000" />
<path stroke="#000000" stroke-opacity="0.501961" fill="none" d="M 135.888809 118.381921 Q 146.592394 119.473520, 181.003723 117.321335" stroke-width="0.500000" />
<path stroke="#000000" stroke-opacity="0.501961" fill="none" d="M 69.134057 51.347202 Q 55.891709 39.599611, 62.449404 33.446100" stroke-width="0.500000" />
<path stroke="#000000" stroke-opacity="0.501961" fill="none" d="M 49.551629 82.526035 Q 76.958728 72.884698, 92.495222 73.129749" stroke-width="0.500000" />
<path stroke="#000000" stroke-opacity="0.501961" fill="none" d="M 271.000000 56.519840 Q 240.063056 61.738933, 205.632733 55.215998" stroke-width="0.500000" />
<path stroke="#000000" stroke-opacity="0.501961" fill="none" d="M 194.368335 40.628368 Q 182.450135 27.185368, 174.508866 39.875878" stroke-width="0.500000" />
<path stroke="#000000" stroke-opacity="0.501961" fill="none" d="M 244.567031 63.310284 Q 255.968919 74.396030, 271.000000 57.862886" stroke-width="0.500000" />
<path stroke="#000000" stroke-opacity="0.501961" fill="none" d="M 239.543373 120.362047 Q 235.981945 128.848491, 230.676298 126.970198" stroke-width="0.500000" />
<path stroke="#000000" stroke-opacity="0.501961" fill="none" d="M 102.773174 33.518306 Q 98.500048 23.091738, 97.563044 12.556020" stroke-width="0.500000" />
</g>
</svg>
