<svg xmlns="http://www.w3.org/2000/svg" version="1.1" width="1024" height="624">
<g transform="scale(4.000000) translate(0.5 0.5)">
<path stroke="#000000" stroke-opacity="0.501961" fill="none" d="M 75.062350 56.051840 Q 56.012653 69.495379, 37.969404 57.209978" stroke-width="0.500000" />
<path stroke="#000000" stroke-opacity="0.501961" fill="none" d="M 68.538144 39.211713 Q 40.308553 41.009845, 49.416674 78.096785" stroke-width="0.500000" />
<path stroke="#000000" stroke-opacity="0.501961" fill="none" d="M 80.112953 40.109077 Q 79.194659 71.972624, -0.183432 71.929756" stroke-width="0.500000" />
<path stroke="#000000" stroke-opacity="0.501961" fill="none" d="M 33.792789 50.735200 Q 71.461683 68.019091, 76.755048 52.303371" stroke-width="0.500000" />
<path stroke="#000000" stroke-opacity="0.501961" fill="none" d="M 54.605201 84.227571 Q 61.126238 63.671107, 45.687301 43.698990" stroke-width="0.500000" />
<path stroke="#000000" stroke-opacity="0.501961" fill="none" d="M 6.552202 72.173149 Q 34.214974 84.590717, 68.395958 28.652487" stroke-width="0.500000" />
<path stroke="#000000" stroke-opacity="0.501961" fill="none" d="M 260.295645 71.934718 Q 250.122093 121.619462, 253.759920 154.007957" stroke-width="0.500000" />
<path stroke="#000000" stroke-opacity="0.501961" fill="none" d="M 38.187768 54.940699 Q 41.335593 65.134204, 70.295081 57.478402" stroke-width="0.500000" />
<path stroke="#000000" stroke-opacity="0.501961" fill="none" d="M 63.906122 34.507432 Q 47.846110 75.632640, 49.592994 78.385476" stroke-width="0.500000" />
<path stroke="#000000" stroke-opacity="0.501961" fill="none" d="M 64.728494 33.109469 Q 40.049739 57.879903, 44.292571 73.407490" stroke-width="0.500000" />
<path stroke="#000000" stroke-opacity="0.501961" fill="none" d="M 37.151327 54.525388 Q 53.700331 57.727602, 74.012908 59.150234" stroke-width="0.500000" />
<path stroke="#000000" stroke-opacity="0.501961" fill="none" d="M 70.783097 36.832795 Q 52.768871 86.551059, 11.442481 65.044518" stroke-width="0.500000" />
<path stroke="#000000" stroke-opacity="0.501961" fill="none" d="M 53.124691 38.020814 Q 47.562442 64.146872, 50.458809 83.629672" stroke-width="0.500000" />
<path stroke="#000000" stroke-opacity="0.501961" fill="none" d="M 216.316586 66.401415 Q 251.649552 77.236470, 271.000000 95.680877" stroke-width="0.500000" />
<path stroke="#000000" stroke-opacity="0.501961" fill="none" d="M 254.206134 171.000000 Q 251.447688 147.347050, 254.755556 114.466144" stroke-width="0.500000" />
<path stroke="#000000" stroke-opacity="0.501961" fill="none" d="M 52.344169 46.041228 Q 55.709956 73.627913, 0.533795 72.179189" stroke-width="0.500000" />
<path stroke="#000000" stroke-opacity="0.501961" fill="none" d="M 252.676783 147.886803 Q 252.258833 127.757034, 252.530615 120.538220" stroke-width="0.500000" />
<path stroke="#000000" stroke-opacity="0.501961" fill="none" d="M 250.432645 98.271537 Q 251.770373 73.981045, 260.911139 50.852760" stroke-width="0.500000" />
<path stroke="#000000" stroke-opacity="0.501961" fill="none" d="M 49.280577 70.743448 Q 69.511725 60.903223, 49.846485 44.316994" stroke-width="0.500000" />
<path stroke="#000000" stroke-opacity="0.501961" fill="none" d="M 37.368648 54.098059 Q 55.907411 74.345334, 69.827267 58.376953" stroke-width="0.500000" />
<path stroke="#000000" stroke-opacity="0.501961" fill="none" d="M 217.918053 62.935847 Q 253.878896 66.810373, 243.174848 94.257962" stroke-width="0.500000" />
<path stroke="#000000" stroke-opacity="0.501961" fill="none" d="M 170.376591 35.114715 Q 223.162116 38.379688, 267.107147 120.032061" stroke-width="0.500000" />
<path stroke="#000000" stroke-opacity="0.501961" fill="none" d="M 58.404787 87.229487 Q 27.712438 59.463278, 67.467942 41.292029" stroke-width="0.500000" />
<path stroke="#000000" stroke-opacity="0.501961" fill="none" d="M 66.316882 33.586644 Q 43.445189 56.211920, 61.017971 69.582987" stroke-width="0.500000" />
<path stroke="#000000" stroke-opacity="0.501961" fill="none" d="M 37.724439 59.124043 Q 43.511564 47.614931, 64.095220 58.973453" stroke-width="0.500000" />
<path stroke="#000000" stroke-opacity="0.501961" fill="none" d="M 45.258375 124.454330 Q 60.304090 111.835886, 74.989620 115.473775" stroke-width="0.500000" />
<path stroke="#000000" stroke-opacity="0.501961" fill="none" d="M 252.739908 74.908834 Q 257.354046 99.308478, 251.357908 168.912635" stroke-width="0.500000" />
<path stroke="#000000" stroke-opacity="0.501961" fill="none" d="M 241.506335 83.817449 Q 247.117915 71.167245, 258.507092 82.733135" stroke-width="0.500000" />
<path stroke="#000000" stroke-opacity="0.501961" fill="none" d="M 59.481262 78.115043 Q 30.696115 72.389720, 41.542192 47.348503" stroke-width="0.500000" />
<path stroke="#000000" stroke-opacity="0.501961" fill="none" d="M 37.814801 53.559258 Q 56.805814 73.506422, 69.734606 57.468807" stroke-width="0.500000" />
<path stroke="#000000" stroke-opacity="0.501961" fill="none" d="M 52.449253 82.347219 Q 65.184505 63.745100, 46.362598 44.839075" stroke-width="0.500000" />
<path stroke="#000000" stroke-opacity="0.501961" fill="none" d="M 55.896795 47.602711 Q 37.855237 84.993355, 5.324789 72.078184" stroke-width="0.500000" />
<path stroke="#000000" stroke-opacity="0.501961" fill="none" d="M 75.645872 56.037730 Q 46.724352 69.815304, 46.665858 41.615003" stroke-width="0.500000" />
<path stroke="#000000" stroke-opacity="0.501961" fill="none" d="M 39.537988 51.058088 Q 42.323403 87.466255, 77.097142 72.727972" stroke-width="0.500000" />
<path stroke="#000000" stroke-opacity="0.501961" fill="none" d="M 250.622747 93.494372 Q 262.467598 60.933429, 222.446112 63.275654" stroke-width="0.500000" />
<path stroke="#000000" stroke-opacity="0.501961" fill="none" d="M 57.962562 118.824102 Q 54.027473 70.179598, 46.770338 40.540336" stroke-width="0.500000" />
<path stroke="#000000" stroke-opacity="0.501961" fill="none" d="M 69.818264 171.000000 Q 33.814426 155.943015, 18.388951 146.147843" stroke-width="0.500000" />
<path stroke="#000000" stroke-opacity="0.501961" fill="none" d="M 55.718642 30.503988 Q 59.114121 157.433742, 35.641929 162.779803" stroke-width="0.500000" />
<path stroke="#000000" stroke-opacity="0.501961" fill="none" d="M 222.173211 67.594423 Q 261.801083 77.404610, 271.000000 113.072268" stroke-width="0.500000" />
<path stroke="#000000" stroke-opacity="0.501961" fill="none" d="M 249.158033 72.147216 Q 236.380705 91.906692, 251.903855 101.296779" stroke-width="0.500000" />
<path stroke="#000000" stroke-opacity="0.501961" fill="none" d="M 251.616021 171.000000 Q 263.308692 67.973691, 219.483054 64.618340" stroke-width="0.500000" />
<path stroke="#000000" stroke-opacity="0.501961" fill="none" d="M 43.829583 73.685971 Q 43.135919 58.448467, 55.198001 35.041325" stroke-width="0.500000" />
<path stroke="#000000" stroke-opacity="0.501961" fill="none" d="M 53.322169 85.151763 Q 41.820945 56.138261, 82.059523 31.832985" stroke-width="0.500000" />
<path stroke="#000000" stroke-opacity="0.501961" fill="none" d="M 69.187164 60.030552 Q 41.800530 61.636476, 39.193693 52.586383" stroke-width="0.500000" />
<path stroke="#000000" stroke-opacity="0.501961" fill="none" d="M 176.845388 27.217098 Q 181.092771 38.821946, 189.610614 39.647447" stroke-width="0.500000" />
<path stroke="#000000" stroke-opacity="0.501961" fill="none" d="M 74.578771 114.674456 Q 44.788431 109.088470, 25.874389 119.257356" stroke-width="0.500000" />
<path stroke="#000000" stroke-opacity="0.501961" fill="none" d="M 44.557408 45.681590 Q 67.723411 50.673974, 55.080667 79.557288" stroke-width="0.500000" />
<path stroke="#000000" stroke-opacity="0.501961" fill="none" d="M 41.252722 80.937659 Q 60.288165 37.853484, 83.834995 31.680821" stroke-width="0.500000" />
<path stroke="#000000" stroke-opacity="0.501961" fill="none" d="M 258.094168 70.580060 Q 237.780427 91.189551, 271.000000 114.524675" stroke-width="0.500000" />
<path stroke="#000000" stroke-opacity="0.501961" fill="none" d="M 75.363962 115.976098 Q 55.543167 114.322684, 26.327971 110.216165" stroke-width="0.500000" />
<path stroke="#000000" stroke-opacity="0.501961" fill="none" d="M 51.917222 82.992795 Q 36.536471 54.813135, 66.351014 35.423998" stroke-width="0.500000" />
<path stroke="#000000" stroke-opacity="0.501961" fill="none" d="M 6.027393 72.604316 Q 24.466325 65.471702, 36.973046 74.019175" stroke-width="0.500000" />
<path stroke="#000000" stroke-opacity="0.501961" fill="none" d="M 243.038672 83.113266 Q 250.779753 67.936923, 271.000000 83.472873" stroke-width="0.500000" />
<path stroke="#000000" stroke-opacity="0.501961" fill="none" d="M 40.613194 60.519074 Q 60.902254 56.519681, 58.268740 29.442494" stroke-width="0.500000" />
<path stroke="#000000" stroke-opacity="0.501961" fill="none" d="M 29.715821 75.031718 Q 13.728126 60.032323, 6.275849 72.178855" stroke-width="0.500000" />
<path stroke="#000000" stroke-opacity="0.501961" fill="none" d="M 65.121104 107.908775 Q 48.108062 121.552866, 20.706710 118.322352" stroke-width="0.500000" />
<path stroke="#000000" stroke-opacity="0.501961" fill="none" d="M 37.280158 57.466563 Q 41.440723 49.701569, 67.800306 61.752014" stroke-width="0.500000" />
<path stroke="#000000" stroke-opacity="0.501961" fill="none" d="M 190.744358 37.372775 Q 180.318444 42.915933, 178.677838 30.616289" stroke-width="0.500000" />
<path stroke="#000000" stroke-opacity="0.501961" fill="none" d="M 14.468591 147.285186 Q 29.853165 150.010346, 37.868468 157.120098" stroke-width="0.500000" />
<path stroke="#000000" stroke-opacity="0.501961" fill="none" d="M 66.555951 112.799538 Q 50.231858 122.062699, 43.693008 123.280017" stroke-width="0.500000" />
<path stroke="#000000" stroke-opacity="0.501961" fill="none" d="M 34.102704 171.000000 Q 64.229832 127.765671, 63.679360 101.206745" stroke-width="0.500000" />
<path stroke="#000000" stroke-opacity="0.501961" fill="none" d="M 234.506108 57.663401 Q 239.123187 77.710828, 269.046475 116.078203" stroke-width="0.500000" />
<path stroke="#000000" stroke-opacity="0.501961" fill="none" d="M 220.257097 62.694680 Q 267.012529 81.231379, 250.181002 161.637546" stroke-width="0.500000" />
<path stroke="#000000" stroke-opacity="0.501961" fill="none" d="M 35.585441 59.671476 Q 47.608650 58.322612, 70.607711 75.772934" stroke-width="0.500000" />
<path stroke="#000000" stroke-opacity="0.501961" fill="none" d="M 252.282444 118.648123 Q 252.340174 128.221924, 253.726233 153.303364" stroke-width="0.500000" />
<path stroke="#000000" stroke-opacity="0.501961" fill="none" d="M 49.671966 82.720069 Q 56.031698 33.664379, 82.340996 33.729197" stroke-width="0.500000" />
<path stroke="#000000" stroke-opacity="0.501961" fill="none" d="M 57.497791 128.176349 Q 56.698221 121.895266, 75.612893 111.343084" stroke-width="0.500000" />
<path stroke="#000000" stroke-opacity="0.501961" fill="none" d="M 54.898709 145.927955 Q 44.116096 142.848077, 5.471551 164.369331" stroke-width="0.500000" />
<path stroke="#000000" stroke-opacity="0.501961" fill="none" d="M 241.485519 82.486279 Q 252.096097 79.038035, 250.081289 69.648668" stroke-width="0.500000" />
<path stroke="#000000" stroke-opacity="0.501961" fill="none" d="M 3.535873 69.934814 Q 21.037635 82.651455, 32.283630 70.012743" stroke-width="0.500000" />
<path stroke="#000000" stroke-opacity="0.501961" fill="none" d="M 51.430448 37.398430 Q 50.346181 62.829334, 69.397973 57.287633" stroke-width="0.500000" />
<path stroke="#000000" stroke-opacity="0.501961" fill="none" d="M 39.591750 63.767401 Q 42.702797 38.228502, 67.379508 42.031231" stroke-width="0.500000" />
<path stroke="#000000" stroke-opacity="0.501961" fill="none" d="M 64.454737 27.551683 Q 30.272289 65.322379, 71.767154 118.437469" stroke-width="0.500000" />
<path stroke="#000000" stroke-opacity="0.501961" fill="none" d="M 74.841372 57.418388 Q 56.313563 68.753271, 45.488020 44.208528" stroke-width="0.500000" />
<path stroke="#000000" stroke-opacity="0.501961" fill="none" d="M 29.187285 70.607745 Q 17.843361 61.207832, 4.697813 73.730447" stroke-width="0.500000" />
<path stroke="#000000" stroke-opacity="0.501961" fill="none" d="M 80.757813 171.000000 Q 18.407264 151.821463, 17.852583 146.515403" stroke-width="0.500000" />
<path stroke="#000000" stroke-opacity="0.501961" fill="none" d="M 245.860986 76.748574 Q 233.565704 92.198811, 253.286829 96.124552" stroke-width="0.500000" />
<path stroke="#000000" stroke-opacity="0.501961" fill="none" d="M 39.120874 49.809012 Q 38.225967 77.535411, 60.001218 70.236699" stroke-width="0.500000" />
<path stroke="#000000" stroke-opacity="0.501961" fill="none" d="M 252.199918 96.726636 Q 255.222019 49.743207, 213.252628 57.494497" stroke-width="0.500000" />
<path stroke="#000000" stroke-opacity="0.501961" fill="none" d="M 190.351615 36.287623 Q 172.531756 46.939698, 164.383307 28.657968" stroke-width="0.500000" />
<path stroke="#000000" stroke-opacity="0.501961" fill="none" d="M 58.938424 66.383103 Q 46.877162 69.753038, 37.846334 52.131876" stroke-width="0.500000" />
<path stroke="#000000" stroke-opacity="0.501961" fill="none" d="M 80.544475 76.529378 Q 26.223905 75.530528, 12.960941 65.408249" stroke-width="0.500000" />
<path stroke="#000000" stroke-opacity="0.501961" fill="none" d="M 70.574565 110.493262 Q 53.336490 108.432870, 58.275435 124.769060" stroke-width="0.500000" />
<path stroke="#000000" stroke-opacity="0.501961" fill="none" d="M -16.000000 67.709753 Q 65.867903 79.614615, 93.509758 73.094354" stroke-width="0.500000" />
<path stroke="#000000" stroke-opacity="0.501961" fill="none" d="M 22.304823 149.481765 Q 33.603690 149.704608, 35.508301 154.549348" stroke-width="0.500000" />
<path stroke="#000000" stroke-opacity="0.501961" fill="none" d="M 57.617518 42.898064 Q 70.027874 77.117964, 41.429881 78.609189" stroke-width="0.500000" />
<path stroke="#000000" stroke-opacity="0.501961" fill="none" d="M 8.436368 41.398770 Q -5.157328 39.566087, -0.797720 53.243204" stroke-width="0.500000" />
<path stroke="#000000" stroke-opacity="0.501961" fill="none" d="M 250.682634 100.967514 Q 247.325464 88.747345, 270.429274 52.624817" stroke-width="0.500000" />
<path stroke="#000000" stroke-opacity="0.501961" fill="none" d="M 51.677713 71.201791 Q 32.728879 67.343753, 41.347357 53.411275" stroke-width="0.500000" />
<path stroke="#000000" stroke-opacity="0.501961" fill="none" d="M 114.292707 10.935945 Q 103.751857 12.331908, 98.436632 13.782184" stroke-width="0.500000" />
<path stroke="#000000" stroke-opacity="0.501961" fill="none" d="M 178.552651 27.631108 Q 180.191794 36.205379, 184.592758 39.917451" stroke-width="0.500000" />
<path stroke="#000000" stroke-opacity="0.501961" fill="none" d="M 110.682389 57.762691 Q 104.203368 42.169734, 100.067937 17.924673" stroke-width="0.500000" />
<path stroke="#000000" stroke-opacity="0.501961" fill="none" d="M 240.177876 82.065534 Q 261.174867 78.505547, 262.918763 96.527296" stroke-width="0.500000" />
<path stroke="#000000" stroke-opacity="0.501961" fill="none" d="M 177.741353 31.357883 Q 181.814139 37.608018, 196.497014 40.736827" stroke-width="0.500000" />
<path stroke="#000000" stroke-opacity="0.501961" fill="none" d="M 46.907713 75.715033 Q 65.582352 58.236662, 66.314942 34.895054" stroke-width="0.500000" />
<path stroke="#000000" stroke-opacity="0.501961" fill="none" d="M 79.907622 117.397336 Q 46.199421 107.762357, 46.594158 166.008713" stroke-width="0.500000" />
<path stroke="#000000" stroke-opacity="0.501961" fill="none" d="M 242.697944 93.069390 Q 258.942477 78.819002, 254.570509 63.139401" stroke-width="0.500000" />
<path stroke="#000000" stroke-opacity="0.501961" fill="none" d="M 188.474245 41.067753 Q 181.713419 34.429056, 176.252795 26.403567" stroke-width="0.500000" />
<path stroke="#000000" stroke-opacity="0.501961" fill="none" d="M 109.710281 63.613539 Q 110.648025 60.739245, 103.427768 31.928549" stroke-width="0.500000" />
</g>
</svg>
