<svg viewBox="0 0 1000 1000" xmlns="http://www.w3.org/2000/svg">
  <g transform="translate(500, 500)" style="stroke: black; stroke-width: 1">
    <g transform="rotate(0)">
      <line x1="-400" y1="-275" x2="400" y2="-275"/>
      <line x1="-400" y1="-269" x2="400" y2="-269"/>
      <line x1="-400" y1="-263" x2="400" y2="-263"/>
      <line x1="-400" y1="-244" x2="400" y2="-244"/>
      <line x1="-400" y1="-241" x2="400" y2="-241"/>
      <line x1="-400" y1="-235" x2="400" y2="-235"/>
      <line x1="-400" y1="-185" x2="400" y2="-185"/>
      <line x1="-400" y1="-147" x2="400" y2="-147"/>
      <line x1="-400" y1="-125" x2="400" y2="-125"/>
      <line x1="-400" y1="-91" x2="400" y2="-91"/>
      <line x1="-400" y1="-79" x2="400" y2="-79"/>
      <line x1="-400" y1="-72" x2="400" y2="-72"/>
    </g>
    <g transform="rotate(-3)">
      <line x1="-400" y1="-236" x2="400" y2="-236"/>
      <line x1="-400" y1="-227" x2="400" y2="-227"/>
      <line x1="-400" y1="-218" x2="400" y2="-218"/>
      <line x1="-400" y1="-215" x2="400" y2="-215"/>
      <line x1="-400" y1="-84" x2="400" y2="-84"/>
      <line x1="-400" y1="-81" x2="400" y2="-81"/>
      <line x1="-400" y1="-72" x2="400" y2="-72"/>
      <line x1="-400" y1="-66" x2="400" y2="-66"/>
    </g>
    <g transform="rotate(-6)">
      <line x1="-400" y1="-243" x2="400" y2="-243"/>
      <line x1="-400" y1="-223" x2="400" y2="-223"/>
      <line x1="-400" y1="-143" x2="400" y2="-143"/>
      <line x1="-400" y1="-89" x2="400" y2="-89"/>
      <line x1="-400" y1="-78" x2="400" y2="-78"/>
      <line x1="-400" y1="-72" x2="400" y2="-72"/>
      <line x1="-400" y1="-60" x2="400" y2="-60"/>
    </g>
    <g transform="rotate(-9)">
      <line x1="-400" y1="-228" x2="400" y2="-228"/>
      <line x1="-400" y1="-206" x2="400" y2="-206"/>
      <line x1="-400" y1="-195" x2="400" y2="-195"/>
      <line x1="-400" y1="-159" x2="400" y2="-159"/>
      <line x1="-400" y1="-151" x2="400" y2="-151"/>
      <line x1="-400" y1="-110" x2="400" y2="-110"/>
      <line x1="-400" y1="-107" x2="400" y2="-107"/>
      <line x1="-400" y1="-77" x2="400" y2="-77"/>
      <line x1="-400" y1="-61" x2="400" y2="-61"/>
    </g>
    <g transform="rotate(-12)">
      <line x1="-400" y1="-195" x2="400" y2="-195"/>
      <line x1="-400" y1="-182" x2="400" y2="-182"/>
      <line x1="-400" y1="-179" x2="400" y2="-179"/>
      <line x1="-400" y1="-172" x2="400" y2="-172"/>
      <line x1="-400" y1="-148" x2="400" y2="-148"/>
      <line x1="-400" y1="-93" x2="400" y2="-93"/>
      <line x1="-400" y1="-85" x2="400" y2="-85"/>
      <line x1="-400" y1="-77" x2="400" y2="-77"/>
      <line x1="-400" y1="-58" x2="400" y2="-58"/>
      <line x1="-400" y1="-56" x2="400" y2="-56"/>
      <line x1="-400" y1="-53" x2="400" y2="-53"/>
      <line x1="-400" y1="-45" x2="400" y2="-45"/>
      <line x1="-400" y1="-35" x2="400" y2="-35"/>
      <line x1="-400" y1="-19" x2="400" y2="-19"/>
    </g>
    <g transform="rotate(-15)">
      <line x1="-400" y1="-36" x2="400" y2="-36"/>
      <line x1="-400" y1="-31" x2="400" y2="-31"/>
      <line x1="-400" y1="-21" x2="400" y2="-21"/>
    </g>
    <g transform="rotate(-18)">
      <line x1="-400" y1="-187" x2="400" y2="-187"/>
      <line x1="-400" y1="-50" x2="400" y2="-50"/>
      <line x1="-400" y1="-30" x2="400" y2="-30"/>
    </g>
    <g transform="rotate(-21)">
      <line x1="-400" y1="-204" x2="400" y2="-204"/>
      <line x1="-400" y1="-170" x2="400" y2="-170"/>
      <line x1="-400" y1="-158" x2="400" y2="-158"/>
      <line x1="-400" y1="-151" x2="400" y2="-151"/>
      <line x1="-400" y1="-141" x2="400" y2="-141"/>
      <line x1="-400" y1="-136" x2="400" y2="-136"/>
      <line x1="-400" y1="-129" x2="400" y2="-129"/>
      <line x1="-400" y1="-54" x2="400" y2="-54"/>
      <line x1="-400" y1="-51" x2="400" y2="-51"/>
      <line x1="-400" y1="-34" x2="400" y2="-34"/>
      <line x1="-400" y1="-27" x2="400" y2="-27"/>
      <line x1="-400" y1="-25" x2="400" y2="-25"/>
      <line x1="-400" y1="-8" x2="400" y2="-8"/>
    </g>
    <g transform="rotate(-24)">
      <line x1="-400" y1="-199" x2="400" y2="-199"/>
      <line x1="-400" y1="-159" x2="400" y2="-159"/>
      <line x1="-400" y1="-154" x2="400" y2="-154"/>
      <line x1="-400" y1="-145" x2="400" y2="-145"/>
      <line x1="-400" y1="-128" x2="400" y2="-128"/>
      <line x1="-400" y1="-119" x2="400" y2="-119"/>
      <line x1="-400" y1="-100" x2="400" y2="-100"/>
      <line x1="-400" y1="-93" x2="400" y2="-93"/>
      <line x1="-400" y1="-62" x2="400" y2="-62"/>
      <line x1="-400" y1="-53" x2="400" y2="-53"/>
    </g>
    <g transform="rotate(-27)">
      <line x1="-400" y1="-184" x2="400" y2="-184"/>
      <line x1="-400" y1="-149" x2="400" y2="-149"/>
      <line x1="-400" y1="-103" x2="400" y2="-103"/>
      <line x1="-400" y1="-98" x2="400" y2="-98"/>
      <line x1="-400" y1="-89" x2="400" y2="-89"/>
      <line x1="-400" y1="-66" x2="400" y2="-66"/>
      <line x1="-400" y1="-42" x2="400" y2="-42"/>
      <line x1="-400" y1="-31" x2="400" y2="-31"/>
      <line x1="-400" y1="-12" x2="400" y2="-12"/>
      <line x1="-400" y1="-5" x2="400" y2="-5"/>
    </g>
    <g transform="rotate(-30)">
      <line x1="-400" y1="-197" x2="400" y2="-197"/>
      <line x1="-400" y1="-23" x2="400" y2="-23"/>
      <line x1="-400" y1="-21" x2="400" y2="-21"/>
      <line x1="-400" y1="0" x2="400" y2="0"/>
      <line x1="-400" y1="18" x2="400" y2="18"/>
      <line x1="-400" y1="20" x2="400" y2="20"/>
    </g>
    <g transform="rotate(-33)">
      <line x1="-400" y1="-175" x2="400" y2="-175"/>
      <line x1="-400" y1="-168" x2="400" y2="-168"/>
      <line x1="-400" y1="-141" x2="400" y2="-141"/>
      <line x1="-400" y1="-134" x2="400" y2="-134"/>
      <line x1="-400" y1="-71" x2="400" y2="-71"/>
      <line x1="-400" y1="-37" x2="400" y2="-37"/>
      <line x1="-400" y1="-34" x2="400" y2="-34"/>
      <line x1="-400" y1="-19" x2="400" y2="-19"/>
      <line x1="-400" y1="22" x2="400" y2="22"/>
      <line x1="-400" y1="54" x2="400" y2="54"/>
    </g>
    <g transform="rotate(-36)">
      <line x1="-400" y1="-157" x2="400" y2="-157"/>
      <line x1="-400" y1="-144" x2="400" y2="-144"/>
      <line x1="-400" y1="-99" x2="400" y2="-99"/>
      <line x1="-400" y1="-45" x2="400" y2="-45"/>
      <line x1="-400" y1="-30" x2="400" y2="-30"/>
      <line x1="-400" y1="-7" x2="400" y2="-7"/>
      <line x1="-400" y1="44" x2="400" y2="44"/>
      <line x1="-400" y1="64" x2="400" y2="64"/>
    </g>
    <g transform="rotate(-39)">
      <line x1="-400" y1="-149" x2="400" y2="-149"/>
      <line x1="-400" y1="-145" x2="400" y2="-145"/>
      <line x1="-400" y1="-60" x2="400" y2="-60"/>
      <line x1="-400" y1="-54" x2="400" y2="-54"/>
      <line x1="-400" y1="-49" x2="400" y2="-49"/>
      <line x1="-400" y1="-47" x2="400" y2="-47"/>
      <line x1="-400" y1="-32" x2="400" y2="-32"/>
      <line x1="-400" y1="-27" x2="400" y2="-27"/>
      <line x1="-400" y1="-12" x2="400" y2="-12"/>
      <line x1="-400" y1="11" x2="400" y2="11"/>
      <line x1="-400" y1="40" x2="400" y2="40"/>
      <line x1="-400" y1="55" x2="400" y2="55"/>
    </g>
    <g transform="rotate(-42)">
      <line x1="-400" y1="-168" x2="400" y2="-168"/>
      <line x1="-400" y1="-149" x2="400" y2="-149"/>
      <line x1="-400" y1="-122" x2="400" y2="-122"/>
      <line x1="-400" y1="-104" x2="400" y2="-104"/>
      <line x1="-400" y1="-96" x2="400" y2="-96"/>
      <line x1="-400" y1="-65" x2="400" y2="-65"/>
      <line x1="-400" y1="-62" x2="400" y2="-62"/>
      <line x1="-400" y1="6" x2="400" y2="6"/>
      <line x1="-400" y1="59" x2="400" y2="59"/>
    </g>
    <g transform="rotate(-45)">
      <line x1="-400" y1="-157" x2="400" y2="-157"/>
      <line x1="-400" y1="-93" x2="400" y2="-93"/>
      <line x1="-400" y1="-56" x2="400" y2="-56"/>
      <line x1="-400" y1="0" x2="400" y2="0"/>
      <line x1="-400" y1="6" x2="400" y2="6"/>
      <line x1="-400" y1="46" x2="400" y2="46"/>
      <line x1="-400" y1="55" x2="400" y2="55"/>
      <line x1="-400" y1="66" x2="400" y2="66"/>
    </g>
    <g transform="rotate(-48)">
      <line x1="-400" y1="-144" x2="400" y2="-144"/>
      <line x1="-400" y1="-126" x2="400" y2="-126"/>
      <line x1="-400" y1="-118" x2="400" y2="-118"/>
      <line x1="-400" y1="-96" x2="400" y2="-96"/>
      <line x1="-400" y1="-93" x2="400" y2="-93"/>
      <line x1="-400" y1="-56" x2="400" y2="-56"/>
      <line x1="-400" y1="17" x2="400" y2="17"/>
      <line x1="-400" y1="33" x2="400" y2="33"/>
      <line x1="-400" y1="39" x2="400" y2="39"/>
      <line x1="-400" y1="64" x2="400" y2="64"/>
      <line x1="-400" y1="70" x2="400" y2="70"/>
    </g>
    <g transform="rotate(-51)">
      <line x1="-400" y1="-134" x2="400" y2="-134"/>
      <line x1="-400" y1="-103" x2="400" y2="-103"/>
      <line x1="-400" y1="-85" x2="400" y2="-85"/>
      <line x1="-400" y1="-78" x2="400" y2="-78"/>
      <line x1="-400" y1="22" x2="400" y2="22"/>
      <line x1="-400" y1="53" x2="400" y2="53"/>
      <line x1="-400" y1="57" x2="400" y2="57"/>
      <line x1="-400" y1="84" x2="400" y2="84"/>
    </g>
    <g transform="rotate(-54)">
      <line x1="-400" y1="-72" x2="400" y2="-72"/>
      <line x1="-400" y1="-59" x2="400" y2="-59"/>
      <line x1="-400" y1="-56" x2="400" y2="-56"/>
      <line x1="-400" y1="-25" x2="400" y2="-25"/>
      <line x1="-400" y1="-18" x2="400" y2="-18"/>
      <line x1="-400" y1="2" x2="400" y2="2"/>
      <line x1="-400" y1="8" x2="400" y2="8"/>
      <line x1="-400" y1="24" x2="400" y2="24"/>
      <line x1="-400" y1="29" x2="400" y2="29"/>
      <line x1="-400" y1="33" x2="400" y2="33"/>
      <line x1="-400" y1="35" x2="400" y2="35"/>
      <line x1="-400" y1="51" x2="400" y2="51"/>
      <line x1="-400" y1="62" x2="400" y2="62"/>
      <line x1="-400" y1="82" x2="400" y2="82"/>
    </g>
    <g transform="rotate(-57)">
      <line x1="-400" y1="-129" x2="400" y2="-129"/>
      <line x1="-400" y1="-125" x2="400" y2="-125"/>
      <line x1="-400" y1="-111" x2="400" y2="-111"/>
      <line x1="-400" y1="-23" x2="400" y2="-23"/>
      <line x1="-400" y1="-10" x2="400" y2="-10"/>
      <line x1="-400" y1="18" x2="400" y2="18"/>
      <line x1="-400" y1="24" x2="400" y2="24"/>
    </g>
    <g transform="rotate(-60)">
      <line x1="-400" y1="-90" x2="400" y2="-90"/>
      <line x1="-400" y1="-87" x2="400" y2="-87"/>
      <line x1="-400" y1="-74" x2="400" y2="-74"/>
      <line x1="-400" y1="-32" x2="400" y2="-32"/>
      <line x1="-400" y1="13" x2="400" y2="13"/>
      <line x1="-400" y1="16" x2="400" y2="16"/>
    </g>
    <g transform="rotate(-63)">
      <line x1="-400" y1="-84" x2="400" y2="-84"/>
      <line x1="-400" y1="-68" x2="400" y2="-68"/>
      <line x1="-400" y1="-5" x2="400" y2="-5"/>
      <line x1="-400" y1="9" x2="400" y2="9"/>
      <line x1="-400" y1="44" x2="400" y2="44"/>
      <line x1="-400" y1="60" x2="400" y2="60"/>
      <line x1="-400" y1="65" x2="400" y2="65"/>
      <line x1="-400" y1="72" x2="400" y2="72"/>
      <line x1="-400" y1="81" x2="400" y2="81"/>
      <line x1="-400" y1="86" x2="400" y2="86"/>
      <line x1="-400" y1="88" x2="400" y2="88"/>
      <line x1="-400" y1="90" x2="400" y2="90"/>
    </g>
    <g transform="rotate(-66)">
      <line x1="-400" y1="-93" x2="400" y2="-93"/>
      <line x1="-400" y1="42" x2="400" y2="42"/>
      <line x1="-400" y1="80" x2="400" y2="80"/>
      <line x1="-400" y1="89" x2="400" y2="89"/>
      <line x1="-400" y1="106" x2="400" y2="106"/>
    </g>
    <g transform="rotate(-69)">
      <line x1="-400" y1="-90" x2="400" y2="-90"/>
      <line x1="-400" y1="-88" x2="400" y2="-88"/>
      <line x1="-400" y1="-83" x2="400" y2="-83"/>
      <line x1="-400" y1="-76" x2="400" y2="-76"/>
      <line x1="-400" y1="-68" x2="400" y2="-68"/>
      <line x1="-400" y1="-61" x2="400" y2="-61"/>
      <line x1="-400" y1="104" x2="400" y2="104"/>
      <line x1="-400" y1="106" x2="400" y2="106"/>
      <line x1="-400" y1="140" x2="400" y2="140"/>
      <line x1="-400" y1="147" x2="400" y2="147"/>
      <line x1="-400" y1="157" x2="400" y2="157"/>
    </g>
    <g transform="rotate(-72)">
      <line x1="-400" y1="-55" x2="400" y2="-55"/>
      <line x1="-400" y1="-50" x2="400" y2="-50"/>
      <line x1="-400" y1="-48" x2="400" y2="-48"/>
      <line x1="-400" y1="114" x2="400" y2="114"/>
      <line x1="-400" y1="129" x2="400" y2="129"/>
      <line x1="-400" y1="139" x2="400" y2="139"/>
    </g>
    <g transform="rotate(-75)">
      <line x1="-400" y1="-54" x2="400" y2="-54"/>
      <line x1="-400" y1="-26" x2="400" y2="-26"/>
      <line x1="-400" y1="101" x2="400" y2="101"/>
      <line x1="-400" y1="129" x2="400" y2="129"/>
      <line x1="-400" y1="140" x2="400" y2="140"/>
      <line x1="-400" y1="165" x2="400" y2="165"/>
    </g>
    <g transform="rotate(-78)">
      <line x1="-400" y1="-48" x2="400" y2="-48"/>
      <line x1="-400" y1="-43" x2="400" y2="-43"/>
      <line x1="-400" y1="21" x2="400" y2="21"/>
      <line x1="-400" y1="23" x2="400" y2="23"/>
      <line x1="-400" y1="39" x2="400" y2="39"/>
      <line x1="-400" y1="42" x2="400" y2="42"/>
      <line x1="-400" y1="100" x2="400" y2="100"/>
      <line x1="-400" y1="115" x2="400" y2="115"/>
      <line x1="-400" y1="121" x2="400" y2="121"/>
      <line x1="-400" y1="123" x2="400" y2="123"/>
      <line x1="-400" y1="147" x2="400" y2="147"/>
      <line x1="-400" y1="186" x2="400" y2="186"/>
    </g>
    <g transform="rotate(-81)">
      <line x1="-400" y1="-74" x2="400" y2="-74"/>
      <line x1="-400" y1="8" x2="400" y2="8"/>
      <line x1="-400" y1="21" x2="400" y2="21"/>
      <line x1="-400" y1="32" x2="400" y2="32"/>
      <line x1="-400" y1="68" x2="400" y2="68"/>
      <line x1="-400" y1="95" x2="400" y2="95"/>
      <line x1="-400" y1="109" x2="400" y2="109"/>
      <line x1="-400" y1="128" x2="400" y2="128"/>
      <line x1="-400" y1="139" x2="400" y2="139"/>
      <line x1="-400" y1="167" x2="400" y2="167"/>
      <line x1="-400" y1="169" x2="400" y2="169"/>
      <line x1="-400" y1="175" x2="400" y2="175"/>
    </g>
    <g transform="rotate(-84)">
      <line x1="-400" y1="-63" x2="400" y2="-63"/>
      <line x1="-400" y1="-26" x2="400" y2="-26"/>
      <line x1="-400" y1="85" x2="400" y2="85"/>
      <line x1="-400" y1="122" x2="400" y2="122"/>
      <line x1="-400" y1="208" x2="400" y2="208"/>
      <line x1="-400" y1="222" x2="400" y2="222"/>
    </g>
    <g transform="rotate(-87)">
      <line x1="-400" y1="-51" x2="400" y2="-51"/>
      <line x1="-400" y1="-48" x2="400" y2="-48"/>
      <line x1="-400" y1="8" x2="400" y2="8"/>
      <line x1="-400" y1="200" x2="400" y2="200"/>
      <line x1="-400" y1="217" x2="400" y2="217"/>
      <line x1="-400" y1="235" x2="400" y2="235"/>
    </g>
    <g transform="rotate(-90)">
      <line x1="-400" y1="-60" x2="400" y2="-60"/>
      <line x1="-400" y1="-57" x2="400" y2="-57"/>
      <line x1="-400" y1="50" x2="400" y2="50"/>
      <line x1="-400" y1="112" x2="400" y2="112"/>
      <line x1="-400" y1="140" x2="400" y2="140"/>
      <line x1="-400" y1="150" x2="400" y2="150"/>
      <line x1="-400" y1="221" x2="400" y2="221"/>
      <line x1="-400" y1="237" x2="400" y2="237"/>
      <line x1="-400" y1="240" x2="400" y2="240"/>
      <line x1="-400" y1="259" x2="400" y2="259"/>
      <line x1="-400" y1="262" x2="400" y2="262"/>
    </g>
    <g transform="rotate(-93)">
      <line x1="-400" y1="-36" x2="400" y2="-36"/>
      <line x1="-400" y1="-12" x2="400" y2="-12"/>
      <line x1="-400" y1="41" x2="400" y2="41"/>
      <line x1="-400" y1="77" x2="400" y2="77"/>
      <line x1="-400" y1="86" x2="400" y2="86"/>
      <line x1="-400" y1="95" x2="400" y2="95"/>
      <line x1="-400" y1="194" x2="400" y2="194"/>
      <line x1="-400" y1="197" x2="400" y2="197"/>
      <line x1="-400" y1="232" x2="400" y2="232"/>
      <line x1="-400" y1="241" x2="400" y2="241"/>
    </g>
    <g transform="rotate(-96)">
      <line x1="-400" y1="160" x2="400" y2="160"/>
      <line x1="-400" y1="248" x2="400" y2="248"/>
      <line x1="-400" y1="260" x2="400" y2="260"/>
    </g>
    <g transform="rotate(-99)">
      <line x1="-400" y1="16" x2="400" y2="16"/>
      <line x1="-400" y1="27" x2="400" y2="27"/>
      <line x1="-400" y1="49" x2="400" y2="49"/>
      <line x1="-400" y1="224" x2="400" y2="224"/>
      <line x1="-400" y1="227" x2="400" y2="227"/>
      <line x1="-400" y1="232" x2="400" y2="232"/>
      <line x1="-400" y1="235" x2="400" y2="235"/>
      <line x1="-400" y1="241" x2="400" y2="241"/>
      <line x1="-400" y1="254" x2="400" y2="254"/>
    </g>
    <g transform="rotate(-102)">
      <line x1="-400" y1="15" x2="400" y2="15"/>
      <line x1="-400" y1="92" x2="400" y2="92"/>
      <line x1="-400" y1="121" x2="400" y2="121"/>
      <line x1="-400" y1="144" x2="400" y2="144"/>
      <line x1="-400" y1="221" x2="400" y2="221"/>
      <line x1="-400" y1="244" x2="400" y2="244"/>
    </g>
    <g transform="rotate(-105)">
      <line x1="-400" y1="112" x2="400" y2="112"/>
      <line x1="-400" y1="183" x2="400" y2="183"/>
      <line x1="-400" y1="214" x2="400" y2="214"/>
      <line x1="-400" y1="244" x2="400" y2="244"/>
    </g>
    <g transform="rotate(-108)">
      <line x1="-400" y1="79" x2="400" y2="79"/>
      <line x1="-400" y1="86" x2="400" y2="86"/>
      <line x1="-400" y1="124" x2="400" y2="124"/>
      <line x1="-400" y1="126" x2="400" y2="126"/>
      <line x1="-400" y1="154" x2="400" y2="154"/>
      <line x1="-400" y1="156" x2="400" y2="156"/>
      <line x1="-400" y1="166" x2="400" y2="166"/>
      <line x1="-400" y1="191" x2="400" y2="191"/>
      <line x1="-400" y1="208" x2="400" y2="208"/>
      <line x1="-400" y1="226" x2="400" y2="226"/>
      <line x1="-400" y1="228" x2="400" y2="228"/>
    </g>
    <g transform="rotate(-111)">
      <line x1="-400" y1="94" x2="400" y2="94"/>
      <line x1="-400" y1="99" x2="400" y2="99"/>
      <line x1="-400" y1="184" x2="400" y2="184"/>
      <line x1="-400" y1="215" x2="400" y2="215"/>
      <line x1="-400" y1="252" x2="400" y2="252"/>
    </g>
    <g transform="rotate(-114)">
      <line x1="-400" y1="21" x2="400" y2="21"/>
      <line x1="-400" y1="35" x2="400" y2="35"/>
      <line x1="-400" y1="80" x2="400" y2="80"/>
      <line x1="-400" y1="160" x2="400" y2="160"/>
      <line x1="-400" y1="175" x2="400" y2="175"/>
      <line x1="-400" y1="182" x2="400" y2="182"/>
      <line x1="-400" y1="201" x2="400" y2="201"/>
      <line x1="-400" y1="220" x2="400" y2="220"/>
      <line x1="-400" y1="227" x2="400" y2="227"/>
    </g>
    <g transform="rotate(-117)">
      <line x1="-400" y1="2" x2="400" y2="2"/>
      <line x1="-400" y1="16" x2="400" y2="16"/>
      <line x1="-400" y1="44" x2="400" y2="44"/>
      <line x1="-400" y1="123" x2="400" y2="123"/>
      <line x1="-400" y1="127" x2="400" y2="127"/>
      <line x1="-400" y1="141" x2="400" y2="141"/>
      <line x1="-400" y1="206" x2="400" y2="206"/>
      <line x1="-400" y1="246" x2="400" y2="246"/>
    </g>
    <g transform="rotate(-120)">
      <line x1="-400" y1="68" x2="400" y2="68"/>
      <line x1="-400" y1="153" x2="400" y2="153"/>
      <line x1="-400" y1="166" x2="400" y2="166"/>
      <line x1="-400" y1="219" x2="400" y2="219"/>
      <line x1="-400" y1="237" x2="400" y2="237"/>
    </g>
    <g transform="rotate(-123)">
      <line x1="-400" y1="4" x2="400" y2="4"/>
      <line x1="-400" y1="40" x2="400" y2="40"/>
      <line x1="-400" y1="90" x2="400" y2="90"/>
      <line x1="-400" y1="99" x2="400" y2="99"/>
      <line x1="-400" y1="214" x2="400" y2="214"/>
      <line x1="-400" y1="216" x2="400" y2="216"/>
      <line x1="-400" y1="241" x2="400" y2="241"/>
    </g>
    <g transform="rotate(-126)">
      <line x1="-400" y1="-7" x2="400" y2="-7"/>
      <line x1="-400" y1="111" x2="400" y2="111"/>
      <line x1="-400" y1="140" x2="400" y2="140"/>
      <line x1="-400" y1="147" x2="400" y2="147"/>
      <line x1="-400" y1="163" x2="400" y2="163"/>
      <line x1="-400" y1="183" x2="400" y2="183"/>
      <line x1="-400" y1="185" x2="400" y2="185"/>
      <line x1="-400" y1="212" x2="400" y2="212"/>
    </g>
    <g transform="rotate(-129)">
      <line x1="-400" y1="53" x2="400" y2="53"/>
      <line x1="-400" y1="66" x2="400" y2="66"/>
      <line x1="-400" y1="115" x2="400" y2="115"/>
      <line x1="-400" y1="122" x2="400" y2="122"/>
      <line x1="-400" y1="157" x2="400" y2="157"/>
      <line x1="-400" y1="166" x2="400" y2="166"/>
      <line x1="-400" y1="180" x2="400" y2="180"/>
      <line x1="-400" y1="200" x2="400" y2="200"/>
      <line x1="-400" y1="208" x2="400" y2="208"/>
    </g>
    <g transform="rotate(-132)">
      <line x1="-400" y1="6" x2="400" y2="6"/>
      <line x1="-400" y1="24" x2="400" y2="24"/>
      <line x1="-400" y1="44" x2="400" y2="44"/>
      <line x1="-400" y1="59" x2="400" y2="59"/>
      <line x1="-400" y1="110" x2="400" y2="110"/>
      <line x1="-400" y1="137" x2="400" y2="137"/>
      <line x1="-400" y1="209" x2="400" y2="209"/>
      <line x1="-400" y1="216" x2="400" y2="216"/>
      <line x1="-400" y1="220" x2="400" y2="220"/>
      <line x1="-400" y1="236" x2="400" y2="236"/>
    </g>
    <g transform="rotate(-135)">
      <line x1="-400" y1="4" x2="400" y2="4"/>
      <line x1="-400" y1="88" x2="400" y2="88"/>
      <line x1="-400" y1="97" x2="400" y2="97"/>
      <line x1="-400" y1="137" x2="400" y2="137"/>
      <line x1="-400" y1="148" x2="400" y2="148"/>
      <line x1="-400" y1="156" x2="400" y2="156"/>
      <line x1="-400" y1="181" x2="400" y2="181"/>
      <line x1="-400" y1="203" x2="400" y2="203"/>
    </g>
    <g transform="rotate(-138)">
      <line x1="-400" y1="33" x2="400" y2="33"/>
      <line x1="-400" y1="159" x2="400" y2="159"/>
      <line x1="-400" y1="176" x2="400" y2="176"/>
      <line x1="-400" y1="212" x2="400" y2="212"/>
      <line x1="-400" y1="234" x2="400" y2="234"/>
    </g>
    <g transform="rotate(-141)">
      <line x1="-400" y1="26" x2="400" y2="26"/>
      <line x1="-400" y1="31" x2="400" y2="31"/>
      <line x1="-400" y1="42" x2="400" y2="42"/>
      <line x1="-400" y1="104" x2="400" y2="104"/>
      <line x1="-400" y1="122" x2="400" y2="122"/>
      <line x1="-400" y1="168" x2="400" y2="168"/>
      <line x1="-400" y1="193" x2="400" y2="193"/>
      <line x1="-400" y1="224" x2="400" y2="224"/>
      <line x1="-400" y1="228" x2="400" y2="228"/>
    </g>
    <g transform="rotate(-144)">
      <line x1="-400" y1="42" x2="400" y2="42"/>
      <line x1="-400" y1="49" x2="400" y2="49"/>
      <line x1="-400" y1="69" x2="400" y2="69"/>
      <line x1="-400" y1="71" x2="400" y2="71"/>
      <line x1="-400" y1="82" x2="400" y2="82"/>
      <line x1="-400" y1="93" x2="400" y2="93"/>
      <line x1="-400" y1="100" x2="400" y2="100"/>
      <line x1="-400" y1="118" x2="400" y2="118"/>
      <line x1="-400" y1="120" x2="400" y2="120"/>
      <line x1="-400" y1="143" x2="400" y2="143"/>
      <line x1="-400" y1="151" x2="400" y2="151"/>
      <line x1="-400" y1="158" x2="400" y2="158"/>
      <line x1="-400" y1="183" x2="400" y2="183"/>
      <line x1="-400" y1="187" x2="400" y2="187"/>
      <line x1="-400" y1="196" x2="400" y2="196"/>
      <line x1="-400" y1="198" x2="400" y2="198"/>
      <line x1="-400" y1="223" x2="400" y2="223"/>
    </g>
    <g transform="rotate(-147)">
      <line x1="-400" y1="67" x2="400" y2="67"/>
      <line x1="-400" y1="88" x2="400" y2="88"/>
      <line x1="-400" y1="144" x2="400" y2="144"/>
      <line x1="-400" y1="155" x2="400" y2="155"/>
      <line x1="-400" y1="160" x2="400" y2="160"/>
      <line x1="-400" y1="187" x2="400" y2="187"/>
      <line x1="-400" y1="201" x2="400" y2="201"/>
      <line x1="-400" y1="228" x2="400" y2="228"/>
      <line x1="-400" y1="241" x2="400" y2="241"/>
    </g>
    <g transform="rotate(-150)">
      <line x1="-400" y1="48" x2="400" y2="48"/>
      <line x1="-400" y1="89" x2="400" y2="89"/>
      <line x1="-400" y1="137" x2="400" y2="137"/>
      <line x1="-400" y1="176" x2="400" y2="176"/>
      <line x1="-400" y1="182" x2="400" y2="182"/>
      <line x1="-400" y1="201" x2="400" y2="201"/>
      <line x1="-400" y1="203" x2="400" y2="203"/>
      <line x1="-400" y1="208" x2="400" y2="208"/>
      <line x1="-400" y1="228" x2="400" y2="228"/>
      <line x1="-400" y1="230" x2="400" y2="230"/>
      <line x1="-400" y1="233" x2="400" y2="233"/>
      <line x1="-400" y1="235" x2="400" y2="235"/>
    </g>
    <g transform="rotate(-153)">
      <line x1="-400" y1="48" x2="400" y2="48"/>
      <line x1="-400" y1="69" x2="400" y2="69"/>
      <line x1="-400" y1="125" x2="400" y2="125"/>
      <line x1="-400" y1="176" x2="400" y2="176"/>
      <line x1="-400" y1="220" x2="400" y2="220"/>
      <line x1="-400" y1="227" x2="400" y2="227"/>
      <line x1="-400" y1="244" x2="400" y2="244"/>
    </g>
    <g transform="rotate(-156)">
      <line x1="-400" y1="66" x2="400" y2="66"/>
      <line x1="-400" y1="71" x2="400" y2="71"/>
      <line x1="-400" y1="87" x2="400" y2="87"/>
      <line x1="-400" y1="89" x2="400" y2="89"/>
      <line x1="-400" y1="108" x2="400" y2="108"/>
      <line x1="-400" y1="113" x2="400" y2="113"/>
      <line x1="-400" y1="118" x2="400" y2="118"/>
      <line x1="-400" y1="120" x2="400" y2="120"/>
      <line x1="-400" y1="139" x2="400" y2="139"/>
      <line x1="-400" y1="179" x2="400" y2="179"/>
      <line x1="-400" y1="189" x2="400" y2="189"/>
      <line x1="-400" y1="227" x2="400" y2="227"/>
      <line x1="-400" y1="229" x2="400" y2="229"/>
    </g>
    <g transform="rotate(-159)">
      <line x1="-400" y1="48" x2="400" y2="48"/>
      <line x1="-400" y1="89" x2="400" y2="89"/>
      <line x1="-400" y1="92" x2="400" y2="92"/>
      <line x1="-400" y1="96" x2="400" y2="96"/>
      <line x1="-400" y1="167" x2="400" y2="167"/>
      <line x1="-400" y1="181" x2="400" y2="181"/>
      <line x1="-400" y1="184" x2="400" y2="184"/>
      <line x1="-400" y1="210" x2="400" y2="210"/>
      <line x1="-400" y1="218" x2="400" y2="218"/>
      <line x1="-400" y1="223" x2="400" y2="223"/>
      <line x1="-400" y1="254" x2="400" y2="254"/>
    </g>
    <g transform="rotate(-162)">
      <line x1="-400" y1="84" x2="400" y2="84"/>
      <line x1="-400" y1="104" x2="400" y2="104"/>
      <line x1="-400" y1="139" x2="400" y2="139"/>
      <line x1="-400" y1="146" x2="400" y2="146"/>
      <line x1="-400" y1="171" x2="400" y2="171"/>
      <line x1="-400" y1="196" x2="400" y2="196"/>
      <line x1="-400" y1="208" x2="400" y2="208"/>
      <line x1="-400" y1="221" x2="400" y2="221"/>
      <line x1="-400" y1="263" x2="400" y2="263"/>
    </g>
    <g transform="rotate(-165)">
      <line x1="-400" y1="71" x2="400" y2="71"/>
      <line x1="-400" y1="76" x2="400" y2="76"/>
      <line x1="-400" y1="147" x2="400" y2="147"/>
      <line x1="-400" y1="155" x2="400" y2="155"/>
      <line x1="-400" y1="160" x2="400" y2="160"/>
      <line x1="-400" y1="193" x2="400" y2="193"/>
      <line x1="-400" y1="198" x2="400" y2="198"/>
      <line x1="-400" y1="211" x2="400" y2="211"/>
      <line x1="-400" y1="224" x2="400" y2="224"/>
      <line x1="-400" y1="226" x2="400" y2="226"/>
      <line x1="-400" y1="229" x2="400" y2="229"/>
      <line x1="-400" y1="236" x2="400" y2="236"/>
      <line x1="-400" y1="254" x2="400" y2="254"/>
    </g>
    <g transform="rotate(-168)">
      <line x1="-400" y1="78" x2="400" y2="78"/>
      <line x1="-400" y1="94" x2="400" y2="94"/>
      <line x1="-400" y1="102" x2="400" y2="102"/>
      <line x1="-400" y1="126" x2="400" y2="126"/>
      <line x1="-400" y1="242" x2="400" y2="242"/>
      <line x1="-400" y1="265" x2="400" y2="265"/>
    </g>
    <g transform="rotate(-171)">
      <line x1="-400" y1="128" x2="400" y2="128"/>
      <line x1="-400" y1="156" x2="400" y2="156"/>
      <line x1="-400" y1="180" x2="400" y2="180"/>
      <line x1="-400" y1="197" x2="400" y2="197"/>
      <line x1="-400" y1="227" x2="400" y2="227"/>
      <line x1="-400" y1="241" x2="400" y2="241"/>
      <line x1="-400" y1="246" x2="400" y2="246"/>
      <line x1="-400" y1="254" x2="400" y2="254"/>
    </g>
    <g transform="rotate(-174)">
      <line x1="-400" y1="80" x2="400" y2="80"/>
      <line x1="-400" y1="82" x2="400" y2="82"/>
      <line x1="-400" y1="105" x2="400" y2="105"/>
      <line x1="-400" y1="125" x2="400" y2="125"/>
      <line x1="-400" y1="171" x2="400" y2="171"/>
      <line x1="-400" y1="231" x2="400" y2="231"/>
      <line x1="-400" y1="254" x2="400" y2="254"/>
      <line x1="-400" y1="257" x2="400" y2="257"/>
    </g>
    <g transform="rotate(-177)">
      <line x1="-400" y1="65" x2="400" y2="65"/>
      <line x1="-400" y1="74" x2="400" y2="74"/>
      <line x1="-400" y1="89" x2="400" y2="89"/>
      <line x1="-400" y1="143" x2="400" y2="143"/>
      <line x1="-400" y1="152" x2="400" y2="152"/>
      <line x1="-400" y1="185" x2="400" y2="185"/>
      <line x1="-400" y1="188" x2="400" y2="188"/>
      <line x1="-400" y1="235" x2="400" y2="235"/>
      <line x1="-400" y1="250" x2="400" y2="250"/>
    </g>
  </g>
</svg>
