<svg viewBox="300 160 1500 1000" xmlns="http://www.w3.org/2000/svg" xmlns:inkscape="http://www.inkscape.org/namespaces/inkscape" width="428mm" height="295mm">

<polyline points="668,164 675,164 684,168 692,174 698,180 700,183 703,188 706,196 710,204 712,212 717,228 716,229" style="stroke:rgba(0, 0, 0, 0.5); stroke-width:4" fill="none"/>
<polyline points="691,252 686,244 680,228 679,220 676,215 674,204 670,196 665,188 660,186 651,180 644,176 635,172" style="stroke:rgba(0, 0, 0, 0.5); stroke-width:4" fill="none"/>
<polyline points="668,186 668,180 667,172" style="stroke:rgba(0, 0, 0, 0.5); stroke-width:4" fill="none"/>
<polyline points="964,239 960,236 956,234 950,228 940,223 932,222 924,220 917,220 899,212 892,209 884,206 868,208 857,204 852,202 844,198 839,196 828,192 812,198 808,196 804,196 796,193 789,188 780,184 772,180 756,190 748,188 740,183 733,180 724,176 714,172 704,180 686,172" style="stroke:rgba(0, 0, 0, 0.5); stroke-width:4" fill="none"/>
<polyline points="759,348 746,340 741,324 732,321 724,319 716,315 708,308 700,300 692,292 686,284 679,276 676,272 674,268 670,260 668,252 666,244 660,235 656,228 652,220 646,212 644,209 642,204 636,196 631,188 627,180" style="stroke:rgba(0, 0, 0, 0.5); stroke-width:4" fill="none"/>
<polyline points="783,276 780,271 776,268 772,260 770,252 764,248 763,244 762,228 761,220 760,212 757,204 756,197 756,196 754,188 708,174" style="stroke:rgba(0, 0, 0, 0.5); stroke-width:4" fill="none"/>
<polyline points="764,184 774,188 780,201" style="stroke:rgba(0, 0, 0, 0.5); stroke-width:4" fill="none"/>
<polyline points="804,205 820,192 826,188" style="stroke:rgba(0, 0, 0, 0.5); stroke-width:4" fill="none"/>
<polyline points="803,268 798,260 798,252 796,250 788,231 785,228 782,220 780,215 779,212 776,204" style="stroke:rgba(0, 0, 0, 0.5); stroke-width:4" fill="none"/>
<polyline points="796,353 793,348 796,341 804,336 812,333 814,332 828,324 833,324 836,321 844,316 847,308 844,300 844,297 843,284 844,280 842,276 836,269 832,252 831,244 832,236 832,228 833,220 830,212 828,206 828,204" style="stroke:rgba(0, 0, 0, 0.5); stroke-width:4" fill="none"/>
<polyline points="684,210 686,212 689,220 692,225 694,228 700,240 702,244 707,252 712,260 716,265 719,268 724,276" style="stroke:rgba(0, 0, 0, 0.5); stroke-width:4" fill="none"/>
<polyline points="762,268 756,262 755,260 750,252 748,250 745,244 740,236 736,228 732,220 728,212" style="stroke:rgba(0, 0, 0, 0.5); stroke-width:4" fill="none"/>
<polyline points="838,316 844,312 852,300 845,276 844,270 847,260 848,252 852,241 854,236 856,228 857,220 857,212" style="stroke:rgba(0, 0, 0, 0.5); stroke-width:4" fill="none"/>
<polyline points="853,356 852,353 852,344 852,340 852,334 860,323 861,316 866,300 876,281 873,276 871,268 872,252 876,236 876,233 877,228 879,220" style="stroke:rgba(0, 0, 0, 0.5); stroke-width:4" fill="none"/>
<polyline points="889,236 888,228 900,221 908,224 916,225" style="stroke:rgba(0, 0, 0, 0.5); stroke-width:4" fill="none"/>
<polyline points="828,348 836,348 844,349 847,348 856,340 860,332 876,324 881,316 886,308 890,300 900,292 901,284 900,280 900,276 906,268 908,264 911,260 919,252 924,241 924,236 928,228" style="stroke:rgba(0, 0, 0, 0.5); stroke-width:4" fill="none"/>
<polyline points="796,256 795,252 792,244 788,237 788,236" style="stroke:rgba(0, 0, 0, 0.5); stroke-width:4" fill="none"/>
<polyline points="892,295 890,284 889,276 892,273 904,260 908,255 912,236" style="stroke:rgba(0, 0, 0, 0.5); stroke-width:4" fill="none"/>
<polyline points="1028,255 1029,252 1023,244 1018,236 1012,233 1004,235 997,236 988,238 980,242 977,244 972,250 964,250 956,244 948,242" style="stroke:rgba(0, 0, 0, 0.5); stroke-width:4" fill="none"/>
<polyline points="880,332 876,330 868,325 862,308 869,292 882,268 881,252 878,244" style="stroke:rgba(0, 0, 0, 0.5); stroke-width:4" fill="none"/>
<polyline points="876,272 888,260 892,254 894,252 898,244 900,239" style="stroke:rgba(0, 0, 0, 0.5); stroke-width:4" fill="none"/>
<polyline points="900,272 916,254 915,244" style="stroke:rgba(0, 0, 0, 0.5); stroke-width:4" fill="none"/>
<polyline points="980,249 976,252 964,259 959,260 956,260 947,252 940,247 933,244" style="stroke:rgba(0, 0, 0, 0.5); stroke-width:4" fill="none"/>
<polyline points="1316,705 1308,700 1302,692 1292,685 1270,660 1268,654 1260,645 1254,636 1244,622 1238,612 1236,604 1228,593 1220,585 1211,580 1172,581 1164,576 1156,570 1153,564 1149,548 1149,540 1148,537 1143,532 1140,520 1143,508 1148,500 1156,494 1159,492 1165,484 1172,479 1175,476 1180,470 1183,468 1188,458 1191,452 1196,447 1204,440 1214,428 1220,422 1220,420 1220,416 1218,412 1212,407 1207,396 1204,384 1204,370 1204,358 1204,356 1200,348 1196,345 1188,340 1176,340 1160,340 1148,338 1124,320 1121,316 1116,314 1108,313 1100,313 1092,319 1084,321 1076,321 1068,322 1060,320 1052,321 1044,326 1028,337 1020,344 1006,348 998,348 994,348 988,347 980,342 973,340 964,336 956,333 954,332 948,331 929,324 923,316 923,300 925,292 932,280 932,276 940,268 948,256 952,244" style="stroke:rgba(0, 0, 0, 0.5); stroke-width:4" fill="none"/>
<polyline points="916,270 924,276 935,276 940,274 948,270 956,265 964,256 961,244" style="stroke:rgba(0, 0, 0, 0.5); stroke-width:4" fill="none"/>
<polyline points="692,279 690,276 684,268 679,260 676,255 674,252" style="stroke:rgba(0, 0, 0, 0.5); stroke-width:4" fill="none"/>
<polyline points="836,235 836,244 838,252" style="stroke:rgba(0, 0, 0, 0.5); stroke-width:4" fill="none"/>
<polyline points="845,292 852,292 856,292 862,292 874,284 878,276 884,254 889,252" style="stroke:rgba(0, 0, 0, 0.5); stroke-width:4" fill="none"/>
<polyline points="950,260 940,257 932,254 928,252" style="stroke:rgba(0, 0, 0, 0.5); stroke-width:4" fill="none"/>
<polyline points="946,276 938,268 932,263 932,252" style="stroke:rgba(0, 0, 0, 0.5); stroke-width:4" fill="none"/>
<polyline points="1067,292 1060,284 1062,276 1062,268 1060,267 1052,262 1042,260 1016,268 1012,264 1007,260 996,253 993,252" style="stroke:rgba(0, 0, 0, 0.5); stroke-width:4" fill="none"/>
<polyline points="1036,261 1020,262 1018,260 1012,258 1004,252" style="stroke:rgba(0, 0, 0, 0.5); stroke-width:4" fill="none"/>
<polyline points="980,272 988,276 999,276 1004,275 1012,253 1012,252 1012,249" style="stroke:rgba(0, 0, 0, 0.5); stroke-width:4" fill="none"/>
<polyline points="980,263 994,268 996,266 1019,252" style="stroke:rgba(0, 0, 0, 0.5); stroke-width:4" fill="none"/>
<polyline points="945,268 940,261 938,260 924,266 920,268 910,276 908,277" style="stroke:rgba(0, 0, 0, 0.5); stroke-width:4" fill="none"/>
<polyline points="980,259 984,260 988,262 1012,271 1020,266" style="stroke:rgba(0, 0, 0, 0.5); stroke-width:4" fill="none"/>
<polyline points="796,275 803,276 814,268 820,268" style="stroke:rgba(0, 0, 0, 0.5); stroke-width:4" fill="none"/>
<polyline points="820,271 828,270 834,268 852,275 855,276 860,276" style="stroke:rgba(0, 0, 0, 0.5); stroke-width:4" fill="none"/>
<polyline points="1004,265 1005,268 1012,279" style="stroke:rgba(0, 0, 0, 0.5); stroke-width:4" fill="none"/>
<polyline points="980,380 988,377 995,372 996,371 1012,367 1017,364 1027,356 1028,353 1023,332 1025,324 1028,320 1036,316 1060,300 1068,288 1067,276 1054,268" style="stroke:rgba(0, 0, 0, 0.5); stroke-width:4" fill="none"/>
<polyline points="756,281 751,284 748,284 741,276" style="stroke:rgba(0, 0, 0, 0.5); stroke-width:4" fill="none"/>
<polyline points="1021,276 1015,276 1004,282 996,284 988,286 984,284 980,278 978,276" style="stroke:rgba(0, 0, 0, 0.5); stroke-width:4" fill="none"/>
<polyline points="1052,284 1044,277 1040,276" style="stroke:rgba(0, 0, 0, 0.5); stroke-width:4" fill="none"/>
<polyline points="832,316 819,316 812,314 802,316 796,316 792,316 781,308 773,292 772,288 773,284" style="stroke:rgba(0, 0, 0, 0.5); stroke-width:4" fill="none"/>
<polyline points="804,304 807,300 804,292 801,284" style="stroke:rgba(0, 0, 0, 0.5); stroke-width:4" fill="none"/>
<polyline points="812,281 815,284 820,291 824,300 828,311 828,336 827,340 831,356 828,366 832,372 838,372" style="stroke:rgba(0, 0, 0, 0.5); stroke-width:4" fill="none"/>
<polyline points="820,299 827,292 827,284 828,281" style="stroke:rgba(0, 0, 0, 0.5); stroke-width:4" fill="none"/>
<polyline points="876,298 866,284 862,284" style="stroke:rgba(0, 0, 0, 0.5); stroke-width:4" fill="none"/>
<polyline points="948,275 940,282 938,284 932,289" style="stroke:rgba(0, 0, 0, 0.5); stroke-width:4" fill="none"/>
<polyline points="956,281 962,284 970,292 980,294 985,292 993,284" style="stroke:rgba(0, 0, 0, 0.5); stroke-width:4" fill="none"/>
<polyline points="863,364 868,358 871,356 876,349 884,342 890,332 892,318 896,316 900,313 910,308 916,304 932,298 949,292 956,294 972,299 977,300 988,304 994,308 1004,310 1012,309 1020,304 1028,297 1030,292 1028,287 1027,284" style="stroke:rgba(0, 0, 0, 0.5); stroke-width:4" fill="none"/>
<polyline points="1420,487 1415,484 1412,482 1410,476 1402,468 1380,455 1372,446 1364,439 1354,436 1340,432 1332,430 1325,428 1324,428 1310,436 1308,436 1300,433 1285,420 1284,417 1268,402 1260,388 1250,364 1244,359 1232,348 1228,344 1219,340 1208,332 1204,330 1188,325 1180,324 1172,320 1164,318 1156,316 1148,324 1138,332 1124,338 1092,334 1087,332 1084,328 1080,324 1076,314 1068,306 1060,298 1044,284" style="stroke:rgba(0, 0, 0, 0.5); stroke-width:4" fill="none"/>
<polyline points="820,315 800,300 791,292 786,292" style="stroke:rgba(0, 0, 0, 0.5); stroke-width:4" fill="none"/>
<polyline points="820,285 820,292 832,308" style="stroke:rgba(0, 0, 0, 0.5); stroke-width:4" fill="none"/>
<polyline points="852,327 868,316 867,308 883,292" style="stroke:rgba(0, 0, 0, 0.5); stroke-width:4" fill="none"/>
<polyline points="916,286 908,288 897,292" style="stroke:rgba(0, 0, 0, 0.5); stroke-width:4" fill="none"/>
<polyline points="1201,332 1196,338 1188,346 1187,348 1188,355 1188,361 1172,383 1164,389 1156,392 1148,392 1132,381 1108,364 1100,353 1092,345 1068,333 1060,334 1044,338 1012,331 1001,324 988,318 973,316 964,319 957,324 940,332 932,332 912,324 908,315 908,300 908,292" style="stroke:rgba(0, 0, 0, 0.5); stroke-width:4" fill="none"/>
<polyline points="1618,620 1612,618 1604,614 1596,607 1592,604 1580,597 1572,592 1567,588 1556,583 1552,580 1540,571 1533,564 1527,556 1524,548 1516,540 1508,534 1480,532 1472,524 1468,509 1472,492 1468,485 1466,476 1459,468 1455,452 1452,439 1444,428 1439,420 1436,418 1426,412 1420,414 1397,420 1372,414 1350,404 1340,404 1324,403 1315,404 1308,403 1295,396 1292,394 1275,388 1268,390 1250,396 1244,395 1236,388 1231,372 1228,368 1221,364 1220,363 1180,345 1172,347 1148,347 1141,348 1132,347 1130,348 1124,349 1118,348 1116,347 1108,340 1100,327 1084,311 1076,308 1060,307 1052,306 1004,333 1001,340 996,342 988,341 982,340 964,332 950,324 948,321 942,316 937,308 920,292 917,292" style="stroke:rgba(0, 0, 0, 0.5); stroke-width:4" fill="none"/>
<polyline points="940,293 942,292 948,287" style="stroke:rgba(0, 0, 0, 0.5); stroke-width:4" fill="none"/>
<polyline points="956,289 954,292 948,295 940,306 932,316 924,327 908,329 904,332 900,332" style="stroke:rgba(0, 0, 0, 0.5); stroke-width:4" fill="none"/>
<polyline points="980,289 972,286 961,292 956,304 940,318 937,324 930,332 923,340 911,348" style="stroke:rgba(0, 0, 0, 0.5); stroke-width:4" fill="none"/>
<polyline points="1045,292 1039,300 1020,296 1012,294 1009,292 1004,291" style="stroke:rgba(0, 0, 0, 0.5); stroke-width:4" fill="none"/>
<polyline points="1036,288 1038,292 1027,308 1020,315 996,350 988,354 985,356 980,356 964,352 950,348 940,340 943,324 956,313 996,300 1006,300 1015,292" style="stroke:rgba(0, 0, 0, 0.5); stroke-width:4" fill="none"/>
<polyline points="761,356 748,341 740,331 734,316 725,308 724,307 716,300" style="stroke:rgba(0, 0, 0, 0.5); stroke-width:4" fill="none"/>
<polyline points="732,301 738,300 746,300" style="stroke:rgba(0, 0, 0, 0.5); stroke-width:4" fill="none"/>
<polyline points="1244,724 1250,724 1260,721 1270,716 1276,716 1284,713 1292,713 1300,711 1308,709 1314,700 1309,692 1308,691 1300,687 1284,680 1276,679 1268,675 1260,674 1255,676 1244,676 1240,676 1236,676 1212,672 1208,668 1180,660 1164,655 1153,652 1148,651 1142,644 1140,643 1135,636 1132,625 1127,620 1124,618 1116,612 1111,596 1102,588 1100,586 1100,575 1100,564 1100,539 1096,532 1094,524 1092,510 1091,500 1092,495 1091,484 1093,476 1099,468 1102,460 1108,454 1112,452 1117,444 1125,428 1124,425 1118,420 1116,417 1116,412 1120,396 1121,388 1123,380 1124,376 1116,354 1108,344 1099,340 1068,316 1052,313 1009,316 985,316 972,320 955,316 948,308 948,302 951,300 964,300 972,291" style="stroke:rgba(0, 0, 0, 0.5); stroke-width:4" fill="none"/>
<polyline points="1149,316 1132,314 1124,314 1116,322 1084,336 1074,340 1072,348 1074,356 1076,358 1092,363 1100,363 1116,364 1124,362 1132,362 1148,362 1156,358 1170,356 1212,355 1220,356 1228,362 1230,364 1247,372 1268,381 1284,396 1284,409 1298,436 1300,444 1298,452 1296,460 1292,465 1284,471 1282,476 1268,490 1260,498 1250,500 1236,505 1228,508 1220,514 1214,516 1204,514 1196,510 1190,508 1182,500 1172,493 1170,492 1164,469 1154,460 1149,452 1146,444 1143,436 1133,420 1132,413 1128,396 1116,381 1108,372 1091,364 1084,357 1076,349 1068,345 1060,338 1054,332 1052,330 1050,324 1047,316 1044,304 1045,300" style="stroke:rgba(0, 0, 0, 0.5); stroke-width:4" fill="none"/>
<polyline points="735,332 732,311 733,308" style="stroke:rgba(0, 0, 0, 0.5); stroke-width:4" fill="none"/>
<polyline points="974,484 972,482 971,476 973,468 972,461 972,460 972,447 975,444 980,439 985,436 988,433 991,428 989,420 988,419 983,412 980,405 982,396 988,387 990,380 994,364 997,356 988,336 988,332 980,318 972,312 962,308 932,321 916,336 913,340 916,347 916,356" style="stroke:rgba(0, 0, 0, 0.5); stroke-width:4" fill="none"/>
<polyline points="1360,380 1353,388 1348,399 1331,412 1324,418 1318,420 1308,415 1292,413 1276,406 1273,404 1260,405 1244,430 1238,436 1228,440 1220,443 1215,444 1202,452 1196,461 1188,476 1188,478 1173,500 1164,508 1156,516 1133,540 1130,548 1132,553 1132,556 1132,563 1130,588 1134,596 1137,604 1140,608 1140,623 1143,636 1146,644 1156,652 1158,652 1171,644 1180,629 1175,612 1172,608 1164,594 1156,577 1140,551 1124,534 1124,519 1125,516 1127,508 1132,500 1139,492 1142,484 1144,476 1145,468 1148,454 1140,426 1140,420 1147,404 1172,378 1180,376 1188,376 1200,380 1212,392 1221,404 1230,420 1236,426 1237,428 1244,436 1251,444 1260,450 1270,452 1276,455 1285,460 1292,468 1299,476 1318,484 1331,484 1346,484 1364,490 1365,492 1372,498 1376,500 1380,501 1385,500 1396,488 1396,483 1396,475 1396,468 1396,457 1390,444 1380,441 1370,436 1356,429 1346,420 1329,420 1316,423 1308,422 1304,420 1252,379 1244,380 1228,380 1220,383 1212,384 1198,388 1185,396 1172,396 1165,396 1140,403 1127,404 1116,403 1092,391 1088,388 1068,381 1043,356 1038,340 1030,324 1012,305 996,307 982,308 956,324 945,340 946,348 948,354 949,356 956,366 964,373 965,380 972,390 976,396 985,404" style="stroke:rgba(0, 0, 0, 0.5); stroke-width:4" fill="none"/>
<polyline points="748,317 747,316 744,316 732,329" style="stroke:rgba(0, 0, 0, 0.5); stroke-width:4" fill="none"/>
<polyline points="988,457 980,454 967,444 960,444 956,440 953,436 948,432 943,428 940,422 936,420 932,416 923,412 916,408 907,404 900,400 892,398 886,396 884,395 876,391 868,387 852,386 847,388 828,385 820,387 812,384 804,383 796,382 788,382 781,380 772,378 764,375 755,356 756,354 764,343 772,340 777,332 788,324 788,321 785,316" style="stroke:rgba(0, 0, 0, 0.5); stroke-width:4" fill="none"/>
<polyline points="964,390 964,388 972,384 979,372 980,364 984,348 974,332 948,315 932,313 916,316 914,316" style="stroke:rgba(0, 0, 0, 0.5); stroke-width:4" fill="none"/>
<polyline points="964,323 972,324 990,332 996,331 1036,361 1060,376 1076,378 1081,380 1092,374 1108,376 1140,371 1142,372 1148,384 1154,388 1158,396 1164,403 1170,404 1185,412 1188,413 1196,414 1204,420 1212,424 1236,451 1252,463 1270,468 1276,477 1276,487 1280,492 1284,498 1292,516 1301,516 1324,521 1327,524 1348,548 1352,556 1356,566 1364,580 1364,582 1371,596 1379,604 1380,609 1381,620 1388,624 1396,623 1401,620 1412,616 1421,612 1428,611 1429,612 1436,614 1446,620 1466,644 1476,652 1479,660 1483,668 1484,671 1487,676 1488,684 1484,695 1483,700 1469,708 1454,700 1444,694 1436,689 1428,686 1425,684 1420,681 1412,674 1400,668 1396,665 1390,660 1388,659 1380,653 1379,652 1372,647 1368,644 1364,641 1361,636 1357,628 1357,620 1353,612 1350,604 1348,601 1340,591 1332,585 1321,580 1311,572 1292,571 1284,569 1268,569 1247,572 1236,568 1227,564 1220,562 1211,564 1204,564 1188,561 1164,553 1156,552 1140,546 1135,548 1124,551 1116,550 1098,548 1092,549 1080,556 1072,564 1060,568 1052,572 1044,579 1036,583 1025,596 1019,604 1020,615 1020,618 1017,620" style="stroke:rgba(0, 0, 0, 0.5); stroke-width:4" fill="none"/>
<polyline points="1160,332 1154,332 1132,332 1124,329 1122,324" style="stroke:rgba(0, 0, 0, 0.5); stroke-width:4" fill="none"/>
<polyline points="931,412 940,401 942,396 948,383 964,382 988,401 996,404 1000,412 1012,418 1020,419 1028,420 1036,415 1041,412 1044,408 1055,404 1068,395 1073,388 1076,386 1084,372 1084,364 1090,348 1100,343 1116,331 1139,324 1148,327 1156,337 1166,348 1172,357 1180,361 1188,366 1212,371 1220,371 1222,372 1244,390 1252,404 1260,415 1268,420 1276,426 1284,430 1290,436 1306,452 1308,456 1309,460 1308,474 1303,484 1300,493 1298,500 1292,508 1284,513 1281,516 1280,532 1276,543 1272,556 1268,561 1259,572 1268,609 1276,617 1279,620 1284,629 1292,637 1311,636 1322,628 1324,623 1329,620 1336,612 1340,606 1340,596 1330,580 1316,569 1308,559 1305,556 1291,556 1284,558 1276,564 1266,572" style="stroke:rgba(0, 0, 0, 0.5); stroke-width:4" fill="none"/>
<polyline points="1212,338 1207,340 1204,340 1201,340 1170,324 1165,324" style="stroke:rgba(0, 0, 0, 0.5); stroke-width:4" fill="none"/>
<polyline points="1012,644 1012,640 1020,631 1021,628 1028,624 1036,619 1047,612 1052,604 1058,596 1060,594 1068,588 1080,572 1084,569 1092,567 1108,579 1124,598 1140,598 1148,590 1156,590 1173,580 1196,576 1228,579 1236,578 1242,580 1252,578 1262,580 1276,591 1284,594 1292,593 1308,580 1332,569 1344,556 1351,548 1352,540 1348,510 1348,505 1348,497 1346,492 1340,486 1312,476 1304,468 1292,454 1291,452 1284,441 1280,436 1268,428 1252,420 1250,412 1244,387 1244,367 1241,364 1238,356 1236,353 1228,351 1220,349 1212,347 1188,333 1185,324" style="stroke:rgba(0, 0, 0, 0.5); stroke-width:4" fill="none"/>
<polyline points="766,340 772,335 780,335 786,332 796,334" style="stroke:rgba(0, 0, 0, 0.5); stroke-width:4" fill="none"/>
<polyline points="797,332 794,332 788,335" style="stroke:rgba(0, 0, 0, 0.5); stroke-width:4" fill="none"/>
<polyline points="828,359 828,354 827,332" style="stroke:rgba(0, 0, 0, 0.5); stroke-width:4" fill="none"/>
<polyline points="834,340 836,341 844,337 844,332" style="stroke:rgba(0, 0, 0, 0.5); stroke-width:4" fill="none"/>
<polyline points="913,404 916,398 922,396 940,380 947,380 956,374 958,364 956,358 956,356 958,348 966,340 968,332" style="stroke:rgba(0, 0, 0, 0.5); stroke-width:4" fill="none"/>
<polyline points="1140,319 1120,332 1100,377 1101,388 1100,404 1093,412 1092,418 1090,428 1093,436" style="stroke:rgba(0, 0, 0, 0.5); stroke-width:4" fill="none"/>
<polyline points="1196,328 1196,332 1211,340 1220,348" style="stroke:rgba(0, 0, 0, 0.5); stroke-width:4" fill="none"/>
<polyline points="820,351 817,348 807,340" style="stroke:rgba(0, 0, 0, 0.5); stroke-width:4" fill="none"/>
<polyline points="900,340 890,340 876,340 872,340" style="stroke:rgba(0, 0, 0, 0.5); stroke-width:4" fill="none"/>
<polyline points="884,379 889,372 893,372 897,372 900,371 908,372 916,382 924,383 932,382 935,380 942,364 940,358 948,350 948,343 950,340 956,338 959,340 980,331" style="stroke:rgba(0, 0, 0, 0.5); stroke-width:4" fill="none"/>
<polyline points="876,344 875,348 868,361 860,369 859,372 860,374" style="stroke:rgba(0, 0, 0, 0.5); stroke-width:4" fill="none"/>
<polyline points="897,356 892,351 891,348" style="stroke:rgba(0, 0, 0, 0.5); stroke-width:4" fill="none"/>
<polyline points="932,344 928,348 924,358 924,364 924,369 924,372 924,375 927,380 924,396" style="stroke:rgba(0, 0, 0, 0.5); stroke-width:4" fill="none"/>
<polyline points="932,360 931,356 932,352 934,348" style="stroke:rgba(0, 0, 0, 0.5); stroke-width:4" fill="none"/>
<polyline points="948,367 950,364 962,356 971,348" style="stroke:rgba(0, 0, 0, 0.5); stroke-width:4" fill="none"/>
<polyline points="971,372 988,367 1002,364 1012,358 1014,356 1031,348" style="stroke:rgba(0, 0, 0, 0.5); stroke-width:4" fill="none"/>
<polyline points="1002,396 1004,394 1006,388 1017,380 1020,377 1028,373 1036,369 1044,351 1045,348" style="stroke:rgba(0, 0, 0, 0.5); stroke-width:4" fill="none"/>
<polyline points="1052,350 1060,347 1062,348 1076,343 1100,348 1104,348 1113,356 1139,380 1143,396 1148,408 1148,420 1148,427 1140,453 1146,460 1148,466 1148,477 1140,501 1145,516 1148,525 1150,532 1156,542 1161,548 1163,556 1167,564 1180,576 1184,588 1190,596 1196,605 1204,612 1212,618 1215,620 1224,628 1228,630 1240,628 1253,620 1261,612 1276,607 1284,601" style="stroke:rgba(0, 0, 0, 0.5); stroke-width:4" fill="none"/>
<polyline points="812,362 804,364 796,362 788,357 786,356 780,351 780,347" style="stroke:rgba(0, 0, 0, 0.5); stroke-width:4" fill="none"/>
<polyline points="836,355 835,356 820,362 812,373 810,380" style="stroke:rgba(0, 0, 0, 0.5); stroke-width:4" fill="none"/>
<polyline points="884,365 886,364 892,361 893,356" style="stroke:rgba(0, 0, 0, 0.5); stroke-width:4" fill="none"/>
<polyline points="980,350 976,356 968,356 964,358 961,364 955,372" style="stroke:rgba(0, 0, 0, 0.5); stroke-width:4" fill="none"/>
<polyline points="996,358 1006,356 1027,372 1076,406 1092,409 1100,411 1108,407 1116,390 1164,373" style="stroke:rgba(0, 0, 0, 0.5); stroke-width:4" fill="none"/>
<polyline points="1076,413 1069,404 1061,396 1053,388 1052,381 1060,362 1060,356 1068,312" style="stroke:rgba(0, 0, 0, 0.5); stroke-width:4" fill="none"/>
<polyline points="968,364 972,370 996,382 1012,388 1020,395 1024,396 1031,388 1036,383 1044,380 1056,380 1067,372 1076,369 1085,356 1092,355 1094,356 1101,380 1108,396 1108,403" style="stroke:rgba(0, 0, 0, 0.5); stroke-width:4" fill="none"/>
<polyline points="1140,360 1155,364 1195,364 1212,360 1216,356" style="stroke:rgba(0, 0, 0, 0.5); stroke-width:4" fill="none"/>
<polyline points="876,364 875,364 868,370 863,372" style="stroke:rgba(0, 0, 0, 0.5); stroke-width:4" fill="none"/>
<polyline points="1060,452 1058,444 1060,434 1068,428 1070,420 1063,412 1060,409 1044,399 1044,393 1040,388 1036,386 1027,380 1017,372 1012,370 1007,364" style="stroke:rgba(0, 0, 0, 0.5); stroke-width:4" fill="none"/>
<polyline points="1068,365 1057,364 1044,370 1036,376 1009,372 1004,372" style="stroke:rgba(0, 0, 0, 0.5); stroke-width:4" fill="none"/>
<polyline points="1172,353 1183,380 1188,391 1196,396 1204,402 1220,405 1236,416 1240,420 1260,440 1276,441 1284,436 1284,421 1292,404 1301,396 1308,380 1313,372 1316,368 1319,364 1324,361 1332,360 1342,364 1348,366 1356,372 1364,394 1362,412 1370,428 1388,452 1388,457 1402,492 1396,502 1388,513 1380,516 1372,521 1365,524 1356,525 1348,529 1332,532 1324,533 1316,536 1303,532 1300,533 1291,540 1284,545 1274,540 1268,533 1266,532 1259,532 1253,532 1244,534 1233,540 1220,544 1213,548 1189,540 1179,532 1177,516 1172,511 1132,515 1116,515 1113,516 1108,518 1097,524 1092,528 1081,532 1076,534 1057,548 1028,552 1020,564 1024,580 1020,588 1004,606 998,612 996,613 988,612" style="stroke:rgba(0, 0, 0, 0.5); stroke-width:4" fill="none"/>
<polyline points="1196,359 1220,378 1226,396 1228,399 1243,428 1260,434 1263,436 1268,437 1272,436 1292,428 1306,412 1308,409 1311,396 1310,388 1312,380 1316,376 1324,368 1329,364" style="stroke:rgba(0, 0, 0, 0.5); stroke-width:4" fill="none"/>
<polyline points="780,373 779,372 772,361" style="stroke:rgba(0, 0, 0, 0.5); stroke-width:4" fill="none"/>
<polyline points="900,366 902,372 908,375 917,372" style="stroke:rgba(0, 0, 0, 0.5); stroke-width:4" fill="none"/>
<polyline points="1052,355 1052,362 1045,372 1036,389 1031,396 1030,404 1026,412 1018,420 1012,422 998,428 989,436 980,444 955,468 948,470 942,476 940,478 932,484 924,489 920,492 916,493 908,497 903,500 884,508 871,516 868,518 860,524 853,532 848,540 846,548 844,564 843,572 837,580 836,581 834,588 832,596 832,612 839,620 844,622" style="stroke:rgba(0, 0, 0, 0.5); stroke-width:4" fill="none"/>
<polyline points="1181,420 1188,406 1196,403 1210,372" style="stroke:rgba(0, 0, 0, 0.5); stroke-width:4" fill="none"/>
<polyline points="1295,420 1316,384 1324,380 1324,373 1324,372" style="stroke:rgba(0, 0, 0, 0.5); stroke-width:4" fill="none"/>
<polyline points="1332,372 1335,372 1340,379 1348,387 1353,396 1379,412 1388,419 1397,428 1404,438 1412,451 1412,465 1409,484 1404,489 1391,492 1364,502 1362,508 1360,516 1348,532 1356,548 1363,556 1364,561 1367,572 1372,574 1390,572 1396,571 1404,572 1412,584 1420,593 1428,598 1439,612 1444,617 1460,618 1468,618 1473,620 1476,623 1486,628 1492,635 1497,644 1500,647 1516,651 1540,646 1548,649 1560,652 1572,667 1588,675 1590,676 1596,680 1603,684 1612,688 1620,689 1628,692 1636,687" style="stroke:rgba(0, 0, 0, 0.5); stroke-width:4" fill="none"/>
<polyline points="1321,388 1327,388 1332,383 1339,380 1345,372" style="stroke:rgba(0, 0, 0, 0.5); stroke-width:4" fill="none"/>
<polyline points="876,384 869,380 868,376" style="stroke:rgba(0, 0, 0, 0.5); stroke-width:4" fill="none"/>
<polyline points="964,435 964,431 964,428 964,424 956,414 951,412 948,402 940,397 936,396 932,394 924,388 918,380" style="stroke:rgba(0, 0, 0, 0.5); stroke-width:4" fill="none"/>
<polyline points="884,385 888,388 892,394 896,396" style="stroke:rgba(0, 0, 0, 0.5); stroke-width:4" fill="none"/>
<polyline points="992,396 990,388 996,376" style="stroke:rgba(0, 0, 0, 0.5); stroke-width:4" fill="none"/>
<polyline points="1037,404 1028,394 1020,390 1012,386 999,388" style="stroke:rgba(0, 0, 0, 0.5); stroke-width:4" fill="none"/>
<polyline points="1020,386 1023,388 1028,405 1033,412 1044,422 1053,428 1064,436 1066,444" style="stroke:rgba(0, 0, 0, 0.5); stroke-width:4" fill="none"/>
<polyline points="1084,394 1108,386 1112,388 1124,397 1140,410 1152,412 1156,413 1166,420 1172,419 1188,420 1199,420 1208,420 1214,420 1228,428 1226,460 1222,468 1212,476 1206,484 1207,492 1209,500 1220,522 1228,540 1233,556 1236,559 1250,564" style="stroke:rgba(0, 0, 0, 0.5); stroke-width:4" fill="none"/>
<polyline points="1212,388 1230,388 1244,404 1260,412 1268,413 1313,460 1316,463 1324,476 1348,490 1353,492 1366,500 1382,524 1396,535 1407,540 1420,551 1428,564 1436,580 1444,593 1452,600 1456,604 1460,608 1463,612 1469,620" style="stroke:rgba(0, 0, 0, 0.5); stroke-width:4" fill="none"/>
<polyline points="1324,387 1340,388 1356,392 1388,435 1391,436 1399,444 1404,452 1406,460 1404,473 1403,476 1393,484 1388,488 1380,488 1372,485 1371,484 1366,476 1365,452 1351,428 1344,412 1327,396 1324,395" style="stroke:rgba(0, 0, 0, 0.5); stroke-width:4" fill="none"/>
<polyline points="1332,379 1348,382 1359,388" style="stroke:rgba(0, 0, 0, 0.5); stroke-width:4" fill="none"/>
<polyline points="1570,484 1572,495 1570,516 1565,524 1559,532 1548,549 1543,556 1524,568 1516,569 1508,575 1500,578 1491,580 1484,578 1476,580 1444,582 1429,572 1420,563 1416,556 1404,540 1404,532 1404,527 1407,516 1413,508 1428,470 1436,452 1442,444 1444,439 1452,426 1460,407 1458,404 1452,401 1443,396 1436,391 1428,389 1420,387 1419,388 1412,388 1396,390 1386,396 1372,403 1348,407 1326,436 1323,444 1324,451 1322,460 1317,468 1316,474 1308,486" style="stroke:rgba(0, 0, 0, 0.5); stroke-width:4" fill="none"/>
<polyline points="943,412 956,396 960,396 972,404 977,412" style="stroke:rgba(0, 0, 0, 0.5); stroke-width:4" fill="none"/>
<polyline points="1044,439 1036,434 1028,430 1025,428 1020,424 1011,412 1013,404 1012,402 1013,396" style="stroke:rgba(0, 0, 0, 0.5); stroke-width:4" fill="none"/>
<polyline points="1044,386 1040,396 1028,416 1015,428 1012,431 1009,436 1004,440 995,444 988,445 985,444 978,436 972,427 967,420 958,420 949,420" style="stroke:rgba(0, 0, 0, 0.5); stroke-width:4" fill="none"/>
<polyline points="1299,748 1297,740 1288,732 1284,729 1268,701 1266,692 1268,684 1262,668 1254,660 1244,660 1224,652 1220,651 1212,648 1204,646 1200,644 1193,636 1172,612 1163,604 1121,588 1107,580 1091,572 1084,559 1076,546 1076,541 1084,529 1092,518 1092,516 1100,504 1108,499 1116,492 1121,484 1124,476 1118,468 1106,452 1102,444 1100,436 1100,434 1095,420 1092,404 1089,396" style="stroke:rgba(0, 0, 0, 0.5); stroke-width:4" fill="none"/>
<polyline points="1388,569 1380,569 1372,563 1372,554 1372,544 1367,532 1364,517 1358,500 1348,480 1349,468 1340,454 1338,452 1333,436 1315,412 1278,396" style="stroke:rgba(0, 0, 0, 0.5); stroke-width:4" fill="none"/>
<polyline points="1014,540 1020,544 1026,548 1034,548 1060,540 1065,540 1079,540 1084,540 1090,540 1092,539 1111,532 1116,533 1128,532 1159,524 1172,524 1177,524 1184,524 1188,525 1204,530 1214,532 1220,531 1228,530 1233,524 1236,510 1239,508 1252,493 1268,476 1276,464 1292,446 1306,428 1323,412 1332,407 1350,412 1372,422 1380,429 1388,428 1401,412 1404,405 1408,396" style="stroke:rgba(0, 0, 0, 0.5); stroke-width:4" fill="none"/>
<polyline points="1132,748 1135,748 1140,740 1146,732 1145,716 1155,708 1156,707 1156,700 1159,692 1164,685 1160,676 1158,668 1156,660 1148,640 1147,628 1146,620 1147,612 1148,609 1150,604 1156,602 1172,597 1180,594 1208,572 1212,561 1226,540 1236,516 1244,514 1248,516 1260,519 1268,520 1284,524 1304,524 1334,508 1340,511 1368,516 1385,508 1388,506 1402,500 1414,492 1428,494 1434,492 1444,480 1443,468 1438,460 1436,457 1428,444 1425,428 1418,412 1420,403 1422,396" style="stroke:rgba(0, 0, 0, 0.5); stroke-width:4" fill="none"/>
<polyline points="972,405 956,406 954,404 947,404" style="stroke:rgba(0, 0, 0, 0.5); stroke-width:4" fill="none"/>
<polyline points="994,452 996,435 988,426 980,421 978,420 972,414 968,412 961,404" style="stroke:rgba(0, 0, 0, 0.5); stroke-width:4" fill="none"/>
<polyline points="1276,448 1278,460 1278,468 1260,483 1240,484 1236,480 1229,476 1215,468 1212,467 1207,468 1204,471 1203,476 1196,495 1188,511 1186,516 1188,532 1188,535 1184,540 1180,543 1171,548 1156,557 1140,576 1136,580 1124,584 1120,580 1116,572 1109,556 1108,540 1108,539 1119,508 1126,492 1132,488 1149,476 1156,473 1159,468 1156,456 1158,444 1159,436 1164,423 1168,412 1162,404 1155,404 1124,412 1108,418" style="stroke:rgba(0, 0, 0, 0.5); stroke-width:4" fill="none"/>
<polyline points="1212,397 1188,401 1186,404 1171,420 1158,428 1143,428 1130,428 1116,434 1106,436 1100,428 1092,428 1084,428 1079,428" style="stroke:rgba(0, 0, 0, 0.5); stroke-width:4" fill="none"/>
<polyline points="1356,556 1380,545 1388,542 1392,540 1398,540 1412,535 1420,536 1436,535 1451,532 1459,532 1468,540 1471,548 1476,553 1480,556 1484,558 1500,567 1505,572 1516,577 1524,585 1530,588 1532,589 1540,594 1543,596 1548,599 1561,604 1572,605 1580,605 1588,596 1588,592 1589,588 1596,578 1601,564 1605,556 1602,548 1596,542 1593,540 1580,537 1572,528 1564,512 1563,508 1554,500 1548,491 1541,484 1532,478 1519,476 1508,476 1489,468 1484,460 1477,452 1468,442 1463,436 1459,428 1444,411 1436,405 1434,404 1428,405 1412,404 1396,405 1387,404" style="stroke:rgba(0, 0, 0, 0.5); stroke-width:4" fill="none"/>
<polyline points="1372,594 1380,592 1382,588 1388,583 1395,580 1404,577 1428,579 1450,580 1457,572 1460,569 1460,562 1461,556 1460,539 1452,520 1447,516 1444,508 1436,497 1434,484 1450,460 1457,444 1457,436 1456,412 1452,408 1448,404" style="stroke:rgba(0, 0, 0, 0.5); stroke-width:4" fill="none"/>
<polyline points="1057,508 1060,513 1066,516 1076,525 1092,532 1104,524 1108,523 1116,523 1132,525 1161,540 1178,548 1183,548 1188,550 1204,571 1212,583 1238,596 1244,597 1260,602 1268,599 1293,596 1308,595 1316,591 1333,556 1332,546 1327,540 1324,539 1315,532 1308,524 1307,516 1308,503 1292,482 1300,463 1304,460 1320,452 1340,436 1374,420 1412,428 1420,426 1441,412 1453,404" style="stroke:rgba(0, 0, 0, 0.5); stroke-width:4" fill="none"/>
<polyline points="1110,428 1113,420 1113,412" style="stroke:rgba(0, 0, 0, 0.5); stroke-width:4" fill="none"/>
<polyline points="1105,428 1108,428 1124,419 1137,412" style="stroke:rgba(0, 0, 0, 0.5); stroke-width:4" fill="none"/>
<polyline points="964,459 980,466 988,461 998,460 1005,452 1012,449 1020,448 1031,444 1034,436 1036,423 1035,420" style="stroke:rgba(0, 0, 0, 0.5); stroke-width:4" fill="none"/>
<polyline points="1060,418 1052,418 1049,420" style="stroke:rgba(0, 0, 0, 0.5); stroke-width:4" fill="none"/>
<polyline points="1268,445 1266,444 1260,422 1260,420" style="stroke:rgba(0, 0, 0, 0.5); stroke-width:4" fill="none"/>
<polyline points="1286,452 1284,448 1281,444 1271,420" style="stroke:rgba(0, 0, 0, 0.5); stroke-width:4" fill="none"/>
<polyline points="982,436 980,433 976,428" style="stroke:rgba(0, 0, 0, 0.5); stroke-width:4" fill="none"/>
<polyline points="1021,436 1007,428 1004,428 1003,428 996,425" style="stroke:rgba(0, 0, 0, 0.5); stroke-width:4" fill="none"/>
<polyline points="1052,424 1034,428 1012,436 1004,434 988,451 983,452 964,479 970,492" style="stroke:rgba(0, 0, 0, 0.5); stroke-width:4" fill="none"/>
<polyline points="1124,422 1116,425 1115,428 1116,431 1118,436 1116,441 1108,450 1100,459 1092,462 1084,466 1076,468 1072,468 1068,469 1065,476 1061,492 1062,500" style="stroke:rgba(0, 0, 0, 0.5); stroke-width:4" fill="none"/>
<polyline points="1264,460 1246,468 1244,476 1236,487 1220,489 1214,492 1196,482 1196,476 1196,474 1180,452 1180,440 1180,430 1181,428 1188,427 1192,428 1212,436 1220,447 1224,452 1228,459 1236,468 1236,475 1229,492 1227,500 1223,516 1218,524 1212,531 1199,540 1188,545 1180,552 1172,564 1166,572 1155,580 1148,580 1110,588 1085,580 1084,579 1076,571 1067,548 1050,540 1044,538 1028,544 1017,556 1012,556" style="stroke:rgba(0, 0, 0, 0.5); stroke-width:4" fill="none"/>
<polyline points="1188,424 1196,426 1200,428 1207,436 1212,443 1220,451 1244,472 1254,492 1259,500 1261,508 1260,512 1259,516 1257,524 1244,544 1238,548 1236,549" style="stroke:rgba(0, 0, 0, 0.5); stroke-width:4" fill="none"/>
<polyline points="1422,484 1412,476 1388,471 1379,468 1373,460 1354,452 1348,441 1342,428" style="stroke:rgba(0, 0, 0, 0.5); stroke-width:4" fill="none"/>
<polyline points="1428,423 1434,428 1436,444 1445,452 1462,460 1468,462 1478,468 1484,469 1493,468 1506,460 1516,451 1519,444 1512,436 1500,431 1495,428 1484,426 1476,425 1471,428 1460,439 1452,474 1452,484 1448,492 1444,501 1444,512 1449,524 1452,538 1454,548 1452,556 1452,561 1452,565 1452,575 1464,588 1468,590 1476,597 1484,603 1489,604 1500,610 1516,610 1520,612 1532,621 1548,624 1556,622 1558,620 1572,616 1580,618 1588,620 1596,623 1604,623 1612,620 1618,612 1621,596 1619,588 1620,583 1627,580 1638,580 1644,581 1652,580 1660,573 1672,572 1680,580 1684,588 1692,596 1701,612 1708,613" style="stroke:rgba(0, 0, 0, 0.5); stroke-width:4" fill="none"/>
<polyline points="1349,524 1356,537 1380,556 1404,551 1411,548 1422,540 1436,530 1459,516 1471,516 1476,513 1483,500 1490,492 1500,490 1509,484 1516,480 1531,460 1532,453 1524,448 1508,436 1492,429 1484,430 1480,428 1436,436 1419,436 1413,444 1409,452 1396,496 1392,500 1380,518 1381,540 1379,548 1396,564 1404,565 1437,540 1439,532 1444,526 1452,500 1461,492 1470,484 1472,476 1472,460 1470,452 1476,442" style="stroke:rgba(0, 0, 0, 0.5); stroke-width:4" fill="none"/>
<polyline points="1084,432 1079,436 1076,442" style="stroke:rgba(0, 0, 0, 0.5); stroke-width:4" fill="none"/>
<polyline points="1068,489 1068,485 1068,484 1073,476 1076,474 1084,474 1087,476 1100,480 1111,484 1124,488 1156,489 1178,484 1195,468 1204,457 1207,444 1220,438 1225,436 1244,444 1260,460 1268,464" style="stroke:rgba(0, 0, 0, 0.5); stroke-width:4" fill="none"/>
<polyline points="1172,368 1212,415 1249,436" style="stroke:rgba(0, 0, 0, 0.5); stroke-width:4" fill="none"/>
<polyline points="1352,484 1340,476 1326,468 1316,443 1318,436 1316,410" style="stroke:rgba(0, 0, 0, 0.5); stroke-width:4" fill="none"/>
<polyline points="1378,476 1364,463 1343,444 1332,444 1323,436" style="stroke:rgba(0, 0, 0, 0.5); stroke-width:4" fill="none"/>
<polyline points="1347,500 1391,476 1420,452 1420,442 1412,436" style="stroke:rgba(0, 0, 0, 0.5); stroke-width:4" fill="none"/>
<polyline points="1596,495 1585,484 1580,482 1572,477 1569,476 1564,474 1555,476 1548,473 1540,466 1523,452 1508,455 1494,444 1487,436" style="stroke:rgba(0, 0, 0, 0.5); stroke-width:4" fill="none"/>
<polyline points="1582,532 1572,542 1564,546 1556,547 1540,541 1524,530 1522,524 1521,516 1512,500 1508,489 1504,476 1500,457 1500,444 1497,436" style="stroke:rgba(0, 0, 0, 0.5); stroke-width:4" fill="none"/>
<polyline points="1079,476 1084,460 1093,452 1108,446 1112,444 1124,436" style="stroke:rgba(0, 0, 0, 0.5); stroke-width:4" fill="none"/>
<polyline points="1132,444 1129,444 1122,444 1108,458" style="stroke:rgba(0, 0, 0, 0.5); stroke-width:4" fill="none"/>
<polyline points="1148,506 1155,500 1164,489 1167,468 1169,460 1172,457 1172,454 1171,452 1164,444 1156,442 1154,444 1140,470" style="stroke:rgba(0, 0, 0, 0.5); stroke-width:4" fill="none"/>
<polyline points="1212,437 1204,434 1196,440 1188,444 1177,444 1164,452 1164,457 1164,460 1184,492" style="stroke:rgba(0, 0, 0, 0.5); stroke-width:4" fill="none"/>
<polyline points="1188,438 1194,444 1187,484 1180,497 1180,508 1171,516" style="stroke:rgba(0, 0, 0, 0.5); stroke-width:4" fill="none"/>
<polyline points="1371,476 1363,468 1340,468 1335,468 1332,468 1308,444" style="stroke:rgba(0, 0, 0, 0.5); stroke-width:4" fill="none"/>
<polyline points="1444,565 1440,564 1436,562 1427,556 1419,532 1420,528 1423,524 1444,493 1459,476 1460,475 1468,453 1476,444" style="stroke:rgba(0, 0, 0, 0.5); stroke-width:4" fill="none"/>
<polyline points="1420,468 1433,476 1436,476 1476,454 1484,451 1500,441 1507,444 1508,469 1516,492 1519,500 1527,508 1538,508 1540,507 1556,496 1564,483" style="stroke:rgba(0, 0, 0, 0.5); stroke-width:4" fill="none"/>
<polyline points="1028,423 1020,436 1016,452" style="stroke:rgba(0, 0, 0, 0.5); stroke-width:4" fill="none"/>
<polyline points="1036,454 1038,452 1045,452 1060,444" style="stroke:rgba(0, 0, 0, 0.5); stroke-width:4" fill="none"/>
<polyline points="1052,461 1052,460 1052,456 1054,452" style="stroke:rgba(0, 0, 0, 0.5); stroke-width:4" fill="none"/>
<polyline points="1084,453 1076,453 1074,452 1068,453" style="stroke:rgba(0, 0, 0, 0.5); stroke-width:4" fill="none"/>
<polyline points="1105,492 1116,465 1131,452" style="stroke:rgba(0, 0, 0, 0.5); stroke-width:4" fill="none"/>
<polyline points="1281,508 1292,503 1300,504 1305,508 1316,530 1321,540 1324,547 1340,557 1348,566 1348,571 1347,580 1340,585 1326,588 1284,588 1273,580 1268,577 1252,552 1251,540 1252,525 1247,508 1240,500 1236,496 1228,479 1212,454 1212,452" style="stroke:rgba(0, 0, 0, 0.5); stroke-width:4" fill="none"/>
<polyline points="1500,550 1499,548 1500,542 1502,532 1500,527 1496,516 1492,508 1493,500 1484,489 1482,484 1480,476 1492,458 1495,452" style="stroke:rgba(0, 0, 0, 0.5); stroke-width:4" fill="none"/>
<polyline points="1004,460 996,460 987,460" style="stroke:rgba(0, 0, 0, 0.5); stroke-width:4" fill="none"/>
<polyline points="1076,504 1080,500 1094,492 1100,484 1108,475 1114,460 1116,456" style="stroke:rgba(0, 0, 0, 0.5); stroke-width:4" fill="none"/>
<polyline points="1175,468 1172,465 1140,466 1132,464 1125,460" style="stroke:rgba(0, 0, 0, 0.5); stroke-width:4" fill="none"/>
<polyline points="1331,604 1320,596 1316,584 1326,564 1323,556 1321,548 1324,536 1336,524 1340,516 1338,500 1337,492 1346,460" style="stroke:rgba(0, 0, 0, 0.5); stroke-width:4" fill="none"/>
<polyline points="1028,467 1021,468 1017,468" style="stroke:rgba(0, 0, 0, 0.5); stroke-width:4" fill="none"/>
<polyline points="1152,508 1132,474 1133,468" style="stroke:rgba(0, 0, 0, 0.5); stroke-width:4" fill="none"/>
<polyline points="1276,499 1232,468 1220,458" style="stroke:rgba(0, 0, 0, 0.5); stroke-width:4" fill="none"/>
<polyline points="1580,561 1562,548 1553,548 1530,532 1516,520 1514,516 1508,496 1503,468" style="stroke:rgba(0, 0, 0, 0.5); stroke-width:4" fill="none"/>
<polyline points="1100,497 1084,480 1083,476" style="stroke:rgba(0, 0, 0, 0.5); stroke-width:4" fill="none"/>
<polyline points="1100,476 1099,476 1084,486 1076,491" style="stroke:rgba(0, 0, 0, 0.5); stroke-width:4" fill="none"/>
<polyline points="1076,486 1081,492 1100,488 1116,478 1117,476" style="stroke:rgba(0, 0, 0, 0.5); stroke-width:4" fill="none"/>
<polyline points="1282,484 1260,473 1253,476" style="stroke:rgba(0, 0, 0, 0.5); stroke-width:4" fill="none"/>
<polyline points="1460,449 1484,475 1491,476 1496,484 1502,500 1503,508 1500,511 1487,516 1479,516 1455,508 1446,500" style="stroke:rgba(0, 0, 0, 0.5); stroke-width:4" fill="none"/>
<polyline points="1374,540 1388,534 1389,532 1388,525 1388,519 1394,516 1396,513 1404,509 1417,516 1420,518 1431,516 1460,506 1474,508 1491,524 1499,540 1508,547 1511,548 1516,543 1532,525 1540,515 1543,500 1543,492 1540,478 1541,476" style="stroke:rgba(0, 0, 0, 0.5); stroke-width:4" fill="none"/>
<polyline points="920,500 924,498 932,489 935,484" style="stroke:rgba(0, 0, 0, 0.5); stroke-width:4" fill="none"/>
<polyline points="964,495 965,492 969,484 980,476 980,471" style="stroke:rgba(0, 0, 0, 0.5); stroke-width:4" fill="none"/>
<polyline points="1028,491 1028,486 1031,484 1036,486" style="stroke:rgba(0, 0, 0, 0.5); stroke-width:4" fill="none"/>
<polyline points="1396,522 1436,484 1440,484" style="stroke:rgba(0, 0, 0, 0.5); stroke-width:4" fill="none"/>
<polyline points="1548,482 1540,490 1532,496 1530,500 1516,509 1514,508 1508,506 1500,503 1492,496 1491,484" style="stroke:rgba(0, 0, 0, 0.5); stroke-width:4" fill="none"/>
<polyline points="1570,548 1564,556 1562,564 1568,572 1572,574 1591,580 1601,572 1604,570 1608,564 1610,556 1609,548 1604,540 1596,533 1580,524 1564,522 1556,519 1548,511 1524,496 1523,492 1523,484 1516,475" style="stroke:rgba(0, 0, 0, 0.5); stroke-width:4" fill="none"/>
<polyline points="1588,496 1580,495 1563,484" style="stroke:rgba(0, 0, 0, 0.5); stroke-width:4" fill="none"/>
<polyline points="1260,492 1262,492 1270,492 1276,491" style="stroke:rgba(0, 0, 0, 0.5); stroke-width:4" fill="none"/>
<polyline points="1332,510 1327,508 1324,506 1308,493 1308,492" style="stroke:rgba(0, 0, 0, 0.5); stroke-width:4" fill="none"/>
<polyline points="1268,502 1275,500 1284,507 1292,510 1298,508 1307,500 1313,492" style="stroke:rgba(0, 0, 0, 0.5); stroke-width:4" fill="none"/>
<polyline points="1604,555 1580,512 1572,507 1564,497 1555,492 1540,499 1514,524 1490,556 1483,564 1476,574" style="stroke:rgba(0, 0, 0, 0.5); stroke-width:4" fill="none"/>
<polyline points="1180,476 1180,485 1162,500" style="stroke:rgba(0, 0, 0, 0.5); stroke-width:4" fill="none"/>
<polyline points="1628,589 1626,572 1628,565 1634,556 1636,554 1642,548 1645,540 1637,532 1628,527 1625,524 1620,521 1612,517 1608,516 1604,515 1592,508 1588,507 1580,508 1576,508 1565,500 1556,486" style="stroke:rgba(0, 0, 0, 0.5); stroke-width:4" fill="none"/>
<polyline points="1588,490 1580,490 1571,500" style="stroke:rgba(0, 0, 0, 0.5); stroke-width:4" fill="none"/>
<polyline points="1692,602 1684,586 1676,579 1668,571 1660,565 1657,564 1652,560 1644,556 1628,549 1621,540 1609,524 1604,521 1598,516 1596,513 1580,502 1577,500" style="stroke:rgba(0, 0, 0, 0.5); stroke-width:4" fill="none"/>
<polyline points="914,508 907,508 902,508 899,508" style="stroke:rgba(0, 0, 0, 0.5); stroke-width:4" fill="none"/>
<polyline points="1076,532 1082,524 1083,516 1087,508" style="stroke:rgba(0, 0, 0, 0.5); stroke-width:4" fill="none"/>
<polyline points="1148,494 1124,507 1116,508 1110,508" style="stroke:rgba(0, 0, 0, 0.5); stroke-width:4" fill="none"/>
<polyline points="1188,504 1204,506 1212,508 1236,529 1243,532 1260,543 1261,548 1268,554 1283,572 1292,581 1302,604 1298,612 1300,616 1300,626 1316,642 1321,644 1324,648" style="stroke:rgba(0, 0, 0, 0.5); stroke-width:4" fill="none"/>
<polyline points="1268,541 1244,528 1243,524 1252,508" style="stroke:rgba(0, 0, 0, 0.5); stroke-width:4" fill="none"/>
<polyline points="1400,524 1412,520 1420,514 1427,508" style="stroke:rgba(0, 0, 0, 0.5); stroke-width:4" fill="none"/>
<polyline points="1412,528 1428,528 1444,548 1452,549 1476,534 1484,527 1510,516 1526,524 1529,524 1544,516 1549,508 1548,497" style="stroke:rgba(0, 0, 0, 0.5); stroke-width:4" fill="none"/>
<polyline points="916,522 910,524 908,523 908,520 905,516" style="stroke:rgba(0, 0, 0, 0.5); stroke-width:4" fill="none"/>
<polyline points="972,512 974,516 980,520 988,526 996,534" style="stroke:rgba(0, 0, 0, 0.5); stroke-width:4" fill="none"/>
<polyline points="924,611 927,604 932,601 936,596 940,594 949,588 964,580 974,572 979,572 988,558 988,556 985,540 977,516" style="stroke:rgba(0, 0, 0, 0.5); stroke-width:4" fill="none"/>
<polyline points="997,516 996,515 991,516 988,516 985,516 982,516 973,532 972,536 964,550 953,556 948,563 948,574 948,580 952,596 956,602 964,608 980,607 993,604 996,601" style="stroke:rgba(0, 0, 0, 0.5); stroke-width:4" fill="none"/>
<polyline points="1204,636 1202,628 1199,620 1196,613 1204,603 1208,596 1210,588 1219,564 1220,552 1214,540 1204,519 1194,516 1188,518 1180,528" style="stroke:rgba(0, 0, 0, 0.5); stroke-width:4" fill="none"/>
<polyline points="1109,740 1108,742 1102,748 1098,748 1092,745 1086,740 1084,735 1084,731 1092,720 1095,716 1100,713 1108,712 1119,708 1124,706 1133,700 1137,700 1140,698 1145,692 1159,684 1167,668 1169,660 1170,652 1172,650 1172,639 1169,628 1163,620 1157,596 1164,587 1198,556 1200,548 1196,535 1203,524 1202,516 1212,497 1220,482" style="stroke:rgba(0, 0, 0, 0.5); stroke-width:4" fill="none"/>
<polyline points="1276,540 1290,548 1295,548 1300,542 1302,540 1316,521 1315,516" style="stroke:rgba(0, 0, 0, 0.5); stroke-width:4" fill="none"/>
<polyline points="884,523 881,524 868,525" style="stroke:rgba(0, 0, 0, 0.5); stroke-width:4" fill="none"/>
<polyline points="1006,612 1012,612 1020,609 1026,612 1036,608 1041,604 1044,597 1044,587 1052,578 1056,572 1060,563 1057,556 1052,551 1052,545 1056,532 1047,524" style="stroke:rgba(0, 0, 0, 0.5); stroke-width:4" fill="none"/>
<polyline points="1436,517 1431,524 1423,548 1405,556 1385,564 1356,582" style="stroke:rgba(0, 0, 0, 0.5); stroke-width:4" fill="none"/>
<polyline points="1484,550 1476,565 1484,586 1487,588 1500,588 1522,580 1548,596 1564,603 1571,612 1601,628 1604,629 1612,633 1619,636 1628,636 1636,640 1641,644 1652,650 1660,652 1668,655 1676,657 1681,652 1682,644 1674,636 1668,633 1662,628 1660,626 1653,620 1643,612 1636,606 1634,604 1628,601 1612,592 1607,588 1596,584 1588,578 1554,564 1528,548 1496,532 1476,525 1468,527 1463,524" style="stroke:rgba(0, 0, 0, 0.5); stroke-width:4" fill="none"/>
<polyline points="1545,540 1540,531 1536,524 1524,522 1508,522" style="stroke:rgba(0, 0, 0, 0.5); stroke-width:4" fill="none"/>
<polyline points="1636,544 1624,548 1620,546 1612,542 1604,537 1596,525 1593,524 1580,530" style="stroke:rgba(0, 0, 0, 0.5); stroke-width:4" fill="none"/>
<polyline points="983,564 982,548 986,532" style="stroke:rgba(0, 0, 0, 0.5); stroke-width:4" fill="none"/>
<polyline points="1001,548 1020,535 1025,532 1030,532 1041,540 1058,564 1064,572 1068,580 1074,588 1084,596 1092,600 1100,601 1105,604 1124,609 1132,611" style="stroke:rgba(0, 0, 0, 0.5); stroke-width:4" fill="none"/>
<polyline points="1060,526 1052,527 1044,529 1041,532 1036,539 1033,540 1028,537" style="stroke:rgba(0, 0, 0, 0.5); stroke-width:4" fill="none"/>
<polyline points="1108,513 1139,540 1161,532" style="stroke:rgba(0, 0, 0, 0.5); stroke-width:4" fill="none"/>
<polyline points="1211,556 1212,574 1236,585 1244,587 1252,580 1292,545 1292,540 1290,532 1284,518" style="stroke:rgba(0, 0, 0, 0.5); stroke-width:4" fill="none"/>
<polyline points="1409,580 1420,574 1421,572 1423,564 1428,545 1426,532" style="stroke:rgba(0, 0, 0, 0.5); stroke-width:4" fill="none"/>
<polyline points="1548,533 1547,532 1540,526" style="stroke:rgba(0, 0, 0, 0.5); stroke-width:4" fill="none"/>
<polyline points="1568,556 1580,551 1588,541 1598,532" style="stroke:rgba(0, 0, 0, 0.5); stroke-width:4" fill="none"/>
<polyline points="949,572 959,564 972,554 971,548 966,540" style="stroke:rgba(0, 0, 0, 0.5); stroke-width:4" fill="none"/>
<polyline points="1036,636 1044,639 1062,644 1068,647 1080,644 1084,638 1084,636 1087,628 1092,622 1090,612 1085,604 1084,594 1084,588 1084,587 1061,556 1060,554 1054,540" style="stroke:rgba(0, 0, 0, 0.5); stroke-width:4" fill="none"/>
<polyline points="1139,588 1124,564 1122,556 1120,548 1121,540 1100,519 1084,518" style="stroke:rgba(0, 0, 0, 0.5); stroke-width:4" fill="none"/>
<polyline points="1204,541 1208,540 1212,542 1218,556 1231,572 1236,588 1243,604 1259,620 1260,623 1260,634 1259,636 1254,644 1247,652 1244,653 1236,659 1229,668 1225,676 1220,679 1212,679 1202,676 1188,681 1183,684 1180,691 1172,703 1170,708 1164,714 1169,732 1178,748 1180,751 1188,756 1196,762" style="stroke:rgba(0, 0, 0, 0.5); stroke-width:4" fill="none"/>
<polyline points="1435,548 1444,544 1449,540" style="stroke:rgba(0, 0, 0, 0.5); stroke-width:4" fill="none"/>
<polyline points="1492,541 1484,542 1479,540" style="stroke:rgba(0, 0, 0, 0.5); stroke-width:4" fill="none"/>
<polyline points="1634,540 1628,541 1612,539 1610,540 1598,556 1596,561 1596,564 1596,571 1583,580 1578,580" style="stroke:rgba(0, 0, 0, 0.5); stroke-width:4" fill="none"/>
<polyline points="852,544 854,548 862,556 868,567 874,572 880,580 884,587 886,596 900,601 908,600 924,599 948,597 956,593 967,588 972,580" style="stroke:rgba(0, 0, 0, 0.5); stroke-width:4" fill="none"/>
<polyline points="1017,548 1012,547 1009,548 1004,547" style="stroke:rgba(0, 0, 0, 0.5); stroke-width:4" fill="none"/>
<polyline points="1153,588 1169,596 1172,600 1181,604 1198,596 1228,570 1248,548" style="stroke:rgba(0, 0, 0, 0.5); stroke-width:4" fill="none"/>
<polyline points="1413,572 1412,569 1400,564 1398,556 1396,548" style="stroke:rgba(0, 0, 0, 0.5); stroke-width:4" fill="none"/>
<polyline points="1436,526 1452,553 1467,556 1471,556 1479,548" style="stroke:rgba(0, 0, 0, 0.5); stroke-width:4" fill="none"/>
<polyline points="1591,564 1588,560 1584,556 1577,548" style="stroke:rgba(0, 0, 0, 0.5); stroke-width:4" fill="none"/>
<polyline points="892,585 876,572 852,564 848,556" style="stroke:rgba(0, 0, 0, 0.5); stroke-width:4" fill="none"/>
<polyline points="884,567 884,563 882,556 892,547 900,544 908,548 916,553 916,556 908,565 900,569 876,563" style="stroke:rgba(0, 0, 0, 0.5); stroke-width:4" fill="none"/>
<polyline points="903,564 900,565 892,561 890,556" style="stroke:rgba(0, 0, 0, 0.5); stroke-width:4" fill="none"/>
<polyline points="943,564 956,552 966,556" style="stroke:rgba(0, 0, 0, 0.5); stroke-width:4" fill="none"/>
<polyline points="1107,620 1091,620 1084,617 1076,617 1060,613 1059,612 1045,596 1036,587 1028,580 1023,572 1022,556" style="stroke:rgba(0, 0, 0, 0.5); stroke-width:4" fill="none"/>
<polyline points="1132,637 1108,598 1100,596 1092,594 1072,580 1053,564 1042,556 1036,556 1033,556 1028,563 1028,570 1028,579 1006,596 1004,597 1000,596 996,588" style="stroke:rgba(0, 0, 0, 0.5); stroke-width:4" fill="none"/>
<polyline points="1076,554 1068,556 1052,558 1044,559 1036,563 1012,573 1010,580 1004,587 996,595 993,596 984,628 982,636 980,641 979,644 977,652 974,660 972,665 970,668 968,676 967,684 958,692 956,695 952,700 944,708 940,712 936,716 931,724 923,732 917,740 916,743 914,748 908,756 904,756 896,764 892,770 889,772 882,780 877,788 872,796 860,812 857,820 852,826 850,836 845,844 841,852 840,860 838,868 836,875" style="stroke:rgba(0, 0, 0, 0.5); stroke-width:4" fill="none"/>
<polyline points="1300,558 1296,564 1249,556" style="stroke:rgba(0, 0, 0, 0.5); stroke-width:4" fill="none"/>
<polyline points="1578,588 1572,586 1560,580 1548,578 1524,561 1515,556 1492,530 1484,514" style="stroke:rgba(0, 0, 0, 0.5); stroke-width:4" fill="none"/>
<polyline points="1638,572 1636,567 1632,564 1622,556 1612,536" style="stroke:rgba(0, 0, 0, 0.5); stroke-width:4" fill="none"/>
<polyline points="876,607 876,602 860,566 856,564" style="stroke:rgba(0, 0, 0, 0.5); stroke-width:4" fill="none"/>
<polyline points="956,545 948,557 952,564 957,572 967,572" style="stroke:rgba(0, 0, 0, 0.5); stroke-width:4" fill="none"/>
<polyline points="990,612 996,580 996,570 997,564" style="stroke:rgba(0, 0, 0, 0.5); stroke-width:4" fill="none"/>
<polyline points="1193,628 1188,632 1181,644 1164,661 1156,666 1148,666 1140,664 1136,660 1132,656 1128,652 1124,645 1122,644 1116,640 1108,636 1100,632 1094,628 1084,620 1077,612 1069,596 1068,592 1060,585 1053,580 1043,572 1037,564" style="stroke:rgba(0, 0, 0, 0.5); stroke-width:4" fill="none"/>
<polyline points="1041,580 1044,569 1041,564 1044,554" style="stroke:rgba(0, 0, 0, 0.5); stroke-width:4" fill="none"/>
<polyline points="1094,588 1092,586 1060,580 1046,564 1036,548" style="stroke:rgba(0, 0, 0, 0.5); stroke-width:4" fill="none"/>
<polyline points="1012,652 1019,660 1023,668 1028,670 1034,668 1052,647 1060,633 1059,620 1060,618 1067,612 1084,605 1090,580 1094,564" style="stroke:rgba(0, 0, 0, 0.5); stroke-width:4" fill="none"/>
<polyline points="1552,612 1548,608 1544,604 1540,604 1537,604 1508,586 1506,580 1495,572 1489,572 1470,564 1468,565 1458,564" style="stroke:rgba(0, 0, 0, 0.5); stroke-width:4" fill="none"/>
<polyline points="1532,545 1516,560 1508,560 1502,564 1484,572 1460,590 1452,593 1449,596 1444,599 1420,602 1413,604 1404,606 1396,609 1388,612" style="stroke:rgba(0, 0, 0, 0.5); stroke-width:4" fill="none"/>
<polyline points="1575,564 1572,564 1567,564" style="stroke:rgba(0, 0, 0, 0.5); stroke-width:4" fill="none"/>
<polyline points="848,588 855,580 859,572" style="stroke:rgba(0, 0, 0, 0.5); stroke-width:4" fill="none"/>
<polyline points="1091,604 1092,609 1113,636 1110,644 1097,652 1092,651 1076,642 1068,637 1066,636 1049,620 1044,619 1037,612 1033,604 1004,576 1002,572 997,572" style="stroke:rgba(0, 0, 0, 0.5); stroke-width:4" fill="none"/>
<polyline points="1285,788 1281,788 1276,782 1268,774 1260,765 1252,760 1236,750 1234,748 1228,742 1220,740 1212,742 1196,734 1193,724 1188,719 1184,716 1172,712 1164,702 1148,693 1140,691 1124,685 1121,684 1108,678 1104,676 1101,668 1092,658 1089,652 1078,636 1072,628 1068,624 1060,609 1061,604 1060,601 1054,596 1052,593 1053,588 1060,578 1072,572" style="stroke:rgba(0, 0, 0, 0.5); stroke-width:4" fill="none"/>
<polyline points="1428,588 1431,596 1436,598 1460,598 1471,596 1475,588 1492,586 1506,588 1516,586 1532,584 1543,580 1552,572" style="stroke:rgba(0, 0, 0, 0.5); stroke-width:4" fill="none"/>
<polyline points="1570,596 1572,596 1580,578 1577,572" style="stroke:rgba(0, 0, 0, 0.5); stroke-width:4" fill="none"/>
<polyline points="1687,604 1684,606 1676,601 1668,599 1661,596 1652,592 1643,588 1636,589 1611,588 1600,580 1582,572" style="stroke:rgba(0, 0, 0, 0.5); stroke-width:4" fill="none"/>
<polyline points="1612,576 1609,572 1588,570 1586,572" style="stroke:rgba(0, 0, 0, 0.5); stroke-width:4" fill="none"/>
<polyline points="1652,572 1656,572 1668,582" style="stroke:rgba(0, 0, 0, 0.5); stroke-width:4" fill="none"/>
<polyline points="978,588 980,585 979,580" style="stroke:rgba(0, 0, 0, 0.5); stroke-width:4" fill="none"/>
<polyline points="988,576 985,580 973,588 972,588 964,594 940,599 932,604 932,610 936,612 956,608 963,604 969,596" style="stroke:rgba(0, 0, 0, 0.5); stroke-width:4" fill="none"/>
<polyline points="1052,564 1036,574 1032,580 1010,588 1002,604" style="stroke:rgba(0, 0, 0, 0.5); stroke-width:4" fill="none"/>
<polyline points="1204,596 1216,628 1220,634 1228,641 1236,643 1244,647 1260,649 1268,645 1283,628 1284,619 1256,596 1252,593 1248,580" style="stroke:rgba(0, 0, 0, 0.5); stroke-width:4" fill="none"/>
<polyline points="1300,580 1288,580 1284,582 1268,588 1260,594 1250,604 1240,620 1236,624 1235,636" style="stroke:rgba(0, 0, 0, 0.5); stroke-width:4" fill="none"/>
<polyline points="1300,669 1307,660 1316,650 1315,644 1316,631 1320,620 1320,612 1324,603 1336,580" style="stroke:rgba(0, 0, 0, 0.5); stroke-width:4" fill="none"/>
<polyline points="1457,676 1452,673 1444,670 1432,652 1420,637 1419,636 1412,629 1399,612 1396,599 1393,596 1375,588 1373,580" style="stroke:rgba(0, 0, 0, 0.5); stroke-width:4" fill="none"/>
<polyline points="1412,595 1404,589 1396,589 1381,580" style="stroke:rgba(0, 0, 0, 0.5); stroke-width:4" fill="none"/>
<polyline points="1540,578 1538,580 1524,597 1516,604 1513,612" style="stroke:rgba(0, 0, 0, 0.5); stroke-width:4" fill="none"/>
<polyline points="835,604 845,612 860,606 869,596 876,591 879,588" style="stroke:rgba(0, 0, 0, 0.5); stroke-width:4" fill="none"/>
<polyline points="1108,668 1110,668 1126,660 1135,652 1153,644 1154,636 1156,628 1164,602 1169,588" style="stroke:rgba(0, 0, 0, 0.5); stroke-width:4" fill="none"/>
<polyline points="1333,644 1324,634 1316,605 1308,603 1284,606 1273,612 1260,616 1236,615 1223,612 1212,608 1200,604 1188,600 1183,596 1175,588" style="stroke:rgba(0, 0, 0, 0.5); stroke-width:4" fill="none"/>
<polyline points="1462,596 1457,596 1435,588 1407,596 1396,603 1394,604 1380,601" style="stroke:rgba(0, 0, 0, 0.5); stroke-width:4" fill="none"/>
<polyline points="1564,574 1548,588 1543,588 1524,580" style="stroke:rgba(0, 0, 0, 0.5); stroke-width:4" fill="none"/>
<polyline points="1660,590 1657,588 1652,587 1644,590 1630,588 1607,596 1604,604 1604,605 1603,612 1601,620" style="stroke:rgba(0, 0, 0, 0.5); stroke-width:4" fill="none"/>
<polyline points="860,557 860,588 853,596 844,608" style="stroke:rgba(0, 0, 0, 0.5); stroke-width:4" fill="none"/>
<polyline points="916,609 892,598 868,592 860,596 851,604 844,604" style="stroke:rgba(0, 0, 0, 0.5); stroke-width:4" fill="none"/>
<polyline points="859,604 868,604 879,596" style="stroke:rgba(0, 0, 0, 0.5); stroke-width:4" fill="none"/>
<polyline points="1212,612 1222,620 1226,620 1228,616 1231,604 1228,596" style="stroke:rgba(0, 0, 0, 0.5); stroke-width:4" fill="none"/>
<polyline points="1593,636 1588,640 1580,641 1572,642 1565,644 1556,643 1551,636 1548,631 1543,628 1536,620 1524,613 1516,605 1508,599 1506,596" style="stroke:rgba(0, 0, 0, 0.5); stroke-width:4" fill="none"/>
<polyline points="1388,601 1389,604 1403,612 1410,612 1422,620 1428,620 1444,607 1468,611 1470,612 1476,615 1484,617 1490,612 1508,603 1521,596 1532,603" style="stroke:rgba(0, 0, 0, 0.5); stroke-width:4" fill="none"/>
<polyline points="1068,601 1075,604 1077,620 1081,628 1092,644 1107,652 1108,653 1118,660" style="stroke:rgba(0, 0, 0, 0.5); stroke-width:4" fill="none"/>
<polyline points="1127,636 1124,629 1122,604" style="stroke:rgba(0, 0, 0, 0.5); stroke-width:4" fill="none"/>
<polyline points="1204,623 1188,607 1174,604 1157,620" style="stroke:rgba(0, 0, 0, 0.5); stroke-width:4" fill="none"/>
<polyline points="1212,596 1220,604 1229,620 1228,626 1220,645 1209,652 1204,666 1209,676 1209,700 1212,704 1220,709 1230,716" style="stroke:rgba(0, 0, 0, 0.5); stroke-width:4" fill="none"/>
<polyline points="1446,612 1444,611 1431,604" style="stroke:rgba(0, 0, 0, 0.5); stroke-width:4" fill="none"/>
<polyline points="1444,603 1445,604 1457,612 1476,608 1492,600 1500,599 1524,612" style="stroke:rgba(0, 0, 0, 0.5); stroke-width:4" fill="none"/>
<polyline points="1135,684 1132,678 1129,668 1116,662 1113,652 1105,628 1101,612" style="stroke:rgba(0, 0, 0, 0.5); stroke-width:4" fill="none"/>
<polyline points="1292,703 1283,692 1284,670 1282,668 1276,660 1271,652 1267,636 1276,628 1282,612" style="stroke:rgba(0, 0, 0, 0.5); stroke-width:4" fill="none"/>
<polyline points="1292,561 1300,603 1305,612" style="stroke:rgba(0, 0, 0, 0.5); stroke-width:4" fill="none"/>
<polyline points="1404,640 1408,636 1428,633 1436,628 1444,625 1452,613 1453,612" style="stroke:rgba(0, 0, 0, 0.5); stroke-width:4" fill="none"/>
<polyline points="1532,577 1524,604 1484,611 1480,612" style="stroke:rgba(0, 0, 0, 0.5); stroke-width:4" fill="none"/>
<polyline points="992,644 988,640 988,636 990,628 991,620" style="stroke:rgba(0, 0, 0, 0.5); stroke-width:4" fill="none"/>
<polyline points="1460,683 1452,685 1444,683 1436,676 1428,668 1410,644 1396,628 1391,620" style="stroke:rgba(0, 0, 0, 0.5); stroke-width:4" fill="none"/>
<polyline points="1492,610 1500,620 1501,620 1516,620 1518,620 1524,621 1540,617 1548,616 1564,628" style="stroke:rgba(0, 0, 0, 0.5); stroke-width:4" fill="none"/>
<polyline points="1596,614 1576,620 1570,620" style="stroke:rgba(0, 0, 0, 0.5); stroke-width:4" fill="none"/>
<polyline points="1628,640 1644,643 1652,636 1652,628 1644,621 1643,620" style="stroke:rgba(0, 0, 0, 0.5); stroke-width:4" fill="none"/>
<polyline points="1032,644 1041,628 1050,628 1068,629 1100,644 1102,652" style="stroke:rgba(0, 0, 0, 0.5); stroke-width:4" fill="none"/>
<polyline points="1124,653 1140,659 1156,657 1164,645 1180,635 1183,628" style="stroke:rgba(0, 0, 0, 0.5); stroke-width:4" fill="none"/>
<polyline points="1508,619 1500,628 1492,627 1476,628 1468,628 1465,628 1436,636 1434,636" style="stroke:rgba(0, 0, 0, 0.5); stroke-width:4" fill="none"/>
<polyline points="1508,628 1524,629 1528,628 1532,629" style="stroke:rgba(0, 0, 0, 0.5); stroke-width:4" fill="none"/>
<polyline points="1635,684 1630,676 1628,674 1623,668 1620,665 1616,660 1608,652 1604,648 1601,644 1596,638 1588,631 1587,628" style="stroke:rgba(0, 0, 0, 0.5); stroke-width:4" fill="none"/>
<polyline points="1647,636 1644,633 1640,628 1635,628 1630,628" style="stroke:rgba(0, 0, 0, 0.5); stroke-width:4" fill="none"/>
<polyline points="988,627 996,633 999,636 1004,639" style="stroke:rgba(0, 0, 0, 0.5); stroke-width:4" fill="none"/>
<polyline points="1172,621 1164,629 1164,636" style="stroke:rgba(0, 0, 0, 0.5); stroke-width:4" fill="none"/>
<polyline points="1324,676 1308,657 1300,648 1292,645 1284,636 1283,636 1276,637 1268,649 1260,654" style="stroke:rgba(0, 0, 0, 0.5); stroke-width:4" fill="none"/>
<polyline points="1516,678 1524,673 1524,667 1518,660 1491,636 1476,637 1474,636 1437,644 1429,652" style="stroke:rgba(0, 0, 0, 0.5); stroke-width:4" fill="none"/>
<polyline points="1435,668 1436,664 1444,660 1452,661 1458,660 1460,660 1468,659 1473,652 1483,652 1492,660 1500,666 1506,668 1514,676 1524,682 1531,684 1540,689 1548,691 1564,695 1569,692 1570,684 1564,676 1556,669 1552,668 1543,660 1540,656 1534,652 1524,646 1520,636" style="stroke:rgba(0, 0, 0, 0.5); stroke-width:4" fill="none"/>
<polyline points="1609,660 1596,644 1586,636 1580,631 1563,636 1548,641 1540,641 1516,643 1512,644 1508,647 1492,647 1484,642" style="stroke:rgba(0, 0, 0, 0.5); stroke-width:4" fill="none"/>
<polyline points="1628,633 1636,636 1651,652" style="stroke:rgba(0, 0, 0, 0.5); stroke-width:4" fill="none"/>
<polyline points="1020,658 1028,655 1036,651 1043,644 1054,644 1068,652 1076,656 1084,657 1091,660 1096,668 1100,677 1107,684 1108,694 1115,700 1124,717 1132,724 1140,730 1164,728 1172,731 1176,732 1180,741 1172,761 1172,766" style="stroke:rgba(0, 0, 0, 0.5); stroke-width:4" fill="none"/>
<polyline points="1180,656 1188,645 1190,644" style="stroke:rgba(0, 0, 0, 0.5); stroke-width:4" fill="none"/>
<polyline points="1244,638 1224,644 1220,657 1220,663 1236,681 1236,684 1236,692 1236,694 1226,708 1224,716 1220,719" style="stroke:rgba(0, 0, 0, 0.5); stroke-width:4" fill="none"/>
<polyline points="1268,659 1291,644 1308,652 1314,660 1319,668 1324,673" style="stroke:rgba(0, 0, 0, 0.5); stroke-width:4" fill="none"/>
<polyline points="1268,639 1276,642 1284,641 1304,644" style="stroke:rgba(0, 0, 0, 0.5); stroke-width:4" fill="none"/>
<polyline points="1388,645 1390,644 1404,648 1408,652 1412,657 1418,660" style="stroke:rgba(0, 0, 0, 0.5); stroke-width:4" fill="none"/>
<polyline points="1436,649 1444,644 1452,642 1454,644 1460,649" style="stroke:rgba(0, 0, 0, 0.5); stroke-width:4" fill="none"/>
<polyline points="1532,642 1531,644 1548,666" style="stroke:rgba(0, 0, 0, 0.5); stroke-width:4" fill="none"/>
<polyline points="1596,675 1588,663 1578,660 1572,662 1564,661 1556,662 1543,652 1541,644" style="stroke:rgba(0, 0, 0, 0.5); stroke-width:4" fill="none"/>
<polyline points="1044,649 1042,652 1036,660 1036,670 1034,676 1032,684" style="stroke:rgba(0, 0, 0, 0.5); stroke-width:4" fill="none"/>
<polyline points="1129,684 1092,673 1076,652 1060,651 1059,652" style="stroke:rgba(0, 0, 0, 0.5); stroke-width:4" fill="none"/>
<polyline points="1212,669 1204,661 1196,655 1184,652" style="stroke:rgba(0, 0, 0, 0.5); stroke-width:4" fill="none"/>
<polyline points="1292,700 1279,684 1282,660 1284,656 1285,652" style="stroke:rgba(0, 0, 0, 0.5); stroke-width:4" fill="none"/>
<polyline points="1420,652 1404,653 1403,652" style="stroke:rgba(0, 0, 0, 0.5); stroke-width:4" fill="none"/>
<polyline points="1452,650 1449,652 1444,651" style="stroke:rgba(0, 0, 0, 0.5); stroke-width:4" fill="none"/>
<polyline points="1492,653 1500,655 1513,652" style="stroke:rgba(0, 0, 0, 0.5); stroke-width:4" fill="none"/>
<polyline points="1540,670 1540,665 1548,655 1549,652" style="stroke:rgba(0, 0, 0, 0.5); stroke-width:4" fill="none"/>
<polyline points="1572,650 1576,652 1580,656 1586,660 1592,660 1596,656 1604,656" style="stroke:rgba(0, 0, 0, 0.5); stroke-width:4" fill="none"/>
<polyline points="989,660 983,660 978,660" style="stroke:rgba(0, 0, 0, 0.5); stroke-width:4" fill="none"/>
<polyline points="1004,670 1004,667 998,660" style="stroke:rgba(0, 0, 0, 0.5); stroke-width:4" fill="none"/>
<polyline points="972,721 977,724 980,732 988,738 996,742 1008,740 1012,745 1014,748 1020,750 1024,748 1031,740 1047,732 1065,716 1068,714 1070,708 1068,705 1061,692 1063,684 1060,678 1058,676 1052,671 1044,662 1042,660" style="stroke:rgba(0, 0, 0, 0.5); stroke-width:4" fill="none"/>
<polyline points="1135,708 1121,716 1109,708 1106,708 1092,699 1084,687 1082,684 1077,676 1068,670 1060,667 1049,660" style="stroke:rgba(0, 0, 0, 0.5); stroke-width:4" fill="none"/>
<polyline points="1076,662 1068,659 1062,660" style="stroke:rgba(0, 0, 0, 0.5); stroke-width:4" fill="none"/>
<polyline points="1297,692 1292,692 1282,676 1276,670 1268,669 1260,668 1247,668 1228,658 1223,660 1212,660 1188,670 1180,677 1184,692 1188,700 1200,708" style="stroke:rgba(0, 0, 0, 0.5); stroke-width:4" fill="none"/>
<polyline points="1316,678 1303,668 1302,660 1292,655 1276,650" style="stroke:rgba(0, 0, 0, 0.5); stroke-width:4" fill="none"/>
<polyline points="1514,668 1516,666 1532,666 1560,660 1570,660 1588,670 1595,676" style="stroke:rgba(0, 0, 0, 0.5); stroke-width:4" fill="none"/>
<polyline points="976,708 980,703 984,692 988,688 996,686 1003,692 1006,692 1012,690 1025,684 1028,683 1043,676 1060,668" style="stroke:rgba(0, 0, 0, 0.5); stroke-width:4" fill="none"/>
<polyline points="1092,686 1084,676 1084,674 1088,668" style="stroke:rgba(0, 0, 0, 0.5); stroke-width:4" fill="none"/>
<polyline points="1132,665 1134,668 1140,671 1148,675 1156,678 1173,684 1188,688" style="stroke:rgba(0, 0, 0, 0.5); stroke-width:4" fill="none"/>
<polyline points="1127,676 1138,668 1140,655 1140,650 1140,647" style="stroke:rgba(0, 0, 0, 0.5); stroke-width:4" fill="none"/>
<polyline points="1190,684 1190,676 1186,668" style="stroke:rgba(0, 0, 0, 0.5); stroke-width:4" fill="none"/>
<polyline points="1476,664 1468,666 1460,666 1452,666 1442,668" style="stroke:rgba(0, 0, 0, 0.5); stroke-width:4" fill="none"/>
<polyline points="1404,673 1406,676 1412,682 1412,684 1420,691 1428,693 1432,692 1460,698 1472,700 1476,699" style="stroke:rgba(0, 0, 0, 0.5); stroke-width:4" fill="none"/>
<polyline points="1476,678 1468,677 1467,676" style="stroke:rgba(0, 0, 0, 0.5); stroke-width:4" fill="none"/>
<polyline points="1548,683 1540,677 1540,676" style="stroke:rgba(0, 0, 0, 0.5); stroke-width:4" fill="none"/>
<polyline points="883,788 888,780 909,748 924,734 963,684 972,680" style="stroke:rgba(0, 0, 0, 0.5); stroke-width:4" fill="none"/>
<polyline points="1028,674 1020,679 1012,680 1001,684" style="stroke:rgba(0, 0, 0, 0.5); stroke-width:4" fill="none"/>
<polyline points="1068,683 1060,689 1050,692 1044,688 1037,684" style="stroke:rgba(0, 0, 0, 0.5); stroke-width:4" fill="none"/>
<polyline points="1628,686 1626,684 1620,683" style="stroke:rgba(0, 0, 0, 0.5); stroke-width:4" fill="none"/>
<polyline points="1128,756 1116,747 1100,734 1092,726 1087,724 1084,724 1076,720 1068,719 1058,716 1054,716 1046,716 1037,708 1036,698 1032,692 1026,692 1020,699 1020,700 1004,716 996,720 988,721 982,724" style="stroke:rgba(0, 0, 0, 0.5); stroke-width:4" fill="none"/>
<polyline points="1076,686 1077,692 1082,700 1082,708 1086,716 1106,732" style="stroke:rgba(0, 0, 0, 0.5); stroke-width:4" fill="none"/>
<polyline points="1028,729 1035,732 1052,737 1060,734 1068,732 1074,724 1076,723 1081,716 1084,709 1095,700 1100,699 1109,692" style="stroke:rgba(0, 0, 0, 0.5); stroke-width:4" fill="none"/>
<polyline points="1156,816 1149,812 1148,810 1146,804 1148,798 1154,780 1161,772 1167,764 1172,756 1172,747 1173,740 1162,708 1172,697 1183,700 1206,692 1220,698 1226,700 1236,708 1244,714 1251,716 1260,714 1268,708 1276,703 1284,708" style="stroke:rgba(0, 0, 0, 0.5); stroke-width:4" fill="none"/>
<polyline points="1196,680 1212,691 1223,692 1252,699 1258,700" style="stroke:rgba(0, 0, 0, 0.5); stroke-width:4" fill="none"/>
<polyline points="1236,669 1252,681 1260,688 1261,692 1255,708 1252,720 1252,738 1250,740 1244,739 1236,735 1228,732 1220,730 1204,723 1196,722 1180,714" style="stroke:rgba(0, 0, 0, 0.5); stroke-width:4" fill="none"/>
<polyline points="988,703 996,701 998,700 1004,700 1012,698 1020,708" style="stroke:rgba(0, 0, 0, 0.5); stroke-width:4" fill="none"/>
<polyline points="1088,860 1092,856 1098,852 1100,846 1100,841 1084,828 1068,828 1064,828 1054,820 1052,819 1047,812 1044,808 1040,804 1032,796 1034,788 1036,782 1035,780 1028,767 1029,764 1028,761 1020,756 1017,748 1020,740 1020,739 1019,732 1011,716 1012,713 1013,700" style="stroke:rgba(0, 0, 0, 0.5); stroke-width:4" fill="none"/>
<polyline points="1164,748 1157,756 1146,764 1140,780 1133,788 1132,791 1124,812 1116,815 1111,812 1108,806 1100,798 1093,796 1084,790 1082,788 1076,780 1074,780 1068,778 1061,772 1060,771 1052,764 1044,756 1036,747 1036,741 1036,725 1044,716 1044,711 1035,700" style="stroke:rgba(0, 0, 0, 0.5); stroke-width:4" fill="none"/>
<polyline points="1106,772 1100,767 1092,759 1088,756 1079,748 1076,742 1076,738 1076,733 1068,723 1060,711 1049,700" style="stroke:rgba(0, 0, 0, 0.5); stroke-width:4" fill="none"/>
<polyline points="1078,700 1073,700 1060,704 1052,712" style="stroke:rgba(0, 0, 0, 0.5); stroke-width:4" fill="none"/>
<polyline points="1130,732 1124,735 1116,733 1112,724 1108,707 1103,700" style="stroke:rgba(0, 0, 0, 0.5); stroke-width:4" fill="none"/>
<polyline points="1132,715 1130,708 1121,700" style="stroke:rgba(0, 0, 0, 0.5); stroke-width:4" fill="none"/>
<polyline points="1172,682 1156,684 1142,700" style="stroke:rgba(0, 0, 0, 0.5); stroke-width:4" fill="none"/>
<polyline points="1252,704 1248,700 1228,697" style="stroke:rgba(0, 0, 0, 0.5); stroke-width:4" fill="none"/>
<polyline points="964,705 960,708 956,721" style="stroke:rgba(0, 0, 0, 0.5); stroke-width:4" fill="none"/>
<polyline points="1092,739 1093,732 1098,708 1084,683" style="stroke:rgba(0, 0, 0, 0.5); stroke-width:4" fill="none"/>
<polyline points="1292,752 1274,748 1272,740 1274,732 1283,708" style="stroke:rgba(0, 0, 0, 0.5); stroke-width:4" fill="none"/>
<polyline points="1044,720 1036,716 1030,716 1024,716 1017,724 1020,730 1022,732" style="stroke:rgba(0, 0, 0, 0.5); stroke-width:4" fill="none"/>
<polyline points="1041,724 1060,722 1073,716" style="stroke:rgba(0, 0, 0, 0.5); stroke-width:4" fill="none"/>
<polyline points="1100,716 1109,716 1116,721" style="stroke:rgba(0, 0, 0, 0.5); stroke-width:4" fill="none"/>
<polyline points="1044,826 1052,823 1065,820 1068,817 1078,812 1089,804 1092,802 1103,796 1108,793 1116,786 1124,778 1132,775 1139,772 1156,749 1164,738 1169,724 1168,716 1164,706" style="stroke:rgba(0, 0, 0, 0.5); stroke-width:4" fill="none"/>
<polyline points="1284,786 1283,780 1276,774 1272,772 1249,764 1244,762 1236,762 1228,760 1214,756 1212,755 1196,746 1190,740 1190,732 1178,716" style="stroke:rgba(0, 0, 0, 0.5); stroke-width:4" fill="none"/>
<polyline points="1236,738 1228,734 1220,727 1212,724 1192,716" style="stroke:rgba(0, 0, 0, 0.5); stroke-width:4" fill="none"/>
<polyline points="1156,723 1157,724 1163,732 1164,734 1164,742" style="stroke:rgba(0, 0, 0, 0.5); stroke-width:4" fill="none"/>
<polyline points="1276,748 1280,740 1283,724" style="stroke:rgba(0, 0, 0, 0.5); stroke-width:4" fill="none"/>
<polyline points="958,756 965,748 970,740 972,732" style="stroke:rgba(0, 0, 0, 0.5); stroke-width:4" fill="none"/>
<polyline points="1100,720 1108,724 1121,732 1132,735 1140,732" style="stroke:rgba(0, 0, 0, 0.5); stroke-width:4" fill="none"/>
<polyline points="1236,808 1232,812 1220,818 1209,820 1204,824 1199,828 1196,833 1198,836 1204,840 1212,843 1226,844 1236,842 1246,844 1252,844 1259,836 1260,829 1252,815 1240,804 1231,796 1228,794 1222,788 1220,787 1207,780 1190,772 1180,764 1164,759 1156,744 1156,735 1156,732" style="stroke:rgba(0, 0, 0, 0.5); stroke-width:4" fill="none"/>
<polyline points="1196,731 1200,732 1204,737" style="stroke:rgba(0, 0, 0, 0.5); stroke-width:4" fill="none"/>
<polyline points="1238,748 1221,756 1220,756 1214,748 1217,732 1212,725" style="stroke:rgba(0, 0, 0, 0.5); stroke-width:4" fill="none"/>
<polyline points="1038,820 1029,812 1020,807 1012,799 1010,796 1004,792 1000,788 996,783 988,771 967,756 956,753 947,748 937,740 924,743" style="stroke:rgba(0, 0, 0, 0.5); stroke-width:4" fill="none"/>
<polyline points="1060,755 1068,750 1075,740" style="stroke:rgba(0, 0, 0, 0.5); stroke-width:4" fill="none"/>
<polyline points="1145,820 1160,812 1163,804 1164,794 1156,788 1156,782 1156,773 1157,764 1156,759 1148,748 1132,741 1132,740" style="stroke:rgba(0, 0, 0, 0.5); stroke-width:4" fill="none"/>
<polyline points="1260,740 1259,740 1244,735" style="stroke:rgba(0, 0, 0, 0.5); stroke-width:4" fill="none"/>
<polyline points="982,972 988,964 984,956 980,945 980,935 980,932 975,916 972,908 969,900 964,883 964,878 963,876 961,868 958,860 957,852 958,844 958,836 956,828 956,824 954,820 953,812 953,804 948,797 940,793 932,792 922,780 924,765 924,756 925,748" style="stroke:rgba(0, 0, 0, 0.5); stroke-width:4" fill="none"/>
<polyline points="1017,764 1012,762 1004,753 1004,748 1004,742 996,736" style="stroke:rgba(0, 0, 0, 0.5); stroke-width:4" fill="none"/>
<polyline points="1052,747 1054,748 1060,748 1068,762 1081,772 1092,778 1095,780 1102,788 1110,796 1116,801 1124,800 1134,796 1148,796 1156,802 1156,809 1180,825" style="stroke:rgba(0, 0, 0, 0.5); stroke-width:4" fill="none"/>
<polyline points="1076,746 1074,748 1076,753" style="stroke:rgba(0, 0, 0, 0.5); stroke-width:4" fill="none"/>
<polyline points="1204,748 1201,748 1195,756" style="stroke:rgba(0, 0, 0, 0.5); stroke-width:4" fill="none"/>
<polyline points="1289,756 1284,753 1276,757 1274,756 1260,756 1236,755 1228,748" style="stroke:rgba(0, 0, 0, 0.5); stroke-width:4" fill="none"/>
<polyline points="1188,771 1196,771 1216,780 1228,787 1232,788 1236,790 1260,798 1267,796 1268,792 1271,788 1273,780 1254,748" style="stroke:rgba(0, 0, 0, 0.5); stroke-width:4" fill="none"/>
<polyline points="932,752 931,756 932,767 932,772" style="stroke:rgba(0, 0, 0, 0.5); stroke-width:4" fill="none"/>
<polyline points="945,780 940,758 941,756" style="stroke:rgba(0, 0, 0, 0.5); stroke-width:4" fill="none"/>
<polyline points="809,964 815,964 820,956 824,948 828,944 831,940 837,932 844,916 852,900 854,892 860,879 863,876 868,869 876,862 877,860 880,852 884,849 894,844 900,840 905,836 916,826 922,820 932,816 944,804 955,788 959,780 964,776 973,772 980,767 988,758 990,756 996,753" style="stroke:rgba(0, 0, 0, 0.5); stroke-width:4" fill="none"/>
<polyline points="1156,858 1150,852 1140,846 1132,844 1124,841 1108,829 1097,820 1092,817 1083,812 1076,806 1066,796 1060,796 1044,790 1036,786 1031,780 1028,778 1015,772 1012,769 1003,764 996,758 995,756" style="stroke:rgba(0, 0, 0, 0.5); stroke-width:4" fill="none"/>
<polyline points="1005,884 1018,868 1022,860 1020,855 1021,844 1020,833 1020,827 1017,820 1012,815 1009,812 1000,796 996,792 988,789 986,788 982,780 984,772 996,764 999,756" style="stroke:rgba(0, 0, 0, 0.5); stroke-width:4" fill="none"/>
<polyline points="1100,829 1100,814 1108,801 1100,788 1076,766 1073,764 1064,756" style="stroke:rgba(0, 0, 0, 0.5); stroke-width:4" fill="none"/>
<polyline points="1164,788 1132,769 1108,763 1104,756 1100,752" style="stroke:rgba(0, 0, 0, 0.5); stroke-width:4" fill="none"/>
<polyline points="1108,751 1110,756 1144,780" style="stroke:rgba(0, 0, 0, 0.5); stroke-width:4" fill="none"/>
<polyline points="1148,793 1140,798 1131,804 1118,796 1116,791 1118,788 1128,772 1129,764 1124,758 1122,756" style="stroke:rgba(0, 0, 0, 0.5); stroke-width:4" fill="none"/>
<polyline points="1199,788 1213,772 1207,756" style="stroke:rgba(0, 0, 0, 0.5); stroke-width:4" fill="none"/>
<polyline points="880,820 884,814 885,812 884,807 891,788 892,784 894,780 900,772 904,764" style="stroke:rgba(0, 0, 0, 0.5); stroke-width:4" fill="none"/>
<polyline points="936,772 930,764 923,764" style="stroke:rgba(0, 0, 0, 0.5); stroke-width:4" fill="none"/>
<polyline points="972,780 964,772 964,768 965,764" style="stroke:rgba(0, 0, 0, 0.5); stroke-width:4" fill="none"/>
<polyline points="1036,758 1038,764 1036,775 1028,783 1023,788 1014,788 1004,782 1004,777 1001,772 989,764" style="stroke:rgba(0, 0, 0, 0.5); stroke-width:4" fill="none"/>
<polyline points="952,780 964,783 969,788 972,796 982,804 986,812 988,814 994,820 996,823 1000,828 1004,830 1007,836 1012,841 1016,844 1028,852 1034,852 1044,850 1048,844 1052,836 1050,820 1044,814 1036,806 1037,796 1027,780 1007,764 998,764 994,764" style="stroke:rgba(0, 0, 0, 0.5); stroke-width:4" fill="none"/>
<polyline points="1076,761 1084,760 1089,764" style="stroke:rgba(0, 0, 0, 0.5); stroke-width:4" fill="none"/>
<polyline points="1177,788 1180,786 1187,780 1204,765 1206,764 1212,763 1235,772 1241,788 1244,791 1252,795 1260,790 1262,780" style="stroke:rgba(0, 0, 0, 0.5); stroke-width:4" fill="none"/>
<polyline points="900,770 897,772 893,772 884,782" style="stroke:rgba(0, 0, 0, 0.5); stroke-width:4" fill="none"/>
<polyline points="1052,769 1054,772 1052,788 1046,796" style="stroke:rgba(0, 0, 0, 0.5); stroke-width:4" fill="none"/>
<polyline points="1122,796 1108,786 1100,774 1096,772" style="stroke:rgba(0, 0, 0, 0.5); stroke-width:4" fill="none"/>
<polyline points="1215,788 1204,777 1199,772" style="stroke:rgba(0, 0, 0, 0.5); stroke-width:4" fill="none"/>
<polyline points="908,771 908,776 904,780" style="stroke:rgba(0, 0, 0, 0.5); stroke-width:4" fill="none"/>
<polyline points="916,792 924,787 930,780" style="stroke:rgba(0, 0, 0, 0.5); stroke-width:4" fill="none"/>
<polyline points="1183,892 1180,882 1173,876 1148,861 1145,852 1134,836 1124,831 1107,820 1076,811 1049,788 1041,780" style="stroke:rgba(0, 0, 0, 0.5); stroke-width:4" fill="none"/>
<polyline points="1180,792 1188,792 1204,798 1208,796 1212,795 1228,782 1228,780" style="stroke:rgba(0, 0, 0, 0.5); stroke-width:4" fill="none"/>
<polyline points="935,804 924,792 925,788" style="stroke:rgba(0, 0, 0, 0.5); stroke-width:4" fill="none"/>
<polyline points="972,763 988,780 988,785 992,788 1004,806" style="stroke:rgba(0, 0, 0, 0.5); stroke-width:4" fill="none"/>
<polyline points="1084,820 1077,820 1067,812 1060,808 1058,804 1068,788" style="stroke:rgba(0, 0, 0, 0.5); stroke-width:4" fill="none"/>
<polyline points="1073,804 1084,804 1092,793 1094,788" style="stroke:rgba(0, 0, 0, 0.5); stroke-width:4" fill="none"/>
<polyline points="1180,778 1192,788 1196,800 1196,808" style="stroke:rgba(0, 0, 0, 0.5); stroke-width:4" fill="none"/>
<polyline points="1252,789 1253,788 1260,782" style="stroke:rgba(0, 0, 0, 0.5); stroke-width:4" fill="none"/>
<polyline points="900,830 916,815 920,812 928,804 931,796" style="stroke:rgba(0, 0, 0, 0.5); stroke-width:4" fill="none"/>
<polyline points="1036,811 1028,802 1027,796" style="stroke:rgba(0, 0, 0, 0.5); stroke-width:4" fill="none"/>
<polyline points="852,828 860,816 868,812 868,811 868,804" style="stroke:rgba(0, 0, 0, 0.5); stroke-width:4" fill="none"/>
<polyline points="1037,940 1036,938 1037,932 1036,931 1028,926 1028,912 1020,904 1017,900 1012,892 999,868 1000,860 996,856 994,852 990,844 988,840 984,828 980,821 972,809 973,804 980,799" style="stroke:rgba(0, 0, 0, 0.5); stroke-width:4" fill="none"/>
<polyline points="1020,799 1025,804 1036,820" style="stroke:rgba(0, 0, 0, 0.5); stroke-width:4" fill="none"/>
<polyline points="1120,804 1124,808 1124,821 1116,829 1109,828 1094,812 1095,804" style="stroke:rgba(0, 0, 0, 0.5); stroke-width:4" fill="none"/>
<polyline points="1068,844 1072,844 1076,842 1088,844 1092,842 1104,836 1108,817 1103,804" style="stroke:rgba(0, 0, 0, 0.5); stroke-width:4" fill="none"/>
<polyline points="1172,829 1172,821 1175,812 1180,804" style="stroke:rgba(0, 0, 0, 0.5); stroke-width:4" fill="none"/>
<polyline points="1164,827 1179,828 1185,820 1188,812 1187,804" style="stroke:rgba(0, 0, 0, 0.5); stroke-width:4" fill="none"/>
<polyline points="1219,884 1228,878 1231,868 1226,860 1220,853 1212,831 1214,828 1212,823 1212,818 1220,806 1223,804 1232,804 1244,812 1251,820 1255,828 1244,849 1236,851 1204,836 1192,836 1188,840 1183,844 1180,852 1180,861 1184,868 1188,871 1196,876 1201,884 1201,892 1201,900 1199,908 1188,910 1180,908 1172,902 1167,900 1164,899 1151,908 1148,911" style="stroke:rgba(0, 0, 0, 0.5); stroke-width:4" fill="none"/>
<polyline points="948,879 951,876 951,868 945,860 941,852 940,846 939,836 937,828 937,820 931,812 924,813 916,812 906,820 908,828 908,838 901,844 899,852 897,860 893,884 892,890 891,900" style="stroke:rgba(0, 0, 0, 0.5); stroke-width:4" fill="none"/>
<polyline points="1004,898 1006,900 1012,900 1018,892 1015,884 1010,876 1004,873 996,873 988,868 980,862 977,860 974,852 972,848 967,836 960,820 958,812 956,800" style="stroke:rgba(0, 0, 0, 0.5); stroke-width:4" fill="none"/>
<polyline points="988,830 988,824 985,820" style="stroke:rgba(0, 0, 0, 0.5); stroke-width:4" fill="none"/>
<polyline points="1010,844 1007,828 1009,820" style="stroke:rgba(0, 0, 0, 0.5); stroke-width:4" fill="none"/>
<polyline points="1137,828 1132,822 1132,820" style="stroke:rgba(0, 0, 0, 0.5); stroke-width:4" fill="none"/>
<polyline points="1180,873 1175,868 1172,864 1166,860 1158,852 1156,844 1156,842 1149,828 1148,827 1138,820" style="stroke:rgba(0, 0, 0, 0.5); stroke-width:4" fill="none"/>
<polyline points="876,885 874,884 873,876 869,868 870,860 873,852 877,844 886,836 894,828" style="stroke:rgba(0, 0, 0, 0.5); stroke-width:4" fill="none"/>
<polyline points="916,957 918,956 921,948 918,940 920,932 920,924 923,916 926,908 919,884 918,876 918,868 918,860 919,852 917,844 919,836 920,828 924,818" style="stroke:rgba(0, 0, 0, 0.5); stroke-width:4" fill="none"/>
<polyline points="924,799 924,807 884,834 882,836 868,847 863,852 855,860 852,863 847,868 844,871 839,876" style="stroke:rgba(0, 0, 0, 0.5); stroke-width:4" fill="none"/>
<polyline points="922,844 922,836 924,825" style="stroke:rgba(0, 0, 0, 0.5); stroke-width:4" fill="none"/>
<polyline points="1092,852 1084,839 1079,836" style="stroke:rgba(0, 0, 0, 0.5); stroke-width:4" fill="none"/>
<polyline points="1148,904 1151,900 1148,892 1145,884 1116,857 1109,852 1089,836" style="stroke:rgba(0, 0, 0, 0.5); stroke-width:4" fill="none"/>
<polyline points="1177,884 1169,876 1162,868 1164,863 1164,856 1150,844 1148,839 1143,836" style="stroke:rgba(0, 0, 0, 0.5); stroke-width:4" fill="none"/>
<polyline points="1172,854 1172,847 1161,836" style="stroke:rgba(0, 0, 0, 0.5); stroke-width:4" fill="none"/>
<polyline points="1191,876 1204,877 1212,879 1220,878 1225,868 1222,852 1215,836" style="stroke:rgba(0, 0, 0, 0.5); stroke-width:4" fill="none"/>
<polyline points="1252,826 1244,835 1237,836 1213,860" style="stroke:rgba(0, 0, 0, 0.5); stroke-width:4" fill="none"/>
<polyline points="1228,855 1227,852 1245,836" style="stroke:rgba(0, 0, 0, 0.5); stroke-width:4" fill="none"/>
<polyline points="892,841 890,844 892,850 892,854" style="stroke:rgba(0, 0, 0, 0.5); stroke-width:4" fill="none"/>
<polyline points="932,892 933,884 932,863 935,860 934,852 933,844" style="stroke:rgba(0, 0, 0, 0.5); stroke-width:4" fill="none"/>
<polyline points="1152,956 1140,952 1132,950 1129,948 1124,946 1118,940 1116,936 1108,929 1101,916 1092,902 1088,900 1078,884 1068,878 1062,868 1046,852 1038,844" style="stroke:rgba(0, 0, 0, 0.5); stroke-width:4" fill="none"/>
<polyline points="1156,886 1148,884 1133,876 1130,868 1125,860 1108,847 1104,844" style="stroke:rgba(0, 0, 0, 0.5); stroke-width:4" fill="none"/>
<polyline points="964,871 960,852 956,842" style="stroke:rgba(0, 0, 0, 0.5); stroke-width:4" fill="none"/>
<polyline points="979,868 984,860 988,856 987,852" style="stroke:rgba(0, 0, 0, 0.5); stroke-width:4" fill="none"/>
<polyline points="1052,851 1055,852 1060,861 1067,884 1063,892 1052,896" style="stroke:rgba(0, 0, 0, 0.5); stroke-width:4" fill="none"/>
<polyline points="905,884 910,868 912,860 916,854 924,852" style="stroke:rgba(0, 0, 0, 0.5); stroke-width:4" fill="none"/>
<polyline points="1012,896 996,862 995,860" style="stroke:rgba(0, 0, 0, 0.5); stroke-width:4" fill="none"/>
<polyline points="1077,876 1074,876 1060,876 1052,876 1046,868 1048,860" style="stroke:rgba(0, 0, 0, 0.5); stroke-width:4" fill="none"/>
<polyline points="1041,868 1044,867 1053,868 1059,860" style="stroke:rgba(0, 0, 0, 0.5); stroke-width:4" fill="none"/>
<polyline points="1148,876 1124,879 1116,875 1116,870 1109,860" style="stroke:rgba(0, 0, 0, 0.5); stroke-width:4" fill="none"/>
<polyline points="1164,881 1156,874 1150,868 1148,867 1140,861 1139,860" style="stroke:rgba(0, 0, 0, 0.5); stroke-width:4" fill="none"/>
<polyline points="1090,916 1084,910 1076,890 1076,874 1079,868" style="stroke:rgba(0, 0, 0, 0.5); stroke-width:4" fill="none"/>
<polyline points="1143,868 1132,863 1124,866 1120,868" style="stroke:rgba(0, 0, 0, 0.5); stroke-width:4" fill="none"/>
<polyline points="859,900 860,896 869,876 876,875" style="stroke:rgba(0, 0, 0, 0.5); stroke-width:4" fill="none"/>
<polyline points="979,900 972,897 964,892 956,888 948,876" style="stroke:rgba(0, 0, 0, 0.5); stroke-width:4" fill="none"/>
<polyline points="996,879 993,876 988,874 983,876" style="stroke:rgba(0, 0, 0, 0.5); stroke-width:4" fill="none"/>
<polyline points="1105,892 1100,889 1097,884 1094,884 1092,882 1092,876" style="stroke:rgba(0, 0, 0, 0.5); stroke-width:4" fill="none"/>
<polyline points="988,883 989,884 996,892" style="stroke:rgba(0, 0, 0, 0.5); stroke-width:4" fill="none"/>
<polyline points="867,900 868,899 870,892" style="stroke:rgba(0, 0, 0, 0.5); stroke-width:4" fill="none"/>
<polyline points="894,924 900,927 909,924 916,921 932,910 938,908 948,904 953,900 956,896 964,897 980,895 985,892" style="stroke:rgba(0, 0, 0, 0.5); stroke-width:4" fill="none"/>
<polyline points="1100,899 1092,914 1082,916 1076,916 1067,916 1060,902 1060,896 1059,892" style="stroke:rgba(0, 0, 0, 0.5); stroke-width:4" fill="none"/>
<polyline points="1092,892 1084,896 1069,892" style="stroke:rgba(0, 0, 0, 0.5); stroke-width:4" fill="none"/>
<polyline points="1164,908 1163,932 1160,940 1157,948 1148,959 1140,958 1135,956 1113,932 1100,917 1084,908 1078,892" style="stroke:rgba(0, 0, 0, 0.5); stroke-width:4" fill="none"/>
<polyline points="1106,932 1105,916 1093,908 1089,892" style="stroke:rgba(0, 0, 0, 0.5); stroke-width:4" fill="none"/>
<polyline points="1140,905 1132,897 1128,892" style="stroke:rgba(0, 0, 0, 0.5); stroke-width:4" fill="none"/>
<polyline points="1188,893 1196,892 1197,892" style="stroke:rgba(0, 0, 0, 0.5); stroke-width:4" fill="none"/>
<polyline points="956,944 954,932 956,924 957,916 956,914 949,908 940,906 934,900" style="stroke:rgba(0, 0, 0, 0.5); stroke-width:4" fill="none"/>
<polyline points="932,932 932,931 933,924 932,921 936,916 940,912 948,909 960,900 972,892 980,890" style="stroke:rgba(0, 0, 0, 0.5); stroke-width:4" fill="none"/>
<polyline points="994,924 996,913 995,908 993,900" style="stroke:rgba(0, 0, 0, 0.5); stroke-width:4" fill="none"/>
<polyline points="1043,916 1041,908 1040,900" style="stroke:rgba(0, 0, 0, 0.5); stroke-width:4" fill="none"/>
<polyline points="847,932 852,918 850,908" style="stroke:rgba(0, 0, 0, 0.5); stroke-width:4" fill="none"/>
<polyline points="932,985 934,980 936,972 935,964 935,956 934,948 933,908 932,905" style="stroke:rgba(0, 0, 0, 0.5); stroke-width:4" fill="none"/>
<polyline points="947,916 948,915 956,908" style="stroke:rgba(0, 0, 0, 0.5); stroke-width:4" fill="none"/>
<polyline points="972,943 974,940 980,925 980,917 981,916" style="stroke:rgba(0, 0, 0, 0.5); stroke-width:4" fill="none"/>
<polyline points="1129,924 1124,919 1123,916" style="stroke:rgba(0, 0, 0, 0.5); stroke-width:4" fill="none"/>
<polyline points="988,919 996,920 998,924" style="stroke:rgba(0, 0, 0, 0.5); stroke-width:4" fill="none"/>
<polyline points="1065,956 1060,945 1058,940 1053,932 1052,930 1051,924 1044,909" style="stroke:rgba(0, 0, 0, 0.5); stroke-width:4" fill="none"/>
<polyline points="1068,939 1070,932 1076,926 1078,924" style="stroke:rgba(0, 0, 0, 0.5); stroke-width:4" fill="none"/>
<polyline points="836,976 835,972 833,964 836,956 844,953 852,948 854,948 860,944 876,939 884,933 886,932 892,926" style="stroke:rgba(0, 0, 0, 0.5); stroke-width:4" fill="none"/>
<polyline points="924,923 916,926 908,929 901,932" style="stroke:rgba(0, 0, 0, 0.5); stroke-width:4" fill="none"/>
<polyline points="1084,933 1092,933 1093,932 1100,931" style="stroke:rgba(0, 0, 0, 0.5); stroke-width:4" fill="none"/>
<polyline points="936,1020 937,1012 939,996 940,993 932,949 932,940" style="stroke:rgba(0, 0, 0, 0.5); stroke-width:4" fill="none"/>
<polyline points="958,940 953,940 948,947" style="stroke:rgba(0, 0, 0, 0.5); stroke-width:4" fill="none"/>
<polyline points="1076,1003 1081,1004 1091,996 1092,990 1100,974 1102,972 1105,964 1108,955 1111,948 1111,940" style="stroke:rgba(0, 0, 0, 0.5); stroke-width:4" fill="none"/>
<polyline points="844,946 844,948 850,956" style="stroke:rgba(0, 0, 0, 0.5); stroke-width:4" fill="none"/>
<polyline points="874,956 868,950 866,948" style="stroke:rgba(0, 0, 0, 0.5); stroke-width:4" fill="none"/>
<polyline points="884,939 877,948 876,949 873,948" style="stroke:rgba(0, 0, 0, 0.5); stroke-width:4" fill="none"/>
<polyline points="1084,948 1085,948 1092,951" style="stroke:rgba(0, 0, 0, 0.5); stroke-width:4" fill="none"/>
<polyline points="1148,950 1150,948 1156,947" style="stroke:rgba(0, 0, 0, 0.5); stroke-width:4" fill="none"/>
<polyline points="1032,964 1036,965 1042,964 1044,960 1043,956" style="stroke:rgba(0, 0, 0, 0.5); stroke-width:4" fill="none"/>
<polyline points="776,1132 780,1122 779,1116 780,1111 785,1100 787,1092 788,1082 788,1076 790,1068 793,1060 796,1052 796,1049 797,1044 800,1036 803,1028 804,1025 806,1020 809,1012 812,1004 814,996 817,988 819,980 822,972 825,964" style="stroke:rgba(0, 0, 0, 0.5); stroke-width:4" fill="none"/>
<polyline points="860,967 858,972 860,977 860,980 849,988 844,993 843,996 837,1020 832,1044 828,1059 825,1076 820,1096 821,1100 820,1107 818,1116" style="stroke:rgba(0, 0, 0, 0.5); stroke-width:4" fill="none"/>
<polyline points="888,988 892,981 893,980" style="stroke:rgba(0, 0, 0, 0.5); stroke-width:4" fill="none"/>
<polyline points="951,988 948,985 947,980" style="stroke:rgba(0, 0, 0, 0.5); stroke-width:4" fill="none"/>
<polyline points="956,977 958,980 963,996 961,1012" style="stroke:rgba(0, 0, 0, 0.5); stroke-width:4" fill="none"/>
<polyline points="994,1004 995,996 988,987 991,980" style="stroke:rgba(0, 0, 0, 0.5); stroke-width:4" fill="none"/>
<polyline points="1001,1028 1012,1033 1024,1036 1028,1036 1036,1030 1044,1022 1045,1020 1049,1012 1052,1008 1057,996 1056,988" style="stroke:rgba(0, 0, 0, 0.5); stroke-width:4" fill="none"/>
<polyline points="1053,1004 1060,989 1062,988 1077,996 1084,996 1091,988" style="stroke:rgba(0, 0, 0, 0.5); stroke-width:4" fill="none"/>
<polyline points="820,995 820,996 817,1004 812,1017 809,1028 796,1069 794,1076 791,1084 772,1130 771,1132 768,1140 763,1148 764,1150" style="stroke:rgba(0, 0, 0, 0.5); stroke-width:4" fill="none"/>
<polyline points="852,1008 860,1006 865,996" style="stroke:rgba(0, 0, 0, 0.5); stroke-width:4" fill="none"/>
<polyline points="822,1012 820,1008 820,1004 828,996" style="stroke:rgba(0, 0, 0, 0.5); stroke-width:4" fill="none"/>
<polyline points="892,998 889,1004 892,1012 892,1018 893,1020 890,1028 892,1031" style="stroke:rgba(0, 0, 0, 0.5); stroke-width:4" fill="none"/>
<polyline points="951,1028 951,1020 948,1007 941,1004" style="stroke:rgba(0, 0, 0, 0.5); stroke-width:4" fill="none"/>
<polyline points="876,1011 877,1012 874,1044" style="stroke:rgba(0, 0, 0, 0.5); stroke-width:4" fill="none"/>
<polyline points="811,1068 817,1060 820,1055 823,1044 822,1036 820,1034 818,1028 818,1020 820,1014" style="stroke:rgba(0, 0, 0, 0.5); stroke-width:4" fill="none"/>
<polyline points="854,1084 854,1076 856,1068 856,1060 858,1044 858,1036 858,1028 858,1020" style="stroke:rgba(0, 0, 0, 0.5); stroke-width:4" fill="none"/>
<polyline points="937,1028 940,1022 942,1020" style="stroke:rgba(0, 0, 0, 0.5); stroke-width:4" fill="none"/>
<polyline points="897,1060 901,1052 900,1036 900,1028" style="stroke:rgba(0, 0, 0, 0.5); stroke-width:4" fill="none"/>
<polyline points="852,1031 851,1036 846,1044 844,1047" style="stroke:rgba(0, 0, 0, 0.5); stroke-width:4" fill="none"/>
<polyline points="949,1060 953,1068 956,1070 964,1073 968,1076 972,1077 980,1070 983,1068 989,1060 995,1052 1000,1044 1004,1036 1020,1033" style="stroke:rgba(0, 0, 0, 0.5); stroke-width:4" fill="none"/>
<polyline points="892,1040 890,1044 881,1052 882,1060" style="stroke:rgba(0, 0, 0, 0.5); stroke-width:4" fill="none"/>
<polyline points="836,1066 836,1061 838,1060 844,1058 850,1052" style="stroke:rgba(0, 0, 0, 0.5); stroke-width:4" fill="none"/>
<polyline points="812,1058 813,1060 813,1084 812,1092 808,1116 809,1124 809,1132 804,1146" style="stroke:rgba(0, 0, 0, 0.5); stroke-width:4" fill="none"/>
<polyline points="777,1124 783,1116 788,1100 791,1092 796,1077 797,1076" style="stroke:rgba(0, 0, 0, 0.5); stroke-width:4" fill="none"/>
<polyline points="948,1073 945,1076 939,1084 932,1092 924,1100 916,1104 908,1101 901,1092" style="stroke:rgba(0, 0, 0, 0.5); stroke-width:4" fill="none"/>
<polyline points="848,1116 852,1120 860,1127 868,1124 876,1119 879,1116 884,1111 887,1108 892,1102 895,1100" style="stroke:rgba(0, 0, 0, 0.5); stroke-width:4" fill="none"/>
<polyline points="774,1148 780,1142 784,1140 788,1136 792,1132 796,1128 800,1124 804,1119 812,1113" style="stroke:rgba(0, 0, 0, 0.5); stroke-width:4" fill="none"/>
<polyline points="809,1148 812,1147 821,1140 828,1134 831,1132 836,1126 839,1124 844,1119" style="stroke:rgba(0, 0, 0, 0.5); stroke-width:4" fill="none"/>
<polyline points="860,389 844,386 836,385" style="stroke:rgba(0, 0, 0, 0.5); stroke-width:4" fill="none"/>
<polyline points="908,608 900,609 892,610 884,608" style="stroke:rgba(0, 0, 0, 0.5); stroke-width:4" fill="none"/>
<polyline points="916,340 908,334 900,331" style="stroke:rgba(0, 0, 0, 0.5); stroke-width:4" fill="none"/>
<polyline points="1052,431 1044,434 1036,449" style="stroke:rgba(0, 0, 0, 0.5); stroke-width:4" fill="none"/>
<polyline points="1212,520 1212,515 1220,467 1236,458" style="stroke:rgba(0, 0, 0, 0.5); stroke-width:4" fill="none"/>
<polyline points="1492,559 1484,569 1468,570" style="stroke:rgba(0, 0, 0, 0.5); stroke-width:4" fill="none"/>

</svg>
