<svg viewBox="0 0 1024 707" xmlns="http://www.w3.org/2000/svg" xmlns:inkscape="http://www.inkscape.org/namespaces/inkscape" width="428mm" height="295mm">
  <g inkscape:groupmode="layer" id="layer1" inkscape:label="1 - red">
    <path d="M -100,0c 179.296875,180 0,300 -23.90625,354s 59.765625,180 0,354"/>
    <path d="M -90,0c 176.3671875,180 0,300 -23.515625,354s 58.7890625,180 0,354"/>
    <path d="M -80,0c 173.4375,180 0,300 -23.125,354s 57.8125,180 0,354"/>
    <path d="M -70,0c 170.5078125,180 0,300 -22.734375,354s 56.8359375,180 0,354"/>
    <path d="M -60,0c 167.578125,180 0,300 -22.34375,354s 55.859375,180 0,354"/>
    <path d="M -50,0c 164.6484375,180 0,300 -21.953125,354s 54.8828125,180 0,354"/>
    <path d="M -40,0c 161.71875,180 0,300 -21.5625,354s 53.90625,180 0,354"/>
    <path d="M -30,0c 158.7890625,180 0,300 -21.171875,354s 52.9296875,180 0,354"/>
    <path d="M -20,0c 155.859375,180 0,300 -20.78125,354s 51.953125,180 0,354"/>
    <path d="M -10,0c 152.9296875,180 0,300 -20.390625,354s 50.9765625,180 0,354"/>
    <path d="M 0,0c 150.0,180 0,300 -20.0,354s 50.0,180 0,354"/>
    <path d="M 10,0c 147.0703125,180 0,300 -19.609375,354s 49.0234375,180 0,354"/>
    <path d="M 20,0c 144.140625,180 0,300 -19.21875,354s 48.046875,180 0,354"/>
    <path d="M 30,0c 141.2109375,180 0,300 -18.828125,354s 47.0703125,180 0,354"/>
    <path d="M 40,0c 138.28125,180 0,300 -18.4375,354s 46.09375,180 0,354"/>
    <path d="M 50,0c 135.3515625,180 0,300 -18.046875,354s 45.1171875,180 0,354"/>
    <path d="M 60,0c 132.421875,180 0,300 -17.65625,354s 44.140625,180 0,354"/>
    <path d="M 110,0c 117.7734375,180 0,300 -15.703125,354s 39.2578125,180 0,354"/>
    <path d="M 170,0c 100.1953125,180 0,300 -13.359375,354s 33.3984375,180 0,354"/>
  </g>
  <g inkscape:groupmode="layer" id="layer2" inkscape:label="2 - green">
    <path d="M 70,0c 129.4921875,180 0,300 -17.265625,354s 43.1640625,180 0,354"/>
    <path d="M 80,0c 126.5625,180 0,300 -16.875,354s 42.1875,180 0,354"/>
    <path d="M 90,0c 123.6328125,180 0,300 -16.484375,354s 41.2109375,180 0,354"/>
    <path d="M 100,0c 120.703125,180 0,300 -16.09375,354s 40.234375,180 0,354"/>
    <path d="M 120,0c 114.84375,180 0,300 -15.3125,354s 38.28125,180 0,354"/>
    <path d="M 130,0c 111.9140625,180 0,300 -14.921875,354s 37.3046875,180 0,354"/>
    <path d="M 150,0c 106.0546875,180 0,300 -14.140625,354s 35.3515625,180 0,354"/>
    <path d="M 160,0c 103.125,180 0,300 -13.75,354s 34.375,180 0,354"/>
    <path d="M 180,0c 97.265625,180 0,300 -12.96875,354s 32.421875,180 0,354"/>
    <path d="M 190,0c 94.3359375,180 0,300 -12.578125,354s 31.4453125,180 0,354"/>
  </g>
  <g inkscape:groupmode="layer" id="layer3" inkscape:label="3 - blue">
    <path d="M 140,0c 108.984375,180 0,300 -14.53125,354s 36.328125,180 0,354"/>
    <path d="M 200,0c 91.40625,180 0,300 -12.1875,354s 30.46875,180 0,354"/>
    <path d="M 210,0c 88.4765625,180 0,300 -11.796875,354s 29.4921875,180 0,354"/>
    <path d="M 220,0c 85.546875,180 0,300 -11.40625,354s 28.515625,180 0,354"/>
    <path d="M 230,0c 82.6171875,180 0,300 -11.015625,354s 27.5390625,180 0,354"/>
    <path d="M 250,0c 76.7578125,180 0,300 -10.234375,354s 25.5859375,180 0,354"/>
    <path d="M 260,0c 73.828125,180 0,300 -9.84375,354s 24.609375,180 0,354"/>
    <path d="M 280,0c 67.96875,180 0,300 -9.0625,354s 22.65625,180 0,354"/>
    <path d="M 310,0c 59.1796875,180 0,300 -7.890625,354s 19.7265625,180 0,354"/>
  </g>
  <g inkscape:groupmode="layer" id="layer4" inkscape:label="4 - yellow">
    <path d="M 240,0c 79.6875,180 0,300 -10.625,354s 26.5625,180 0,354"/>
    <path d="M 270,0c 70.8984375,180 0,300 -9.453125,354s 23.6328125,180 0,354"/>
    <path d="M 290,0c 65.0390625,180 0,300 -8.671875,354s 21.6796875,180 0,354"/>
    <path d="M 300,0c 62.109375,180 0,300 -8.28125,354s 20.703125,180 0,354"/>
    <path d="M 320,0c 56.25,180 0,300 -7.5,354s 18.75,180 0,354"/>
    <path d="M 340,0c 50.390625,180 0,300 -6.71875,354s 16.796875,180 0,354"/>
    <path d="M 350,0c 47.4609375,180 0,300 -6.328125,354s 15.8203125,180 0,354"/>
    <path d="M 360,0c 44.53125,180 0,300 -5.9375,354s 14.84375,180 0,354"/>
    <path d="M 370,0c 41.6015625,180 0,300 -5.546875,354s 13.8671875,180 0,354"/>
    <path d="M 420,0c 26.953125,180 0,300 -3.59375,354s 8.984375,180 0,354"/>
  </g>
  <g inkscape:groupmode="layer" id="layer5" inkscape:label="5 - black">
    <path d="M 330,0c 53.3203125,180 0,300 -7.109375,354s 17.7734375,180 0,354"/>
    <path d="M 380,0c 38.671875,180 0,300 -5.15625,354s 12.890625,180 0,354"/>
    <path d="M 390,0c 35.7421875,180 0,300 -4.765625,354s 11.9140625,180 0,354"/>
    <path d="M 410,0c 29.8828125,180 0,300 -3.984375,354s 9.9609375,180 0,354"/>
    <path d="M 430,0c 24.0234375,180 0,300 -3.203125,354s 8.0078125,180 0,354"/>
    <path d="M 440,0c 21.09375,180 0,300 -2.8125,354s 7.03125,180 0,354"/>
    <path d="M 450,0c 18.1640625,180 0,300 -2.421875,354s 6.0546875,180 0,354"/>
    <path d="M 510,0c 0.5859375,180 0,300 -0.078125,354s 0.1953125,180 0,354"/>
  </g>
  <g inkscape:groupmode="layer" id="layer6" inkscape:label="6 - purple">
    <path d="M 400,0c 32.8125,180 0,300 -4.375,354s 10.9375,180 0,354"/>
    <path d="M 460,0c 15.234375,180 0,300 -2.03125,354s 5.078125,180 0,354"/>
    <path d="M 470,0c 12.3046875,180 0,300 -1.640625,354s 4.1015625,180 0,354"/>
    <path d="M 480,0c 9.375,180 0,300 -1.25,354s 3.125,180 0,354"/>
    <path d="M 490,0c 6.4453125,180 0,300 -0.859375,354s 2.1484375,180 0,354"/>
    <path d="M 500,0c 3.515625,180 0,300 -0.46875,354s 1.171875,180 0,354"/>
    <path d="M 520,0c -2.34375,180 0,300 0.3125,354s -0.78125,180 0,354"/>
    <path d="M 530,0c -5.2734375,180 0,300 0.703125,354s -1.7578125,180 0,354"/>
    <path d="M 540,0c -8.203125,180 0,300 1.09375,354s -2.734375,180 0,354"/>
    <path d="M 620,0c -31.640625,180 0,300 4.21875,354s -10.546875,180 0,354"/>
    <path d="M 630,0c -34.5703125,180 0,300 4.609375,354s -11.5234375,180 0,354"/>
  </g>
  <g inkscape:groupmode="layer" id="layer7" inkscape:label="7 - orange">
    <path d="M 550,0c -11.1328125,180 0,300 1.484375,354s -3.7109375,180 0,354"/>
    <path d="M 560,0c -14.0625,180 0,300 1.875,354s -4.6875,180 0,354"/>
    <path d="M 570,0c -16.9921875,180 0,300 2.265625,354s -5.6640625,180 0,354"/>
    <path d="M 580,0c -19.921875,180 0,300 2.65625,354s -6.640625,180 0,354"/>
    <path d="M 590,0c -22.8515625,180 0,300 3.046875,354s -7.6171875,180 0,354"/>
    <path d="M 600,0c -25.78125,180 0,300 3.4375,354s -8.59375,180 0,354"/>
    <path d="M 610,0c -28.7109375,180 0,300 3.828125,354s -9.5703125,180 0,354"/>
    <path d="M 670,0c -46.2890625,180 0,300 6.171875,354s -15.4296875,180 0,354"/>
    <path d="M 680,0c -49.21875,180 0,300 6.5625,354s -16.40625,180 0,354"/>
    <path d="M 710,0c -58.0078125,180 0,300 7.734375,354s -19.3359375,180 0,354"/>
  </g>
  <g inkscape:groupmode="layer" id="layer8" inkscape:label="8 - violet">
    <path d="M 640,0c -37.5,180 0,300 5.0,354s -12.5,180 0,354"/>
    <path d="M 650,0c -40.4296875,180 0,300 5.390625,354s -13.4765625,180 0,354"/>
    <path d="M 660,0c -43.359375,180 0,300 5.78125,354s -14.453125,180 0,354"/>
    <path d="M 690,0c -52.1484375,180 0,300 6.953125,354s -17.3828125,180 0,354"/>
    <path d="M 740,0c -66.796875,180 0,300 8.90625,354s -22.265625,180 0,354"/>
    <path d="M 750,0c -69.7265625,180 0,300 9.296875,354s -23.2421875,180 0,354"/>
  </g>
  <g inkscape:groupmode="layer" id="layer9" inkscape:label="9 - polkadot">
    <path d="M 700,0c -55.078125,180 0,300 7.34375,354s -18.359375,180 0,354"/>
    <path d="M 720,0c -60.9375,180 0,300 8.125,354s -20.3125,180 0,354"/>
    <path d="M 730,0c -63.8671875,180 0,300 8.515625,354s -21.2890625,180 0,354"/>
    <path d="M 760,0c -72.65625,180 0,300 9.6875,354s -24.21875,180 0,354"/>
    <path d="M 770,0c -75.5859375,180 0,300 10.078125,354s -25.1953125,180 0,354"/>
    <path d="M 780,0c -78.515625,180 0,300 10.46875,354s -26.171875,180 0,354"/>
    <path d="M 790,0c -81.4453125,180 0,300 10.859375,354s -27.1484375,180 0,354"/>
    <path d="M 800,0c -84.375,180 0,300 11.25,354s -28.125,180 0,354"/>
    <path d="M 820,0c -90.234375,180 0,300 12.03125,354s -30.078125,180 0,354"/>
    <path d="M 830,0c -93.1640625,180 0,300 12.421875,354s -31.0546875,180 0,354"/>
    <path d="M 910,0c -116.6015625,180 0,300 15.546875,354s -38.8671875,180 0,354"/>
  </g>
  <g inkscape:groupmode="layer" id="layer10" inkscape:label="10 - cyan">
    <path d="M 810,0c -87.3046875,180 0,300 11.640625,354s -29.1015625,180 0,354"/>
    <path d="M 840,0c -96.09375,180 0,300 12.8125,354s -32.03125,180 0,354"/>
    <path d="M 850,0c -99.0234375,180 0,300 13.203125,354s -33.0078125,180 0,354"/>
    <path d="M 860,0c -101.953125,180 0,300 13.59375,354s -33.984375,180 0,354"/>
    <path d="M 870,0c -104.8828125,180 0,300 13.984375,354s -34.9609375,180 0,354"/>
    <path d="M 880,0c -107.8125,180 0,300 14.375,354s -35.9375,180 0,354"/>
    <path d="M 890,0c -110.7421875,180 0,300 14.765625,354s -36.9140625,180 0,354"/>
    <path d="M 900,0c -113.671875,180 0,300 15.15625,354s -37.890625,180 0,354"/>
    <path d="M 940,0c -125.390625,180 0,300 16.71875,354s -41.796875,180 0,354"/>
    <path d="M 950,0c -128.3203125,180 0,300 17.109375,354s -42.7734375,180 0,354"/>
  </g>
  <g inkscape:groupmode="layer" id="layer11" inkscape:label="11 - cerise">
    <path d="M 920,0c -119.53125,180 0,300 15.9375,354s -39.84375,180 0,354"/>
    <path d="M 930,0c -122.4609375,180 0,300 16.328125,354s -40.8203125,180 0,354"/>
    <path d="M 960,0c -131.25,180 0,300 17.5,354s -43.75,180 0,354"/>
    <path d="M 970,0c -134.1796875,180 0,300 17.890625,354s -44.7265625,180 0,354"/>
    <path d="M 980,0c -137.109375,180 0,300 18.28125,354s -45.703125,180 0,354"/>
    <path d="M 990,0c -140.0390625,180 0,300 18.671875,354s -46.6796875,180 0,354"/>
    <path d="M 1000,0c -142.96875,180 0,300 19.0625,354s -47.65625,180 0,354"/>
    <path d="M 1010,0c -145.8984375,180 0,300 19.453125,354s -48.6328125,180 0,354"/>
    <path d="M 1020,0c -148.828125,180 0,300 19.84375,354s -49.609375,180 0,354"/>
    <path d="M 1030,0c -151.7578125,180 0,300 20.234375,354s -50.5859375,180 0,354"/>
    <path d="M 1040,0c -154.6875,180 0,300 20.625,354s -51.5625,180 0,354"/>
    <path d="M 1050,0c -157.6171875,180 0,300 21.015625,354s -52.5390625,180 0,354"/>
    <path d="M 1060,0c -160.546875,180 0,300 21.40625,354s -53.515625,180 0,354"/>
    <path d="M 1070,0c -163.4765625,180 0,300 21.796875,354s -54.4921875,180 0,354"/>
    <path d="M 1080,0c -166.40625,180 0,300 22.1875,354s -55.46875,180 0,354"/>
    <path d="M 1090,0c -169.3359375,180 0,300 22.578125,354s -56.4453125,180 0,354"/>
    <path d="M 1100,0c -172.265625,180 0,300 22.96875,354s -57.421875,180 0,354"/>
  </g>
</svg>
