<svg viewBox="0 0 1024 707" xmlns="http://www.w3.org/2000/svg" xmlns:inkscape="http://www.inkscape.org/namespaces/inkscape" width="428mm" height="295mm">
  <line style="stroke: black; stroke-width: 0.7" x1="0" y1="0" x2="1024" y2="0"/>
  <line style="stroke: black; stroke-width: 0.7" x1="1024" y1="0" x2="512" y2="707"/>
  <line style="stroke: black; stroke-width: 0.7" x1="512" y1="707" x2="0" y2="0"/>
  <line style="stroke: black; stroke-width: 0.7" x1="682" y1="314" x2="512" y2="235"/>
  <line style="stroke: black; stroke-width: 0.7" x1="682" y1="314" x2="1024" y2="0"/>
  <line style="stroke: black; stroke-width: 0.7" x1="682" y1="314" x2="512" y2="707"/>
  <line style="stroke: black; stroke-width: 0.7" x1="512" y1="78" x2="512" y2="235"/>
  <line style="stroke: black; stroke-width: 0.7" x1="512" y1="78" x2="0" y2="0"/>
  <line style="stroke: black; stroke-width: 0.7" x1="512" y1="78" x2="1024" y2="0"/>
  <line style="stroke: black; stroke-width: 0.7" x1="341" y1="314" x2="512" y2="235"/>
  <line style="stroke: black; stroke-width: 0.7" x1="341" y1="314" x2="0" y2="0"/>
  <line style="stroke: black; stroke-width: 0.7" x1="341" y1="314" x2="512" y2="707"/>
  <line style="stroke: black; stroke-width: 0.7" x1="682" y1="314" x2="341" y2="314"/>
  <line style="stroke: black; stroke-width: 0.7" x1="682" y1="314" x2="512" y2="78"/>
  <line style="stroke: black; stroke-width: 0.7" x1="739" y1="340" x2="682" y2="314"/>
  <line style="stroke: black; stroke-width: 0.7" x1="739" y1="340" x2="1024" y2="0"/>
  <line style="stroke: black; stroke-width: 0.7" x1="739" y1="340" x2="512" y2="707"/>
  <line style="stroke: black; stroke-width: 0.7" x1="512" y1="78" x2="341" y2="314"/>
  <line style="stroke: black; stroke-width: 0.7" x1="512" y1="26" x2="512" y2="78"/>
  <line style="stroke: black; stroke-width: 0.7" x1="512" y1="26" x2="0" y2="0"/>
  <line style="stroke: black; stroke-width: 0.7" x1="512" y1="26" x2="1024" y2="0"/>
  <line style="stroke: black; stroke-width: 0.7" x1="455" y1="418" x2="341" y2="314"/>
  <line style="stroke: black; stroke-width: 0.7" x1="455" y1="418" x2="512" y2="707"/>
  <line style="stroke: black; stroke-width: 0.7" x1="455" y1="418" x2="512" y2="235"/>
</svg>
