<svg viewBox="0 0 1024 707" xmlns="http://www.w3.org/2000/svg" xmlns:inkscape="http://www.inkscape.org/namespaces/inkscape" width="428mm" height="295mm">
  <line style="stroke: black; stroke-width: 0.7" x1="0" y1="0" x2="1024" y2="0"/>
  <line style="stroke: black; stroke-width: 0.7" x1="1024" y1="0" x2="512" y2="707"/>
  <line style="stroke: black; stroke-width: 0.7" x1="512" y1="707" x2="0" y2="0"/>
  <line style="stroke: black; stroke-width: 0.7" x1="682" y1="314" x2="512" y2="235"/>
  <line style="stroke: black; stroke-width: 0.7" x1="341" y1="314" x2="512" y2="235"/>
  <line style="stroke: black; stroke-width: 0.7" x1="512" y1="78" x2="512" y2="235"/>
  <line style="stroke: black; stroke-width: 0.7" x1="512" y1="26" x2="512" y2="78"/>
  <line style="stroke: black; stroke-width: 0.7" x1="758" y1="349" x2="739" y2="340"/>
  <line style="stroke: black; stroke-width: 0.7" x1="265" y1="349" x2="284" y2="340"/>
  <line style="stroke: black; stroke-width: 0.7" x1="512" y1="8" x2="512" y2="26"/>
  <line style="stroke: black; stroke-width: 0.7" x1="688" y1="369" x2="644" y2="453"/>
  <line style="stroke: black; stroke-width: 0.7" x1="764" y1="352" x2="758" y2="349"/>
  <line style="stroke: black; stroke-width: 0.7" x1="334" y1="369" x2="379" y2="453"/>
  <line style="stroke: black; stroke-width: 0.7" x1="259" y1="352" x2="265" y2="349"/>
  <line style="stroke: black; stroke-width: 0.7" x1="512" y1="2" x2="512" y2="8"/>
  <line style="stroke: black; stroke-width: 0.7" x1="703" y1="341" x2="688" y2="369"/>
  <line style="stroke: black; stroke-width: 0.7" x1="703" y1="341" x2="682" y2="314"/>
  <line style="stroke: black; stroke-width: 0.7" x1="703" y1="341" x2="739" y2="340"/>
  <line style="stroke: black; stroke-width: 0.7" x1="766" y1="353" x2="764" y2="352"/>
  <line style="stroke: black; stroke-width: 0.7" x1="766" y1="353" x2="512" y2="707"/>
  <line style="stroke: black; stroke-width: 0.7" x1="739" y1="340" x2="512" y2="8"/>
  <line style="stroke: black; stroke-width: 0.7" x1="319" y1="341" x2="334" y2="369"/>
  <line style="stroke: black; stroke-width: 0.7" x1="319" y1="341" x2="341" y2="314"/>
  <line style="stroke: black; stroke-width: 0.7" x1="319" y1="341" x2="284" y2="340"/>
  <line style="stroke: black; stroke-width: 0.7" x1="511" y1="537" x2="379" y2="453"/>
  <line style="stroke: black; stroke-width: 0.7" x1="511" y1="537" x2="644" y2="453"/>
  <line style="stroke: black; stroke-width: 0.7" x1="511" y1="537" x2="512" y2="707"/>
  <line style="stroke: black; stroke-width: 0.7" x1="257" y1="353" x2="259" y2="352"/>
  <line style="stroke: black; stroke-width: 0.7" x1="257" y1="353" x2="0" y2="0"/>
  <line style="stroke: black; stroke-width: 0.7" x1="284" y1="340" x2="512" y2="8"/>
  <line style="stroke: black; stroke-width: 0.7" x1="512" y1="0" x2="512" y2="2"/>
  <line style="stroke: black; stroke-width: 0.7" x1="512" y1="0" x2="1024" y2="0"/>
  <line style="stroke: black; stroke-width: 0.7" x1="512" y1="0" x2="0" y2="0"/>
  <line style="stroke: black; stroke-width: 0.7" x1="688" y1="369" x2="764" y2="352"/>
  <line style="stroke: black; stroke-width: 0.7" x1="644" y1="453" x2="766" y2="353"/>
  <line style="stroke: black; stroke-width: 0.7" x1="767" y1="353" x2="766" y2="353"/>
  <line style="stroke: black; stroke-width: 0.7" x1="767" y1="353" x2="1024" y2="0"/>
  <line style="stroke: black; stroke-width: 0.7" x1="512" y1="235" x2="512" y2="8"/>
  <line style="stroke: black; stroke-width: 0.7" x1="334" y1="369" x2="259" y2="352"/>
  <line style="stroke: black; stroke-width: 0.7" x1="511" y1="537" x2="259" y2="352"/>
  <line style="stroke: black; stroke-width: 0.7" x1="512" y1="235" x2="512" y2="8"/>
  <line style="stroke: black; stroke-width: 0.7" x1="512" y1="0" x2="766" y2="353"/>
  <line style="stroke: black; stroke-width: 0.7" x1="512" y1="0" x2="512" y2="0"/>
  <line style="stroke: black; stroke-width: 0.7" x1="512" y1="0" x2="257" y2="353"/>
  <line style="stroke: black; stroke-width: 0.7" x1="703" y1="341" x2="334" y2="369"/>
  <line style="stroke: black; stroke-width: 0.7" x1="682" y1="314" x2="334" y2="369"/>
  <line style="stroke: black; stroke-width: 0.7" x1="682" y1="314" x2="739" y2="340"/>
  <line style="stroke: black; stroke-width: 0.7" x1="703" y1="341" x2="764" y2="352"/>
  <line style="stroke: black; stroke-width: 0.7" x1="739" y1="340" x2="764" y2="352"/>
  <line style="stroke: black; stroke-width: 0.7" x1="688" y1="369" x2="766" y2="353"/>
  <line style="stroke: black; stroke-width: 0.7" x1="766" y1="353" x2="1024" y2="0"/>
  <line style="stroke: black; stroke-width: 0.7" x1="767" y1="353" x2="512" y2="0"/>
  <line style="stroke: black; stroke-width: 0.7" x1="764" y1="352" x2="512" y2="0"/>
  <line style="stroke: black; stroke-width: 0.7" x1="758" y1="349" x2="512" y2="0"/>
  <line style="stroke: black; stroke-width: 0.7" x1="739" y1="340" x2="512" y2="0"/>
  <line style="stroke: black; stroke-width: 0.7" x1="512" y1="8" x2="512" y2="0"/>
  <line style="stroke: black; stroke-width: 0.7" x1="512" y1="26" x2="512" y2="235"/>
  <line style="stroke: black; stroke-width: 0.7" x1="512" y1="235" x2="739" y2="340"/>
  <line style="stroke: black; stroke-width: 0.7" x1="319" y1="341" x2="682" y2="314"/>
  <line style="stroke: black; stroke-width: 0.7" x1="341" y1="314" x2="682" y2="314"/>
  <line style="stroke: black; stroke-width: 0.7" x1="341" y1="314" x2="284" y2="340"/>
  <line style="stroke: black; stroke-width: 0.7" x1="319" y1="341" x2="259" y2="352"/>
  <line style="stroke: black; stroke-width: 0.7" x1="284" y1="340" x2="259" y2="352"/>
  <line style="stroke: black; stroke-width: 0.7" x1="379" y1="453" x2="703" y2="341"/>
  <line style="stroke: black; stroke-width: 0.7" x1="334" y1="369" x2="511" y2="537"/>
  <line style="stroke: black; stroke-width: 0.7" x1="511" y1="537" x2="703" y2="341"/>
  <line style="stroke: black; stroke-width: 0.7" x1="644" y1="453" x2="703" y2="341"/>
  <line style="stroke: black; stroke-width: 0.7" x1="644" y1="453" x2="512" y2="707"/>
  <line style="stroke: black; stroke-width: 0.7" x1="511" y1="537" x2="0" y2="0"/>
  <line style="stroke: black; stroke-width: 0.7" x1="257" y1="353" x2="511" y2="537"/>
  <line style="stroke: black; stroke-width: 0.7" x1="259" y1="352" x2="512" y2="0"/>
  <line style="stroke: black; stroke-width: 0.7" x1="265" y1="349" x2="512" y2="0"/>
  <line style="stroke: black; stroke-width: 0.7" x1="284" y1="340" x2="512" y2="0"/>
  <line style="stroke: black; stroke-width: 0.7" x1="512" y1="8" x2="512" y2="0"/>
  <line style="stroke: black; stroke-width: 0.7" x1="512" y1="26" x2="512" y2="235"/>
  <line style="stroke: black; stroke-width: 0.7" x1="512" y1="235" x2="284" y2="340"/>
  <line style="stroke: black; stroke-width: 0.7" x1="512" y1="0" x2="0" y2="0"/>
  <line style="stroke: black; stroke-width: 0.7" x1="512" y1="0" x2="512" y2="0"/>
  <line style="stroke: black; stroke-width: 0.7" x1="256" y1="117" x2="512" y2="0"/>
  <line style="stroke: black; stroke-width: 0.7" x1="256" y1="117" x2="257" y2="353"/>
  <line style="stroke: black; stroke-width: 0.7" x1="256" y1="117" x2="0" y2="0"/>
</svg>
